M48
; DRILL file {KiCad 7.0.6} date Thu Aug 17 21:31:40 2023
; FORMAT={-:-/ absolute / inch / decimal}
; #@! TF.CreationDate,2023-08-17T21:31:40-06:00
; #@! TF.GenerationSoftware,Kicad,Pcbnew,7.0.6
; #@! TF.FileFunction,Plated,1,2,PTH
FMAT,2
INCH
; #@! TA.AperFunction,Plated,PTH,ViaDrill
T1C0.0118
; #@! TA.AperFunction,Plated,PTH,ViaDrill
T2C0.0120
; #@! TA.AperFunction,Plated,PTH,ComponentDrill
T3C0.0400
%
G90
G05
T1
X5.18Y-0.3919
X5.18Y-0.4419
X5.18Y-0.4819
X5.18Y-0.5219
X5.18Y-0.5719
X5.18Y-1.1116
X5.18Y-1.1616
X5.18Y-1.2016
X5.18Y-1.2416
X5.18Y-1.2916
X5.18Y-1.8313
X5.18Y-1.8813
X5.18Y-1.9213
X5.18Y-1.9613
X5.18Y-2.0113
X5.18Y-2.5509
X5.18Y-2.6009
X5.18Y-2.6409
X5.18Y-2.6809
X5.18Y-2.7309
X5.18Y-3.2706
X5.18Y-3.3206
X5.18Y-3.3606
X5.18Y-3.4006
X5.18Y-3.4506
X5.18Y-3.9903
X5.18Y-4.0403
X5.18Y-4.0803
X5.18Y-4.1203
X5.18Y-4.1703
X5.18Y-4.71
X5.18Y-4.76
X5.18Y-4.8
X5.18Y-4.84
X5.18Y-4.89
X5.1896Y-0.3412
X5.1896Y-1.0609
X5.1896Y-1.7806
X5.1896Y-2.5003
X5.1896Y-3.22
X5.1896Y-3.9397
X5.1896Y-4.6593
X5.2Y-0.7119
X5.2Y-1.4316
X5.2Y-2.1513
X5.2Y-2.8709
X5.2Y-3.5906
X5.2Y-4.3103
X5.2Y-5.03
X5.2087Y-0.6467
X5.2087Y-1.3664
X5.2087Y-2.0861
X5.2087Y-2.8058
X5.2087Y-3.5254
X5.2087Y-4.2451
X5.2087Y-4.9648
X5.2168Y-0.6169
X5.2168Y-1.3366
X5.2168Y-2.0563
X5.2168Y-2.7759
X5.2168Y-3.4956
X5.2168Y-4.2153
X5.2168Y-4.935
X5.2182Y-0.3691
X5.2182Y-1.0888
X5.2182Y-1.8085
X5.2182Y-2.5282
X5.2182Y-3.2479
X5.2182Y-3.9675
X5.2182Y-4.6872
X5.2195Y-0.6814
X5.2195Y-1.4011
X5.2195Y-2.1208
X5.2195Y-2.8405
X5.2195Y-3.5602
X5.2195Y-4.2798
X5.2195Y-4.9995
X5.25Y-0.3369
X5.25Y-1.0566
X5.25Y-1.7763
X5.25Y-2.4959
X5.25Y-3.2156
X5.25Y-3.9353
X5.25Y-4.655
X5.2652Y-0.4541
X5.2652Y-0.5319
X5.2652Y-1.1738
X5.2652Y-1.2516
X5.2652Y-1.8935
X5.2652Y-1.9713
X5.2652Y-2.6132
X5.2652Y-2.6909
X5.2652Y-3.3329
X5.2652Y-3.4106
X5.2652Y-4.0526
X5.2652Y-4.1303
X5.2652Y-4.7722
X5.2652Y-4.85
X5.3114Y-0.7319
X5.3114Y-1.4516
X5.3114Y-2.1713
X5.3114Y-2.8909
X5.3114Y-3.6106
X5.3114Y-4.3303
X5.3114Y-5.05
X5.33Y-0.3719
X5.33Y-1.0916
X5.33Y-1.8113
X5.33Y-2.5309
X5.33Y-3.2506
X5.33Y-3.9703
X5.33Y-4.69
X5.3429Y-0.4541
X5.3429Y-0.5319
X5.3429Y-1.1738
X5.3429Y-1.2516
X5.3429Y-1.8935
X5.3429Y-1.9713
X5.3429Y-2.6132
X5.3429Y-2.6909
X5.3429Y-3.3329
X5.3429Y-3.4106
X5.3429Y-4.0526
X5.3429Y-4.1303
X5.3429Y-4.7722
X5.3429Y-4.85
X5.345Y-0.7319
X5.345Y-1.4516
X5.345Y-2.1713
X5.345Y-2.8909
X5.345Y-3.6106
X5.345Y-4.3303
X5.345Y-5.05
X5.35Y-0.658
X5.35Y-1.3777
X5.35Y-2.0974
X5.35Y-2.8171
X5.35Y-3.5368
X5.35Y-4.2565
X5.35Y-4.9762
X5.376Y-0.7319
X5.376Y-1.4516
X5.376Y-2.1713
X5.376Y-2.8909
X5.376Y-3.6106
X5.376Y-4.3303
X5.376Y-5.05
X5.39Y-0.659
X5.39Y-1.3787
X5.39Y-2.0984
X5.39Y-2.8181
X5.39Y-3.5378
X5.39Y-4.2575
X5.39Y-4.9771
X5.405Y-0.3869
X5.405Y-1.1066
X5.405Y-1.8263
X5.405Y-2.5459
X5.405Y-3.2656
X5.405Y-3.9853
X5.405Y-4.705
X5.42Y-0.7038
X5.42Y-1.4235
X5.42Y-2.1431
X5.42Y-2.8628
X5.42Y-3.5825
X5.42Y-4.3022
X5.42Y-5.0219
X5.4207Y-0.4541
X5.4207Y-0.5319
X5.4207Y-1.1738
X5.4207Y-1.2516
X5.4207Y-1.8935
X5.4207Y-1.9713
X5.4207Y-2.6132
X5.4207Y-2.6909
X5.4207Y-3.3329
X5.4207Y-3.4106
X5.4207Y-4.0526
X5.4207Y-4.1303
X5.4207Y-4.7722
X5.4207Y-4.85
X5.4286Y-0.7334
X5.4286Y-1.4531
X5.4286Y-2.1727
X5.4286Y-2.8924
X5.4286Y-3.6121
X5.4286Y-4.3318
X5.4286Y-5.0515
X5.44Y-0.364
X5.44Y-1.0837
X5.44Y-1.8034
X5.44Y-2.5231
X5.44Y-3.2428
X5.44Y-3.9625
X5.44Y-4.6821
X5.4543Y-0.718
X5.4543Y-1.4377
X5.4543Y-2.1574
X5.4543Y-2.8771
X5.4543Y-3.5968
X5.4543Y-4.3165
X5.4543Y-5.0361
X5.4691Y-0.5909
X5.4691Y-1.3106
X5.4691Y-2.0302
X5.4691Y-2.7499
X5.4691Y-3.4696
X5.4691Y-4.1893
X5.4691Y-4.909
X5.5Y-0.699
X5.5Y-1.4187
X5.5Y-2.1384
X5.5Y-2.858
X5.5Y-3.5777
X5.5Y-4.2974
X5.5Y-5.0171
X5.5041Y-0.4374
X5.5041Y-1.1571
X5.5041Y-1.8767
X5.5041Y-2.5964
X5.5041Y-3.3161
X5.5041Y-4.0358
X5.5041Y-4.7555
X5.5726Y-0.4693
X5.5726Y-1.189
X5.5726Y-1.9087
X5.5726Y-2.6283
X5.5726Y-3.348
X5.5726Y-4.0677
X5.5726Y-4.7874
X5.5794Y-0.5579
X5.5794Y-1.2776
X5.5794Y-1.9973
X5.5794Y-2.7169
X5.5794Y-3.4366
X5.5794Y-4.1563
X5.5794Y-4.876
X5.58Y-0.349
X5.58Y-0.5897
X5.58Y-0.7119
X5.58Y-1.0687
X5.58Y-1.3094
X5.58Y-1.4316
X5.58Y-1.7884
X5.58Y-2.0291
X5.58Y-2.1513
X5.58Y-2.5081
X5.58Y-2.7488
X5.58Y-2.8709
X5.58Y-3.2278
X5.58Y-3.4685
X5.58Y-3.5906
X5.58Y-3.9475
X5.58Y-4.1882
X5.58Y-4.3103
X5.58Y-4.6671
X5.58Y-4.9079
X5.58Y-5.03
X5.5803Y-0.5261
X5.5803Y-1.2457
X5.5803Y-1.9654
X5.5803Y-2.6851
X5.5803Y-3.4048
X5.5803Y-4.1245
X5.5803Y-4.8442
X5.585Y-0.4119
X5.585Y-1.1316
X5.585Y-1.8513
X5.585Y-2.5709
X5.585Y-3.2906
X5.585Y-4.0103
X5.585Y-4.73
X5.62Y-0.3019
X5.62Y-1.0216
X5.62Y-1.7413
X5.62Y-2.4609
X5.62Y-3.1806
X5.62Y-3.9003
X5.62Y-4.62
X5.65Y-0.4519
X5.65Y-1.1716
X5.65Y-1.8913
X5.65Y-2.6109
X5.65Y-3.3306
X5.65Y-4.0503
X5.65Y-4.77
X5.66Y-0.7119
X5.66Y-1.4316
X5.66Y-2.1513
X5.66Y-2.8709
X5.66Y-3.5906
X5.66Y-4.3103
X5.66Y-5.03
X5.7Y-0.7119
X5.7Y-1.4316
X5.7Y-2.1513
X5.7Y-2.8709
X5.7Y-3.5906
X5.7Y-4.3103
X5.7Y-5.03
X5.7051Y-0.5319
X5.7051Y-1.2516
X5.7051Y-1.9713
X5.7051Y-2.6909
X5.7051Y-3.4106
X5.7051Y-4.1303
X5.7051Y-4.85
X5.7403Y-0.572
X5.7403Y-1.2917
X5.7403Y-2.0114
X5.7403Y-2.7311
X5.7403Y-3.4507
X5.7403Y-4.1704
X5.7403Y-4.8901
X5.795Y-0.3019
X5.795Y-1.0216
X5.795Y-1.7413
X5.795Y-2.4609
X5.795Y-3.1806
X5.795Y-3.9003
X5.795Y-4.62
X5.8183Y-0.7047
X5.8183Y-1.4244
X5.8183Y-2.1441
X5.8183Y-2.8638
X5.8183Y-3.5835
X5.8183Y-4.3032
X5.8183Y-5.0229
X5.82Y-0.3469
X5.82Y-0.4119
X5.82Y-1.0666
X5.82Y-1.1316
X5.82Y-1.7863
X5.82Y-1.8513
X5.82Y-2.5059
X5.82Y-2.5709
X5.82Y-3.2256
X5.82Y-3.2906
X5.82Y-3.9453
X5.82Y-4.0103
X5.82Y-4.665
X5.82Y-4.73
X5.84Y-0.7419
X5.84Y-1.4616
X5.84Y-2.1813
X5.84Y-2.9009
X5.84Y-3.6206
X5.84Y-4.3403
X5.84Y-5.06
X5.88Y-0.5614
X5.88Y-1.2811
X5.88Y-2.0008
X5.88Y-2.7205
X5.88Y-3.4402
X5.88Y-4.1599
X5.88Y-4.8796
X5.905Y-0.7569
X5.905Y-1.4766
X5.905Y-2.1963
X5.905Y-2.9159
X5.905Y-3.6356
X5.905Y-4.3553
X5.905Y-5.075
X5.9126Y-0.5219
X5.9126Y-1.2416
X5.9126Y-1.9613
X5.9126Y-2.6809
X5.9126Y-3.4006
X5.9126Y-4.1203
X5.9126Y-4.84
X5.95Y-0.4719
X5.95Y-1.1916
X5.95Y-1.9113
X5.95Y-2.6309
X5.95Y-3.3506
X5.95Y-4.0703
X5.95Y-4.79
X5.995Y-0.7505
X5.995Y-1.4702
X5.995Y-2.1898
X5.995Y-2.9095
X5.995Y-3.6292
X5.995Y-4.3489
X5.995Y-5.0686
X6.0214Y-0.4321
X6.0214Y-1.1518
X6.0214Y-1.8715
X6.0214Y-2.5912
X6.0214Y-3.3109
X6.0214Y-4.0305
X6.0214Y-4.7502
X6.025Y-0.3419
X6.025Y-1.0616
X6.025Y-1.7813
X6.025Y-2.5009
X6.025Y-3.2206
X6.025Y-3.9403
X6.025Y-4.66
X6.04Y-0.6474
X6.04Y-1.3671
X6.04Y-2.0867
X6.04Y-2.8064
X6.04Y-3.5261
X6.04Y-4.2458
X6.04Y-4.9655
X6.065Y-0.4119
X6.065Y-1.1316
X6.065Y-1.8513
X6.065Y-2.5709
X6.065Y-3.2906
X6.065Y-4.0103
X6.065Y-4.73
X6.085Y-0.6219
X6.085Y-1.3416
X6.085Y-2.0613
X6.085Y-2.7809
X6.085Y-3.5006
X6.085Y-4.2203
X6.085Y-4.94
X6.095Y-0.5519
X6.095Y-1.2716
X6.095Y-1.9913
X6.095Y-2.7109
X6.095Y-3.4306
X6.095Y-4.1503
X6.095Y-4.87
X6.0969Y-0.7047
X6.0969Y-1.4244
X6.0969Y-2.1441
X6.0969Y-2.8638
X6.0969Y-3.5835
X6.0969Y-4.3032
X6.0969Y-5.0229
X6.1Y-0.594
X6.1Y-1.3137
X6.1Y-2.0334
X6.1Y-2.7531
X6.1Y-3.4728
X6.1Y-4.1925
X6.1Y-4.9121
X6.1429Y-0.5519
X6.1429Y-1.2716
X6.1429Y-1.9913
X6.1429Y-2.7109
X6.1429Y-3.4306
X6.1429Y-4.1503
X6.1429Y-4.87
X6.165Y-0.3782
X6.165Y-1.0979
X6.165Y-1.8175
X6.165Y-2.5372
X6.165Y-3.2569
X6.165Y-3.9766
X6.165Y-4.6963
X6.17Y-0.7119
X6.17Y-1.4316
X6.17Y-2.1513
X6.17Y-2.8709
X6.17Y-3.5906
X6.17Y-4.3103
X6.17Y-5.03
X6.25Y-0.3619
X6.25Y-0.7369
X6.25Y-1.0816
X6.25Y-1.4566
X6.25Y-1.8013
X6.25Y-2.1763
X6.25Y-2.5209
X6.25Y-2.8959
X6.25Y-3.2406
X6.25Y-3.6156
X6.25Y-3.9603
X6.25Y-4.3353
X6.25Y-4.68
X6.25Y-5.055
X6.6997Y-0.3919
X6.6997Y-0.4419
X6.6997Y-0.4819
X6.6997Y-0.5219
X6.6997Y-0.5719
X6.6997Y-1.1116
X6.6997Y-1.1616
X6.6997Y-1.2016
X6.6997Y-1.2416
X6.6997Y-1.2916
X6.6997Y-1.8313
X6.6997Y-1.8813
X6.6997Y-1.9213
X6.6997Y-1.9613
X6.6997Y-2.0113
X6.6997Y-2.5509
X6.6997Y-2.6009
X6.6997Y-2.6409
X6.6997Y-2.6809
X6.6997Y-2.7309
X6.6997Y-3.2706
X6.6997Y-3.3206
X6.6997Y-3.3606
X6.6997Y-3.4006
X6.6997Y-3.4506
X6.6997Y-3.9903
X6.6997Y-4.0403
X6.6997Y-4.0803
X6.6997Y-4.1203
X6.6997Y-4.1703
X6.6997Y-4.71
X6.6997Y-4.76
X6.6997Y-4.8
X6.6997Y-4.84
X6.6997Y-4.89
X6.7093Y-0.3412
X6.7093Y-1.0609
X6.7093Y-1.7806
X6.7093Y-2.5003
X6.7093Y-3.22
X6.7093Y-3.9397
X6.7093Y-4.6593
X6.7197Y-0.7119
X6.7197Y-1.4316
X6.7197Y-2.1513
X6.7197Y-2.8709
X6.7197Y-3.5906
X6.7197Y-4.3103
X6.7197Y-5.03
X6.7284Y-0.6467
X6.7284Y-1.3664
X6.7284Y-2.0861
X6.7284Y-2.8058
X6.7284Y-3.5254
X6.7284Y-4.2451
X6.7284Y-4.9648
X6.7364Y-0.6169
X6.7364Y-1.3366
X6.7364Y-2.0563
X6.7364Y-2.7759
X6.7364Y-3.4956
X6.7364Y-4.2153
X6.7364Y-4.935
X6.7379Y-0.3691
X6.7379Y-1.0888
X6.7379Y-1.8085
X6.7379Y-2.5282
X6.7379Y-3.2479
X6.7379Y-3.9675
X6.7379Y-4.6872
X6.7392Y-0.6814
X6.7392Y-1.4011
X6.7392Y-2.1208
X6.7392Y-2.8405
X6.7392Y-3.5602
X6.7392Y-4.2798
X6.7392Y-4.9995
X6.7697Y-0.3369
X6.7697Y-1.0566
X6.7697Y-1.7763
X6.7697Y-2.4959
X6.7697Y-3.2156
X6.7697Y-3.9353
X6.7697Y-4.655
X6.7848Y-0.4541
X6.7848Y-0.5319
X6.7848Y-1.1738
X6.7848Y-1.2516
X6.7848Y-1.8935
X6.7848Y-1.9713
X6.7848Y-2.6132
X6.7848Y-2.6909
X6.7848Y-3.3329
X6.7848Y-3.4106
X6.7848Y-4.0526
X6.7848Y-4.1303
X6.7848Y-4.7722
X6.7848Y-4.85
X6.8311Y-0.7319
X6.8311Y-1.4516
X6.8311Y-2.1713
X6.8311Y-2.8909
X6.8311Y-3.6106
X6.8311Y-4.3303
X6.8311Y-5.05
X6.8497Y-0.3719
X6.8497Y-1.0916
X6.8497Y-1.8113
X6.8497Y-2.5309
X6.8497Y-3.2506
X6.8497Y-3.9703
X6.8497Y-4.69
X6.8626Y-0.4541
X6.8626Y-0.5319
X6.8626Y-1.1738
X6.8626Y-1.2516
X6.8626Y-1.8935
X6.8626Y-1.9713
X6.8626Y-2.6132
X6.8626Y-2.6909
X6.8626Y-3.3329
X6.8626Y-3.4106
X6.8626Y-4.0526
X6.8626Y-4.1303
X6.8626Y-4.7722
X6.8626Y-4.85
X6.8647Y-0.7319
X6.8647Y-1.4516
X6.8647Y-2.1713
X6.8647Y-2.8909
X6.8647Y-3.6106
X6.8647Y-4.3303
X6.8647Y-5.05
X6.8697Y-0.658
X6.8697Y-1.3777
X6.8697Y-2.0974
X6.8697Y-2.8171
X6.8697Y-3.5368
X6.8697Y-4.2565
X6.8697Y-4.9762
X6.8957Y-0.7319
X6.8957Y-1.4516
X6.8957Y-2.1713
X6.8957Y-2.8909
X6.8957Y-3.6106
X6.8957Y-4.3303
X6.8957Y-5.05
X6.9097Y-0.659
X6.9097Y-1.3787
X6.9097Y-2.0984
X6.9097Y-2.8181
X6.9097Y-3.5378
X6.9097Y-4.2575
X6.9097Y-4.9771
X6.9247Y-0.3869
X6.9247Y-1.1066
X6.9247Y-1.8263
X6.9247Y-2.5459
X6.9247Y-3.2656
X6.9247Y-3.9853
X6.9247Y-4.705
X6.9397Y-0.7038
X6.9397Y-1.4235
X6.9397Y-2.1431
X6.9397Y-2.8628
X6.9397Y-3.5825
X6.9397Y-4.3022
X6.9397Y-5.0219
X6.9404Y-0.4541
X6.9404Y-0.5319
X6.9404Y-1.1738
X6.9404Y-1.2516
X6.9404Y-1.8935
X6.9404Y-1.9713
X6.9404Y-2.6132
X6.9404Y-2.6909
X6.9404Y-3.3329
X6.9404Y-3.4106
X6.9404Y-4.0526
X6.9404Y-4.1303
X6.9404Y-4.7722
X6.9404Y-4.85
X6.9483Y-0.7334
X6.9483Y-1.4531
X6.9483Y-2.1727
X6.9483Y-2.8924
X6.9483Y-3.6121
X6.9483Y-4.3318
X6.9483Y-5.0515
X6.9597Y-0.364
X6.9597Y-1.0837
X6.9597Y-1.8034
X6.9597Y-2.5231
X6.9597Y-3.2428
X6.9597Y-3.9625
X6.9597Y-4.6821
X6.974Y-0.718
X6.974Y-1.4377
X6.974Y-2.1574
X6.974Y-2.8771
X6.974Y-3.5968
X6.974Y-4.3165
X6.974Y-5.0361
X6.9888Y-0.5909
X6.9888Y-1.3106
X6.9888Y-2.0302
X6.9888Y-2.7499
X6.9888Y-3.4696
X6.9888Y-4.1893
X6.9888Y-4.909
X7.0197Y-0.699
X7.0197Y-1.4187
X7.0197Y-2.1384
X7.0197Y-2.858
X7.0197Y-3.5777
X7.0197Y-4.2974
X7.0197Y-5.0171
X7.0238Y-0.4374
X7.0238Y-1.1571
X7.0238Y-1.8767
X7.0238Y-2.5964
X7.0238Y-3.3161
X7.0238Y-4.0358
X7.0238Y-4.7555
X7.0923Y-0.4693
X7.0923Y-1.189
X7.0923Y-1.9087
X7.0923Y-2.6283
X7.0923Y-3.348
X7.0923Y-4.0677
X7.0923Y-4.7874
X7.0991Y-0.5579
X7.0991Y-1.2776
X7.0991Y-1.9973
X7.0991Y-2.7169
X7.0991Y-3.4366
X7.0991Y-4.1563
X7.0991Y-4.876
X7.0997Y-0.349
X7.0997Y-0.5897
X7.0997Y-0.7119
X7.0997Y-1.0687
X7.0997Y-1.3094
X7.0997Y-1.4316
X7.0997Y-1.7884
X7.0997Y-2.0291
X7.0997Y-2.1513
X7.0997Y-2.5081
X7.0997Y-2.7488
X7.0997Y-2.8709
X7.0997Y-3.2278
X7.0997Y-3.4685
X7.0997Y-3.5906
X7.0997Y-3.9475
X7.0997Y-4.1882
X7.0997Y-4.3103
X7.0997Y-4.6671
X7.0997Y-4.9079
X7.0997Y-5.03
X7.1Y-0.5261
X7.1Y-1.2457
X7.1Y-1.9654
X7.1Y-2.6851
X7.1Y-3.4048
X7.1Y-4.1245
X7.1Y-4.8442
X7.1047Y-0.4119
X7.1047Y-1.1316
X7.1047Y-1.8513
X7.1047Y-2.5709
X7.1047Y-3.2906
X7.1047Y-4.0103
X7.1047Y-4.73
X7.1397Y-0.3019
X7.1397Y-1.0216
X7.1397Y-1.7413
X7.1397Y-2.4609
X7.1397Y-3.1806
X7.1397Y-3.9003
X7.1397Y-4.62
X7.1697Y-0.4519
X7.1697Y-1.1716
X7.1697Y-1.8913
X7.1697Y-2.6109
X7.1697Y-3.3306
X7.1697Y-4.0503
X7.1697Y-4.77
X7.1797Y-0.7119
X7.1797Y-1.4316
X7.1797Y-2.1513
X7.1797Y-2.8709
X7.1797Y-3.5906
X7.1797Y-4.3103
X7.1797Y-5.03
X7.2197Y-0.7119
X7.2197Y-1.4316
X7.2197Y-2.1513
X7.2197Y-2.8709
X7.2197Y-3.5906
X7.2197Y-4.3103
X7.2197Y-5.03
X7.2248Y-0.5319
X7.2248Y-1.2516
X7.2248Y-1.9713
X7.2248Y-2.6909
X7.2248Y-3.4106
X7.2248Y-4.1303
X7.2248Y-4.85
X7.26Y-0.572
X7.26Y-1.2917
X7.26Y-2.0114
X7.26Y-2.7311
X7.26Y-3.4507
X7.26Y-4.1704
X7.26Y-4.8901
X7.3147Y-0.3019
X7.3147Y-1.0216
X7.3147Y-1.7413
X7.3147Y-2.4609
X7.3147Y-3.1806
X7.3147Y-3.9003
X7.3147Y-4.62
X7.338Y-0.7047
X7.338Y-1.4244
X7.338Y-2.1441
X7.338Y-2.8638
X7.338Y-3.5835
X7.338Y-4.3032
X7.338Y-5.0229
X7.3397Y-0.3469
X7.3397Y-0.4119
X7.3397Y-1.0666
X7.3397Y-1.1316
X7.3397Y-1.7863
X7.3397Y-1.8513
X7.3397Y-2.5059
X7.3397Y-2.5709
X7.3397Y-3.2256
X7.3397Y-3.2906
X7.3397Y-3.9453
X7.3397Y-4.0103
X7.3397Y-4.665
X7.3397Y-4.73
X7.3597Y-0.7419
X7.3597Y-1.4616
X7.3597Y-2.1813
X7.3597Y-2.9009
X7.3597Y-3.6206
X7.3597Y-4.3403
X7.3597Y-5.06
X7.3997Y-0.5614
X7.3997Y-1.2811
X7.3997Y-2.0008
X7.3997Y-2.7205
X7.3997Y-3.4402
X7.3997Y-4.1599
X7.3997Y-4.8796
X7.4247Y-0.7569
X7.4247Y-1.4766
X7.4247Y-2.1963
X7.4247Y-2.9159
X7.4247Y-3.6356
X7.4247Y-4.3553
X7.4247Y-5.075
X7.4323Y-0.5219
X7.4323Y-1.2416
X7.4323Y-1.9613
X7.4323Y-2.6809
X7.4323Y-3.4006
X7.4323Y-4.1203
X7.4323Y-4.84
X7.4697Y-0.4719
X7.4697Y-1.1916
X7.4697Y-1.9113
X7.4697Y-2.6309
X7.4697Y-3.3506
X7.4697Y-4.0703
X7.4697Y-4.79
X7.5147Y-0.7505
X7.5147Y-1.4702
X7.5147Y-2.1898
X7.5147Y-2.9095
X7.5147Y-3.6292
X7.5147Y-4.3489
X7.5147Y-5.0686
X7.5411Y-0.4321
X7.5411Y-1.1518
X7.5411Y-1.8715
X7.5411Y-2.5912
X7.5411Y-3.3109
X7.5411Y-4.0305
X7.5411Y-4.7502
X7.5447Y-0.3419
X7.5447Y-1.0616
X7.5447Y-1.7813
X7.5447Y-2.5009
X7.5447Y-3.2206
X7.5447Y-3.9403
X7.5447Y-4.66
X7.5597Y-0.6474
X7.5597Y-1.3671
X7.5597Y-2.0867
X7.5597Y-2.8064
X7.5597Y-3.5261
X7.5597Y-4.2458
X7.5597Y-4.9655
X7.5847Y-0.4119
X7.5847Y-1.1316
X7.5847Y-1.8513
X7.5847Y-2.5709
X7.5847Y-3.2906
X7.5847Y-4.0103
X7.5847Y-4.73
X7.6047Y-0.6219
X7.6047Y-1.3416
X7.6047Y-2.0613
X7.6047Y-2.7809
X7.6047Y-3.5006
X7.6047Y-4.2203
X7.6047Y-4.94
X7.6147Y-0.5519
X7.6147Y-1.2716
X7.6147Y-1.9913
X7.6147Y-2.7109
X7.6147Y-3.4306
X7.6147Y-4.1503
X7.6147Y-4.87
X7.6166Y-0.7047
X7.6166Y-1.4244
X7.6166Y-2.1441
X7.6166Y-2.8638
X7.6166Y-3.5835
X7.6166Y-4.3032
X7.6166Y-5.0229
X7.6197Y-0.594
X7.6197Y-1.3137
X7.6197Y-2.0334
X7.6197Y-2.7531
X7.6197Y-3.4728
X7.6197Y-4.1925
X7.6197Y-4.9121
X7.6625Y-0.5519
X7.6625Y-1.2716
X7.6625Y-1.9913
X7.6625Y-2.7109
X7.6625Y-3.4306
X7.6625Y-4.1503
X7.6625Y-4.87
X7.6847Y-0.3782
X7.6847Y-1.0979
X7.6847Y-1.8175
X7.6847Y-2.5372
X7.6847Y-3.2569
X7.6847Y-3.9766
X7.6847Y-4.6963
X7.6897Y-0.7119
X7.6897Y-1.4316
X7.6897Y-2.1513
X7.6897Y-2.8709
X7.6897Y-3.5906
X7.6897Y-4.3103
X7.6897Y-5.03
X7.7697Y-0.3619
X7.7697Y-0.7369
X7.7697Y-1.0816
X7.7697Y-1.4566
X7.7697Y-1.8013
X7.7697Y-2.1763
X7.7697Y-2.5209
X7.7697Y-2.8959
X7.7697Y-3.2406
X7.7697Y-3.6156
X7.7697Y-3.9603
X7.7697Y-4.3353
X7.7697Y-4.68
X7.7697Y-5.055
X8.2194Y-0.3919
X8.2194Y-0.4419
X8.2194Y-0.4819
X8.2194Y-0.5219
X8.2194Y-0.5719
X8.2194Y-1.1116
X8.2194Y-1.1616
X8.2194Y-1.2016
X8.2194Y-1.2416
X8.2194Y-1.2916
X8.2194Y-1.8313
X8.2194Y-1.8813
X8.2194Y-1.9213
X8.2194Y-1.9613
X8.2194Y-2.0113
X8.2194Y-2.5509
X8.2194Y-2.6009
X8.2194Y-2.6409
X8.2194Y-2.6809
X8.2194Y-2.7309
X8.2194Y-3.2706
X8.2194Y-3.3206
X8.2194Y-3.3606
X8.2194Y-3.4006
X8.2194Y-3.4506
X8.2194Y-3.9903
X8.2194Y-4.0403
X8.2194Y-4.0803
X8.2194Y-4.1203
X8.2194Y-4.1703
X8.2194Y-4.71
X8.2194Y-4.76
X8.2194Y-4.8
X8.2194Y-4.84
X8.2194Y-4.89
X8.229Y-0.3412
X8.229Y-1.0609
X8.229Y-1.7806
X8.229Y-2.5003
X8.229Y-3.22
X8.229Y-3.9397
X8.229Y-4.6593
X8.2394Y-0.7119
X8.2394Y-1.4316
X8.2394Y-2.1513
X8.2394Y-2.8709
X8.2394Y-3.5906
X8.2394Y-4.3103
X8.2394Y-5.03
X8.2481Y-0.6467
X8.2481Y-1.3664
X8.2481Y-2.0861
X8.2481Y-2.8058
X8.2481Y-3.5254
X8.2481Y-4.2451
X8.2481Y-4.9648
X8.2561Y-0.6169
X8.2561Y-1.3366
X8.2561Y-2.0563
X8.2561Y-2.7759
X8.2561Y-3.4956
X8.2561Y-4.2153
X8.2561Y-4.935
X8.2576Y-0.3691
X8.2576Y-1.0888
X8.2576Y-1.8085
X8.2576Y-2.5282
X8.2576Y-3.2479
X8.2576Y-3.9675
X8.2576Y-4.6872
X8.2589Y-0.6814
X8.2589Y-1.4011
X8.2589Y-2.1208
X8.2589Y-2.8405
X8.2589Y-3.5602
X8.2589Y-4.2798
X8.2589Y-4.9995
X8.2894Y-0.3369
X8.2894Y-1.0566
X8.2894Y-1.7763
X8.2894Y-2.4959
X8.2894Y-3.2156
X8.2894Y-3.9353
X8.2894Y-4.655
X8.3045Y-0.4541
X8.3045Y-0.5319
X8.3045Y-1.1738
X8.3045Y-1.2516
X8.3045Y-1.8935
X8.3045Y-1.9713
X8.3045Y-2.6132
X8.3045Y-2.6909
X8.3045Y-3.3329
X8.3045Y-3.4106
X8.3045Y-4.0526
X8.3045Y-4.1303
X8.3045Y-4.7722
X8.3045Y-4.85
X8.3508Y-0.7319
X8.3508Y-1.4516
X8.3508Y-2.1713
X8.3508Y-2.8909
X8.3508Y-3.6106
X8.3508Y-4.3303
X8.3508Y-5.05
X8.3694Y-0.3719
X8.3694Y-1.0916
X8.3694Y-1.8113
X8.3694Y-2.5309
X8.3694Y-3.2506
X8.3694Y-3.9703
X8.3694Y-4.69
X8.3823Y-0.4541
X8.3823Y-0.5319
X8.3823Y-1.1738
X8.3823Y-1.2516
X8.3823Y-1.8935
X8.3823Y-1.9713
X8.3823Y-2.6132
X8.3823Y-2.6909
X8.3823Y-3.3329
X8.3823Y-3.4106
X8.3823Y-4.0526
X8.3823Y-4.1303
X8.3823Y-4.7722
X8.3823Y-4.85
X8.3844Y-0.7319
X8.3844Y-1.4516
X8.3844Y-2.1713
X8.3844Y-2.8909
X8.3844Y-3.6106
X8.3844Y-4.3303
X8.3844Y-5.05
X8.3894Y-0.658
X8.3894Y-1.3777
X8.3894Y-2.0974
X8.3894Y-2.8171
X8.3894Y-3.5368
X8.3894Y-4.2565
X8.3894Y-4.9762
X8.4154Y-0.7319
X8.4154Y-1.4516
X8.4154Y-2.1713
X8.4154Y-2.8909
X8.4154Y-3.6106
X8.4154Y-4.3303
X8.4154Y-5.05
X8.4294Y-0.659
X8.4294Y-1.3787
X8.4294Y-2.0984
X8.4294Y-2.8181
X8.4294Y-3.5378
X8.4294Y-4.2575
X8.4294Y-4.9771
X8.4444Y-0.3869
X8.4444Y-1.1066
X8.4444Y-1.8263
X8.4444Y-2.5459
X8.4444Y-3.2656
X8.4444Y-3.9853
X8.4444Y-4.705
X8.4594Y-0.7038
X8.4594Y-1.4235
X8.4594Y-2.1431
X8.4594Y-2.8628
X8.4594Y-3.5825
X8.4594Y-4.3022
X8.4594Y-5.0219
X8.46Y-0.4541
X8.46Y-0.5319
X8.46Y-1.1738
X8.46Y-1.2516
X8.46Y-1.8935
X8.46Y-1.9713
X8.46Y-2.6132
X8.46Y-2.6909
X8.46Y-3.3329
X8.46Y-3.4106
X8.46Y-4.0526
X8.46Y-4.1303
X8.46Y-4.7722
X8.46Y-4.85
X8.468Y-0.7334
X8.468Y-1.4531
X8.468Y-2.1727
X8.468Y-2.8924
X8.468Y-3.6121
X8.468Y-4.3318
X8.468Y-5.0515
X8.4794Y-0.364
X8.4794Y-1.0837
X8.4794Y-1.8034
X8.4794Y-2.5231
X8.4794Y-3.2428
X8.4794Y-3.9625
X8.4794Y-4.6821
X8.4937Y-0.718
X8.4937Y-1.4377
X8.4937Y-2.1574
X8.4937Y-2.8771
X8.4937Y-3.5968
X8.4937Y-4.3165
X8.4937Y-5.0361
X8.5084Y-0.5909
X8.5084Y-1.3106
X8.5084Y-2.0302
X8.5084Y-2.7499
X8.5084Y-3.4696
X8.5084Y-4.1893
X8.5084Y-4.909
X8.5394Y-0.699
X8.5394Y-1.4187
X8.5394Y-2.1384
X8.5394Y-2.858
X8.5394Y-3.5777
X8.5394Y-4.2974
X8.5394Y-5.0171
X8.5435Y-0.4374
X8.5435Y-1.1571
X8.5435Y-1.8767
X8.5435Y-2.5964
X8.5435Y-3.3161
X8.5435Y-4.0358
X8.5435Y-4.7555
X8.612Y-0.4693
X8.612Y-1.189
X8.612Y-1.9087
X8.612Y-2.6283
X8.612Y-3.348
X8.612Y-4.0677
X8.612Y-4.7874
X8.6188Y-0.5579
X8.6188Y-1.2776
X8.6188Y-1.9973
X8.6188Y-2.7169
X8.6188Y-3.4366
X8.6188Y-4.1563
X8.6188Y-4.876
X8.6194Y-0.349
X8.6194Y-0.5897
X8.6194Y-0.7119
X8.6194Y-1.0687
X8.6194Y-1.3094
X8.6194Y-1.4316
X8.6194Y-1.7884
X8.6194Y-2.0291
X8.6194Y-2.1513
X8.6194Y-2.5081
X8.6194Y-2.7488
X8.6194Y-2.8709
X8.6194Y-3.2278
X8.6194Y-3.4685
X8.6194Y-3.5906
X8.6194Y-3.9475
X8.6194Y-4.1882
X8.6194Y-4.3103
X8.6194Y-4.6671
X8.6194Y-4.9079
X8.6194Y-5.03
X8.6197Y-0.5261
X8.6197Y-1.2457
X8.6197Y-1.9654
X8.6197Y-2.6851
X8.6197Y-3.4048
X8.6197Y-4.1245
X8.6197Y-4.8442
X8.6244Y-0.4119
X8.6244Y-1.1316
X8.6244Y-1.8513
X8.6244Y-2.5709
X8.6244Y-3.2906
X8.6244Y-4.0103
X8.6244Y-4.73
X8.6594Y-0.3019
X8.6594Y-1.0216
X8.6594Y-1.7413
X8.6594Y-2.4609
X8.6594Y-3.1806
X8.6594Y-3.9003
X8.6594Y-4.62
X8.6894Y-0.4519
X8.6894Y-1.1716
X8.6894Y-1.8913
X8.6894Y-2.6109
X8.6894Y-3.3306
X8.6894Y-4.0503
X8.6894Y-4.77
X8.6994Y-0.7119
X8.6994Y-1.4316
X8.6994Y-2.1513
X8.6994Y-2.8709
X8.6994Y-3.5906
X8.6994Y-4.3103
X8.6994Y-5.03
X8.7394Y-0.7119
X8.7394Y-1.4316
X8.7394Y-2.1513
X8.7394Y-2.8709
X8.7394Y-3.5906
X8.7394Y-4.3103
X8.7394Y-5.03
X8.7445Y-0.5319
X8.7445Y-1.2516
X8.7445Y-1.9713
X8.7445Y-2.6909
X8.7445Y-3.4106
X8.7445Y-4.1303
X8.7445Y-4.85
X8.7797Y-0.572
X8.7797Y-1.2917
X8.7797Y-2.0114
X8.7797Y-2.7311
X8.7797Y-3.4507
X8.7797Y-4.1704
X8.7797Y-4.8901
X8.8344Y-0.3019
X8.8344Y-1.0216
X8.8344Y-1.7413
X8.8344Y-2.4609
X8.8344Y-3.1806
X8.8344Y-3.9003
X8.8344Y-4.62
X8.8576Y-0.7047
X8.8576Y-1.4244
X8.8576Y-2.1441
X8.8576Y-2.8638
X8.8576Y-3.5835
X8.8576Y-4.3032
X8.8576Y-5.0229
X8.8594Y-0.3469
X8.8594Y-0.4119
X8.8594Y-1.0666
X8.8594Y-1.1316
X8.8594Y-1.7863
X8.8594Y-1.8513
X8.8594Y-2.5059
X8.8594Y-2.5709
X8.8594Y-3.2256
X8.8594Y-3.2906
X8.8594Y-3.9453
X8.8594Y-4.0103
X8.8594Y-4.665
X8.8594Y-4.73
X8.8794Y-0.7419
X8.8794Y-1.4616
X8.8794Y-2.1813
X8.8794Y-2.9009
X8.8794Y-3.6206
X8.8794Y-4.3403
X8.8794Y-5.06
X8.9194Y-0.5614
X8.9194Y-1.2811
X8.9194Y-2.0008
X8.9194Y-2.7205
X8.9194Y-3.4402
X8.9194Y-4.1599
X8.9194Y-4.8796
X8.9444Y-0.7569
X8.9444Y-1.4766
X8.9444Y-2.1963
X8.9444Y-2.9159
X8.9444Y-3.6356
X8.9444Y-4.3553
X8.9444Y-5.075
X8.952Y-0.5219
X8.952Y-1.2416
X8.952Y-1.9613
X8.952Y-2.6809
X8.952Y-3.4006
X8.952Y-4.1203
X8.952Y-4.84
X8.9894Y-0.4719
X8.9894Y-1.1916
X8.9894Y-1.9113
X8.9894Y-2.6309
X8.9894Y-3.3506
X8.9894Y-4.0703
X8.9894Y-4.79
X9.0344Y-0.7505
X9.0344Y-1.4702
X9.0344Y-2.1898
X9.0344Y-2.9095
X9.0344Y-3.6292
X9.0344Y-4.3489
X9.0344Y-5.0686
X9.0608Y-0.4321
X9.0608Y-1.1518
X9.0608Y-1.8715
X9.0608Y-2.5912
X9.0608Y-3.3109
X9.0608Y-4.0305
X9.0608Y-4.7502
X9.0644Y-0.3419
X9.0644Y-1.0616
X9.0644Y-1.7813
X9.0644Y-2.5009
X9.0644Y-3.2206
X9.0644Y-3.9403
X9.0644Y-4.66
X9.0794Y-0.6474
X9.0794Y-1.3671
X9.0794Y-2.0867
X9.0794Y-2.8064
X9.0794Y-3.5261
X9.0794Y-4.2458
X9.0794Y-4.9655
X9.1044Y-0.4119
X9.1044Y-1.1316
X9.1044Y-1.8513
X9.1044Y-2.5709
X9.1044Y-3.2906
X9.1044Y-4.0103
X9.1044Y-4.73
X9.1244Y-0.6219
X9.1244Y-1.3416
X9.1244Y-2.0613
X9.1244Y-2.7809
X9.1244Y-3.5006
X9.1244Y-4.2203
X9.1244Y-4.94
X9.1344Y-0.5519
X9.1344Y-1.2716
X9.1344Y-1.9913
X9.1344Y-2.7109
X9.1344Y-3.4306
X9.1344Y-4.1503
X9.1344Y-4.87
X9.1362Y-0.7047
X9.1362Y-1.4244
X9.1362Y-2.1441
X9.1362Y-2.8638
X9.1362Y-3.5835
X9.1362Y-4.3032
X9.1362Y-5.0229
X9.1394Y-0.594
X9.1394Y-1.3137
X9.1394Y-2.0334
X9.1394Y-2.7531
X9.1394Y-3.4728
X9.1394Y-4.1925
X9.1394Y-4.9121
X9.1822Y-0.5519
X9.1822Y-1.2716
X9.1822Y-1.9913
X9.1822Y-2.7109
X9.1822Y-3.4306
X9.1822Y-4.1503
X9.1822Y-4.87
X9.2044Y-0.3782
X9.2044Y-1.0979
X9.2044Y-1.8175
X9.2044Y-2.5372
X9.2044Y-3.2569
X9.2044Y-3.9766
X9.2044Y-4.6963
X9.2094Y-0.7119
X9.2094Y-1.4316
X9.2094Y-2.1513
X9.2094Y-2.8709
X9.2094Y-3.5906
X9.2094Y-4.3103
X9.2094Y-5.03
X9.2894Y-0.3619
X9.2894Y-0.7369
X9.2894Y-1.0816
X9.2894Y-1.4566
X9.2894Y-1.8013
X9.2894Y-2.1763
X9.2894Y-2.5209
X9.2894Y-2.8959
X9.2894Y-3.2406
X9.2894Y-3.6156
X9.2894Y-3.9603
X9.2894Y-4.3353
X9.2894Y-4.68
X9.2894Y-5.055
X9.7391Y-0.3919
X9.7391Y-0.4419
X9.7391Y-0.4819
X9.7391Y-0.5219
X9.7391Y-0.5719
X9.7391Y-1.1116
X9.7391Y-1.1616
X9.7391Y-1.2016
X9.7391Y-1.2416
X9.7391Y-1.2916
X9.7391Y-1.8313
X9.7391Y-1.8813
X9.7391Y-1.9213
X9.7391Y-1.9613
X9.7391Y-2.0113
X9.7391Y-2.5509
X9.7391Y-2.6009
X9.7391Y-2.6409
X9.7391Y-2.6809
X9.7391Y-2.7309
X9.7391Y-3.2706
X9.7391Y-3.3206
X9.7391Y-3.3606
X9.7391Y-3.4006
X9.7391Y-3.4506
X9.7391Y-3.9903
X9.7391Y-4.0403
X9.7391Y-4.0803
X9.7391Y-4.1203
X9.7391Y-4.1703
X9.7391Y-4.71
X9.7391Y-4.76
X9.7391Y-4.8
X9.7391Y-4.84
X9.7391Y-4.89
X9.7487Y-0.3412
X9.7487Y-1.0609
X9.7487Y-1.7806
X9.7487Y-2.5003
X9.7487Y-3.22
X9.7487Y-3.9397
X9.7487Y-4.6593
X9.7591Y-0.7119
X9.7591Y-1.4316
X9.7591Y-2.1513
X9.7591Y-2.8709
X9.7591Y-3.5906
X9.7591Y-4.3103
X9.7591Y-5.03
X9.7678Y-0.6467
X9.7678Y-1.3664
X9.7678Y-2.0861
X9.7678Y-2.8058
X9.7678Y-3.5254
X9.7678Y-4.2451
X9.7678Y-4.9648
X9.7758Y-0.6169
X9.7758Y-1.3366
X9.7758Y-2.0563
X9.7758Y-2.7759
X9.7758Y-3.4956
X9.7758Y-4.2153
X9.7758Y-4.935
X9.7772Y-0.3691
X9.7772Y-1.0888
X9.7772Y-1.8085
X9.7772Y-2.5282
X9.7772Y-3.2479
X9.7772Y-3.9675
X9.7772Y-4.6872
X9.7786Y-0.6814
X9.7786Y-1.4011
X9.7786Y-2.1208
X9.7786Y-2.8405
X9.7786Y-3.5602
X9.7786Y-4.2798
X9.7786Y-4.9995
X9.8091Y-0.3369
X9.8091Y-1.0566
X9.8091Y-1.7763
X9.8091Y-2.4959
X9.8091Y-3.2156
X9.8091Y-3.9353
X9.8091Y-4.655
X9.8242Y-0.4541
X9.8242Y-0.5319
X9.8242Y-1.1738
X9.8242Y-1.2516
X9.8242Y-1.8935
X9.8242Y-1.9713
X9.8242Y-2.6132
X9.8242Y-2.6909
X9.8242Y-3.3329
X9.8242Y-3.4106
X9.8242Y-4.0526
X9.8242Y-4.1303
X9.8242Y-4.7722
X9.8242Y-4.85
X9.8705Y-0.7319
X9.8705Y-1.4516
X9.8705Y-2.1713
X9.8705Y-2.8909
X9.8705Y-3.6106
X9.8705Y-4.3303
X9.8705Y-5.05
X9.8891Y-0.3719
X9.8891Y-1.0916
X9.8891Y-1.8113
X9.8891Y-2.5309
X9.8891Y-3.2506
X9.8891Y-3.9703
X9.8891Y-4.69
X9.902Y-0.4541
X9.902Y-0.5319
X9.902Y-1.1738
X9.902Y-1.2516
X9.902Y-1.8935
X9.902Y-1.9713
X9.902Y-2.6132
X9.902Y-2.6909
X9.902Y-3.3329
X9.902Y-3.4106
X9.902Y-4.0526
X9.902Y-4.1303
X9.902Y-4.7722
X9.902Y-4.85
X9.9041Y-0.7319
X9.9041Y-1.4516
X9.9041Y-2.1713
X9.9041Y-2.8909
X9.9041Y-3.6106
X9.9041Y-4.3303
X9.9041Y-5.05
X9.9091Y-0.658
X9.9091Y-1.3777
X9.9091Y-2.0974
X9.9091Y-2.8171
X9.9091Y-3.5368
X9.9091Y-4.2565
X9.9091Y-4.9762
X9.935Y-0.7319
X9.935Y-1.4516
X9.935Y-2.1713
X9.935Y-2.8909
X9.935Y-3.6106
X9.935Y-4.3303
X9.935Y-5.05
X9.9491Y-0.659
X9.9491Y-1.3787
X9.9491Y-2.0984
X9.9491Y-2.8181
X9.9491Y-3.5378
X9.9491Y-4.2575
X9.9491Y-4.9771
X9.9641Y-0.3869
X9.9641Y-1.1066
X9.9641Y-1.8263
X9.9641Y-2.5459
X9.9641Y-3.2656
X9.9641Y-3.9853
X9.9641Y-4.705
X9.9791Y-0.7038
X9.9791Y-1.4235
X9.9791Y-2.1431
X9.9791Y-2.8628
X9.9791Y-3.5825
X9.9791Y-4.3022
X9.9791Y-5.0219
X9.9797Y-0.4541
X9.9797Y-0.5319
X9.9797Y-1.1738
X9.9797Y-1.2516
X9.9797Y-1.8935
X9.9797Y-1.9713
X9.9797Y-2.6132
X9.9797Y-2.6909
X9.9797Y-3.3329
X9.9797Y-3.4106
X9.9797Y-4.0526
X9.9797Y-4.1303
X9.9797Y-4.7722
X9.9797Y-4.85
X9.9877Y-0.7334
X9.9877Y-1.4531
X9.9877Y-2.1727
X9.9877Y-2.8924
X9.9877Y-3.6121
X9.9877Y-4.3318
X9.9877Y-5.0515
X9.9991Y-0.364
X9.9991Y-1.0837
X9.9991Y-1.8034
X9.9991Y-2.5231
X9.9991Y-3.2428
X9.9991Y-3.9625
X9.9991Y-4.6821
X10.0133Y-0.718
X10.0133Y-1.4377
X10.0133Y-2.1574
X10.0133Y-2.8771
X10.0133Y-3.5968
X10.0133Y-4.3165
X10.0133Y-5.0361
X10.0281Y-0.5909
X10.0281Y-1.3106
X10.0281Y-2.0302
X10.0281Y-2.7499
X10.0281Y-3.4696
X10.0281Y-4.1893
X10.0281Y-4.909
X10.0591Y-0.699
X10.0591Y-1.4187
X10.0591Y-2.1384
X10.0591Y-2.858
X10.0591Y-3.5777
X10.0591Y-4.2974
X10.0591Y-5.0171
X10.0632Y-0.4374
X10.0632Y-1.1571
X10.0632Y-1.8767
X10.0632Y-2.5964
X10.0632Y-3.3161
X10.0632Y-4.0358
X10.0632Y-4.7555
X10.1317Y-0.4693
X10.1317Y-1.189
X10.1317Y-1.9087
X10.1317Y-2.6283
X10.1317Y-3.348
X10.1317Y-4.0677
X10.1317Y-4.7874
X10.1385Y-0.5579
X10.1385Y-1.2776
X10.1385Y-1.9973
X10.1385Y-2.7169
X10.1385Y-3.4366
X10.1385Y-4.1563
X10.1385Y-4.876
X10.1391Y-0.349
X10.1391Y-0.5897
X10.1391Y-0.7119
X10.1391Y-1.0687
X10.1391Y-1.3094
X10.1391Y-1.4316
X10.1391Y-1.7884
X10.1391Y-2.0291
X10.1391Y-2.1513
X10.1391Y-2.5081
X10.1391Y-2.7488
X10.1391Y-2.8709
X10.1391Y-3.2278
X10.1391Y-3.4685
X10.1391Y-3.5906
X10.1391Y-3.9475
X10.1391Y-4.1882
X10.1391Y-4.3103
X10.1391Y-4.6671
X10.1391Y-4.9079
X10.1391Y-5.03
X10.1393Y-0.5261
X10.1393Y-1.2457
X10.1393Y-1.9654
X10.1393Y-2.6851
X10.1393Y-3.4048
X10.1393Y-4.1245
X10.1393Y-4.8442
X10.1441Y-0.4119
X10.1441Y-1.1316
X10.1441Y-1.8513
X10.1441Y-2.5709
X10.1441Y-3.2906
X10.1441Y-4.0103
X10.1441Y-4.73
X10.1791Y-0.3019
X10.1791Y-1.0216
X10.1791Y-1.7413
X10.1791Y-2.4609
X10.1791Y-3.1806
X10.1791Y-3.9003
X10.1791Y-4.62
X10.2091Y-0.4519
X10.2091Y-1.1716
X10.2091Y-1.8913
X10.2091Y-2.6109
X10.2091Y-3.3306
X10.2091Y-4.0503
X10.2091Y-4.77
X10.2191Y-0.7119
X10.2191Y-1.4316
X10.2191Y-2.1513
X10.2191Y-2.8709
X10.2191Y-3.5906
X10.2191Y-4.3103
X10.2191Y-5.03
X10.2591Y-0.7119
X10.2591Y-1.4316
X10.2591Y-2.1513
X10.2591Y-2.8709
X10.2591Y-3.5906
X10.2591Y-4.3103
X10.2591Y-5.03
X10.2642Y-0.5319
X10.2642Y-1.2516
X10.2642Y-1.9713
X10.2642Y-2.6909
X10.2642Y-3.4106
X10.2642Y-4.1303
X10.2642Y-4.85
X10.2994Y-0.572
X10.2994Y-1.2917
X10.2994Y-2.0114
X10.2994Y-2.7311
X10.2994Y-3.4507
X10.2994Y-4.1704
X10.2994Y-4.8901
X10.3541Y-0.3019
X10.3541Y-1.0216
X10.3541Y-1.7413
X10.3541Y-2.4609
X10.3541Y-3.1806
X10.3541Y-3.9003
X10.3541Y-4.62
X10.3773Y-0.7047
X10.3773Y-1.4244
X10.3773Y-2.1441
X10.3773Y-2.8638
X10.3773Y-3.5835
X10.3773Y-4.3032
X10.3773Y-5.0229
X10.3791Y-0.3469
X10.3791Y-0.4119
X10.3791Y-1.0666
X10.3791Y-1.1316
X10.3791Y-1.7863
X10.3791Y-1.8513
X10.3791Y-2.5059
X10.3791Y-2.5709
X10.3791Y-3.2256
X10.3791Y-3.2906
X10.3791Y-3.9453
X10.3791Y-4.0103
X10.3791Y-4.665
X10.3791Y-4.73
X10.3991Y-0.7419
X10.3991Y-1.4616
X10.3991Y-2.1813
X10.3991Y-2.9009
X10.3991Y-3.6206
X10.3991Y-4.3403
X10.3991Y-5.06
X10.4391Y-0.5614
X10.4391Y-1.2811
X10.4391Y-2.0008
X10.4391Y-2.7205
X10.4391Y-3.4402
X10.4391Y-4.1599
X10.4391Y-4.8796
X10.4641Y-0.7569
X10.4641Y-1.4766
X10.4641Y-2.1963
X10.4641Y-2.9159
X10.4641Y-3.6356
X10.4641Y-4.3553
X10.4641Y-5.075
X10.4717Y-0.5219
X10.4717Y-1.2416
X10.4717Y-1.9613
X10.4717Y-2.6809
X10.4717Y-3.4006
X10.4717Y-4.1203
X10.4717Y-4.84
X10.5091Y-0.4719
X10.5091Y-1.1916
X10.5091Y-1.9113
X10.5091Y-2.6309
X10.5091Y-3.3506
X10.5091Y-4.0703
X10.5091Y-4.79
X10.5541Y-0.7505
X10.5541Y-1.4702
X10.5541Y-2.1898
X10.5541Y-2.9095
X10.5541Y-3.6292
X10.5541Y-4.3489
X10.5541Y-5.0686
X10.5804Y-0.4321
X10.5804Y-1.1518
X10.5804Y-1.8715
X10.5804Y-2.5912
X10.5804Y-3.3109
X10.5804Y-4.0305
X10.5804Y-4.7502
X10.5841Y-0.3419
X10.5841Y-1.0616
X10.5841Y-1.7813
X10.5841Y-2.5009
X10.5841Y-3.2206
X10.5841Y-3.9403
X10.5841Y-4.66
X10.5991Y-0.6474
X10.5991Y-1.3671
X10.5991Y-2.0867
X10.5991Y-2.8064
X10.5991Y-3.5261
X10.5991Y-4.2458
X10.5991Y-4.9655
X10.6241Y-0.4119
X10.6241Y-1.1316
X10.6241Y-1.8513
X10.6241Y-2.5709
X10.6241Y-3.2906
X10.6241Y-4.0103
X10.6241Y-4.73
X10.6441Y-0.6219
X10.6441Y-1.3416
X10.6441Y-2.0613
X10.6441Y-2.7809
X10.6441Y-3.5006
X10.6441Y-4.2203
X10.6441Y-4.94
X10.6541Y-0.5519
X10.6541Y-1.2716
X10.6541Y-1.9913
X10.6541Y-2.7109
X10.6541Y-3.4306
X10.6541Y-4.1503
X10.6541Y-4.87
X10.6559Y-0.7047
X10.6559Y-1.4244
X10.6559Y-2.1441
X10.6559Y-2.8638
X10.6559Y-3.5835
X10.6559Y-4.3032
X10.6559Y-5.0229
X10.6591Y-0.594
X10.6591Y-1.3137
X10.6591Y-2.0334
X10.6591Y-2.7531
X10.6591Y-3.4728
X10.6591Y-4.1925
X10.6591Y-4.9121
X10.7019Y-0.5519
X10.7019Y-1.2716
X10.7019Y-1.9913
X10.7019Y-2.7109
X10.7019Y-3.4306
X10.7019Y-4.1503
X10.7019Y-4.87
X10.7241Y-0.3782
X10.7241Y-1.0979
X10.7241Y-1.8175
X10.7241Y-2.5372
X10.7241Y-3.2569
X10.7241Y-3.9766
X10.7241Y-4.6963
X10.7291Y-0.7119
X10.7291Y-1.4316
X10.7291Y-2.1513
X10.7291Y-2.8709
X10.7291Y-3.5906
X10.7291Y-4.3103
X10.7291Y-5.03
X10.8091Y-0.3619
X10.8091Y-0.7369
X10.8091Y-1.0816
X10.8091Y-1.4566
X10.8091Y-1.8013
X10.8091Y-2.1763
X10.8091Y-2.5209
X10.8091Y-2.8959
X10.8091Y-3.2406
X10.8091Y-3.6156
X10.8091Y-3.9603
X10.8091Y-4.3353
X10.8091Y-4.68
X10.8091Y-5.055
T2
X5.57Y-0.2919
X5.57Y-1.0116
X5.57Y-1.7313
X5.57Y-2.4509
X5.57Y-3.1706
X5.57Y-3.8903
X5.57Y-4.61
X5.711Y-0.5622
X5.711Y-1.2819
X5.711Y-2.0016
X5.711Y-2.7213
X5.711Y-3.4409
X5.711Y-4.1606
X5.711Y-4.8803
X5.7155Y-0.4991
X5.7155Y-1.2187
X5.7155Y-1.9384
X5.7155Y-2.6581
X5.7155Y-3.3778
X5.7155Y-4.0975
X5.7155Y-4.8172
X7.0897Y-0.2919
X7.0897Y-1.0116
X7.0897Y-1.7313
X7.0897Y-2.4509
X7.0897Y-3.1706
X7.0897Y-3.8903
X7.0897Y-4.61
X7.2307Y-0.5622
X7.2307Y-1.2819
X7.2307Y-2.0016
X7.2307Y-2.7213
X7.2307Y-3.4409
X7.2307Y-4.1606
X7.2307Y-4.8803
X7.2352Y-0.4991
X7.2352Y-1.2187
X7.2352Y-1.9384
X7.2352Y-2.6581
X7.2352Y-3.3778
X7.2352Y-4.0975
X7.2352Y-4.8172
X8.6094Y-0.2919
X8.6094Y-1.0116
X8.6094Y-1.7313
X8.6094Y-2.4509
X8.6094Y-3.1706
X8.6094Y-3.8903
X8.6094Y-4.61
X8.7504Y-0.5622
X8.7504Y-1.2819
X8.7504Y-2.0016
X8.7504Y-2.7213
X8.7504Y-3.4409
X8.7504Y-4.1606
X8.7504Y-4.8803
X8.7549Y-0.4991
X8.7549Y-1.2187
X8.7549Y-1.9384
X8.7549Y-2.6581
X8.7549Y-3.3778
X8.7549Y-4.0975
X8.7549Y-4.8172
X10.1291Y-0.2919
X10.1291Y-1.0116
X10.1291Y-1.7313
X10.1291Y-2.4509
X10.1291Y-3.1706
X10.1291Y-3.8903
X10.1291Y-4.61
X10.2701Y-0.5622
X10.2701Y-1.2819
X10.2701Y-2.0016
X10.2701Y-2.7213
X10.2701Y-3.4409
X10.2701Y-4.1606
X10.2701Y-4.8803
X10.2746Y-0.4991
X10.2746Y-1.2187
X10.2746Y-1.9384
X10.2746Y-2.6581
X10.2746Y-3.3778
X10.2746Y-4.0975
X10.2746Y-4.8172
T3
X5.15Y-0.2319
X5.15Y-0.8319
X5.15Y-0.9516
X5.15Y-1.5516
X5.15Y-1.6713
X5.15Y-2.2713
X5.15Y-2.3909
X5.15Y-2.9909
X5.15Y-3.1106
X5.15Y-3.7106
X5.15Y-3.8303
X5.15Y-4.4303
X5.15Y-4.55
X5.15Y-5.15
X5.25Y-0.2319
X5.25Y-0.8319
X5.25Y-0.9516
X5.25Y-1.5516
X5.25Y-1.6713
X5.25Y-2.2713
X5.25Y-2.3909
X5.25Y-2.9909
X5.25Y-3.1106
X5.25Y-3.7106
X5.25Y-3.8303
X5.25Y-4.4303
X5.25Y-4.55
X5.25Y-5.15
X5.35Y-0.2319
X5.35Y-0.8319
X5.35Y-0.9516
X5.35Y-1.5516
X5.35Y-1.6713
X5.35Y-2.2713
X5.35Y-2.3909
X5.35Y-2.9909
X5.35Y-3.1106
X5.35Y-3.7106
X5.35Y-3.8303
X5.35Y-4.4303
X5.35Y-4.55
X5.35Y-5.15
X5.45Y-0.2319
X5.45Y-0.8319
X5.45Y-0.9516
X5.45Y-1.5516
X5.45Y-1.6713
X5.45Y-2.2713
X5.45Y-2.3909
X5.45Y-2.9909
X5.45Y-3.1106
X5.45Y-3.7106
X5.45Y-3.8303
X5.45Y-4.4303
X5.45Y-4.55
X5.45Y-5.15
X5.55Y-0.2319
X5.55Y-0.8319
X5.55Y-0.9516
X5.55Y-1.5516
X5.55Y-1.6713
X5.55Y-2.2713
X5.55Y-2.3909
X5.55Y-2.9909
X5.55Y-3.1106
X5.55Y-3.7106
X5.55Y-3.8303
X5.55Y-4.4303
X5.55Y-4.55
X5.55Y-5.15
X5.65Y-0.2319
X5.65Y-0.8319
X5.65Y-0.9516
X5.65Y-1.5516
X5.65Y-1.6713
X5.65Y-2.2713
X5.65Y-2.3909
X5.65Y-2.9909
X5.65Y-3.1106
X5.65Y-3.7106
X5.65Y-3.8303
X5.65Y-4.4303
X5.65Y-4.55
X5.65Y-5.15
X5.75Y-0.2319
X5.75Y-0.8319
X5.75Y-0.9516
X5.75Y-1.5516
X5.75Y-1.6713
X5.75Y-2.2713
X5.75Y-2.3909
X5.75Y-2.9909
X5.75Y-3.1106
X5.75Y-3.7106
X5.75Y-3.8303
X5.75Y-4.4303
X5.75Y-4.55
X5.75Y-5.15
X5.85Y-0.2319
X5.85Y-0.8319
X5.85Y-0.9516
X5.85Y-1.5516
X5.85Y-1.6713
X5.85Y-2.2713
X5.85Y-2.3909
X5.85Y-2.9909
X5.85Y-3.1106
X5.85Y-3.7106
X5.85Y-3.8303
X5.85Y-4.4303
X5.85Y-4.55
X5.85Y-5.15
X5.95Y-0.2319
X5.95Y-0.8319
X5.95Y-0.9516
X5.95Y-1.5516
X5.95Y-1.6713
X5.95Y-2.2713
X5.95Y-2.3909
X5.95Y-2.9909
X5.95Y-3.1106
X5.95Y-3.7106
X5.95Y-3.8303
X5.95Y-4.4303
X5.95Y-4.55
X5.95Y-5.15
X6.05Y-0.2319
X6.05Y-0.8319
X6.05Y-0.9516
X6.05Y-1.5516
X6.05Y-1.6713
X6.05Y-2.2713
X6.05Y-2.3909
X6.05Y-2.9909
X6.05Y-3.1106
X6.05Y-3.7106
X6.05Y-3.8303
X6.05Y-4.4303
X6.05Y-4.55
X6.05Y-5.15
X6.15Y-0.2319
X6.15Y-0.8319
X6.15Y-0.9516
X6.15Y-1.5516
X6.15Y-1.6713
X6.15Y-2.2713
X6.15Y-2.3909
X6.15Y-2.9909
X6.15Y-3.1106
X6.15Y-3.7106
X6.15Y-3.8303
X6.15Y-4.4303
X6.15Y-4.55
X6.15Y-5.15
X6.25Y-0.2319
X6.25Y-0.8319
X6.25Y-0.9516
X6.25Y-1.5516
X6.25Y-1.6713
X6.25Y-2.2713
X6.25Y-2.3909
X6.25Y-2.9909
X6.25Y-3.1106
X6.25Y-3.7106
X6.25Y-3.8303
X6.25Y-4.4303
X6.25Y-4.55
X6.25Y-5.15
X6.35Y-0.2819
X6.35Y-0.3819
X6.35Y-0.4819
X6.35Y-0.5819
X6.35Y-0.6819
X6.35Y-0.7819
X6.35Y-1.0016
X6.35Y-1.1016
X6.35Y-1.2016
X6.35Y-1.3016
X6.35Y-1.4016
X6.35Y-1.5016
X6.35Y-1.7213
X6.35Y-1.8213
X6.35Y-1.9213
X6.35Y-2.0213
X6.35Y-2.1213
X6.35Y-2.2213
X6.35Y-2.4409
X6.35Y-2.5409
X6.35Y-2.6409
X6.35Y-2.7409
X6.35Y-2.8409
X6.35Y-2.9409
X6.35Y-3.1606
X6.35Y-3.2606
X6.35Y-3.3606
X6.35Y-3.4606
X6.35Y-3.5606
X6.35Y-3.6606
X6.35Y-3.8803
X6.35Y-3.9803
X6.35Y-4.0803
X6.35Y-4.1803
X6.35Y-4.2803
X6.35Y-4.3803
X6.35Y-4.6
X6.35Y-4.7
X6.35Y-4.8
X6.35Y-4.9
X6.35Y-5.0
X6.35Y-5.1
X6.6697Y-0.2319
X6.6697Y-0.8319
X6.6697Y-0.9516
X6.6697Y-1.5516
X6.6697Y-1.6713
X6.6697Y-2.2713
X6.6697Y-2.3909
X6.6697Y-2.9909
X6.6697Y-3.1106
X6.6697Y-3.7106
X6.6697Y-3.8303
X6.6697Y-4.4303
X6.6697Y-4.55
X6.6697Y-5.15
X6.7697Y-0.2319
X6.7697Y-0.8319
X6.7697Y-0.9516
X6.7697Y-1.5516
X6.7697Y-1.6713
X6.7697Y-2.2713
X6.7697Y-2.3909
X6.7697Y-2.9909
X6.7697Y-3.1106
X6.7697Y-3.7106
X6.7697Y-3.8303
X6.7697Y-4.4303
X6.7697Y-4.55
X6.7697Y-5.15
X6.8697Y-0.2319
X6.8697Y-0.8319
X6.8697Y-0.9516
X6.8697Y-1.5516
X6.8697Y-1.6713
X6.8697Y-2.2713
X6.8697Y-2.3909
X6.8697Y-2.9909
X6.8697Y-3.1106
X6.8697Y-3.7106
X6.8697Y-3.8303
X6.8697Y-4.4303
X6.8697Y-4.55
X6.8697Y-5.15
X6.9697Y-0.2319
X6.9697Y-0.8319
X6.9697Y-0.9516
X6.9697Y-1.5516
X6.9697Y-1.6713
X6.9697Y-2.2713
X6.9697Y-2.3909
X6.9697Y-2.9909
X6.9697Y-3.1106
X6.9697Y-3.7106
X6.9697Y-3.8303
X6.9697Y-4.4303
X6.9697Y-4.55
X6.9697Y-5.15
X7.0697Y-0.2319
X7.0697Y-0.8319
X7.0697Y-0.9516
X7.0697Y-1.5516
X7.0697Y-1.6713
X7.0697Y-2.2713
X7.0697Y-2.3909
X7.0697Y-2.9909
X7.0697Y-3.1106
X7.0697Y-3.7106
X7.0697Y-3.8303
X7.0697Y-4.4303
X7.0697Y-4.55
X7.0697Y-5.15
X7.1697Y-0.2319
X7.1697Y-0.8319
X7.1697Y-0.9516
X7.1697Y-1.5516
X7.1697Y-1.6713
X7.1697Y-2.2713
X7.1697Y-2.3909
X7.1697Y-2.9909
X7.1697Y-3.1106
X7.1697Y-3.7106
X7.1697Y-3.8303
X7.1697Y-4.4303
X7.1697Y-4.55
X7.1697Y-5.15
X7.2697Y-0.2319
X7.2697Y-0.8319
X7.2697Y-0.9516
X7.2697Y-1.5516
X7.2697Y-1.6713
X7.2697Y-2.2713
X7.2697Y-2.3909
X7.2697Y-2.9909
X7.2697Y-3.1106
X7.2697Y-3.7106
X7.2697Y-3.8303
X7.2697Y-4.4303
X7.2697Y-4.55
X7.2697Y-5.15
X7.3697Y-0.2319
X7.3697Y-0.8319
X7.3697Y-0.9516
X7.3697Y-1.5516
X7.3697Y-1.6713
X7.3697Y-2.2713
X7.3697Y-2.3909
X7.3697Y-2.9909
X7.3697Y-3.1106
X7.3697Y-3.7106
X7.3697Y-3.8303
X7.3697Y-4.4303
X7.3697Y-4.55
X7.3697Y-5.15
X7.4697Y-0.2319
X7.4697Y-0.8319
X7.4697Y-0.9516
X7.4697Y-1.5516
X7.4697Y-1.6713
X7.4697Y-2.2713
X7.4697Y-2.3909
X7.4697Y-2.9909
X7.4697Y-3.1106
X7.4697Y-3.7106
X7.4697Y-3.8303
X7.4697Y-4.4303
X7.4697Y-4.55
X7.4697Y-5.15
X7.5697Y-0.2319
X7.5697Y-0.8319
X7.5697Y-0.9516
X7.5697Y-1.5516
X7.5697Y-1.6713
X7.5697Y-2.2713
X7.5697Y-2.3909
X7.5697Y-2.9909
X7.5697Y-3.1106
X7.5697Y-3.7106
X7.5697Y-3.8303
X7.5697Y-4.4303
X7.5697Y-4.55
X7.5697Y-5.15
X7.6697Y-0.2319
X7.6697Y-0.8319
X7.6697Y-0.9516
X7.6697Y-1.5516
X7.6697Y-1.6713
X7.6697Y-2.2713
X7.6697Y-2.3909
X7.6697Y-2.9909
X7.6697Y-3.1106
X7.6697Y-3.7106
X7.6697Y-3.8303
X7.6697Y-4.4303
X7.6697Y-4.55
X7.6697Y-5.15
X7.7697Y-0.2319
X7.7697Y-0.8319
X7.7697Y-0.9516
X7.7697Y-1.5516
X7.7697Y-1.6713
X7.7697Y-2.2713
X7.7697Y-2.3909
X7.7697Y-2.9909
X7.7697Y-3.1106
X7.7697Y-3.7106
X7.7697Y-3.8303
X7.7697Y-4.4303
X7.7697Y-4.55
X7.7697Y-5.15
X7.8697Y-0.2819
X7.8697Y-0.3819
X7.8697Y-0.4819
X7.8697Y-0.5819
X7.8697Y-0.6819
X7.8697Y-0.7819
X7.8697Y-1.0016
X7.8697Y-1.1016
X7.8697Y-1.2016
X7.8697Y-1.3016
X7.8697Y-1.4016
X7.8697Y-1.5016
X7.8697Y-1.7213
X7.8697Y-1.8213
X7.8697Y-1.9213
X7.8697Y-2.0213
X7.8697Y-2.1213
X7.8697Y-2.2213
X7.8697Y-2.4409
X7.8697Y-2.5409
X7.8697Y-2.6409
X7.8697Y-2.7409
X7.8697Y-2.8409
X7.8697Y-2.9409
X7.8697Y-3.1606
X7.8697Y-3.2606
X7.8697Y-3.3606
X7.8697Y-3.4606
X7.8697Y-3.5606
X7.8697Y-3.6606
X7.8697Y-3.8803
X7.8697Y-3.9803
X7.8697Y-4.0803
X7.8697Y-4.1803
X7.8697Y-4.2803
X7.8697Y-4.3803
X7.8697Y-4.6
X7.8697Y-4.7
X7.8697Y-4.8
X7.8697Y-4.9
X7.8697Y-5.0
X7.8697Y-5.1
X8.1894Y-0.2319
X8.1894Y-0.8319
X8.1894Y-0.9516
X8.1894Y-1.5516
X8.1894Y-1.6713
X8.1894Y-2.2713
X8.1894Y-2.3909
X8.1894Y-2.9909
X8.1894Y-3.1106
X8.1894Y-3.7106
X8.1894Y-3.8303
X8.1894Y-4.4303
X8.1894Y-4.55
X8.1894Y-5.15
X8.2894Y-0.2319
X8.2894Y-0.8319
X8.2894Y-0.9516
X8.2894Y-1.5516
X8.2894Y-1.6713
X8.2894Y-2.2713
X8.2894Y-2.3909
X8.2894Y-2.9909
X8.2894Y-3.1106
X8.2894Y-3.7106
X8.2894Y-3.8303
X8.2894Y-4.4303
X8.2894Y-4.55
X8.2894Y-5.15
X8.3894Y-0.2319
X8.3894Y-0.8319
X8.3894Y-0.9516
X8.3894Y-1.5516
X8.3894Y-1.6713
X8.3894Y-2.2713
X8.3894Y-2.3909
X8.3894Y-2.9909
X8.3894Y-3.1106
X8.3894Y-3.7106
X8.3894Y-3.8303
X8.3894Y-4.4303
X8.3894Y-4.55
X8.3894Y-5.15
X8.4894Y-0.2319
X8.4894Y-0.8319
X8.4894Y-0.9516
X8.4894Y-1.5516
X8.4894Y-1.6713
X8.4894Y-2.2713
X8.4894Y-2.3909
X8.4894Y-2.9909
X8.4894Y-3.1106
X8.4894Y-3.7106
X8.4894Y-3.8303
X8.4894Y-4.4303
X8.4894Y-4.55
X8.4894Y-5.15
X8.5894Y-0.2319
X8.5894Y-0.8319
X8.5894Y-0.9516
X8.5894Y-1.5516
X8.5894Y-1.6713
X8.5894Y-2.2713
X8.5894Y-2.3909
X8.5894Y-2.9909
X8.5894Y-3.1106
X8.5894Y-3.7106
X8.5894Y-3.8303
X8.5894Y-4.4303
X8.5894Y-4.55
X8.5894Y-5.15
X8.6894Y-0.2319
X8.6894Y-0.8319
X8.6894Y-0.9516
X8.6894Y-1.5516
X8.6894Y-1.6713
X8.6894Y-2.2713
X8.6894Y-2.3909
X8.6894Y-2.9909
X8.6894Y-3.1106
X8.6894Y-3.7106
X8.6894Y-3.8303
X8.6894Y-4.4303
X8.6894Y-4.55
X8.6894Y-5.15
X8.7894Y-0.2319
X8.7894Y-0.8319
X8.7894Y-0.9516
X8.7894Y-1.5516
X8.7894Y-1.6713
X8.7894Y-2.2713
X8.7894Y-2.3909
X8.7894Y-2.9909
X8.7894Y-3.1106
X8.7894Y-3.7106
X8.7894Y-3.8303
X8.7894Y-4.4303
X8.7894Y-4.55
X8.7894Y-5.15
X8.8894Y-0.2319
X8.8894Y-0.8319
X8.8894Y-0.9516
X8.8894Y-1.5516
X8.8894Y-1.6713
X8.8894Y-2.2713
X8.8894Y-2.3909
X8.8894Y-2.9909
X8.8894Y-3.1106
X8.8894Y-3.7106
X8.8894Y-3.8303
X8.8894Y-4.4303
X8.8894Y-4.55
X8.8894Y-5.15
X8.9894Y-0.2319
X8.9894Y-0.8319
X8.9894Y-0.9516
X8.9894Y-1.5516
X8.9894Y-1.6713
X8.9894Y-2.2713
X8.9894Y-2.3909
X8.9894Y-2.9909
X8.9894Y-3.1106
X8.9894Y-3.7106
X8.9894Y-3.8303
X8.9894Y-4.4303
X8.9894Y-4.55
X8.9894Y-5.15
X9.0894Y-0.2319
X9.0894Y-0.8319
X9.0894Y-0.9516
X9.0894Y-1.5516
X9.0894Y-1.6713
X9.0894Y-2.2713
X9.0894Y-2.3909
X9.0894Y-2.9909
X9.0894Y-3.1106
X9.0894Y-3.7106
X9.0894Y-3.8303
X9.0894Y-4.4303
X9.0894Y-4.55
X9.0894Y-5.15
X9.1894Y-0.2319
X9.1894Y-0.8319
X9.1894Y-0.9516
X9.1894Y-1.5516
X9.1894Y-1.6713
X9.1894Y-2.2713
X9.1894Y-2.3909
X9.1894Y-2.9909
X9.1894Y-3.1106
X9.1894Y-3.7106
X9.1894Y-3.8303
X9.1894Y-4.4303
X9.1894Y-4.55
X9.1894Y-5.15
X9.2894Y-0.2319
X9.2894Y-0.8319
X9.2894Y-0.9516
X9.2894Y-1.5516
X9.2894Y-1.6713
X9.2894Y-2.2713
X9.2894Y-2.3909
X9.2894Y-2.9909
X9.2894Y-3.1106
X9.2894Y-3.7106
X9.2894Y-3.8303
X9.2894Y-4.4303
X9.2894Y-4.55
X9.2894Y-5.15
X9.3894Y-0.2819
X9.3894Y-0.3819
X9.3894Y-0.4819
X9.3894Y-0.5819
X9.3894Y-0.6819
X9.3894Y-0.7819
X9.3894Y-1.0016
X9.3894Y-1.1016
X9.3894Y-1.2016
X9.3894Y-1.3016
X9.3894Y-1.4016
X9.3894Y-1.5016
X9.3894Y-1.7213
X9.3894Y-1.8213
X9.3894Y-1.9213
X9.3894Y-2.0213
X9.3894Y-2.1213
X9.3894Y-2.2213
X9.3894Y-2.4409
X9.3894Y-2.5409
X9.3894Y-2.6409
X9.3894Y-2.7409
X9.3894Y-2.8409
X9.3894Y-2.9409
X9.3894Y-3.1606
X9.3894Y-3.2606
X9.3894Y-3.3606
X9.3894Y-3.4606
X9.3894Y-3.5606
X9.3894Y-3.6606
X9.3894Y-3.8803
X9.3894Y-3.9803
X9.3894Y-4.0803
X9.3894Y-4.1803
X9.3894Y-4.2803
X9.3894Y-4.3803
X9.3894Y-4.6
X9.3894Y-4.7
X9.3894Y-4.8
X9.3894Y-4.9
X9.3894Y-5.0
X9.3894Y-5.1
X9.7091Y-0.2319
X9.7091Y-0.8319
X9.7091Y-0.9516
X9.7091Y-1.5516
X9.7091Y-1.6713
X9.7091Y-2.2713
X9.7091Y-2.3909
X9.7091Y-2.9909
X9.7091Y-3.1106
X9.7091Y-3.7106
X9.7091Y-3.8303
X9.7091Y-4.4303
X9.7091Y-4.55
X9.7091Y-5.15
X9.8091Y-0.2319
X9.8091Y-0.8319
X9.8091Y-0.9516
X9.8091Y-1.5516
X9.8091Y-1.6713
X9.8091Y-2.2713
X9.8091Y-2.3909
X9.8091Y-2.9909
X9.8091Y-3.1106
X9.8091Y-3.7106
X9.8091Y-3.8303
X9.8091Y-4.4303
X9.8091Y-4.55
X9.8091Y-5.15
X9.9091Y-0.2319
X9.9091Y-0.8319
X9.9091Y-0.9516
X9.9091Y-1.5516
X9.9091Y-1.6713
X9.9091Y-2.2713
X9.9091Y-2.3909
X9.9091Y-2.9909
X9.9091Y-3.1106
X9.9091Y-3.7106
X9.9091Y-3.8303
X9.9091Y-4.4303
X9.9091Y-4.55
X9.9091Y-5.15
X10.0091Y-0.2319
X10.0091Y-0.8319
X10.0091Y-0.9516
X10.0091Y-1.5516
X10.0091Y-1.6713
X10.0091Y-2.2713
X10.0091Y-2.3909
X10.0091Y-2.9909
X10.0091Y-3.1106
X10.0091Y-3.7106
X10.0091Y-3.8303
X10.0091Y-4.4303
X10.0091Y-4.55
X10.0091Y-5.15
X10.1091Y-0.2319
X10.1091Y-0.8319
X10.1091Y-0.9516
X10.1091Y-1.5516
X10.1091Y-1.6713
X10.1091Y-2.2713
X10.1091Y-2.3909
X10.1091Y-2.9909
X10.1091Y-3.1106
X10.1091Y-3.7106
X10.1091Y-3.8303
X10.1091Y-4.4303
X10.1091Y-4.55
X10.1091Y-5.15
X10.2091Y-0.2319
X10.2091Y-0.8319
X10.2091Y-0.9516
X10.2091Y-1.5516
X10.2091Y-1.6713
X10.2091Y-2.2713
X10.2091Y-2.3909
X10.2091Y-2.9909
X10.2091Y-3.1106
X10.2091Y-3.7106
X10.2091Y-3.8303
X10.2091Y-4.4303
X10.2091Y-4.55
X10.2091Y-5.15
X10.3091Y-0.2319
X10.3091Y-0.8319
X10.3091Y-0.9516
X10.3091Y-1.5516
X10.3091Y-1.6713
X10.3091Y-2.2713
X10.3091Y-2.3909
X10.3091Y-2.9909
X10.3091Y-3.1106
X10.3091Y-3.7106
X10.3091Y-3.8303
X10.3091Y-4.4303
X10.3091Y-4.55
X10.3091Y-5.15
X10.4091Y-0.2319
X10.4091Y-0.8319
X10.4091Y-0.9516
X10.4091Y-1.5516
X10.4091Y-1.6713
X10.4091Y-2.2713
X10.4091Y-2.3909
X10.4091Y-2.9909
X10.4091Y-3.1106
X10.4091Y-3.7106
X10.4091Y-3.8303
X10.4091Y-4.4303
X10.4091Y-4.55
X10.4091Y-5.15
X10.5091Y-0.2319
X10.5091Y-0.8319
X10.5091Y-0.9516
X10.5091Y-1.5516
X10.5091Y-1.6713
X10.5091Y-2.2713
X10.5091Y-2.3909
X10.5091Y-2.9909
X10.5091Y-3.1106
X10.5091Y-3.7106
X10.5091Y-3.8303
X10.5091Y-4.4303
X10.5091Y-4.55
X10.5091Y-5.15
X10.6091Y-0.2319
X10.6091Y-0.8319
X10.6091Y-0.9516
X10.6091Y-1.5516
X10.6091Y-1.6713
X10.6091Y-2.2713
X10.6091Y-2.3909
X10.6091Y-2.9909
X10.6091Y-3.1106
X10.6091Y-3.7106
X10.6091Y-3.8303
X10.6091Y-4.4303
X10.6091Y-4.55
X10.6091Y-5.15
X10.7091Y-0.2319
X10.7091Y-0.8319
X10.7091Y-0.9516
X10.7091Y-1.5516
X10.7091Y-1.6713
X10.7091Y-2.2713
X10.7091Y-2.3909
X10.7091Y-2.9909
X10.7091Y-3.1106
X10.7091Y-3.7106
X10.7091Y-3.8303
X10.7091Y-4.4303
X10.7091Y-4.55
X10.7091Y-5.15
X10.8091Y-0.2319
X10.8091Y-0.8319
X10.8091Y-0.9516
X10.8091Y-1.5516
X10.8091Y-1.6713
X10.8091Y-2.2713
X10.8091Y-2.3909
X10.8091Y-2.9909
X10.8091Y-3.1106
X10.8091Y-3.7106
X10.8091Y-3.8303
X10.8091Y-4.4303
X10.8091Y-4.55
X10.8091Y-5.15
X10.9091Y-0.2819
X10.9091Y-0.3819
X10.9091Y-0.4819
X10.9091Y-0.5819
X10.9091Y-0.6819
X10.9091Y-0.7819
X10.9091Y-1.0016
X10.9091Y-1.1016
X10.9091Y-1.2016
X10.9091Y-1.3016
X10.9091Y-1.4016
X10.9091Y-1.5016
X10.9091Y-1.7213
X10.9091Y-1.8213
X10.9091Y-1.9213
X10.9091Y-2.0213
X10.9091Y-2.1213
X10.9091Y-2.2213
X10.9091Y-2.4409
X10.9091Y-2.5409
X10.9091Y-2.6409
X10.9091Y-2.7409
X10.9091Y-2.8409
X10.9091Y-2.9409
X10.9091Y-3.1606
X10.9091Y-3.2606
X10.9091Y-3.3606
X10.9091Y-3.4606
X10.9091Y-3.5606
X10.9091Y-3.6606
X10.9091Y-3.8803
X10.9091Y-3.9803
X10.9091Y-4.0803
X10.9091Y-4.1803
X10.9091Y-4.2803
X10.9091Y-4.3803
X10.9091Y-4.6
X10.9091Y-4.7
X10.9091Y-4.8
X10.9091Y-4.9
X10.9091Y-5.0
X10.9091Y-5.1
T0
M30
