%TF.GenerationSoftware,KiCad,Pcbnew,7.0.6*%
%TF.CreationDate,2023-08-17T21:31:53-06:00*%
%TF.ProjectId,SparkFun_Pro_Mini-ESP32_panelized,53706172-6b46-4756-9e5f-50726f5f4d69,rev?*%
%TF.SameCoordinates,Original*%
%TF.FileFunction,Soldermask,Top*%
%TF.FilePolarity,Negative*%
%FSLAX46Y46*%
G04 Gerber Fmt 4.6, Leading zero omitted, Abs format (unit mm)*
G04 Created by KiCad (PCBNEW 7.0.6) date 2023-08-17 21:31:53*
%MOMM*%
%LPD*%
G01*
G04 APERTURE LIST*
G04 Aperture macros list*
%AMRoundRect*
0 Rectangle with rounded corners*
0 $1 Rounding radius*
0 $2 $3 $4 $5 $6 $7 $8 $9 X,Y pos of 4 corners*
0 Add a 4 corners polygon primitive as box body*
4,1,4,$2,$3,$4,$5,$6,$7,$8,$9,$2,$3,0*
0 Add four circle primitives for the rounded corners*
1,1,$1+$1,$2,$3*
1,1,$1+$1,$4,$5*
1,1,$1+$1,$6,$7*
1,1,$1+$1,$8,$9*
0 Add four rect primitives between the rounded corners*
20,1,$1+$1,$2,$3,$4,$5,0*
20,1,$1+$1,$4,$5,$6,$7,0*
20,1,$1+$1,$6,$7,$8,$9,0*
20,1,$1+$1,$8,$9,$2,$3,0*%
G04 Aperture macros list end*
%ADD10RoundRect,0.101600X0.200000X0.400000X-0.200000X0.400000X-0.200000X-0.400000X0.200000X-0.400000X0*%
%ADD11RoundRect,0.101600X0.400000X-0.200000X0.400000X0.200000X-0.400000X0.200000X-0.400000X-0.200000X0*%
%ADD12RoundRect,0.101600X0.725000X-0.725000X0.725000X0.725000X-0.725000X0.725000X-0.725000X-0.725000X0*%
%ADD13RoundRect,0.101600X0.350000X-0.350000X0.350000X0.350000X-0.350000X0.350000X-0.350000X-0.350000X0*%
%ADD14RoundRect,0.225000X-0.225000X-0.250000X0.225000X-0.250000X0.225000X0.250000X-0.225000X0.250000X0*%
%ADD15RoundRect,0.200000X0.200000X0.275000X-0.200000X0.275000X-0.200000X-0.275000X0.200000X-0.275000X0*%
%ADD16RoundRect,0.218750X0.256250X-0.218750X0.256250X0.218750X-0.256250X0.218750X-0.256250X-0.218750X0*%
%ADD17C,3.000000*%
%ADD18RoundRect,0.101600X-0.275000X-0.600000X0.275000X-0.600000X0.275000X0.600000X-0.275000X0.600000X0*%
%ADD19RoundRect,0.225000X0.225000X0.250000X-0.225000X0.250000X-0.225000X-0.250000X0.225000X-0.250000X0*%
%ADD20C,2.082800*%
%ADD21RoundRect,0.101600X-0.450000X-0.500000X0.450000X-0.500000X0.450000X0.500000X-0.450000X0.500000X0*%
%ADD22RoundRect,0.101600X0.675000X-0.300000X0.675000X0.300000X-0.675000X0.300000X-0.675000X-0.300000X0*%
%ADD23RoundRect,0.101600X1.000000X-0.600000X1.000000X0.600000X-1.000000X0.600000X-1.000000X-0.600000X0*%
%ADD24RoundRect,0.101600X0.450000X0.500000X-0.450000X0.500000X-0.450000X-0.500000X0.450000X-0.500000X0*%
G04 APERTURE END LIST*
D10*
%TO.C,U1*%
X131710000Y-129090000D03*
X132510000Y-129090000D03*
X133310000Y-129090000D03*
X134110000Y-129090000D03*
X134910000Y-129090000D03*
X135710000Y-129090000D03*
X136510000Y-129090000D03*
X137310000Y-129090000D03*
X138110000Y-129090000D03*
X138910000Y-129090000D03*
X139710000Y-129090000D03*
D11*
X140610000Y-127990000D03*
X140610000Y-127190000D03*
X140610000Y-126390000D03*
X140610000Y-125590000D03*
X140610000Y-124790000D03*
X140610000Y-123990000D03*
X140610000Y-123190000D03*
X140610000Y-122390000D03*
X140610000Y-121590000D03*
X140610000Y-120790000D03*
X140610000Y-119990000D03*
X140610000Y-119190000D03*
X140610000Y-118390000D03*
D10*
X139710000Y-117290000D03*
X138910000Y-117290000D03*
X138110000Y-117290000D03*
X137310000Y-117290000D03*
X136510000Y-117290000D03*
X135710000Y-117290000D03*
X134910000Y-117290000D03*
X134110000Y-117290000D03*
X133310000Y-117290000D03*
X132510000Y-117290000D03*
X131710000Y-117290000D03*
D11*
X130810000Y-118390000D03*
X130810000Y-119190000D03*
X130810000Y-119990000D03*
X130810000Y-120790000D03*
X130810000Y-121590000D03*
X130810000Y-122390000D03*
X130810000Y-123190000D03*
X130810000Y-123990000D03*
X130810000Y-124790000D03*
X130810000Y-125590000D03*
X130810000Y-126390000D03*
X130810000Y-127190000D03*
X130810000Y-127990000D03*
D12*
X133735000Y-125165000D03*
X135710000Y-125165000D03*
X137685000Y-125165000D03*
X137685000Y-123190000D03*
X137685000Y-121215000D03*
X135710000Y-121215000D03*
X133735000Y-121215000D03*
X133735000Y-123190000D03*
X135710000Y-123190000D03*
D13*
X130760000Y-117240000D03*
X140660000Y-117240000D03*
X140660000Y-129140000D03*
X130760000Y-129140000D03*
%TD*%
D10*
%TO.C,U1*%
X131710000Y-37690000D03*
X132510000Y-37690000D03*
X133310000Y-37690000D03*
X134110000Y-37690000D03*
X134910000Y-37690000D03*
X135710000Y-37690000D03*
X136510000Y-37690000D03*
X137310000Y-37690000D03*
X138110000Y-37690000D03*
X138910000Y-37690000D03*
X139710000Y-37690000D03*
D11*
X140610000Y-36590000D03*
X140610000Y-35790000D03*
X140610000Y-34990000D03*
X140610000Y-34190000D03*
X140610000Y-33390000D03*
X140610000Y-32590000D03*
X140610000Y-31790000D03*
X140610000Y-30990000D03*
X140610000Y-30190000D03*
X140610000Y-29390000D03*
X140610000Y-28590000D03*
X140610000Y-27790000D03*
X140610000Y-26990000D03*
D10*
X139710000Y-25890000D03*
X138910000Y-25890000D03*
X138110000Y-25890000D03*
X137310000Y-25890000D03*
X136510000Y-25890000D03*
X135710000Y-25890000D03*
X134910000Y-25890000D03*
X134110000Y-25890000D03*
X133310000Y-25890000D03*
X132510000Y-25890000D03*
X131710000Y-25890000D03*
D11*
X130810000Y-26990000D03*
X130810000Y-27790000D03*
X130810000Y-28590000D03*
X130810000Y-29390000D03*
X130810000Y-30190000D03*
X130810000Y-30990000D03*
X130810000Y-31790000D03*
X130810000Y-32590000D03*
X130810000Y-33390000D03*
X130810000Y-34190000D03*
X130810000Y-34990000D03*
X130810000Y-35790000D03*
X130810000Y-36590000D03*
D12*
X133735000Y-33765000D03*
X135710000Y-33765000D03*
X137685000Y-33765000D03*
X137685000Y-31790000D03*
X137685000Y-29815000D03*
X135710000Y-29815000D03*
X133735000Y-29815000D03*
X133735000Y-31790000D03*
X135710000Y-31790000D03*
D13*
X130760000Y-25840000D03*
X140660000Y-25840000D03*
X140660000Y-37740000D03*
X130760000Y-37740000D03*
%TD*%
D10*
%TO.C,U1*%
X170310000Y-129090000D03*
X171110000Y-129090000D03*
X171910000Y-129090000D03*
X172710000Y-129090000D03*
X173510000Y-129090000D03*
X174310000Y-129090000D03*
X175110000Y-129090000D03*
X175910000Y-129090000D03*
X176710000Y-129090000D03*
X177510000Y-129090000D03*
X178310000Y-129090000D03*
D11*
X179210000Y-127990000D03*
X179210000Y-127190000D03*
X179210000Y-126390000D03*
X179210000Y-125590000D03*
X179210000Y-124790000D03*
X179210000Y-123990000D03*
X179210000Y-123190000D03*
X179210000Y-122390000D03*
X179210000Y-121590000D03*
X179210000Y-120790000D03*
X179210000Y-119990000D03*
X179210000Y-119190000D03*
X179210000Y-118390000D03*
D10*
X178310000Y-117290000D03*
X177510000Y-117290000D03*
X176710000Y-117290000D03*
X175910000Y-117290000D03*
X175110000Y-117290000D03*
X174310000Y-117290000D03*
X173510000Y-117290000D03*
X172710000Y-117290000D03*
X171910000Y-117290000D03*
X171110000Y-117290000D03*
X170310000Y-117290000D03*
D11*
X169410000Y-118390000D03*
X169410000Y-119190000D03*
X169410000Y-119990000D03*
X169410000Y-120790000D03*
X169410000Y-121590000D03*
X169410000Y-122390000D03*
X169410000Y-123190000D03*
X169410000Y-123990000D03*
X169410000Y-124790000D03*
X169410000Y-125590000D03*
X169410000Y-126390000D03*
X169410000Y-127190000D03*
X169410000Y-127990000D03*
D12*
X172335000Y-125165000D03*
X174310000Y-125165000D03*
X176285000Y-125165000D03*
X176285000Y-123190000D03*
X176285000Y-121215000D03*
X174310000Y-121215000D03*
X172335000Y-121215000D03*
X172335000Y-123190000D03*
X174310000Y-123190000D03*
D13*
X169360000Y-117240000D03*
X179260000Y-117240000D03*
X179260000Y-129140000D03*
X169360000Y-129140000D03*
%TD*%
D10*
%TO.C,U1*%
X131710000Y-110810000D03*
X132510000Y-110810000D03*
X133310000Y-110810000D03*
X134110000Y-110810000D03*
X134910000Y-110810000D03*
X135710000Y-110810000D03*
X136510000Y-110810000D03*
X137310000Y-110810000D03*
X138110000Y-110810000D03*
X138910000Y-110810000D03*
X139710000Y-110810000D03*
D11*
X140610000Y-109710000D03*
X140610000Y-108910000D03*
X140610000Y-108110000D03*
X140610000Y-107310000D03*
X140610000Y-106510000D03*
X140610000Y-105710000D03*
X140610000Y-104910000D03*
X140610000Y-104110000D03*
X140610000Y-103310000D03*
X140610000Y-102510000D03*
X140610000Y-101710000D03*
X140610000Y-100910000D03*
X140610000Y-100110000D03*
D10*
X139710000Y-99010000D03*
X138910000Y-99010000D03*
X138110000Y-99010000D03*
X137310000Y-99010000D03*
X136510000Y-99010000D03*
X135710000Y-99010000D03*
X134910000Y-99010000D03*
X134110000Y-99010000D03*
X133310000Y-99010000D03*
X132510000Y-99010000D03*
X131710000Y-99010000D03*
D11*
X130810000Y-100110000D03*
X130810000Y-100910000D03*
X130810000Y-101710000D03*
X130810000Y-102510000D03*
X130810000Y-103310000D03*
X130810000Y-104110000D03*
X130810000Y-104910000D03*
X130810000Y-105710000D03*
X130810000Y-106510000D03*
X130810000Y-107310000D03*
X130810000Y-108110000D03*
X130810000Y-108910000D03*
X130810000Y-109710000D03*
D12*
X133735000Y-106885000D03*
X135710000Y-106885000D03*
X137685000Y-106885000D03*
X137685000Y-104910000D03*
X137685000Y-102935000D03*
X135710000Y-102935000D03*
X133735000Y-102935000D03*
X133735000Y-104910000D03*
X135710000Y-104910000D03*
D13*
X130760000Y-98960000D03*
X140660000Y-98960000D03*
X140660000Y-110860000D03*
X130760000Y-110860000D03*
%TD*%
D10*
%TO.C,U1*%
X131710000Y-92530000D03*
X132510000Y-92530000D03*
X133310000Y-92530000D03*
X134110000Y-92530000D03*
X134910000Y-92530000D03*
X135710000Y-92530000D03*
X136510000Y-92530000D03*
X137310000Y-92530000D03*
X138110000Y-92530000D03*
X138910000Y-92530000D03*
X139710000Y-92530000D03*
D11*
X140610000Y-91430000D03*
X140610000Y-90630000D03*
X140610000Y-89830000D03*
X140610000Y-89030000D03*
X140610000Y-88230000D03*
X140610000Y-87430000D03*
X140610000Y-86630000D03*
X140610000Y-85830000D03*
X140610000Y-85030000D03*
X140610000Y-84230000D03*
X140610000Y-83430000D03*
X140610000Y-82630000D03*
X140610000Y-81830000D03*
D10*
X139710000Y-80730000D03*
X138910000Y-80730000D03*
X138110000Y-80730000D03*
X137310000Y-80730000D03*
X136510000Y-80730000D03*
X135710000Y-80730000D03*
X134910000Y-80730000D03*
X134110000Y-80730000D03*
X133310000Y-80730000D03*
X132510000Y-80730000D03*
X131710000Y-80730000D03*
D11*
X130810000Y-81830000D03*
X130810000Y-82630000D03*
X130810000Y-83430000D03*
X130810000Y-84230000D03*
X130810000Y-85030000D03*
X130810000Y-85830000D03*
X130810000Y-86630000D03*
X130810000Y-87430000D03*
X130810000Y-88230000D03*
X130810000Y-89030000D03*
X130810000Y-89830000D03*
X130810000Y-90630000D03*
X130810000Y-91430000D03*
D12*
X133735000Y-88605000D03*
X135710000Y-88605000D03*
X137685000Y-88605000D03*
X137685000Y-86630000D03*
X137685000Y-84655000D03*
X135710000Y-84655000D03*
X133735000Y-84655000D03*
X133735000Y-86630000D03*
X135710000Y-86630000D03*
D13*
X130760000Y-80680000D03*
X140660000Y-80680000D03*
X140660000Y-92580000D03*
X130760000Y-92580000D03*
%TD*%
D10*
%TO.C,U1*%
X131710000Y-74250000D03*
X132510000Y-74250000D03*
X133310000Y-74250000D03*
X134110000Y-74250000D03*
X134910000Y-74250000D03*
X135710000Y-74250000D03*
X136510000Y-74250000D03*
X137310000Y-74250000D03*
X138110000Y-74250000D03*
X138910000Y-74250000D03*
X139710000Y-74250000D03*
D11*
X140610000Y-73150000D03*
X140610000Y-72350000D03*
X140610000Y-71550000D03*
X140610000Y-70750000D03*
X140610000Y-69950000D03*
X140610000Y-69150000D03*
X140610000Y-68350000D03*
X140610000Y-67550000D03*
X140610000Y-66750000D03*
X140610000Y-65950000D03*
X140610000Y-65150000D03*
X140610000Y-64350000D03*
X140610000Y-63550000D03*
D10*
X139710000Y-62450000D03*
X138910000Y-62450000D03*
X138110000Y-62450000D03*
X137310000Y-62450000D03*
X136510000Y-62450000D03*
X135710000Y-62450000D03*
X134910000Y-62450000D03*
X134110000Y-62450000D03*
X133310000Y-62450000D03*
X132510000Y-62450000D03*
X131710000Y-62450000D03*
D11*
X130810000Y-63550000D03*
X130810000Y-64350000D03*
X130810000Y-65150000D03*
X130810000Y-65950000D03*
X130810000Y-66750000D03*
X130810000Y-67550000D03*
X130810000Y-68350000D03*
X130810000Y-69150000D03*
X130810000Y-69950000D03*
X130810000Y-70750000D03*
X130810000Y-71550000D03*
X130810000Y-72350000D03*
X130810000Y-73150000D03*
D12*
X133735000Y-70325000D03*
X135710000Y-70325000D03*
X137685000Y-70325000D03*
X137685000Y-68350000D03*
X137685000Y-66375000D03*
X135710000Y-66375000D03*
X133735000Y-66375000D03*
X133735000Y-68350000D03*
X135710000Y-68350000D03*
D13*
X130760000Y-62400000D03*
X140660000Y-62400000D03*
X140660000Y-74300000D03*
X130760000Y-74300000D03*
%TD*%
D10*
%TO.C,U1*%
X131710000Y-55970000D03*
X132510000Y-55970000D03*
X133310000Y-55970000D03*
X134110000Y-55970000D03*
X134910000Y-55970000D03*
X135710000Y-55970000D03*
X136510000Y-55970000D03*
X137310000Y-55970000D03*
X138110000Y-55970000D03*
X138910000Y-55970000D03*
X139710000Y-55970000D03*
D11*
X140610000Y-54870000D03*
X140610000Y-54070000D03*
X140610000Y-53270000D03*
X140610000Y-52470000D03*
X140610000Y-51670000D03*
X140610000Y-50870000D03*
X140610000Y-50070000D03*
X140610000Y-49270000D03*
X140610000Y-48470000D03*
X140610000Y-47670000D03*
X140610000Y-46870000D03*
X140610000Y-46070000D03*
X140610000Y-45270000D03*
D10*
X139710000Y-44170000D03*
X138910000Y-44170000D03*
X138110000Y-44170000D03*
X137310000Y-44170000D03*
X136510000Y-44170000D03*
X135710000Y-44170000D03*
X134910000Y-44170000D03*
X134110000Y-44170000D03*
X133310000Y-44170000D03*
X132510000Y-44170000D03*
X131710000Y-44170000D03*
D11*
X130810000Y-45270000D03*
X130810000Y-46070000D03*
X130810000Y-46870000D03*
X130810000Y-47670000D03*
X130810000Y-48470000D03*
X130810000Y-49270000D03*
X130810000Y-50070000D03*
X130810000Y-50870000D03*
X130810000Y-51670000D03*
X130810000Y-52470000D03*
X130810000Y-53270000D03*
X130810000Y-54070000D03*
X130810000Y-54870000D03*
D12*
X133735000Y-52045000D03*
X135710000Y-52045000D03*
X137685000Y-52045000D03*
X137685000Y-50070000D03*
X137685000Y-48095000D03*
X135710000Y-48095000D03*
X133735000Y-48095000D03*
X133735000Y-50070000D03*
X135710000Y-50070000D03*
D13*
X130760000Y-44120000D03*
X140660000Y-44120000D03*
X140660000Y-56020000D03*
X130760000Y-56020000D03*
%TD*%
D10*
%TO.C,U1*%
X131710000Y-19410000D03*
X132510000Y-19410000D03*
X133310000Y-19410000D03*
X134110000Y-19410000D03*
X134910000Y-19410000D03*
X135710000Y-19410000D03*
X136510000Y-19410000D03*
X137310000Y-19410000D03*
X138110000Y-19410000D03*
X138910000Y-19410000D03*
X139710000Y-19410000D03*
D11*
X140610000Y-18310000D03*
X140610000Y-17510000D03*
X140610000Y-16710000D03*
X140610000Y-15910000D03*
X140610000Y-15110000D03*
X140610000Y-14310000D03*
X140610000Y-13510000D03*
X140610000Y-12710000D03*
X140610000Y-11910000D03*
X140610000Y-11110000D03*
X140610000Y-10310000D03*
X140610000Y-9510000D03*
X140610000Y-8710000D03*
D10*
X139710000Y-7610000D03*
X138910000Y-7610000D03*
X138110000Y-7610000D03*
X137310000Y-7610000D03*
X136510000Y-7610000D03*
X135710000Y-7610000D03*
X134910000Y-7610000D03*
X134110000Y-7610000D03*
X133310000Y-7610000D03*
X132510000Y-7610000D03*
X131710000Y-7610000D03*
D11*
X130810000Y-8710000D03*
X130810000Y-9510000D03*
X130810000Y-10310000D03*
X130810000Y-11110000D03*
X130810000Y-11910000D03*
X130810000Y-12710000D03*
X130810000Y-13510000D03*
X130810000Y-14310000D03*
X130810000Y-15110000D03*
X130810000Y-15910000D03*
X130810000Y-16710000D03*
X130810000Y-17510000D03*
X130810000Y-18310000D03*
D12*
X133735000Y-15485000D03*
X135710000Y-15485000D03*
X137685000Y-15485000D03*
X137685000Y-13510000D03*
X137685000Y-11535000D03*
X135710000Y-11535000D03*
X133735000Y-11535000D03*
X133735000Y-13510000D03*
X135710000Y-13510000D03*
D13*
X130760000Y-7560000D03*
X140660000Y-7560000D03*
X140660000Y-19460000D03*
X130760000Y-19460000D03*
%TD*%
D10*
%TO.C,U1*%
X247510000Y-55970000D03*
X248310000Y-55970000D03*
X249110000Y-55970000D03*
X249910000Y-55970000D03*
X250710000Y-55970000D03*
X251510000Y-55970000D03*
X252310000Y-55970000D03*
X253110000Y-55970000D03*
X253910000Y-55970000D03*
X254710000Y-55970000D03*
X255510000Y-55970000D03*
D11*
X256410000Y-54870000D03*
X256410000Y-54070000D03*
X256410000Y-53270000D03*
X256410000Y-52470000D03*
X256410000Y-51670000D03*
X256410000Y-50870000D03*
X256410000Y-50070000D03*
X256410000Y-49270000D03*
X256410000Y-48470000D03*
X256410000Y-47670000D03*
X256410000Y-46870000D03*
X256410000Y-46070000D03*
X256410000Y-45270000D03*
D10*
X255510000Y-44170000D03*
X254710000Y-44170000D03*
X253910000Y-44170000D03*
X253110000Y-44170000D03*
X252310000Y-44170000D03*
X251510000Y-44170000D03*
X250710000Y-44170000D03*
X249910000Y-44170000D03*
X249110000Y-44170000D03*
X248310000Y-44170000D03*
X247510000Y-44170000D03*
D11*
X246610000Y-45270000D03*
X246610000Y-46070000D03*
X246610000Y-46870000D03*
X246610000Y-47670000D03*
X246610000Y-48470000D03*
X246610000Y-49270000D03*
X246610000Y-50070000D03*
X246610000Y-50870000D03*
X246610000Y-51670000D03*
X246610000Y-52470000D03*
X246610000Y-53270000D03*
X246610000Y-54070000D03*
X246610000Y-54870000D03*
D12*
X249535000Y-52045000D03*
X251510000Y-52045000D03*
X253485000Y-52045000D03*
X253485000Y-50070000D03*
X253485000Y-48095000D03*
X251510000Y-48095000D03*
X249535000Y-48095000D03*
X249535000Y-50070000D03*
X251510000Y-50070000D03*
D13*
X246560000Y-44120000D03*
X256460000Y-44120000D03*
X256460000Y-56020000D03*
X246560000Y-56020000D03*
%TD*%
D10*
%TO.C,U1*%
X170310000Y-37690000D03*
X171110000Y-37690000D03*
X171910000Y-37690000D03*
X172710000Y-37690000D03*
X173510000Y-37690000D03*
X174310000Y-37690000D03*
X175110000Y-37690000D03*
X175910000Y-37690000D03*
X176710000Y-37690000D03*
X177510000Y-37690000D03*
X178310000Y-37690000D03*
D11*
X179210000Y-36590000D03*
X179210000Y-35790000D03*
X179210000Y-34990000D03*
X179210000Y-34190000D03*
X179210000Y-33390000D03*
X179210000Y-32590000D03*
X179210000Y-31790000D03*
X179210000Y-30990000D03*
X179210000Y-30190000D03*
X179210000Y-29390000D03*
X179210000Y-28590000D03*
X179210000Y-27790000D03*
X179210000Y-26990000D03*
D10*
X178310000Y-25890000D03*
X177510000Y-25890000D03*
X176710000Y-25890000D03*
X175910000Y-25890000D03*
X175110000Y-25890000D03*
X174310000Y-25890000D03*
X173510000Y-25890000D03*
X172710000Y-25890000D03*
X171910000Y-25890000D03*
X171110000Y-25890000D03*
X170310000Y-25890000D03*
D11*
X169410000Y-26990000D03*
X169410000Y-27790000D03*
X169410000Y-28590000D03*
X169410000Y-29390000D03*
X169410000Y-30190000D03*
X169410000Y-30990000D03*
X169410000Y-31790000D03*
X169410000Y-32590000D03*
X169410000Y-33390000D03*
X169410000Y-34190000D03*
X169410000Y-34990000D03*
X169410000Y-35790000D03*
X169410000Y-36590000D03*
D12*
X172335000Y-33765000D03*
X174310000Y-33765000D03*
X176285000Y-33765000D03*
X176285000Y-31790000D03*
X176285000Y-29815000D03*
X174310000Y-29815000D03*
X172335000Y-29815000D03*
X172335000Y-31790000D03*
X174310000Y-31790000D03*
D13*
X169360000Y-25840000D03*
X179260000Y-25840000D03*
X179260000Y-37740000D03*
X169360000Y-37740000D03*
%TD*%
D10*
%TO.C,U1*%
X208910000Y-55970000D03*
X209710000Y-55970000D03*
X210510000Y-55970000D03*
X211310000Y-55970000D03*
X212110000Y-55970000D03*
X212910000Y-55970000D03*
X213710000Y-55970000D03*
X214510000Y-55970000D03*
X215310000Y-55970000D03*
X216110000Y-55970000D03*
X216910000Y-55970000D03*
D11*
X217810000Y-54870000D03*
X217810000Y-54070000D03*
X217810000Y-53270000D03*
X217810000Y-52470000D03*
X217810000Y-51670000D03*
X217810000Y-50870000D03*
X217810000Y-50070000D03*
X217810000Y-49270000D03*
X217810000Y-48470000D03*
X217810000Y-47670000D03*
X217810000Y-46870000D03*
X217810000Y-46070000D03*
X217810000Y-45270000D03*
D10*
X216910000Y-44170000D03*
X216110000Y-44170000D03*
X215310000Y-44170000D03*
X214510000Y-44170000D03*
X213710000Y-44170000D03*
X212910000Y-44170000D03*
X212110000Y-44170000D03*
X211310000Y-44170000D03*
X210510000Y-44170000D03*
X209710000Y-44170000D03*
X208910000Y-44170000D03*
D11*
X208010000Y-45270000D03*
X208010000Y-46070000D03*
X208010000Y-46870000D03*
X208010000Y-47670000D03*
X208010000Y-48470000D03*
X208010000Y-49270000D03*
X208010000Y-50070000D03*
X208010000Y-50870000D03*
X208010000Y-51670000D03*
X208010000Y-52470000D03*
X208010000Y-53270000D03*
X208010000Y-54070000D03*
X208010000Y-54870000D03*
D12*
X210935000Y-52045000D03*
X212910000Y-52045000D03*
X214885000Y-52045000D03*
X214885000Y-50070000D03*
X214885000Y-48095000D03*
X212910000Y-48095000D03*
X210935000Y-48095000D03*
X210935000Y-50070000D03*
X212910000Y-50070000D03*
D13*
X207960000Y-44120000D03*
X217860000Y-44120000D03*
X217860000Y-56020000D03*
X207960000Y-56020000D03*
%TD*%
D10*
%TO.C,U1*%
X208910000Y-37690000D03*
X209710000Y-37690000D03*
X210510000Y-37690000D03*
X211310000Y-37690000D03*
X212110000Y-37690000D03*
X212910000Y-37690000D03*
X213710000Y-37690000D03*
X214510000Y-37690000D03*
X215310000Y-37690000D03*
X216110000Y-37690000D03*
X216910000Y-37690000D03*
D11*
X217810000Y-36590000D03*
X217810000Y-35790000D03*
X217810000Y-34990000D03*
X217810000Y-34190000D03*
X217810000Y-33390000D03*
X217810000Y-32590000D03*
X217810000Y-31790000D03*
X217810000Y-30990000D03*
X217810000Y-30190000D03*
X217810000Y-29390000D03*
X217810000Y-28590000D03*
X217810000Y-27790000D03*
X217810000Y-26990000D03*
D10*
X216910000Y-25890000D03*
X216110000Y-25890000D03*
X215310000Y-25890000D03*
X214510000Y-25890000D03*
X213710000Y-25890000D03*
X212910000Y-25890000D03*
X212110000Y-25890000D03*
X211310000Y-25890000D03*
X210510000Y-25890000D03*
X209710000Y-25890000D03*
X208910000Y-25890000D03*
D11*
X208010000Y-26990000D03*
X208010000Y-27790000D03*
X208010000Y-28590000D03*
X208010000Y-29390000D03*
X208010000Y-30190000D03*
X208010000Y-30990000D03*
X208010000Y-31790000D03*
X208010000Y-32590000D03*
X208010000Y-33390000D03*
X208010000Y-34190000D03*
X208010000Y-34990000D03*
X208010000Y-35790000D03*
X208010000Y-36590000D03*
D12*
X210935000Y-33765000D03*
X212910000Y-33765000D03*
X214885000Y-33765000D03*
X214885000Y-31790000D03*
X214885000Y-29815000D03*
X212910000Y-29815000D03*
X210935000Y-29815000D03*
X210935000Y-31790000D03*
X212910000Y-31790000D03*
D13*
X207960000Y-25840000D03*
X217860000Y-25840000D03*
X217860000Y-37740000D03*
X207960000Y-37740000D03*
%TD*%
D10*
%TO.C,U1*%
X247510000Y-129090000D03*
X248310000Y-129090000D03*
X249110000Y-129090000D03*
X249910000Y-129090000D03*
X250710000Y-129090000D03*
X251510000Y-129090000D03*
X252310000Y-129090000D03*
X253110000Y-129090000D03*
X253910000Y-129090000D03*
X254710000Y-129090000D03*
X255510000Y-129090000D03*
D11*
X256410000Y-127990000D03*
X256410000Y-127190000D03*
X256410000Y-126390000D03*
X256410000Y-125590000D03*
X256410000Y-124790000D03*
X256410000Y-123990000D03*
X256410000Y-123190000D03*
X256410000Y-122390000D03*
X256410000Y-121590000D03*
X256410000Y-120790000D03*
X256410000Y-119990000D03*
X256410000Y-119190000D03*
X256410000Y-118390000D03*
D10*
X255510000Y-117290000D03*
X254710000Y-117290000D03*
X253910000Y-117290000D03*
X253110000Y-117290000D03*
X252310000Y-117290000D03*
X251510000Y-117290000D03*
X250710000Y-117290000D03*
X249910000Y-117290000D03*
X249110000Y-117290000D03*
X248310000Y-117290000D03*
X247510000Y-117290000D03*
D11*
X246610000Y-118390000D03*
X246610000Y-119190000D03*
X246610000Y-119990000D03*
X246610000Y-120790000D03*
X246610000Y-121590000D03*
X246610000Y-122390000D03*
X246610000Y-123190000D03*
X246610000Y-123990000D03*
X246610000Y-124790000D03*
X246610000Y-125590000D03*
X246610000Y-126390000D03*
X246610000Y-127190000D03*
X246610000Y-127990000D03*
D12*
X249535000Y-125165000D03*
X251510000Y-125165000D03*
X253485000Y-125165000D03*
X253485000Y-123190000D03*
X253485000Y-121215000D03*
X251510000Y-121215000D03*
X249535000Y-121215000D03*
X249535000Y-123190000D03*
X251510000Y-123190000D03*
D13*
X246560000Y-117240000D03*
X256460000Y-117240000D03*
X256460000Y-129140000D03*
X246560000Y-129140000D03*
%TD*%
D10*
%TO.C,U1*%
X247510000Y-19410000D03*
X248310000Y-19410000D03*
X249110000Y-19410000D03*
X249910000Y-19410000D03*
X250710000Y-19410000D03*
X251510000Y-19410000D03*
X252310000Y-19410000D03*
X253110000Y-19410000D03*
X253910000Y-19410000D03*
X254710000Y-19410000D03*
X255510000Y-19410000D03*
D11*
X256410000Y-18310000D03*
X256410000Y-17510000D03*
X256410000Y-16710000D03*
X256410000Y-15910000D03*
X256410000Y-15110000D03*
X256410000Y-14310000D03*
X256410000Y-13510000D03*
X256410000Y-12710000D03*
X256410000Y-11910000D03*
X256410000Y-11110000D03*
X256410000Y-10310000D03*
X256410000Y-9510000D03*
X256410000Y-8710000D03*
D10*
X255510000Y-7610000D03*
X254710000Y-7610000D03*
X253910000Y-7610000D03*
X253110000Y-7610000D03*
X252310000Y-7610000D03*
X251510000Y-7610000D03*
X250710000Y-7610000D03*
X249910000Y-7610000D03*
X249110000Y-7610000D03*
X248310000Y-7610000D03*
X247510000Y-7610000D03*
D11*
X246610000Y-8710000D03*
X246610000Y-9510000D03*
X246610000Y-10310000D03*
X246610000Y-11110000D03*
X246610000Y-11910000D03*
X246610000Y-12710000D03*
X246610000Y-13510000D03*
X246610000Y-14310000D03*
X246610000Y-15110000D03*
X246610000Y-15910000D03*
X246610000Y-16710000D03*
X246610000Y-17510000D03*
X246610000Y-18310000D03*
D12*
X249535000Y-15485000D03*
X251510000Y-15485000D03*
X253485000Y-15485000D03*
X253485000Y-13510000D03*
X253485000Y-11535000D03*
X251510000Y-11535000D03*
X249535000Y-11535000D03*
X249535000Y-13510000D03*
X251510000Y-13510000D03*
D13*
X246560000Y-7560000D03*
X256460000Y-7560000D03*
X256460000Y-19460000D03*
X246560000Y-19460000D03*
%TD*%
D10*
%TO.C,U1*%
X208910000Y-19410000D03*
X209710000Y-19410000D03*
X210510000Y-19410000D03*
X211310000Y-19410000D03*
X212110000Y-19410000D03*
X212910000Y-19410000D03*
X213710000Y-19410000D03*
X214510000Y-19410000D03*
X215310000Y-19410000D03*
X216110000Y-19410000D03*
X216910000Y-19410000D03*
D11*
X217810000Y-18310000D03*
X217810000Y-17510000D03*
X217810000Y-16710000D03*
X217810000Y-15910000D03*
X217810000Y-15110000D03*
X217810000Y-14310000D03*
X217810000Y-13510000D03*
X217810000Y-12710000D03*
X217810000Y-11910000D03*
X217810000Y-11110000D03*
X217810000Y-10310000D03*
X217810000Y-9510000D03*
X217810000Y-8710000D03*
D10*
X216910000Y-7610000D03*
X216110000Y-7610000D03*
X215310000Y-7610000D03*
X214510000Y-7610000D03*
X213710000Y-7610000D03*
X212910000Y-7610000D03*
X212110000Y-7610000D03*
X211310000Y-7610000D03*
X210510000Y-7610000D03*
X209710000Y-7610000D03*
X208910000Y-7610000D03*
D11*
X208010000Y-8710000D03*
X208010000Y-9510000D03*
X208010000Y-10310000D03*
X208010000Y-11110000D03*
X208010000Y-11910000D03*
X208010000Y-12710000D03*
X208010000Y-13510000D03*
X208010000Y-14310000D03*
X208010000Y-15110000D03*
X208010000Y-15910000D03*
X208010000Y-16710000D03*
X208010000Y-17510000D03*
X208010000Y-18310000D03*
D12*
X210935000Y-15485000D03*
X212910000Y-15485000D03*
X214885000Y-15485000D03*
X214885000Y-13510000D03*
X214885000Y-11535000D03*
X212910000Y-11535000D03*
X210935000Y-11535000D03*
X210935000Y-13510000D03*
X212910000Y-13510000D03*
D13*
X207960000Y-7560000D03*
X217860000Y-7560000D03*
X217860000Y-19460000D03*
X207960000Y-19460000D03*
%TD*%
D10*
%TO.C,U1*%
X208910000Y-129090000D03*
X209710000Y-129090000D03*
X210510000Y-129090000D03*
X211310000Y-129090000D03*
X212110000Y-129090000D03*
X212910000Y-129090000D03*
X213710000Y-129090000D03*
X214510000Y-129090000D03*
X215310000Y-129090000D03*
X216110000Y-129090000D03*
X216910000Y-129090000D03*
D11*
X217810000Y-127990000D03*
X217810000Y-127190000D03*
X217810000Y-126390000D03*
X217810000Y-125590000D03*
X217810000Y-124790000D03*
X217810000Y-123990000D03*
X217810000Y-123190000D03*
X217810000Y-122390000D03*
X217810000Y-121590000D03*
X217810000Y-120790000D03*
X217810000Y-119990000D03*
X217810000Y-119190000D03*
X217810000Y-118390000D03*
D10*
X216910000Y-117290000D03*
X216110000Y-117290000D03*
X215310000Y-117290000D03*
X214510000Y-117290000D03*
X213710000Y-117290000D03*
X212910000Y-117290000D03*
X212110000Y-117290000D03*
X211310000Y-117290000D03*
X210510000Y-117290000D03*
X209710000Y-117290000D03*
X208910000Y-117290000D03*
D11*
X208010000Y-118390000D03*
X208010000Y-119190000D03*
X208010000Y-119990000D03*
X208010000Y-120790000D03*
X208010000Y-121590000D03*
X208010000Y-122390000D03*
X208010000Y-123190000D03*
X208010000Y-123990000D03*
X208010000Y-124790000D03*
X208010000Y-125590000D03*
X208010000Y-126390000D03*
X208010000Y-127190000D03*
X208010000Y-127990000D03*
D12*
X210935000Y-125165000D03*
X212910000Y-125165000D03*
X214885000Y-125165000D03*
X214885000Y-123190000D03*
X214885000Y-121215000D03*
X212910000Y-121215000D03*
X210935000Y-121215000D03*
X210935000Y-123190000D03*
X212910000Y-123190000D03*
D13*
X207960000Y-117240000D03*
X217860000Y-117240000D03*
X217860000Y-129140000D03*
X207960000Y-129140000D03*
%TD*%
D10*
%TO.C,U1*%
X208910000Y-110810000D03*
X209710000Y-110810000D03*
X210510000Y-110810000D03*
X211310000Y-110810000D03*
X212110000Y-110810000D03*
X212910000Y-110810000D03*
X213710000Y-110810000D03*
X214510000Y-110810000D03*
X215310000Y-110810000D03*
X216110000Y-110810000D03*
X216910000Y-110810000D03*
D11*
X217810000Y-109710000D03*
X217810000Y-108910000D03*
X217810000Y-108110000D03*
X217810000Y-107310000D03*
X217810000Y-106510000D03*
X217810000Y-105710000D03*
X217810000Y-104910000D03*
X217810000Y-104110000D03*
X217810000Y-103310000D03*
X217810000Y-102510000D03*
X217810000Y-101710000D03*
X217810000Y-100910000D03*
X217810000Y-100110000D03*
D10*
X216910000Y-99010000D03*
X216110000Y-99010000D03*
X215310000Y-99010000D03*
X214510000Y-99010000D03*
X213710000Y-99010000D03*
X212910000Y-99010000D03*
X212110000Y-99010000D03*
X211310000Y-99010000D03*
X210510000Y-99010000D03*
X209710000Y-99010000D03*
X208910000Y-99010000D03*
D11*
X208010000Y-100110000D03*
X208010000Y-100910000D03*
X208010000Y-101710000D03*
X208010000Y-102510000D03*
X208010000Y-103310000D03*
X208010000Y-104110000D03*
X208010000Y-104910000D03*
X208010000Y-105710000D03*
X208010000Y-106510000D03*
X208010000Y-107310000D03*
X208010000Y-108110000D03*
X208010000Y-108910000D03*
X208010000Y-109710000D03*
D12*
X210935000Y-106885000D03*
X212910000Y-106885000D03*
X214885000Y-106885000D03*
X214885000Y-104910000D03*
X214885000Y-102935000D03*
X212910000Y-102935000D03*
X210935000Y-102935000D03*
X210935000Y-104910000D03*
X212910000Y-104910000D03*
D13*
X207960000Y-98960000D03*
X217860000Y-98960000D03*
X217860000Y-110860000D03*
X207960000Y-110860000D03*
%TD*%
D10*
%TO.C,U1*%
X208910000Y-74250000D03*
X209710000Y-74250000D03*
X210510000Y-74250000D03*
X211310000Y-74250000D03*
X212110000Y-74250000D03*
X212910000Y-74250000D03*
X213710000Y-74250000D03*
X214510000Y-74250000D03*
X215310000Y-74250000D03*
X216110000Y-74250000D03*
X216910000Y-74250000D03*
D11*
X217810000Y-73150000D03*
X217810000Y-72350000D03*
X217810000Y-71550000D03*
X217810000Y-70750000D03*
X217810000Y-69950000D03*
X217810000Y-69150000D03*
X217810000Y-68350000D03*
X217810000Y-67550000D03*
X217810000Y-66750000D03*
X217810000Y-65950000D03*
X217810000Y-65150000D03*
X217810000Y-64350000D03*
X217810000Y-63550000D03*
D10*
X216910000Y-62450000D03*
X216110000Y-62450000D03*
X215310000Y-62450000D03*
X214510000Y-62450000D03*
X213710000Y-62450000D03*
X212910000Y-62450000D03*
X212110000Y-62450000D03*
X211310000Y-62450000D03*
X210510000Y-62450000D03*
X209710000Y-62450000D03*
X208910000Y-62450000D03*
D11*
X208010000Y-63550000D03*
X208010000Y-64350000D03*
X208010000Y-65150000D03*
X208010000Y-65950000D03*
X208010000Y-66750000D03*
X208010000Y-67550000D03*
X208010000Y-68350000D03*
X208010000Y-69150000D03*
X208010000Y-69950000D03*
X208010000Y-70750000D03*
X208010000Y-71550000D03*
X208010000Y-72350000D03*
X208010000Y-73150000D03*
D12*
X210935000Y-70325000D03*
X212910000Y-70325000D03*
X214885000Y-70325000D03*
X214885000Y-68350000D03*
X214885000Y-66375000D03*
X212910000Y-66375000D03*
X210935000Y-66375000D03*
X210935000Y-68350000D03*
X212910000Y-68350000D03*
D13*
X207960000Y-62400000D03*
X217860000Y-62400000D03*
X217860000Y-74300000D03*
X207960000Y-74300000D03*
%TD*%
D10*
%TO.C,U1*%
X208910000Y-92530000D03*
X209710000Y-92530000D03*
X210510000Y-92530000D03*
X211310000Y-92530000D03*
X212110000Y-92530000D03*
X212910000Y-92530000D03*
X213710000Y-92530000D03*
X214510000Y-92530000D03*
X215310000Y-92530000D03*
X216110000Y-92530000D03*
X216910000Y-92530000D03*
D11*
X217810000Y-91430000D03*
X217810000Y-90630000D03*
X217810000Y-89830000D03*
X217810000Y-89030000D03*
X217810000Y-88230000D03*
X217810000Y-87430000D03*
X217810000Y-86630000D03*
X217810000Y-85830000D03*
X217810000Y-85030000D03*
X217810000Y-84230000D03*
X217810000Y-83430000D03*
X217810000Y-82630000D03*
X217810000Y-81830000D03*
D10*
X216910000Y-80730000D03*
X216110000Y-80730000D03*
X215310000Y-80730000D03*
X214510000Y-80730000D03*
X213710000Y-80730000D03*
X212910000Y-80730000D03*
X212110000Y-80730000D03*
X211310000Y-80730000D03*
X210510000Y-80730000D03*
X209710000Y-80730000D03*
X208910000Y-80730000D03*
D11*
X208010000Y-81830000D03*
X208010000Y-82630000D03*
X208010000Y-83430000D03*
X208010000Y-84230000D03*
X208010000Y-85030000D03*
X208010000Y-85830000D03*
X208010000Y-86630000D03*
X208010000Y-87430000D03*
X208010000Y-88230000D03*
X208010000Y-89030000D03*
X208010000Y-89830000D03*
X208010000Y-90630000D03*
X208010000Y-91430000D03*
D12*
X210935000Y-88605000D03*
X212910000Y-88605000D03*
X214885000Y-88605000D03*
X214885000Y-86630000D03*
X214885000Y-84655000D03*
X212910000Y-84655000D03*
X210935000Y-84655000D03*
X210935000Y-86630000D03*
X212910000Y-86630000D03*
D13*
X207960000Y-80680000D03*
X217860000Y-80680000D03*
X217860000Y-92580000D03*
X207960000Y-92580000D03*
%TD*%
D10*
%TO.C,U1*%
X247510000Y-92530000D03*
X248310000Y-92530000D03*
X249110000Y-92530000D03*
X249910000Y-92530000D03*
X250710000Y-92530000D03*
X251510000Y-92530000D03*
X252310000Y-92530000D03*
X253110000Y-92530000D03*
X253910000Y-92530000D03*
X254710000Y-92530000D03*
X255510000Y-92530000D03*
D11*
X256410000Y-91430000D03*
X256410000Y-90630000D03*
X256410000Y-89830000D03*
X256410000Y-89030000D03*
X256410000Y-88230000D03*
X256410000Y-87430000D03*
X256410000Y-86630000D03*
X256410000Y-85830000D03*
X256410000Y-85030000D03*
X256410000Y-84230000D03*
X256410000Y-83430000D03*
X256410000Y-82630000D03*
X256410000Y-81830000D03*
D10*
X255510000Y-80730000D03*
X254710000Y-80730000D03*
X253910000Y-80730000D03*
X253110000Y-80730000D03*
X252310000Y-80730000D03*
X251510000Y-80730000D03*
X250710000Y-80730000D03*
X249910000Y-80730000D03*
X249110000Y-80730000D03*
X248310000Y-80730000D03*
X247510000Y-80730000D03*
D11*
X246610000Y-81830000D03*
X246610000Y-82630000D03*
X246610000Y-83430000D03*
X246610000Y-84230000D03*
X246610000Y-85030000D03*
X246610000Y-85830000D03*
X246610000Y-86630000D03*
X246610000Y-87430000D03*
X246610000Y-88230000D03*
X246610000Y-89030000D03*
X246610000Y-89830000D03*
X246610000Y-90630000D03*
X246610000Y-91430000D03*
D12*
X249535000Y-88605000D03*
X251510000Y-88605000D03*
X253485000Y-88605000D03*
X253485000Y-86630000D03*
X253485000Y-84655000D03*
X251510000Y-84655000D03*
X249535000Y-84655000D03*
X249535000Y-86630000D03*
X251510000Y-86630000D03*
D13*
X246560000Y-80680000D03*
X256460000Y-80680000D03*
X256460000Y-92580000D03*
X246560000Y-92580000D03*
%TD*%
D10*
%TO.C,U1*%
X170310000Y-110810000D03*
X171110000Y-110810000D03*
X171910000Y-110810000D03*
X172710000Y-110810000D03*
X173510000Y-110810000D03*
X174310000Y-110810000D03*
X175110000Y-110810000D03*
X175910000Y-110810000D03*
X176710000Y-110810000D03*
X177510000Y-110810000D03*
X178310000Y-110810000D03*
D11*
X179210000Y-109710000D03*
X179210000Y-108910000D03*
X179210000Y-108110000D03*
X179210000Y-107310000D03*
X179210000Y-106510000D03*
X179210000Y-105710000D03*
X179210000Y-104910000D03*
X179210000Y-104110000D03*
X179210000Y-103310000D03*
X179210000Y-102510000D03*
X179210000Y-101710000D03*
X179210000Y-100910000D03*
X179210000Y-100110000D03*
D10*
X178310000Y-99010000D03*
X177510000Y-99010000D03*
X176710000Y-99010000D03*
X175910000Y-99010000D03*
X175110000Y-99010000D03*
X174310000Y-99010000D03*
X173510000Y-99010000D03*
X172710000Y-99010000D03*
X171910000Y-99010000D03*
X171110000Y-99010000D03*
X170310000Y-99010000D03*
D11*
X169410000Y-100110000D03*
X169410000Y-100910000D03*
X169410000Y-101710000D03*
X169410000Y-102510000D03*
X169410000Y-103310000D03*
X169410000Y-104110000D03*
X169410000Y-104910000D03*
X169410000Y-105710000D03*
X169410000Y-106510000D03*
X169410000Y-107310000D03*
X169410000Y-108110000D03*
X169410000Y-108910000D03*
X169410000Y-109710000D03*
D12*
X172335000Y-106885000D03*
X174310000Y-106885000D03*
X176285000Y-106885000D03*
X176285000Y-104910000D03*
X176285000Y-102935000D03*
X174310000Y-102935000D03*
X172335000Y-102935000D03*
X172335000Y-104910000D03*
X174310000Y-104910000D03*
D13*
X169360000Y-98960000D03*
X179260000Y-98960000D03*
X179260000Y-110860000D03*
X169360000Y-110860000D03*
%TD*%
D10*
%TO.C,U1*%
X170310000Y-74250000D03*
X171110000Y-74250000D03*
X171910000Y-74250000D03*
X172710000Y-74250000D03*
X173510000Y-74250000D03*
X174310000Y-74250000D03*
X175110000Y-74250000D03*
X175910000Y-74250000D03*
X176710000Y-74250000D03*
X177510000Y-74250000D03*
X178310000Y-74250000D03*
D11*
X179210000Y-73150000D03*
X179210000Y-72350000D03*
X179210000Y-71550000D03*
X179210000Y-70750000D03*
X179210000Y-69950000D03*
X179210000Y-69150000D03*
X179210000Y-68350000D03*
X179210000Y-67550000D03*
X179210000Y-66750000D03*
X179210000Y-65950000D03*
X179210000Y-65150000D03*
X179210000Y-64350000D03*
X179210000Y-63550000D03*
D10*
X178310000Y-62450000D03*
X177510000Y-62450000D03*
X176710000Y-62450000D03*
X175910000Y-62450000D03*
X175110000Y-62450000D03*
X174310000Y-62450000D03*
X173510000Y-62450000D03*
X172710000Y-62450000D03*
X171910000Y-62450000D03*
X171110000Y-62450000D03*
X170310000Y-62450000D03*
D11*
X169410000Y-63550000D03*
X169410000Y-64350000D03*
X169410000Y-65150000D03*
X169410000Y-65950000D03*
X169410000Y-66750000D03*
X169410000Y-67550000D03*
X169410000Y-68350000D03*
X169410000Y-69150000D03*
X169410000Y-69950000D03*
X169410000Y-70750000D03*
X169410000Y-71550000D03*
X169410000Y-72350000D03*
X169410000Y-73150000D03*
D12*
X172335000Y-70325000D03*
X174310000Y-70325000D03*
X176285000Y-70325000D03*
X176285000Y-68350000D03*
X176285000Y-66375000D03*
X174310000Y-66375000D03*
X172335000Y-66375000D03*
X172335000Y-68350000D03*
X174310000Y-68350000D03*
D13*
X169360000Y-62400000D03*
X179260000Y-62400000D03*
X179260000Y-74300000D03*
X169360000Y-74300000D03*
%TD*%
D10*
%TO.C,U1*%
X170310000Y-55970000D03*
X171110000Y-55970000D03*
X171910000Y-55970000D03*
X172710000Y-55970000D03*
X173510000Y-55970000D03*
X174310000Y-55970000D03*
X175110000Y-55970000D03*
X175910000Y-55970000D03*
X176710000Y-55970000D03*
X177510000Y-55970000D03*
X178310000Y-55970000D03*
D11*
X179210000Y-54870000D03*
X179210000Y-54070000D03*
X179210000Y-53270000D03*
X179210000Y-52470000D03*
X179210000Y-51670000D03*
X179210000Y-50870000D03*
X179210000Y-50070000D03*
X179210000Y-49270000D03*
X179210000Y-48470000D03*
X179210000Y-47670000D03*
X179210000Y-46870000D03*
X179210000Y-46070000D03*
X179210000Y-45270000D03*
D10*
X178310000Y-44170000D03*
X177510000Y-44170000D03*
X176710000Y-44170000D03*
X175910000Y-44170000D03*
X175110000Y-44170000D03*
X174310000Y-44170000D03*
X173510000Y-44170000D03*
X172710000Y-44170000D03*
X171910000Y-44170000D03*
X171110000Y-44170000D03*
X170310000Y-44170000D03*
D11*
X169410000Y-45270000D03*
X169410000Y-46070000D03*
X169410000Y-46870000D03*
X169410000Y-47670000D03*
X169410000Y-48470000D03*
X169410000Y-49270000D03*
X169410000Y-50070000D03*
X169410000Y-50870000D03*
X169410000Y-51670000D03*
X169410000Y-52470000D03*
X169410000Y-53270000D03*
X169410000Y-54070000D03*
X169410000Y-54870000D03*
D12*
X172335000Y-52045000D03*
X174310000Y-52045000D03*
X176285000Y-52045000D03*
X176285000Y-50070000D03*
X176285000Y-48095000D03*
X174310000Y-48095000D03*
X172335000Y-48095000D03*
X172335000Y-50070000D03*
X174310000Y-50070000D03*
D13*
X169360000Y-44120000D03*
X179260000Y-44120000D03*
X179260000Y-56020000D03*
X169360000Y-56020000D03*
%TD*%
D10*
%TO.C,U1*%
X170310000Y-19410000D03*
X171110000Y-19410000D03*
X171910000Y-19410000D03*
X172710000Y-19410000D03*
X173510000Y-19410000D03*
X174310000Y-19410000D03*
X175110000Y-19410000D03*
X175910000Y-19410000D03*
X176710000Y-19410000D03*
X177510000Y-19410000D03*
X178310000Y-19410000D03*
D11*
X179210000Y-18310000D03*
X179210000Y-17510000D03*
X179210000Y-16710000D03*
X179210000Y-15910000D03*
X179210000Y-15110000D03*
X179210000Y-14310000D03*
X179210000Y-13510000D03*
X179210000Y-12710000D03*
X179210000Y-11910000D03*
X179210000Y-11110000D03*
X179210000Y-10310000D03*
X179210000Y-9510000D03*
X179210000Y-8710000D03*
D10*
X178310000Y-7610000D03*
X177510000Y-7610000D03*
X176710000Y-7610000D03*
X175910000Y-7610000D03*
X175110000Y-7610000D03*
X174310000Y-7610000D03*
X173510000Y-7610000D03*
X172710000Y-7610000D03*
X171910000Y-7610000D03*
X171110000Y-7610000D03*
X170310000Y-7610000D03*
D11*
X169410000Y-8710000D03*
X169410000Y-9510000D03*
X169410000Y-10310000D03*
X169410000Y-11110000D03*
X169410000Y-11910000D03*
X169410000Y-12710000D03*
X169410000Y-13510000D03*
X169410000Y-14310000D03*
X169410000Y-15110000D03*
X169410000Y-15910000D03*
X169410000Y-16710000D03*
X169410000Y-17510000D03*
X169410000Y-18310000D03*
D12*
X172335000Y-15485000D03*
X174310000Y-15485000D03*
X176285000Y-15485000D03*
X176285000Y-13510000D03*
X176285000Y-11535000D03*
X174310000Y-11535000D03*
X172335000Y-11535000D03*
X172335000Y-13510000D03*
X174310000Y-13510000D03*
D13*
X169360000Y-7560000D03*
X179260000Y-7560000D03*
X179260000Y-19460000D03*
X169360000Y-19460000D03*
%TD*%
D10*
%TO.C,U1*%
X170310000Y-92530000D03*
X171110000Y-92530000D03*
X171910000Y-92530000D03*
X172710000Y-92530000D03*
X173510000Y-92530000D03*
X174310000Y-92530000D03*
X175110000Y-92530000D03*
X175910000Y-92530000D03*
X176710000Y-92530000D03*
X177510000Y-92530000D03*
X178310000Y-92530000D03*
D11*
X179210000Y-91430000D03*
X179210000Y-90630000D03*
X179210000Y-89830000D03*
X179210000Y-89030000D03*
X179210000Y-88230000D03*
X179210000Y-87430000D03*
X179210000Y-86630000D03*
X179210000Y-85830000D03*
X179210000Y-85030000D03*
X179210000Y-84230000D03*
X179210000Y-83430000D03*
X179210000Y-82630000D03*
X179210000Y-81830000D03*
D10*
X178310000Y-80730000D03*
X177510000Y-80730000D03*
X176710000Y-80730000D03*
X175910000Y-80730000D03*
X175110000Y-80730000D03*
X174310000Y-80730000D03*
X173510000Y-80730000D03*
X172710000Y-80730000D03*
X171910000Y-80730000D03*
X171110000Y-80730000D03*
X170310000Y-80730000D03*
D11*
X169410000Y-81830000D03*
X169410000Y-82630000D03*
X169410000Y-83430000D03*
X169410000Y-84230000D03*
X169410000Y-85030000D03*
X169410000Y-85830000D03*
X169410000Y-86630000D03*
X169410000Y-87430000D03*
X169410000Y-88230000D03*
X169410000Y-89030000D03*
X169410000Y-89830000D03*
X169410000Y-90630000D03*
X169410000Y-91430000D03*
D12*
X172335000Y-88605000D03*
X174310000Y-88605000D03*
X176285000Y-88605000D03*
X176285000Y-86630000D03*
X176285000Y-84655000D03*
X174310000Y-84655000D03*
X172335000Y-84655000D03*
X172335000Y-86630000D03*
X174310000Y-86630000D03*
D13*
X169360000Y-80680000D03*
X179260000Y-80680000D03*
X179260000Y-92580000D03*
X169360000Y-92580000D03*
%TD*%
D10*
%TO.C,U1*%
X247510000Y-74250000D03*
X248310000Y-74250000D03*
X249110000Y-74250000D03*
X249910000Y-74250000D03*
X250710000Y-74250000D03*
X251510000Y-74250000D03*
X252310000Y-74250000D03*
X253110000Y-74250000D03*
X253910000Y-74250000D03*
X254710000Y-74250000D03*
X255510000Y-74250000D03*
D11*
X256410000Y-73150000D03*
X256410000Y-72350000D03*
X256410000Y-71550000D03*
X256410000Y-70750000D03*
X256410000Y-69950000D03*
X256410000Y-69150000D03*
X256410000Y-68350000D03*
X256410000Y-67550000D03*
X256410000Y-66750000D03*
X256410000Y-65950000D03*
X256410000Y-65150000D03*
X256410000Y-64350000D03*
X256410000Y-63550000D03*
D10*
X255510000Y-62450000D03*
X254710000Y-62450000D03*
X253910000Y-62450000D03*
X253110000Y-62450000D03*
X252310000Y-62450000D03*
X251510000Y-62450000D03*
X250710000Y-62450000D03*
X249910000Y-62450000D03*
X249110000Y-62450000D03*
X248310000Y-62450000D03*
X247510000Y-62450000D03*
D11*
X246610000Y-63550000D03*
X246610000Y-64350000D03*
X246610000Y-65150000D03*
X246610000Y-65950000D03*
X246610000Y-66750000D03*
X246610000Y-67550000D03*
X246610000Y-68350000D03*
X246610000Y-69150000D03*
X246610000Y-69950000D03*
X246610000Y-70750000D03*
X246610000Y-71550000D03*
X246610000Y-72350000D03*
X246610000Y-73150000D03*
D12*
X249535000Y-70325000D03*
X251510000Y-70325000D03*
X253485000Y-70325000D03*
X253485000Y-68350000D03*
X253485000Y-66375000D03*
X251510000Y-66375000D03*
X249535000Y-66375000D03*
X249535000Y-68350000D03*
X251510000Y-68350000D03*
D13*
X246560000Y-62400000D03*
X256460000Y-62400000D03*
X256460000Y-74300000D03*
X246560000Y-74300000D03*
%TD*%
D10*
%TO.C,U1*%
X247510000Y-37690000D03*
X248310000Y-37690000D03*
X249110000Y-37690000D03*
X249910000Y-37690000D03*
X250710000Y-37690000D03*
X251510000Y-37690000D03*
X252310000Y-37690000D03*
X253110000Y-37690000D03*
X253910000Y-37690000D03*
X254710000Y-37690000D03*
X255510000Y-37690000D03*
D11*
X256410000Y-36590000D03*
X256410000Y-35790000D03*
X256410000Y-34990000D03*
X256410000Y-34190000D03*
X256410000Y-33390000D03*
X256410000Y-32590000D03*
X256410000Y-31790000D03*
X256410000Y-30990000D03*
X256410000Y-30190000D03*
X256410000Y-29390000D03*
X256410000Y-28590000D03*
X256410000Y-27790000D03*
X256410000Y-26990000D03*
D10*
X255510000Y-25890000D03*
X254710000Y-25890000D03*
X253910000Y-25890000D03*
X253110000Y-25890000D03*
X252310000Y-25890000D03*
X251510000Y-25890000D03*
X250710000Y-25890000D03*
X249910000Y-25890000D03*
X249110000Y-25890000D03*
X248310000Y-25890000D03*
X247510000Y-25890000D03*
D11*
X246610000Y-26990000D03*
X246610000Y-27790000D03*
X246610000Y-28590000D03*
X246610000Y-29390000D03*
X246610000Y-30190000D03*
X246610000Y-30990000D03*
X246610000Y-31790000D03*
X246610000Y-32590000D03*
X246610000Y-33390000D03*
X246610000Y-34190000D03*
X246610000Y-34990000D03*
X246610000Y-35790000D03*
X246610000Y-36590000D03*
D12*
X249535000Y-33765000D03*
X251510000Y-33765000D03*
X253485000Y-33765000D03*
X253485000Y-31790000D03*
X253485000Y-29815000D03*
X251510000Y-29815000D03*
X249535000Y-29815000D03*
X249535000Y-31790000D03*
X251510000Y-31790000D03*
D13*
X246560000Y-25840000D03*
X256460000Y-25840000D03*
X256460000Y-37740000D03*
X246560000Y-37740000D03*
%TD*%
D10*
%TO.C,U1*%
X247510000Y-110810000D03*
X248310000Y-110810000D03*
X249110000Y-110810000D03*
X249910000Y-110810000D03*
X250710000Y-110810000D03*
X251510000Y-110810000D03*
X252310000Y-110810000D03*
X253110000Y-110810000D03*
X253910000Y-110810000D03*
X254710000Y-110810000D03*
X255510000Y-110810000D03*
D11*
X256410000Y-109710000D03*
X256410000Y-108910000D03*
X256410000Y-108110000D03*
X256410000Y-107310000D03*
X256410000Y-106510000D03*
X256410000Y-105710000D03*
X256410000Y-104910000D03*
X256410000Y-104110000D03*
X256410000Y-103310000D03*
X256410000Y-102510000D03*
X256410000Y-101710000D03*
X256410000Y-100910000D03*
X256410000Y-100110000D03*
D10*
X255510000Y-99010000D03*
X254710000Y-99010000D03*
X253910000Y-99010000D03*
X253110000Y-99010000D03*
X252310000Y-99010000D03*
X251510000Y-99010000D03*
X250710000Y-99010000D03*
X249910000Y-99010000D03*
X249110000Y-99010000D03*
X248310000Y-99010000D03*
X247510000Y-99010000D03*
D11*
X246610000Y-100110000D03*
X246610000Y-100910000D03*
X246610000Y-101710000D03*
X246610000Y-102510000D03*
X246610000Y-103310000D03*
X246610000Y-104110000D03*
X246610000Y-104910000D03*
X246610000Y-105710000D03*
X246610000Y-106510000D03*
X246610000Y-107310000D03*
X246610000Y-108110000D03*
X246610000Y-108910000D03*
X246610000Y-109710000D03*
D12*
X249535000Y-106885000D03*
X251510000Y-106885000D03*
X253485000Y-106885000D03*
X253485000Y-104910000D03*
X253485000Y-102935000D03*
X251510000Y-102935000D03*
X249535000Y-102935000D03*
X249535000Y-104910000D03*
X251510000Y-104910000D03*
D13*
X246560000Y-98960000D03*
X256460000Y-98960000D03*
X256460000Y-110860000D03*
X246560000Y-110860000D03*
%TD*%
D14*
%TO.C,C5*%
X150355000Y-120269000D03*
X151905000Y-120269000D03*
%TD*%
%TO.C,C5*%
X266155000Y-83709000D03*
X267705000Y-83709000D03*
%TD*%
%TO.C,C5*%
X266155000Y-47149000D03*
X267705000Y-47149000D03*
%TD*%
%TO.C,C5*%
X266155000Y-28869000D03*
X267705000Y-28869000D03*
%TD*%
%TO.C,C5*%
X266155000Y-10589000D03*
X267705000Y-10589000D03*
%TD*%
%TO.C,C5*%
X227555000Y-28869000D03*
X229105000Y-28869000D03*
%TD*%
%TO.C,C5*%
X227555000Y-10589000D03*
X229105000Y-10589000D03*
%TD*%
%TO.C,C5*%
X266155000Y-65429000D03*
X267705000Y-65429000D03*
%TD*%
%TO.C,C5*%
X266155000Y-101989000D03*
X267705000Y-101989000D03*
%TD*%
%TO.C,C5*%
X266155000Y-120269000D03*
X267705000Y-120269000D03*
%TD*%
%TO.C,C5*%
X150355000Y-47149000D03*
X151905000Y-47149000D03*
%TD*%
%TO.C,C5*%
X227555000Y-101989000D03*
X229105000Y-101989000D03*
%TD*%
%TO.C,C5*%
X227555000Y-47149000D03*
X229105000Y-47149000D03*
%TD*%
%TO.C,C5*%
X150355000Y-28869000D03*
X151905000Y-28869000D03*
%TD*%
%TO.C,C5*%
X150355000Y-65429000D03*
X151905000Y-65429000D03*
%TD*%
%TO.C,C5*%
X188955000Y-101989000D03*
X190505000Y-101989000D03*
%TD*%
%TO.C,C5*%
X150355000Y-83709000D03*
X151905000Y-83709000D03*
%TD*%
%TO.C,C5*%
X150355000Y-101989000D03*
X151905000Y-101989000D03*
%TD*%
%TO.C,C5*%
X150355000Y-10589000D03*
X151905000Y-10589000D03*
%TD*%
%TO.C,C5*%
X188955000Y-120269000D03*
X190505000Y-120269000D03*
%TD*%
%TO.C,C5*%
X188955000Y-28869000D03*
X190505000Y-28869000D03*
%TD*%
%TO.C,C5*%
X188955000Y-10589000D03*
X190505000Y-10589000D03*
%TD*%
%TO.C,C5*%
X227555000Y-120269000D03*
X229105000Y-120269000D03*
%TD*%
%TO.C,C5*%
X188955000Y-47149000D03*
X190505000Y-47149000D03*
%TD*%
%TO.C,C5*%
X227555000Y-83709000D03*
X229105000Y-83709000D03*
%TD*%
%TO.C,C5*%
X188955000Y-83709000D03*
X190505000Y-83709000D03*
%TD*%
%TO.C,C5*%
X188955000Y-65429000D03*
X190505000Y-65429000D03*
%TD*%
%TO.C,C5*%
X227555000Y-65429000D03*
X229105000Y-65429000D03*
%TD*%
D15*
%TO.C,R2*%
X155765000Y-127762000D03*
X154115000Y-127762000D03*
%TD*%
%TO.C,R2*%
X232965000Y-127762000D03*
X231315000Y-127762000D03*
%TD*%
%TO.C,R2*%
X194365000Y-18082000D03*
X192715000Y-18082000D03*
%TD*%
%TO.C,R2*%
X232965000Y-18082000D03*
X231315000Y-18082000D03*
%TD*%
%TO.C,R2*%
X194365000Y-36362000D03*
X192715000Y-36362000D03*
%TD*%
%TO.C,R2*%
X155765000Y-109482000D03*
X154115000Y-109482000D03*
%TD*%
%TO.C,R2*%
X155765000Y-18082000D03*
X154115000Y-18082000D03*
%TD*%
%TO.C,R2*%
X155765000Y-54642000D03*
X154115000Y-54642000D03*
%TD*%
%TO.C,R2*%
X232965000Y-91202000D03*
X231315000Y-91202000D03*
%TD*%
%TO.C,R2*%
X194365000Y-54642000D03*
X192715000Y-54642000D03*
%TD*%
%TO.C,R2*%
X194365000Y-91202000D03*
X192715000Y-91202000D03*
%TD*%
%TO.C,R2*%
X194365000Y-109482000D03*
X192715000Y-109482000D03*
%TD*%
%TO.C,R2*%
X232965000Y-109482000D03*
X231315000Y-109482000D03*
%TD*%
%TO.C,R2*%
X271565000Y-36362000D03*
X269915000Y-36362000D03*
%TD*%
%TO.C,R2*%
X155765000Y-91202000D03*
X154115000Y-91202000D03*
%TD*%
%TO.C,R2*%
X194365000Y-72922000D03*
X192715000Y-72922000D03*
%TD*%
%TO.C,R2*%
X155765000Y-36362000D03*
X154115000Y-36362000D03*
%TD*%
%TO.C,R2*%
X232965000Y-72922000D03*
X231315000Y-72922000D03*
%TD*%
%TO.C,R2*%
X155765000Y-72922000D03*
X154115000Y-72922000D03*
%TD*%
%TO.C,R2*%
X194365000Y-127762000D03*
X192715000Y-127762000D03*
%TD*%
%TO.C,R2*%
X232965000Y-54642000D03*
X231315000Y-54642000D03*
%TD*%
%TO.C,R2*%
X232965000Y-36362000D03*
X231315000Y-36362000D03*
%TD*%
%TO.C,R2*%
X271565000Y-54642000D03*
X269915000Y-54642000D03*
%TD*%
%TO.C,R2*%
X271565000Y-72922000D03*
X269915000Y-72922000D03*
%TD*%
%TO.C,R2*%
X271565000Y-18082000D03*
X269915000Y-18082000D03*
%TD*%
%TO.C,R2*%
X271565000Y-127762000D03*
X269915000Y-127762000D03*
%TD*%
%TO.C,R2*%
X271565000Y-91202000D03*
X269915000Y-91202000D03*
%TD*%
%TO.C,R2*%
X271565000Y-109482000D03*
X269915000Y-109482000D03*
%TD*%
%TO.C,R3*%
X144335000Y-124460000D03*
X142685000Y-124460000D03*
%TD*%
%TO.C,R3*%
X144335000Y-51340000D03*
X142685000Y-51340000D03*
%TD*%
%TO.C,R3*%
X144335000Y-87900000D03*
X142685000Y-87900000D03*
%TD*%
%TO.C,R3*%
X144335000Y-69620000D03*
X142685000Y-69620000D03*
%TD*%
%TO.C,R3*%
X182935000Y-14780000D03*
X181285000Y-14780000D03*
%TD*%
%TO.C,R3*%
X144335000Y-106180000D03*
X142685000Y-106180000D03*
%TD*%
%TO.C,R3*%
X144335000Y-14780000D03*
X142685000Y-14780000D03*
%TD*%
%TO.C,R3*%
X182935000Y-87900000D03*
X181285000Y-87900000D03*
%TD*%
%TO.C,R3*%
X182935000Y-124460000D03*
X181285000Y-124460000D03*
%TD*%
%TO.C,R3*%
X182935000Y-33060000D03*
X181285000Y-33060000D03*
%TD*%
%TO.C,R3*%
X182935000Y-69620000D03*
X181285000Y-69620000D03*
%TD*%
%TO.C,R3*%
X182935000Y-106180000D03*
X181285000Y-106180000D03*
%TD*%
%TO.C,R3*%
X221535000Y-87900000D03*
X219885000Y-87900000D03*
%TD*%
%TO.C,R3*%
X221535000Y-33060000D03*
X219885000Y-33060000D03*
%TD*%
%TO.C,R3*%
X221535000Y-14780000D03*
X219885000Y-14780000D03*
%TD*%
%TO.C,R3*%
X182935000Y-51340000D03*
X181285000Y-51340000D03*
%TD*%
%TO.C,R3*%
X221535000Y-69620000D03*
X219885000Y-69620000D03*
%TD*%
%TO.C,R3*%
X260135000Y-87900000D03*
X258485000Y-87900000D03*
%TD*%
%TO.C,R3*%
X221535000Y-124460000D03*
X219885000Y-124460000D03*
%TD*%
%TO.C,R3*%
X260135000Y-69620000D03*
X258485000Y-69620000D03*
%TD*%
%TO.C,R3*%
X260135000Y-51340000D03*
X258485000Y-51340000D03*
%TD*%
%TO.C,R3*%
X221535000Y-51340000D03*
X219885000Y-51340000D03*
%TD*%
%TO.C,R3*%
X260135000Y-33060000D03*
X258485000Y-33060000D03*
%TD*%
%TO.C,R3*%
X260135000Y-124460000D03*
X258485000Y-124460000D03*
%TD*%
%TO.C,R3*%
X144335000Y-33060000D03*
X142685000Y-33060000D03*
%TD*%
%TO.C,R3*%
X221535000Y-106180000D03*
X219885000Y-106180000D03*
%TD*%
%TO.C,R3*%
X260135000Y-14780000D03*
X258485000Y-14780000D03*
%TD*%
%TO.C,R3*%
X260135000Y-106180000D03*
X258485000Y-106180000D03*
%TD*%
D16*
%TO.C,D1*%
X146812000Y-123977500D03*
X146812000Y-122402500D03*
%TD*%
%TO.C,D1*%
X146812000Y-87417500D03*
X146812000Y-85842500D03*
%TD*%
%TO.C,D1*%
X146812000Y-105697500D03*
X146812000Y-104122500D03*
%TD*%
%TO.C,D1*%
X146812000Y-69137500D03*
X146812000Y-67562500D03*
%TD*%
%TO.C,D1*%
X146812000Y-50857500D03*
X146812000Y-49282500D03*
%TD*%
%TO.C,D1*%
X146812000Y-32577500D03*
X146812000Y-31002500D03*
%TD*%
%TO.C,D1*%
X146812000Y-14297500D03*
X146812000Y-12722500D03*
%TD*%
%TO.C,D1*%
X185412000Y-123977500D03*
X185412000Y-122402500D03*
%TD*%
%TO.C,D1*%
X185412000Y-105697500D03*
X185412000Y-104122500D03*
%TD*%
%TO.C,D1*%
X185412000Y-87417500D03*
X185412000Y-85842500D03*
%TD*%
%TO.C,D1*%
X262612000Y-123977500D03*
X262612000Y-122402500D03*
%TD*%
%TO.C,D1*%
X262612000Y-32577500D03*
X262612000Y-31002500D03*
%TD*%
%TO.C,D1*%
X185412000Y-14297500D03*
X185412000Y-12722500D03*
%TD*%
%TO.C,D1*%
X224012000Y-14297500D03*
X224012000Y-12722500D03*
%TD*%
%TO.C,D1*%
X262612000Y-87417500D03*
X262612000Y-85842500D03*
%TD*%
%TO.C,D1*%
X185412000Y-50857500D03*
X185412000Y-49282500D03*
%TD*%
%TO.C,D1*%
X224012000Y-105697500D03*
X224012000Y-104122500D03*
%TD*%
%TO.C,D1*%
X185412000Y-69137500D03*
X185412000Y-67562500D03*
%TD*%
%TO.C,D1*%
X185412000Y-32577500D03*
X185412000Y-31002500D03*
%TD*%
%TO.C,D1*%
X224012000Y-32577500D03*
X224012000Y-31002500D03*
%TD*%
%TO.C,D1*%
X262612000Y-69137500D03*
X262612000Y-67562500D03*
%TD*%
%TO.C,D1*%
X224012000Y-50857500D03*
X224012000Y-49282500D03*
%TD*%
%TO.C,D1*%
X224012000Y-69137500D03*
X224012000Y-67562500D03*
%TD*%
%TO.C,D1*%
X224012000Y-123977500D03*
X224012000Y-122402500D03*
%TD*%
%TO.C,D1*%
X224012000Y-87417500D03*
X224012000Y-85842500D03*
%TD*%
%TO.C,D1*%
X262612000Y-50857500D03*
X262612000Y-49282500D03*
%TD*%
%TO.C,D1*%
X262612000Y-105697500D03*
X262612000Y-104122500D03*
%TD*%
%TO.C,D1*%
X262612000Y-14297500D03*
X262612000Y-12722500D03*
%TD*%
D17*
%TO.C,*%
X120785000Y-130080000D03*
%TD*%
D18*
%TO.C,U2*%
X150180000Y-124490100D03*
X151130000Y-124490100D03*
X152080000Y-124490100D03*
X152080000Y-121889900D03*
X150180000Y-121889900D03*
%TD*%
%TO.C,U2*%
X150180000Y-51370100D03*
X151130000Y-51370100D03*
X152080000Y-51370100D03*
X152080000Y-48769900D03*
X150180000Y-48769900D03*
%TD*%
%TO.C,U2*%
X227380000Y-106210100D03*
X228330000Y-106210100D03*
X229280000Y-106210100D03*
X229280000Y-103609900D03*
X227380000Y-103609900D03*
%TD*%
%TO.C,U2*%
X150180000Y-106210100D03*
X151130000Y-106210100D03*
X152080000Y-106210100D03*
X152080000Y-103609900D03*
X150180000Y-103609900D03*
%TD*%
%TO.C,U2*%
X150180000Y-33090100D03*
X151130000Y-33090100D03*
X152080000Y-33090100D03*
X152080000Y-30489900D03*
X150180000Y-30489900D03*
%TD*%
%TO.C,U2*%
X150180000Y-14810100D03*
X151130000Y-14810100D03*
X152080000Y-14810100D03*
X152080000Y-12209900D03*
X150180000Y-12209900D03*
%TD*%
%TO.C,U2*%
X150180000Y-69650100D03*
X151130000Y-69650100D03*
X152080000Y-69650100D03*
X152080000Y-67049900D03*
X150180000Y-67049900D03*
%TD*%
%TO.C,U2*%
X188780000Y-69650100D03*
X189730000Y-69650100D03*
X190680000Y-69650100D03*
X190680000Y-67049900D03*
X188780000Y-67049900D03*
%TD*%
%TO.C,U2*%
X188780000Y-124490100D03*
X189730000Y-124490100D03*
X190680000Y-124490100D03*
X190680000Y-121889900D03*
X188780000Y-121889900D03*
%TD*%
%TO.C,U2*%
X188780000Y-51370100D03*
X189730000Y-51370100D03*
X190680000Y-51370100D03*
X190680000Y-48769900D03*
X188780000Y-48769900D03*
%TD*%
%TO.C,U2*%
X188780000Y-33090100D03*
X189730000Y-33090100D03*
X190680000Y-33090100D03*
X190680000Y-30489900D03*
X188780000Y-30489900D03*
%TD*%
%TO.C,U2*%
X150180000Y-87930100D03*
X151130000Y-87930100D03*
X152080000Y-87930100D03*
X152080000Y-85329900D03*
X150180000Y-85329900D03*
%TD*%
%TO.C,U2*%
X188780000Y-106210100D03*
X189730000Y-106210100D03*
X190680000Y-106210100D03*
X190680000Y-103609900D03*
X188780000Y-103609900D03*
%TD*%
%TO.C,U2*%
X188780000Y-87930100D03*
X189730000Y-87930100D03*
X190680000Y-87930100D03*
X190680000Y-85329900D03*
X188780000Y-85329900D03*
%TD*%
%TO.C,U2*%
X188780000Y-14810100D03*
X189730000Y-14810100D03*
X190680000Y-14810100D03*
X190680000Y-12209900D03*
X188780000Y-12209900D03*
%TD*%
%TO.C,U2*%
X227380000Y-124490100D03*
X228330000Y-124490100D03*
X229280000Y-124490100D03*
X229280000Y-121889900D03*
X227380000Y-121889900D03*
%TD*%
%TO.C,U2*%
X265980000Y-106210100D03*
X266930000Y-106210100D03*
X267880000Y-106210100D03*
X267880000Y-103609900D03*
X265980000Y-103609900D03*
%TD*%
%TO.C,U2*%
X227380000Y-14810100D03*
X228330000Y-14810100D03*
X229280000Y-14810100D03*
X229280000Y-12209900D03*
X227380000Y-12209900D03*
%TD*%
%TO.C,U2*%
X227380000Y-69650100D03*
X228330000Y-69650100D03*
X229280000Y-69650100D03*
X229280000Y-67049900D03*
X227380000Y-67049900D03*
%TD*%
%TO.C,U2*%
X265980000Y-87930100D03*
X266930000Y-87930100D03*
X267880000Y-87930100D03*
X267880000Y-85329900D03*
X265980000Y-85329900D03*
%TD*%
%TO.C,U2*%
X265980000Y-124490100D03*
X266930000Y-124490100D03*
X267880000Y-124490100D03*
X267880000Y-121889900D03*
X265980000Y-121889900D03*
%TD*%
%TO.C,U2*%
X227380000Y-33090100D03*
X228330000Y-33090100D03*
X229280000Y-33090100D03*
X229280000Y-30489900D03*
X227380000Y-30489900D03*
%TD*%
%TO.C,U2*%
X265980000Y-51370100D03*
X266930000Y-51370100D03*
X267880000Y-51370100D03*
X267880000Y-48769900D03*
X265980000Y-48769900D03*
%TD*%
%TO.C,U2*%
X265980000Y-33090100D03*
X266930000Y-33090100D03*
X267880000Y-33090100D03*
X267880000Y-30489900D03*
X265980000Y-30489900D03*
%TD*%
%TO.C,U2*%
X265980000Y-14810100D03*
X266930000Y-14810100D03*
X267880000Y-14810100D03*
X267880000Y-12209900D03*
X265980000Y-12209900D03*
%TD*%
%TO.C,U2*%
X227380000Y-87930100D03*
X228330000Y-87930100D03*
X229280000Y-87930100D03*
X229280000Y-85329900D03*
X227380000Y-85329900D03*
%TD*%
%TO.C,U2*%
X227380000Y-51370100D03*
X228330000Y-51370100D03*
X229280000Y-51370100D03*
X229280000Y-48769900D03*
X227380000Y-48769900D03*
%TD*%
%TO.C,U2*%
X265980000Y-69650100D03*
X266930000Y-69650100D03*
X267880000Y-69650100D03*
X267880000Y-67049900D03*
X265980000Y-67049900D03*
%TD*%
D17*
%TO.C,*%
X287115000Y-6620000D03*
%TD*%
D19*
%TO.C,C1*%
X151905000Y-126111000D03*
X150355000Y-126111000D03*
%TD*%
%TO.C,C1*%
X190505000Y-52991000D03*
X188955000Y-52991000D03*
%TD*%
%TO.C,C1*%
X190505000Y-89551000D03*
X188955000Y-89551000D03*
%TD*%
%TO.C,C1*%
X267705000Y-107831000D03*
X266155000Y-107831000D03*
%TD*%
%TO.C,C1*%
X190505000Y-107831000D03*
X188955000Y-107831000D03*
%TD*%
%TO.C,C1*%
X190505000Y-71271000D03*
X188955000Y-71271000D03*
%TD*%
%TO.C,C1*%
X229105000Y-126111000D03*
X227555000Y-126111000D03*
%TD*%
%TO.C,C1*%
X229105000Y-71271000D03*
X227555000Y-71271000D03*
%TD*%
%TO.C,C1*%
X151905000Y-34711000D03*
X150355000Y-34711000D03*
%TD*%
%TO.C,C1*%
X151905000Y-71271000D03*
X150355000Y-71271000D03*
%TD*%
%TO.C,C1*%
X229105000Y-34711000D03*
X227555000Y-34711000D03*
%TD*%
%TO.C,C1*%
X229105000Y-107831000D03*
X227555000Y-107831000D03*
%TD*%
%TO.C,C1*%
X151905000Y-16431000D03*
X150355000Y-16431000D03*
%TD*%
%TO.C,C1*%
X229105000Y-16431000D03*
X227555000Y-16431000D03*
%TD*%
%TO.C,C1*%
X267705000Y-126111000D03*
X266155000Y-126111000D03*
%TD*%
%TO.C,C1*%
X151905000Y-89551000D03*
X150355000Y-89551000D03*
%TD*%
%TO.C,C1*%
X190505000Y-16431000D03*
X188955000Y-16431000D03*
%TD*%
%TO.C,C1*%
X190505000Y-126111000D03*
X188955000Y-126111000D03*
%TD*%
%TO.C,C1*%
X151905000Y-52991000D03*
X150355000Y-52991000D03*
%TD*%
%TO.C,C1*%
X190505000Y-34711000D03*
X188955000Y-34711000D03*
%TD*%
%TO.C,C1*%
X151905000Y-107831000D03*
X150355000Y-107831000D03*
%TD*%
%TO.C,C1*%
X229105000Y-89551000D03*
X227555000Y-89551000D03*
%TD*%
%TO.C,C1*%
X229105000Y-52991000D03*
X227555000Y-52991000D03*
%TD*%
%TO.C,C1*%
X267705000Y-52991000D03*
X266155000Y-52991000D03*
%TD*%
%TO.C,C1*%
X267705000Y-16431000D03*
X266155000Y-16431000D03*
%TD*%
%TO.C,C1*%
X267705000Y-34711000D03*
X266155000Y-34711000D03*
%TD*%
%TO.C,C1*%
X267705000Y-71271000D03*
X266155000Y-71271000D03*
%TD*%
%TO.C,C1*%
X267705000Y-89551000D03*
X266155000Y-89551000D03*
%TD*%
D17*
%TO.C,*%
X120785000Y-6620000D03*
%TD*%
D20*
%TO.C,J1*%
X161290000Y-129540000D03*
X161290000Y-127000000D03*
X161290000Y-124460000D03*
X161290000Y-121920000D03*
X161290000Y-119380000D03*
X161290000Y-116840000D03*
%TD*%
%TO.C,J1*%
X161290000Y-111260000D03*
X161290000Y-108720000D03*
X161290000Y-106180000D03*
X161290000Y-103640000D03*
X161290000Y-101100000D03*
X161290000Y-98560000D03*
%TD*%
%TO.C,J1*%
X161290000Y-92980000D03*
X161290000Y-90440000D03*
X161290000Y-87900000D03*
X161290000Y-85360000D03*
X161290000Y-82820000D03*
X161290000Y-80280000D03*
%TD*%
%TO.C,J1*%
X161290000Y-74700000D03*
X161290000Y-72160000D03*
X161290000Y-69620000D03*
X161290000Y-67080000D03*
X161290000Y-64540000D03*
X161290000Y-62000000D03*
%TD*%
%TO.C,J1*%
X161290000Y-56420000D03*
X161290000Y-53880000D03*
X161290000Y-51340000D03*
X161290000Y-48800000D03*
X161290000Y-46260000D03*
X161290000Y-43720000D03*
%TD*%
%TO.C,J1*%
X161290000Y-38140000D03*
X161290000Y-35600000D03*
X161290000Y-33060000D03*
X161290000Y-30520000D03*
X161290000Y-27980000D03*
X161290000Y-25440000D03*
%TD*%
%TO.C,J1*%
X199890000Y-74700000D03*
X199890000Y-72160000D03*
X199890000Y-69620000D03*
X199890000Y-67080000D03*
X199890000Y-64540000D03*
X199890000Y-62000000D03*
%TD*%
%TO.C,J1*%
X277090000Y-92980000D03*
X277090000Y-90440000D03*
X277090000Y-87900000D03*
X277090000Y-85360000D03*
X277090000Y-82820000D03*
X277090000Y-80280000D03*
%TD*%
%TO.C,J1*%
X199890000Y-92980000D03*
X199890000Y-90440000D03*
X199890000Y-87900000D03*
X199890000Y-85360000D03*
X199890000Y-82820000D03*
X199890000Y-80280000D03*
%TD*%
%TO.C,J1*%
X277090000Y-19860000D03*
X277090000Y-17320000D03*
X277090000Y-14780000D03*
X277090000Y-12240000D03*
X277090000Y-9700000D03*
X277090000Y-7160000D03*
%TD*%
%TO.C,J1*%
X277090000Y-56420000D03*
X277090000Y-53880000D03*
X277090000Y-51340000D03*
X277090000Y-48800000D03*
X277090000Y-46260000D03*
X277090000Y-43720000D03*
%TD*%
%TO.C,J1*%
X161290000Y-19860000D03*
X161290000Y-17320000D03*
X161290000Y-14780000D03*
X161290000Y-12240000D03*
X161290000Y-9700000D03*
X161290000Y-7160000D03*
%TD*%
%TO.C,J1*%
X199890000Y-111260000D03*
X199890000Y-108720000D03*
X199890000Y-106180000D03*
X199890000Y-103640000D03*
X199890000Y-101100000D03*
X199890000Y-98560000D03*
%TD*%
%TO.C,J1*%
X199890000Y-19860000D03*
X199890000Y-17320000D03*
X199890000Y-14780000D03*
X199890000Y-12240000D03*
X199890000Y-9700000D03*
X199890000Y-7160000D03*
%TD*%
%TO.C,J1*%
X199890000Y-129540000D03*
X199890000Y-127000000D03*
X199890000Y-124460000D03*
X199890000Y-121920000D03*
X199890000Y-119380000D03*
X199890000Y-116840000D03*
%TD*%
%TO.C,J1*%
X199890000Y-56420000D03*
X199890000Y-53880000D03*
X199890000Y-51340000D03*
X199890000Y-48800000D03*
X199890000Y-46260000D03*
X199890000Y-43720000D03*
%TD*%
%TO.C,J1*%
X238490000Y-111260000D03*
X238490000Y-108720000D03*
X238490000Y-106180000D03*
X238490000Y-103640000D03*
X238490000Y-101100000D03*
X238490000Y-98560000D03*
%TD*%
%TO.C,J1*%
X238490000Y-92980000D03*
X238490000Y-90440000D03*
X238490000Y-87900000D03*
X238490000Y-85360000D03*
X238490000Y-82820000D03*
X238490000Y-80280000D03*
%TD*%
%TO.C,J1*%
X238490000Y-38140000D03*
X238490000Y-35600000D03*
X238490000Y-33060000D03*
X238490000Y-30520000D03*
X238490000Y-27980000D03*
X238490000Y-25440000D03*
%TD*%
%TO.C,J1*%
X238490000Y-19860000D03*
X238490000Y-17320000D03*
X238490000Y-14780000D03*
X238490000Y-12240000D03*
X238490000Y-9700000D03*
X238490000Y-7160000D03*
%TD*%
%TO.C,J1*%
X199890000Y-38140000D03*
X199890000Y-35600000D03*
X199890000Y-33060000D03*
X199890000Y-30520000D03*
X199890000Y-27980000D03*
X199890000Y-25440000D03*
%TD*%
%TO.C,J1*%
X277090000Y-111260000D03*
X277090000Y-108720000D03*
X277090000Y-106180000D03*
X277090000Y-103640000D03*
X277090000Y-101100000D03*
X277090000Y-98560000D03*
%TD*%
%TO.C,J1*%
X238490000Y-74700000D03*
X238490000Y-72160000D03*
X238490000Y-69620000D03*
X238490000Y-67080000D03*
X238490000Y-64540000D03*
X238490000Y-62000000D03*
%TD*%
%TO.C,J1*%
X238490000Y-129540000D03*
X238490000Y-127000000D03*
X238490000Y-124460000D03*
X238490000Y-121920000D03*
X238490000Y-119380000D03*
X238490000Y-116840000D03*
%TD*%
%TO.C,J1*%
X238490000Y-56420000D03*
X238490000Y-53880000D03*
X238490000Y-51340000D03*
X238490000Y-48800000D03*
X238490000Y-46260000D03*
X238490000Y-43720000D03*
%TD*%
%TO.C,J1*%
X277090000Y-129540000D03*
X277090000Y-127000000D03*
X277090000Y-124460000D03*
X277090000Y-121920000D03*
X277090000Y-119380000D03*
X277090000Y-116840000D03*
%TD*%
%TO.C,J1*%
X277090000Y-74700000D03*
X277090000Y-72160000D03*
X277090000Y-69620000D03*
X277090000Y-67080000D03*
X277090000Y-64540000D03*
X277090000Y-62000000D03*
%TD*%
%TO.C,J1*%
X277090000Y-38140000D03*
X277090000Y-35600000D03*
X277090000Y-33060000D03*
X277090000Y-30520000D03*
X277090000Y-27980000D03*
X277090000Y-25440000D03*
%TD*%
D15*
%TO.C,R1*%
X155765000Y-118618000D03*
X154115000Y-118618000D03*
%TD*%
%TO.C,R1*%
X155765000Y-82058000D03*
X154115000Y-82058000D03*
%TD*%
%TO.C,R1*%
X232965000Y-82058000D03*
X231315000Y-82058000D03*
%TD*%
%TO.C,R1*%
X232965000Y-27218000D03*
X231315000Y-27218000D03*
%TD*%
%TO.C,R1*%
X194365000Y-118618000D03*
X192715000Y-118618000D03*
%TD*%
%TO.C,R1*%
X271565000Y-82058000D03*
X269915000Y-82058000D03*
%TD*%
%TO.C,R1*%
X271565000Y-45498000D03*
X269915000Y-45498000D03*
%TD*%
%TO.C,R1*%
X232965000Y-8938000D03*
X231315000Y-8938000D03*
%TD*%
%TO.C,R1*%
X271565000Y-8938000D03*
X269915000Y-8938000D03*
%TD*%
%TO.C,R1*%
X232965000Y-45498000D03*
X231315000Y-45498000D03*
%TD*%
%TO.C,R1*%
X155765000Y-27218000D03*
X154115000Y-27218000D03*
%TD*%
%TO.C,R1*%
X155765000Y-45498000D03*
X154115000Y-45498000D03*
%TD*%
%TO.C,R1*%
X155765000Y-8938000D03*
X154115000Y-8938000D03*
%TD*%
%TO.C,R1*%
X194365000Y-82058000D03*
X192715000Y-82058000D03*
%TD*%
%TO.C,R1*%
X194365000Y-27218000D03*
X192715000Y-27218000D03*
%TD*%
%TO.C,R1*%
X155765000Y-63778000D03*
X154115000Y-63778000D03*
%TD*%
%TO.C,R1*%
X194365000Y-100338000D03*
X192715000Y-100338000D03*
%TD*%
%TO.C,R1*%
X194365000Y-63778000D03*
X192715000Y-63778000D03*
%TD*%
%TO.C,R1*%
X194365000Y-45498000D03*
X192715000Y-45498000D03*
%TD*%
%TO.C,R1*%
X194365000Y-8938000D03*
X192715000Y-8938000D03*
%TD*%
%TO.C,R1*%
X232965000Y-100338000D03*
X231315000Y-100338000D03*
%TD*%
%TO.C,R1*%
X232965000Y-118618000D03*
X231315000Y-118618000D03*
%TD*%
%TO.C,R1*%
X232965000Y-63778000D03*
X231315000Y-63778000D03*
%TD*%
%TO.C,R1*%
X271565000Y-118618000D03*
X269915000Y-118618000D03*
%TD*%
%TO.C,R1*%
X271565000Y-100338000D03*
X269915000Y-100338000D03*
%TD*%
%TO.C,R1*%
X271565000Y-63778000D03*
X269915000Y-63778000D03*
%TD*%
%TO.C,R1*%
X271565000Y-27218000D03*
X269915000Y-27218000D03*
%TD*%
%TO.C,R1*%
X155765000Y-100338000D03*
X154115000Y-100338000D03*
%TD*%
D21*
%TO.C,SW2*%
X142730000Y-126200000D03*
X146830000Y-126200000D03*
X142730000Y-127800000D03*
X146830000Y-127800000D03*
%TD*%
%TO.C,SW2*%
X142730000Y-107920000D03*
X146830000Y-107920000D03*
X142730000Y-109520000D03*
X146830000Y-109520000D03*
%TD*%
%TO.C,SW2*%
X142730000Y-71360000D03*
X146830000Y-71360000D03*
X142730000Y-72960000D03*
X146830000Y-72960000D03*
%TD*%
%TO.C,SW2*%
X142730000Y-89640000D03*
X146830000Y-89640000D03*
X142730000Y-91240000D03*
X146830000Y-91240000D03*
%TD*%
%TO.C,SW2*%
X181330000Y-71360000D03*
X185430000Y-71360000D03*
X181330000Y-72960000D03*
X185430000Y-72960000D03*
%TD*%
%TO.C,SW2*%
X219930000Y-107920000D03*
X224030000Y-107920000D03*
X219930000Y-109520000D03*
X224030000Y-109520000D03*
%TD*%
%TO.C,SW2*%
X258530000Y-71360000D03*
X262630000Y-71360000D03*
X258530000Y-72960000D03*
X262630000Y-72960000D03*
%TD*%
%TO.C,SW2*%
X258530000Y-34800000D03*
X262630000Y-34800000D03*
X258530000Y-36400000D03*
X262630000Y-36400000D03*
%TD*%
%TO.C,SW2*%
X219930000Y-16520000D03*
X224030000Y-16520000D03*
X219930000Y-18120000D03*
X224030000Y-18120000D03*
%TD*%
%TO.C,SW2*%
X258530000Y-107920000D03*
X262630000Y-107920000D03*
X258530000Y-109520000D03*
X262630000Y-109520000D03*
%TD*%
%TO.C,SW2*%
X219930000Y-126200000D03*
X224030000Y-126200000D03*
X219930000Y-127800000D03*
X224030000Y-127800000D03*
%TD*%
%TO.C,SW2*%
X219930000Y-71360000D03*
X224030000Y-71360000D03*
X219930000Y-72960000D03*
X224030000Y-72960000D03*
%TD*%
%TO.C,SW2*%
X181330000Y-53080000D03*
X185430000Y-53080000D03*
X181330000Y-54680000D03*
X185430000Y-54680000D03*
%TD*%
%TO.C,SW2*%
X181330000Y-34800000D03*
X185430000Y-34800000D03*
X181330000Y-36400000D03*
X185430000Y-36400000D03*
%TD*%
%TO.C,SW2*%
X142730000Y-53080000D03*
X146830000Y-53080000D03*
X142730000Y-54680000D03*
X146830000Y-54680000D03*
%TD*%
%TO.C,SW2*%
X219930000Y-89640000D03*
X224030000Y-89640000D03*
X219930000Y-91240000D03*
X224030000Y-91240000D03*
%TD*%
%TO.C,SW2*%
X181330000Y-89640000D03*
X185430000Y-89640000D03*
X181330000Y-91240000D03*
X185430000Y-91240000D03*
%TD*%
%TO.C,SW2*%
X258530000Y-89640000D03*
X262630000Y-89640000D03*
X258530000Y-91240000D03*
X262630000Y-91240000D03*
%TD*%
%TO.C,SW2*%
X258530000Y-126200000D03*
X262630000Y-126200000D03*
X258530000Y-127800000D03*
X262630000Y-127800000D03*
%TD*%
%TO.C,SW2*%
X219930000Y-53080000D03*
X224030000Y-53080000D03*
X219930000Y-54680000D03*
X224030000Y-54680000D03*
%TD*%
%TO.C,SW2*%
X142730000Y-34800000D03*
X146830000Y-34800000D03*
X142730000Y-36400000D03*
X146830000Y-36400000D03*
%TD*%
%TO.C,SW2*%
X181330000Y-107920000D03*
X185430000Y-107920000D03*
X181330000Y-109520000D03*
X185430000Y-109520000D03*
%TD*%
%TO.C,SW2*%
X142730000Y-16520000D03*
X146830000Y-16520000D03*
X142730000Y-18120000D03*
X146830000Y-18120000D03*
%TD*%
%TO.C,SW2*%
X181330000Y-126200000D03*
X185430000Y-126200000D03*
X181330000Y-127800000D03*
X185430000Y-127800000D03*
%TD*%
%TO.C,SW2*%
X181330000Y-16520000D03*
X185430000Y-16520000D03*
X181330000Y-18120000D03*
X185430000Y-18120000D03*
%TD*%
%TO.C,SW2*%
X219930000Y-34800000D03*
X224030000Y-34800000D03*
X219930000Y-36400000D03*
X224030000Y-36400000D03*
%TD*%
%TO.C,SW2*%
X258530000Y-53080000D03*
X262630000Y-53080000D03*
X258530000Y-54680000D03*
X262630000Y-54680000D03*
%TD*%
%TO.C,SW2*%
X258530000Y-16520000D03*
X262630000Y-16520000D03*
X258530000Y-18120000D03*
X262630000Y-18120000D03*
%TD*%
D14*
%TO.C,C6*%
X150355000Y-118618000D03*
X151905000Y-118618000D03*
%TD*%
%TO.C,C6*%
X150355000Y-100338000D03*
X151905000Y-100338000D03*
%TD*%
%TO.C,C6*%
X150355000Y-27218000D03*
X151905000Y-27218000D03*
%TD*%
%TO.C,C6*%
X188955000Y-82058000D03*
X190505000Y-82058000D03*
%TD*%
%TO.C,C6*%
X227555000Y-100338000D03*
X229105000Y-100338000D03*
%TD*%
%TO.C,C6*%
X150355000Y-82058000D03*
X151905000Y-82058000D03*
%TD*%
%TO.C,C6*%
X150355000Y-8938000D03*
X151905000Y-8938000D03*
%TD*%
%TO.C,C6*%
X150355000Y-63778000D03*
X151905000Y-63778000D03*
%TD*%
%TO.C,C6*%
X150355000Y-45498000D03*
X151905000Y-45498000D03*
%TD*%
%TO.C,C6*%
X188955000Y-63778000D03*
X190505000Y-63778000D03*
%TD*%
%TO.C,C6*%
X188955000Y-100338000D03*
X190505000Y-100338000D03*
%TD*%
%TO.C,C6*%
X188955000Y-118618000D03*
X190505000Y-118618000D03*
%TD*%
%TO.C,C6*%
X188955000Y-45498000D03*
X190505000Y-45498000D03*
%TD*%
%TO.C,C6*%
X188955000Y-27218000D03*
X190505000Y-27218000D03*
%TD*%
%TO.C,C6*%
X188955000Y-8938000D03*
X190505000Y-8938000D03*
%TD*%
%TO.C,C6*%
X227555000Y-118618000D03*
X229105000Y-118618000D03*
%TD*%
%TO.C,C6*%
X266155000Y-63778000D03*
X267705000Y-63778000D03*
%TD*%
%TO.C,C6*%
X266155000Y-82058000D03*
X267705000Y-82058000D03*
%TD*%
%TO.C,C6*%
X266155000Y-45498000D03*
X267705000Y-45498000D03*
%TD*%
%TO.C,C6*%
X227555000Y-27218000D03*
X229105000Y-27218000D03*
%TD*%
%TO.C,C6*%
X227555000Y-8938000D03*
X229105000Y-8938000D03*
%TD*%
%TO.C,C6*%
X266155000Y-100338000D03*
X267705000Y-100338000D03*
%TD*%
%TO.C,C6*%
X227555000Y-63778000D03*
X229105000Y-63778000D03*
%TD*%
%TO.C,C6*%
X227555000Y-45498000D03*
X229105000Y-45498000D03*
%TD*%
%TO.C,C6*%
X266155000Y-118618000D03*
X267705000Y-118618000D03*
%TD*%
%TO.C,C6*%
X266155000Y-27218000D03*
X267705000Y-27218000D03*
%TD*%
%TO.C,C6*%
X266155000Y-8938000D03*
X267705000Y-8938000D03*
%TD*%
%TO.C,C6*%
X227555000Y-82058000D03*
X229105000Y-82058000D03*
%TD*%
D22*
%TO.C,J4*%
X153670000Y-124690000D03*
X153670000Y-123690000D03*
X153670000Y-122690000D03*
X153670000Y-121690000D03*
D23*
X157345000Y-120390000D03*
X157345000Y-125990000D03*
%TD*%
D22*
%TO.C,J4*%
X230870000Y-33290000D03*
X230870000Y-32290000D03*
X230870000Y-31290000D03*
X230870000Y-30290000D03*
D23*
X234545000Y-28990000D03*
X234545000Y-34590000D03*
%TD*%
D22*
%TO.C,J4*%
X230870000Y-15010000D03*
X230870000Y-14010000D03*
X230870000Y-13010000D03*
X230870000Y-12010000D03*
D23*
X234545000Y-10710000D03*
X234545000Y-16310000D03*
%TD*%
D22*
%TO.C,J4*%
X269470000Y-88130000D03*
X269470000Y-87130000D03*
X269470000Y-86130000D03*
X269470000Y-85130000D03*
D23*
X273145000Y-83830000D03*
X273145000Y-89430000D03*
%TD*%
D22*
%TO.C,J4*%
X269470000Y-33290000D03*
X269470000Y-32290000D03*
X269470000Y-31290000D03*
X269470000Y-30290000D03*
D23*
X273145000Y-28990000D03*
X273145000Y-34590000D03*
%TD*%
D22*
%TO.C,J4*%
X269470000Y-51570000D03*
X269470000Y-50570000D03*
X269470000Y-49570000D03*
X269470000Y-48570000D03*
D23*
X273145000Y-47270000D03*
X273145000Y-52870000D03*
%TD*%
D22*
%TO.C,J4*%
X269470000Y-106410000D03*
X269470000Y-105410000D03*
X269470000Y-104410000D03*
X269470000Y-103410000D03*
D23*
X273145000Y-102110000D03*
X273145000Y-107710000D03*
%TD*%
D22*
%TO.C,J4*%
X230870000Y-51570000D03*
X230870000Y-50570000D03*
X230870000Y-49570000D03*
X230870000Y-48570000D03*
D23*
X234545000Y-47270000D03*
X234545000Y-52870000D03*
%TD*%
D22*
%TO.C,J4*%
X269470000Y-124690000D03*
X269470000Y-123690000D03*
X269470000Y-122690000D03*
X269470000Y-121690000D03*
D23*
X273145000Y-120390000D03*
X273145000Y-125990000D03*
%TD*%
D22*
%TO.C,J4*%
X269470000Y-69850000D03*
X269470000Y-68850000D03*
X269470000Y-67850000D03*
X269470000Y-66850000D03*
D23*
X273145000Y-65550000D03*
X273145000Y-71150000D03*
%TD*%
D22*
%TO.C,J4*%
X269470000Y-15010000D03*
X269470000Y-14010000D03*
X269470000Y-13010000D03*
X269470000Y-12010000D03*
D23*
X273145000Y-10710000D03*
X273145000Y-16310000D03*
%TD*%
D22*
%TO.C,J4*%
X192270000Y-15010000D03*
X192270000Y-14010000D03*
X192270000Y-13010000D03*
X192270000Y-12010000D03*
D23*
X195945000Y-10710000D03*
X195945000Y-16310000D03*
%TD*%
D22*
%TO.C,J4*%
X153670000Y-69850000D03*
X153670000Y-68850000D03*
X153670000Y-67850000D03*
X153670000Y-66850000D03*
D23*
X157345000Y-65550000D03*
X157345000Y-71150000D03*
%TD*%
D22*
%TO.C,J4*%
X153670000Y-106410000D03*
X153670000Y-105410000D03*
X153670000Y-104410000D03*
X153670000Y-103410000D03*
D23*
X157345000Y-102110000D03*
X157345000Y-107710000D03*
%TD*%
D22*
%TO.C,J4*%
X153670000Y-51570000D03*
X153670000Y-50570000D03*
X153670000Y-49570000D03*
X153670000Y-48570000D03*
D23*
X157345000Y-47270000D03*
X157345000Y-52870000D03*
%TD*%
D22*
%TO.C,J4*%
X192270000Y-124690000D03*
X192270000Y-123690000D03*
X192270000Y-122690000D03*
X192270000Y-121690000D03*
D23*
X195945000Y-120390000D03*
X195945000Y-125990000D03*
%TD*%
D22*
%TO.C,J4*%
X153670000Y-33290000D03*
X153670000Y-32290000D03*
X153670000Y-31290000D03*
X153670000Y-30290000D03*
D23*
X157345000Y-28990000D03*
X157345000Y-34590000D03*
%TD*%
D22*
%TO.C,J4*%
X192270000Y-88130000D03*
X192270000Y-87130000D03*
X192270000Y-86130000D03*
X192270000Y-85130000D03*
D23*
X195945000Y-83830000D03*
X195945000Y-89430000D03*
%TD*%
D22*
%TO.C,J4*%
X192270000Y-51570000D03*
X192270000Y-50570000D03*
X192270000Y-49570000D03*
X192270000Y-48570000D03*
D23*
X195945000Y-47270000D03*
X195945000Y-52870000D03*
%TD*%
D22*
%TO.C,J4*%
X192270000Y-106410000D03*
X192270000Y-105410000D03*
X192270000Y-104410000D03*
X192270000Y-103410000D03*
D23*
X195945000Y-102110000D03*
X195945000Y-107710000D03*
%TD*%
D22*
%TO.C,J4*%
X192270000Y-69850000D03*
X192270000Y-68850000D03*
X192270000Y-67850000D03*
X192270000Y-66850000D03*
D23*
X195945000Y-65550000D03*
X195945000Y-71150000D03*
%TD*%
D22*
%TO.C,J4*%
X153670000Y-88130000D03*
X153670000Y-87130000D03*
X153670000Y-86130000D03*
X153670000Y-85130000D03*
D23*
X157345000Y-83830000D03*
X157345000Y-89430000D03*
%TD*%
D22*
%TO.C,J4*%
X153670000Y-15010000D03*
X153670000Y-14010000D03*
X153670000Y-13010000D03*
X153670000Y-12010000D03*
D23*
X157345000Y-10710000D03*
X157345000Y-16310000D03*
%TD*%
D22*
%TO.C,J4*%
X192270000Y-33290000D03*
X192270000Y-32290000D03*
X192270000Y-31290000D03*
X192270000Y-30290000D03*
D23*
X195945000Y-28990000D03*
X195945000Y-34590000D03*
%TD*%
D22*
%TO.C,J4*%
X230870000Y-124690000D03*
X230870000Y-123690000D03*
X230870000Y-122690000D03*
X230870000Y-121690000D03*
D23*
X234545000Y-120390000D03*
X234545000Y-125990000D03*
%TD*%
D22*
%TO.C,J4*%
X230870000Y-106410000D03*
X230870000Y-105410000D03*
X230870000Y-104410000D03*
X230870000Y-103410000D03*
D23*
X234545000Y-102110000D03*
X234545000Y-107710000D03*
%TD*%
D22*
%TO.C,J4*%
X230870000Y-88130000D03*
X230870000Y-87130000D03*
X230870000Y-86130000D03*
X230870000Y-85130000D03*
D23*
X234545000Y-83830000D03*
X234545000Y-89430000D03*
%TD*%
D22*
%TO.C,J4*%
X230870000Y-69850000D03*
X230870000Y-68850000D03*
X230870000Y-67850000D03*
X230870000Y-66850000D03*
D23*
X234545000Y-65550000D03*
X234545000Y-71150000D03*
%TD*%
D19*
%TO.C,C2*%
X151905000Y-127762000D03*
X150355000Y-127762000D03*
%TD*%
%TO.C,C2*%
X229105000Y-109482000D03*
X227555000Y-109482000D03*
%TD*%
%TO.C,C2*%
X190505000Y-127762000D03*
X188955000Y-127762000D03*
%TD*%
%TO.C,C2*%
X190505000Y-72922000D03*
X188955000Y-72922000D03*
%TD*%
%TO.C,C2*%
X151905000Y-36362000D03*
X150355000Y-36362000D03*
%TD*%
%TO.C,C2*%
X151905000Y-91202000D03*
X150355000Y-91202000D03*
%TD*%
%TO.C,C2*%
X151905000Y-72922000D03*
X150355000Y-72922000D03*
%TD*%
%TO.C,C2*%
X151905000Y-54642000D03*
X150355000Y-54642000D03*
%TD*%
%TO.C,C2*%
X151905000Y-18082000D03*
X150355000Y-18082000D03*
%TD*%
%TO.C,C2*%
X190505000Y-54642000D03*
X188955000Y-54642000D03*
%TD*%
%TO.C,C2*%
X190505000Y-36362000D03*
X188955000Y-36362000D03*
%TD*%
%TO.C,C2*%
X151905000Y-109482000D03*
X150355000Y-109482000D03*
%TD*%
%TO.C,C2*%
X190505000Y-109482000D03*
X188955000Y-109482000D03*
%TD*%
%TO.C,C2*%
X190505000Y-18082000D03*
X188955000Y-18082000D03*
%TD*%
%TO.C,C2*%
X190505000Y-91202000D03*
X188955000Y-91202000D03*
%TD*%
%TO.C,C2*%
X229105000Y-127762000D03*
X227555000Y-127762000D03*
%TD*%
%TO.C,C2*%
X229105000Y-18082000D03*
X227555000Y-18082000D03*
%TD*%
%TO.C,C2*%
X267705000Y-127762000D03*
X266155000Y-127762000D03*
%TD*%
%TO.C,C2*%
X229105000Y-72922000D03*
X227555000Y-72922000D03*
%TD*%
%TO.C,C2*%
X267705000Y-109482000D03*
X266155000Y-109482000D03*
%TD*%
%TO.C,C2*%
X267705000Y-91202000D03*
X266155000Y-91202000D03*
%TD*%
%TO.C,C2*%
X267705000Y-72922000D03*
X266155000Y-72922000D03*
%TD*%
%TO.C,C2*%
X229105000Y-54642000D03*
X227555000Y-54642000D03*
%TD*%
%TO.C,C2*%
X267705000Y-54642000D03*
X266155000Y-54642000D03*
%TD*%
%TO.C,C2*%
X267705000Y-36362000D03*
X266155000Y-36362000D03*
%TD*%
%TO.C,C2*%
X229105000Y-91202000D03*
X227555000Y-91202000D03*
%TD*%
%TO.C,C2*%
X267705000Y-18082000D03*
X266155000Y-18082000D03*
%TD*%
%TO.C,C2*%
X229105000Y-36362000D03*
X227555000Y-36362000D03*
%TD*%
D24*
%TO.C,SW1*%
X146830000Y-120180000D03*
X142730000Y-120180000D03*
X146830000Y-118580000D03*
X142730000Y-118580000D03*
%TD*%
%TO.C,SW1*%
X146830000Y-83620000D03*
X142730000Y-83620000D03*
X146830000Y-82020000D03*
X142730000Y-82020000D03*
%TD*%
%TO.C,SW1*%
X146830000Y-101900000D03*
X142730000Y-101900000D03*
X146830000Y-100300000D03*
X142730000Y-100300000D03*
%TD*%
%TO.C,SW1*%
X146830000Y-65340000D03*
X142730000Y-65340000D03*
X146830000Y-63740000D03*
X142730000Y-63740000D03*
%TD*%
%TO.C,SW1*%
X224030000Y-47060000D03*
X219930000Y-47060000D03*
X224030000Y-45460000D03*
X219930000Y-45460000D03*
%TD*%
%TO.C,SW1*%
X262630000Y-120180000D03*
X258530000Y-120180000D03*
X262630000Y-118580000D03*
X258530000Y-118580000D03*
%TD*%
%TO.C,SW1*%
X224030000Y-120180000D03*
X219930000Y-120180000D03*
X224030000Y-118580000D03*
X219930000Y-118580000D03*
%TD*%
%TO.C,SW1*%
X146830000Y-10500000D03*
X142730000Y-10500000D03*
X146830000Y-8900000D03*
X142730000Y-8900000D03*
%TD*%
%TO.C,SW1*%
X224030000Y-101900000D03*
X219930000Y-101900000D03*
X224030000Y-100300000D03*
X219930000Y-100300000D03*
%TD*%
%TO.C,SW1*%
X262630000Y-47060000D03*
X258530000Y-47060000D03*
X262630000Y-45460000D03*
X258530000Y-45460000D03*
%TD*%
%TO.C,SW1*%
X146830000Y-47060000D03*
X142730000Y-47060000D03*
X146830000Y-45460000D03*
X142730000Y-45460000D03*
%TD*%
%TO.C,SW1*%
X146830000Y-28780000D03*
X142730000Y-28780000D03*
X146830000Y-27180000D03*
X142730000Y-27180000D03*
%TD*%
%TO.C,SW1*%
X185430000Y-28780000D03*
X181330000Y-28780000D03*
X185430000Y-27180000D03*
X181330000Y-27180000D03*
%TD*%
%TO.C,SW1*%
X185430000Y-47060000D03*
X181330000Y-47060000D03*
X185430000Y-45460000D03*
X181330000Y-45460000D03*
%TD*%
%TO.C,SW1*%
X185430000Y-120180000D03*
X181330000Y-120180000D03*
X185430000Y-118580000D03*
X181330000Y-118580000D03*
%TD*%
%TO.C,SW1*%
X224030000Y-28780000D03*
X219930000Y-28780000D03*
X224030000Y-27180000D03*
X219930000Y-27180000D03*
%TD*%
%TO.C,SW1*%
X262630000Y-101900000D03*
X258530000Y-101900000D03*
X262630000Y-100300000D03*
X258530000Y-100300000D03*
%TD*%
%TO.C,SW1*%
X262630000Y-65340000D03*
X258530000Y-65340000D03*
X262630000Y-63740000D03*
X258530000Y-63740000D03*
%TD*%
%TO.C,SW1*%
X185430000Y-65340000D03*
X181330000Y-65340000D03*
X185430000Y-63740000D03*
X181330000Y-63740000D03*
%TD*%
%TO.C,SW1*%
X185430000Y-83620000D03*
X181330000Y-83620000D03*
X185430000Y-82020000D03*
X181330000Y-82020000D03*
%TD*%
%TO.C,SW1*%
X185430000Y-10500000D03*
X181330000Y-10500000D03*
X185430000Y-8900000D03*
X181330000Y-8900000D03*
%TD*%
%TO.C,SW1*%
X185430000Y-101900000D03*
X181330000Y-101900000D03*
X185430000Y-100300000D03*
X181330000Y-100300000D03*
%TD*%
%TO.C,SW1*%
X224030000Y-83620000D03*
X219930000Y-83620000D03*
X224030000Y-82020000D03*
X219930000Y-82020000D03*
%TD*%
%TO.C,SW1*%
X224030000Y-65340000D03*
X219930000Y-65340000D03*
X224030000Y-63740000D03*
X219930000Y-63740000D03*
%TD*%
%TO.C,SW1*%
X224030000Y-10500000D03*
X219930000Y-10500000D03*
X224030000Y-8900000D03*
X219930000Y-8900000D03*
%TD*%
%TO.C,SW1*%
X262630000Y-28780000D03*
X258530000Y-28780000D03*
X262630000Y-27180000D03*
X258530000Y-27180000D03*
%TD*%
%TO.C,SW1*%
X262630000Y-10500000D03*
X258530000Y-10500000D03*
X262630000Y-8900000D03*
X258530000Y-8900000D03*
%TD*%
%TO.C,SW1*%
X262630000Y-83620000D03*
X258530000Y-83620000D03*
X262630000Y-82020000D03*
X258530000Y-82020000D03*
%TD*%
D20*
%TO.C,J3*%
X130810000Y-115570000D03*
X133350000Y-115570000D03*
X135890000Y-115570000D03*
X138430000Y-115570000D03*
X140970000Y-115570000D03*
X143510000Y-115570000D03*
X146050000Y-115570000D03*
X148590000Y-115570000D03*
X151130000Y-115570000D03*
X153670000Y-115570000D03*
X156210000Y-115570000D03*
X158750000Y-115570000D03*
%TD*%
%TO.C,J3*%
X130810000Y-97290000D03*
X133350000Y-97290000D03*
X135890000Y-97290000D03*
X138430000Y-97290000D03*
X140970000Y-97290000D03*
X143510000Y-97290000D03*
X146050000Y-97290000D03*
X148590000Y-97290000D03*
X151130000Y-97290000D03*
X153670000Y-97290000D03*
X156210000Y-97290000D03*
X158750000Y-97290000D03*
%TD*%
%TO.C,J3*%
X130810000Y-79010000D03*
X133350000Y-79010000D03*
X135890000Y-79010000D03*
X138430000Y-79010000D03*
X140970000Y-79010000D03*
X143510000Y-79010000D03*
X146050000Y-79010000D03*
X148590000Y-79010000D03*
X151130000Y-79010000D03*
X153670000Y-79010000D03*
X156210000Y-79010000D03*
X158750000Y-79010000D03*
%TD*%
%TO.C,J3*%
X130810000Y-42450000D03*
X133350000Y-42450000D03*
X135890000Y-42450000D03*
X138430000Y-42450000D03*
X140970000Y-42450000D03*
X143510000Y-42450000D03*
X146050000Y-42450000D03*
X148590000Y-42450000D03*
X151130000Y-42450000D03*
X153670000Y-42450000D03*
X156210000Y-42450000D03*
X158750000Y-42450000D03*
%TD*%
%TO.C,J3*%
X130810000Y-60730000D03*
X133350000Y-60730000D03*
X135890000Y-60730000D03*
X138430000Y-60730000D03*
X140970000Y-60730000D03*
X143510000Y-60730000D03*
X146050000Y-60730000D03*
X148590000Y-60730000D03*
X151130000Y-60730000D03*
X153670000Y-60730000D03*
X156210000Y-60730000D03*
X158750000Y-60730000D03*
%TD*%
%TO.C,J3*%
X130810000Y-24170000D03*
X133350000Y-24170000D03*
X135890000Y-24170000D03*
X138430000Y-24170000D03*
X140970000Y-24170000D03*
X143510000Y-24170000D03*
X146050000Y-24170000D03*
X148590000Y-24170000D03*
X151130000Y-24170000D03*
X153670000Y-24170000D03*
X156210000Y-24170000D03*
X158750000Y-24170000D03*
%TD*%
%TO.C,J3*%
X130810000Y-5890000D03*
X133350000Y-5890000D03*
X135890000Y-5890000D03*
X138430000Y-5890000D03*
X140970000Y-5890000D03*
X143510000Y-5890000D03*
X146050000Y-5890000D03*
X148590000Y-5890000D03*
X151130000Y-5890000D03*
X153670000Y-5890000D03*
X156210000Y-5890000D03*
X158750000Y-5890000D03*
%TD*%
%TO.C,J3*%
X169410000Y-115570000D03*
X171950000Y-115570000D03*
X174490000Y-115570000D03*
X177030000Y-115570000D03*
X179570000Y-115570000D03*
X182110000Y-115570000D03*
X184650000Y-115570000D03*
X187190000Y-115570000D03*
X189730000Y-115570000D03*
X192270000Y-115570000D03*
X194810000Y-115570000D03*
X197350000Y-115570000D03*
%TD*%
%TO.C,J3*%
X169410000Y-97290000D03*
X171950000Y-97290000D03*
X174490000Y-97290000D03*
X177030000Y-97290000D03*
X179570000Y-97290000D03*
X182110000Y-97290000D03*
X184650000Y-97290000D03*
X187190000Y-97290000D03*
X189730000Y-97290000D03*
X192270000Y-97290000D03*
X194810000Y-97290000D03*
X197350000Y-97290000D03*
%TD*%
%TO.C,J3*%
X169410000Y-79010000D03*
X171950000Y-79010000D03*
X174490000Y-79010000D03*
X177030000Y-79010000D03*
X179570000Y-79010000D03*
X182110000Y-79010000D03*
X184650000Y-79010000D03*
X187190000Y-79010000D03*
X189730000Y-79010000D03*
X192270000Y-79010000D03*
X194810000Y-79010000D03*
X197350000Y-79010000D03*
%TD*%
%TO.C,J3*%
X169410000Y-60730000D03*
X171950000Y-60730000D03*
X174490000Y-60730000D03*
X177030000Y-60730000D03*
X179570000Y-60730000D03*
X182110000Y-60730000D03*
X184650000Y-60730000D03*
X187190000Y-60730000D03*
X189730000Y-60730000D03*
X192270000Y-60730000D03*
X194810000Y-60730000D03*
X197350000Y-60730000D03*
%TD*%
%TO.C,J3*%
X246610000Y-60730000D03*
X249150000Y-60730000D03*
X251690000Y-60730000D03*
X254230000Y-60730000D03*
X256770000Y-60730000D03*
X259310000Y-60730000D03*
X261850000Y-60730000D03*
X264390000Y-60730000D03*
X266930000Y-60730000D03*
X269470000Y-60730000D03*
X272010000Y-60730000D03*
X274550000Y-60730000D03*
%TD*%
%TO.C,J3*%
X246610000Y-5890000D03*
X249150000Y-5890000D03*
X251690000Y-5890000D03*
X254230000Y-5890000D03*
X256770000Y-5890000D03*
X259310000Y-5890000D03*
X261850000Y-5890000D03*
X264390000Y-5890000D03*
X266930000Y-5890000D03*
X269470000Y-5890000D03*
X272010000Y-5890000D03*
X274550000Y-5890000D03*
%TD*%
%TO.C,J3*%
X246610000Y-97290000D03*
X249150000Y-97290000D03*
X251690000Y-97290000D03*
X254230000Y-97290000D03*
X256770000Y-97290000D03*
X259310000Y-97290000D03*
X261850000Y-97290000D03*
X264390000Y-97290000D03*
X266930000Y-97290000D03*
X269470000Y-97290000D03*
X272010000Y-97290000D03*
X274550000Y-97290000D03*
%TD*%
%TO.C,J3*%
X246610000Y-42450000D03*
X249150000Y-42450000D03*
X251690000Y-42450000D03*
X254230000Y-42450000D03*
X256770000Y-42450000D03*
X259310000Y-42450000D03*
X261850000Y-42450000D03*
X264390000Y-42450000D03*
X266930000Y-42450000D03*
X269470000Y-42450000D03*
X272010000Y-42450000D03*
X274550000Y-42450000D03*
%TD*%
%TO.C,J3*%
X246610000Y-79010000D03*
X249150000Y-79010000D03*
X251690000Y-79010000D03*
X254230000Y-79010000D03*
X256770000Y-79010000D03*
X259310000Y-79010000D03*
X261850000Y-79010000D03*
X264390000Y-79010000D03*
X266930000Y-79010000D03*
X269470000Y-79010000D03*
X272010000Y-79010000D03*
X274550000Y-79010000D03*
%TD*%
%TO.C,J3*%
X246610000Y-24170000D03*
X249150000Y-24170000D03*
X251690000Y-24170000D03*
X254230000Y-24170000D03*
X256770000Y-24170000D03*
X259310000Y-24170000D03*
X261850000Y-24170000D03*
X264390000Y-24170000D03*
X266930000Y-24170000D03*
X269470000Y-24170000D03*
X272010000Y-24170000D03*
X274550000Y-24170000D03*
%TD*%
%TO.C,J3*%
X208010000Y-24170000D03*
X210550000Y-24170000D03*
X213090000Y-24170000D03*
X215630000Y-24170000D03*
X218170000Y-24170000D03*
X220710000Y-24170000D03*
X223250000Y-24170000D03*
X225790000Y-24170000D03*
X228330000Y-24170000D03*
X230870000Y-24170000D03*
X233410000Y-24170000D03*
X235950000Y-24170000D03*
%TD*%
%TO.C,J3*%
X169410000Y-42450000D03*
X171950000Y-42450000D03*
X174490000Y-42450000D03*
X177030000Y-42450000D03*
X179570000Y-42450000D03*
X182110000Y-42450000D03*
X184650000Y-42450000D03*
X187190000Y-42450000D03*
X189730000Y-42450000D03*
X192270000Y-42450000D03*
X194810000Y-42450000D03*
X197350000Y-42450000D03*
%TD*%
%TO.C,J3*%
X169410000Y-24170000D03*
X171950000Y-24170000D03*
X174490000Y-24170000D03*
X177030000Y-24170000D03*
X179570000Y-24170000D03*
X182110000Y-24170000D03*
X184650000Y-24170000D03*
X187190000Y-24170000D03*
X189730000Y-24170000D03*
X192270000Y-24170000D03*
X194810000Y-24170000D03*
X197350000Y-24170000D03*
%TD*%
%TO.C,J3*%
X208010000Y-115570000D03*
X210550000Y-115570000D03*
X213090000Y-115570000D03*
X215630000Y-115570000D03*
X218170000Y-115570000D03*
X220710000Y-115570000D03*
X223250000Y-115570000D03*
X225790000Y-115570000D03*
X228330000Y-115570000D03*
X230870000Y-115570000D03*
X233410000Y-115570000D03*
X235950000Y-115570000D03*
%TD*%
%TO.C,J3*%
X208010000Y-5890000D03*
X210550000Y-5890000D03*
X213090000Y-5890000D03*
X215630000Y-5890000D03*
X218170000Y-5890000D03*
X220710000Y-5890000D03*
X223250000Y-5890000D03*
X225790000Y-5890000D03*
X228330000Y-5890000D03*
X230870000Y-5890000D03*
X233410000Y-5890000D03*
X235950000Y-5890000D03*
%TD*%
%TO.C,J3*%
X208010000Y-79010000D03*
X210550000Y-79010000D03*
X213090000Y-79010000D03*
X215630000Y-79010000D03*
X218170000Y-79010000D03*
X220710000Y-79010000D03*
X223250000Y-79010000D03*
X225790000Y-79010000D03*
X228330000Y-79010000D03*
X230870000Y-79010000D03*
X233410000Y-79010000D03*
X235950000Y-79010000D03*
%TD*%
%TO.C,J3*%
X169410000Y-5890000D03*
X171950000Y-5890000D03*
X174490000Y-5890000D03*
X177030000Y-5890000D03*
X179570000Y-5890000D03*
X182110000Y-5890000D03*
X184650000Y-5890000D03*
X187190000Y-5890000D03*
X189730000Y-5890000D03*
X192270000Y-5890000D03*
X194810000Y-5890000D03*
X197350000Y-5890000D03*
%TD*%
%TO.C,J3*%
X208010000Y-42450000D03*
X210550000Y-42450000D03*
X213090000Y-42450000D03*
X215630000Y-42450000D03*
X218170000Y-42450000D03*
X220710000Y-42450000D03*
X223250000Y-42450000D03*
X225790000Y-42450000D03*
X228330000Y-42450000D03*
X230870000Y-42450000D03*
X233410000Y-42450000D03*
X235950000Y-42450000D03*
%TD*%
%TO.C,J3*%
X208010000Y-97290000D03*
X210550000Y-97290000D03*
X213090000Y-97290000D03*
X215630000Y-97290000D03*
X218170000Y-97290000D03*
X220710000Y-97290000D03*
X223250000Y-97290000D03*
X225790000Y-97290000D03*
X228330000Y-97290000D03*
X230870000Y-97290000D03*
X233410000Y-97290000D03*
X235950000Y-97290000D03*
%TD*%
%TO.C,J3*%
X246610000Y-115570000D03*
X249150000Y-115570000D03*
X251690000Y-115570000D03*
X254230000Y-115570000D03*
X256770000Y-115570000D03*
X259310000Y-115570000D03*
X261850000Y-115570000D03*
X264390000Y-115570000D03*
X266930000Y-115570000D03*
X269470000Y-115570000D03*
X272010000Y-115570000D03*
X274550000Y-115570000D03*
%TD*%
%TO.C,J3*%
X208010000Y-60730000D03*
X210550000Y-60730000D03*
X213090000Y-60730000D03*
X215630000Y-60730000D03*
X218170000Y-60730000D03*
X220710000Y-60730000D03*
X223250000Y-60730000D03*
X225790000Y-60730000D03*
X228330000Y-60730000D03*
X230870000Y-60730000D03*
X233410000Y-60730000D03*
X235950000Y-60730000D03*
%TD*%
D15*
%TO.C,R4*%
X144335000Y-121920000D03*
X142685000Y-121920000D03*
%TD*%
%TO.C,R4*%
X221535000Y-67080000D03*
X219885000Y-67080000D03*
%TD*%
%TO.C,R4*%
X182935000Y-103640000D03*
X181285000Y-103640000D03*
%TD*%
%TO.C,R4*%
X221535000Y-85360000D03*
X219885000Y-85360000D03*
%TD*%
%TO.C,R4*%
X182935000Y-48800000D03*
X181285000Y-48800000D03*
%TD*%
%TO.C,R4*%
X182935000Y-67080000D03*
X181285000Y-67080000D03*
%TD*%
%TO.C,R4*%
X221535000Y-121920000D03*
X219885000Y-121920000D03*
%TD*%
%TO.C,R4*%
X221535000Y-103640000D03*
X219885000Y-103640000D03*
%TD*%
%TO.C,R4*%
X182935000Y-85360000D03*
X181285000Y-85360000D03*
%TD*%
%TO.C,R4*%
X221535000Y-30520000D03*
X219885000Y-30520000D03*
%TD*%
%TO.C,R4*%
X221535000Y-12240000D03*
X219885000Y-12240000D03*
%TD*%
%TO.C,R4*%
X260135000Y-85360000D03*
X258485000Y-85360000D03*
%TD*%
%TO.C,R4*%
X260135000Y-67080000D03*
X258485000Y-67080000D03*
%TD*%
%TO.C,R4*%
X260135000Y-103640000D03*
X258485000Y-103640000D03*
%TD*%
%TO.C,R4*%
X221535000Y-48800000D03*
X219885000Y-48800000D03*
%TD*%
%TO.C,R4*%
X182935000Y-30520000D03*
X181285000Y-30520000D03*
%TD*%
%TO.C,R4*%
X182935000Y-121920000D03*
X181285000Y-121920000D03*
%TD*%
%TO.C,R4*%
X260135000Y-48800000D03*
X258485000Y-48800000D03*
%TD*%
%TO.C,R4*%
X182935000Y-12240000D03*
X181285000Y-12240000D03*
%TD*%
%TO.C,R4*%
X260135000Y-121920000D03*
X258485000Y-121920000D03*
%TD*%
%TO.C,R4*%
X260135000Y-30520000D03*
X258485000Y-30520000D03*
%TD*%
%TO.C,R4*%
X260135000Y-12240000D03*
X258485000Y-12240000D03*
%TD*%
%TO.C,R4*%
X144335000Y-103640000D03*
X142685000Y-103640000D03*
%TD*%
%TO.C,R4*%
X144335000Y-85360000D03*
X142685000Y-85360000D03*
%TD*%
%TO.C,R4*%
X144335000Y-67080000D03*
X142685000Y-67080000D03*
%TD*%
%TO.C,R4*%
X144335000Y-48800000D03*
X142685000Y-48800000D03*
%TD*%
%TO.C,R4*%
X144335000Y-30520000D03*
X142685000Y-30520000D03*
%TD*%
%TO.C,R4*%
X144335000Y-12240000D03*
X142685000Y-12240000D03*
%TD*%
D20*
%TO.C,J2*%
X130810000Y-130810000D03*
X133350000Y-130810000D03*
X135890000Y-130810000D03*
X138430000Y-130810000D03*
X140970000Y-130810000D03*
X143510000Y-130810000D03*
X146050000Y-130810000D03*
X148590000Y-130810000D03*
X151130000Y-130810000D03*
X153670000Y-130810000D03*
X156210000Y-130810000D03*
X158750000Y-130810000D03*
%TD*%
%TO.C,J2*%
X130810000Y-94250000D03*
X133350000Y-94250000D03*
X135890000Y-94250000D03*
X138430000Y-94250000D03*
X140970000Y-94250000D03*
X143510000Y-94250000D03*
X146050000Y-94250000D03*
X148590000Y-94250000D03*
X151130000Y-94250000D03*
X153670000Y-94250000D03*
X156210000Y-94250000D03*
X158750000Y-94250000D03*
%TD*%
%TO.C,J2*%
X130810000Y-39410000D03*
X133350000Y-39410000D03*
X135890000Y-39410000D03*
X138430000Y-39410000D03*
X140970000Y-39410000D03*
X143510000Y-39410000D03*
X146050000Y-39410000D03*
X148590000Y-39410000D03*
X151130000Y-39410000D03*
X153670000Y-39410000D03*
X156210000Y-39410000D03*
X158750000Y-39410000D03*
%TD*%
%TO.C,J2*%
X130810000Y-21130000D03*
X133350000Y-21130000D03*
X135890000Y-21130000D03*
X138430000Y-21130000D03*
X140970000Y-21130000D03*
X143510000Y-21130000D03*
X146050000Y-21130000D03*
X148590000Y-21130000D03*
X151130000Y-21130000D03*
X153670000Y-21130000D03*
X156210000Y-21130000D03*
X158750000Y-21130000D03*
%TD*%
%TO.C,J2*%
X130810000Y-112530000D03*
X133350000Y-112530000D03*
X135890000Y-112530000D03*
X138430000Y-112530000D03*
X140970000Y-112530000D03*
X143510000Y-112530000D03*
X146050000Y-112530000D03*
X148590000Y-112530000D03*
X151130000Y-112530000D03*
X153670000Y-112530000D03*
X156210000Y-112530000D03*
X158750000Y-112530000D03*
%TD*%
%TO.C,J2*%
X130810000Y-75970000D03*
X133350000Y-75970000D03*
X135890000Y-75970000D03*
X138430000Y-75970000D03*
X140970000Y-75970000D03*
X143510000Y-75970000D03*
X146050000Y-75970000D03*
X148590000Y-75970000D03*
X151130000Y-75970000D03*
X153670000Y-75970000D03*
X156210000Y-75970000D03*
X158750000Y-75970000D03*
%TD*%
%TO.C,J2*%
X130810000Y-57690000D03*
X133350000Y-57690000D03*
X135890000Y-57690000D03*
X138430000Y-57690000D03*
X140970000Y-57690000D03*
X143510000Y-57690000D03*
X146050000Y-57690000D03*
X148590000Y-57690000D03*
X151130000Y-57690000D03*
X153670000Y-57690000D03*
X156210000Y-57690000D03*
X158750000Y-57690000D03*
%TD*%
%TO.C,J2*%
X169410000Y-130810000D03*
X171950000Y-130810000D03*
X174490000Y-130810000D03*
X177030000Y-130810000D03*
X179570000Y-130810000D03*
X182110000Y-130810000D03*
X184650000Y-130810000D03*
X187190000Y-130810000D03*
X189730000Y-130810000D03*
X192270000Y-130810000D03*
X194810000Y-130810000D03*
X197350000Y-130810000D03*
%TD*%
%TO.C,J2*%
X169410000Y-112530000D03*
X171950000Y-112530000D03*
X174490000Y-112530000D03*
X177030000Y-112530000D03*
X179570000Y-112530000D03*
X182110000Y-112530000D03*
X184650000Y-112530000D03*
X187190000Y-112530000D03*
X189730000Y-112530000D03*
X192270000Y-112530000D03*
X194810000Y-112530000D03*
X197350000Y-112530000D03*
%TD*%
%TO.C,J2*%
X169410000Y-94250000D03*
X171950000Y-94250000D03*
X174490000Y-94250000D03*
X177030000Y-94250000D03*
X179570000Y-94250000D03*
X182110000Y-94250000D03*
X184650000Y-94250000D03*
X187190000Y-94250000D03*
X189730000Y-94250000D03*
X192270000Y-94250000D03*
X194810000Y-94250000D03*
X197350000Y-94250000D03*
%TD*%
%TO.C,J2*%
X208010000Y-39410000D03*
X210550000Y-39410000D03*
X213090000Y-39410000D03*
X215630000Y-39410000D03*
X218170000Y-39410000D03*
X220710000Y-39410000D03*
X223250000Y-39410000D03*
X225790000Y-39410000D03*
X228330000Y-39410000D03*
X230870000Y-39410000D03*
X233410000Y-39410000D03*
X235950000Y-39410000D03*
%TD*%
%TO.C,J2*%
X169410000Y-21130000D03*
X171950000Y-21130000D03*
X174490000Y-21130000D03*
X177030000Y-21130000D03*
X179570000Y-21130000D03*
X182110000Y-21130000D03*
X184650000Y-21130000D03*
X187190000Y-21130000D03*
X189730000Y-21130000D03*
X192270000Y-21130000D03*
X194810000Y-21130000D03*
X197350000Y-21130000D03*
%TD*%
%TO.C,J2*%
X246610000Y-112530000D03*
X249150000Y-112530000D03*
X251690000Y-112530000D03*
X254230000Y-112530000D03*
X256770000Y-112530000D03*
X259310000Y-112530000D03*
X261850000Y-112530000D03*
X264390000Y-112530000D03*
X266930000Y-112530000D03*
X269470000Y-112530000D03*
X272010000Y-112530000D03*
X274550000Y-112530000D03*
%TD*%
%TO.C,J2*%
X169410000Y-39410000D03*
X171950000Y-39410000D03*
X174490000Y-39410000D03*
X177030000Y-39410000D03*
X179570000Y-39410000D03*
X182110000Y-39410000D03*
X184650000Y-39410000D03*
X187190000Y-39410000D03*
X189730000Y-39410000D03*
X192270000Y-39410000D03*
X194810000Y-39410000D03*
X197350000Y-39410000D03*
%TD*%
%TO.C,J2*%
X208010000Y-75970000D03*
X210550000Y-75970000D03*
X213090000Y-75970000D03*
X215630000Y-75970000D03*
X218170000Y-75970000D03*
X220710000Y-75970000D03*
X223250000Y-75970000D03*
X225790000Y-75970000D03*
X228330000Y-75970000D03*
X230870000Y-75970000D03*
X233410000Y-75970000D03*
X235950000Y-75970000D03*
%TD*%
%TO.C,J2*%
X246610000Y-130810000D03*
X249150000Y-130810000D03*
X251690000Y-130810000D03*
X254230000Y-130810000D03*
X256770000Y-130810000D03*
X259310000Y-130810000D03*
X261850000Y-130810000D03*
X264390000Y-130810000D03*
X266930000Y-130810000D03*
X269470000Y-130810000D03*
X272010000Y-130810000D03*
X274550000Y-130810000D03*
%TD*%
%TO.C,J2*%
X208010000Y-57690000D03*
X210550000Y-57690000D03*
X213090000Y-57690000D03*
X215630000Y-57690000D03*
X218170000Y-57690000D03*
X220710000Y-57690000D03*
X223250000Y-57690000D03*
X225790000Y-57690000D03*
X228330000Y-57690000D03*
X230870000Y-57690000D03*
X233410000Y-57690000D03*
X235950000Y-57690000D03*
%TD*%
%TO.C,J2*%
X246610000Y-39410000D03*
X249150000Y-39410000D03*
X251690000Y-39410000D03*
X254230000Y-39410000D03*
X256770000Y-39410000D03*
X259310000Y-39410000D03*
X261850000Y-39410000D03*
X264390000Y-39410000D03*
X266930000Y-39410000D03*
X269470000Y-39410000D03*
X272010000Y-39410000D03*
X274550000Y-39410000D03*
%TD*%
%TO.C,J2*%
X246610000Y-75970000D03*
X249150000Y-75970000D03*
X251690000Y-75970000D03*
X254230000Y-75970000D03*
X256770000Y-75970000D03*
X259310000Y-75970000D03*
X261850000Y-75970000D03*
X264390000Y-75970000D03*
X266930000Y-75970000D03*
X269470000Y-75970000D03*
X272010000Y-75970000D03*
X274550000Y-75970000D03*
%TD*%
%TO.C,J2*%
X208010000Y-112530000D03*
X210550000Y-112530000D03*
X213090000Y-112530000D03*
X215630000Y-112530000D03*
X218170000Y-112530000D03*
X220710000Y-112530000D03*
X223250000Y-112530000D03*
X225790000Y-112530000D03*
X228330000Y-112530000D03*
X230870000Y-112530000D03*
X233410000Y-112530000D03*
X235950000Y-112530000D03*
%TD*%
%TO.C,J2*%
X246610000Y-57690000D03*
X249150000Y-57690000D03*
X251690000Y-57690000D03*
X254230000Y-57690000D03*
X256770000Y-57690000D03*
X259310000Y-57690000D03*
X261850000Y-57690000D03*
X264390000Y-57690000D03*
X266930000Y-57690000D03*
X269470000Y-57690000D03*
X272010000Y-57690000D03*
X274550000Y-57690000D03*
%TD*%
%TO.C,J2*%
X169410000Y-75970000D03*
X171950000Y-75970000D03*
X174490000Y-75970000D03*
X177030000Y-75970000D03*
X179570000Y-75970000D03*
X182110000Y-75970000D03*
X184650000Y-75970000D03*
X187190000Y-75970000D03*
X189730000Y-75970000D03*
X192270000Y-75970000D03*
X194810000Y-75970000D03*
X197350000Y-75970000D03*
%TD*%
%TO.C,J2*%
X208010000Y-94250000D03*
X210550000Y-94250000D03*
X213090000Y-94250000D03*
X215630000Y-94250000D03*
X218170000Y-94250000D03*
X220710000Y-94250000D03*
X223250000Y-94250000D03*
X225790000Y-94250000D03*
X228330000Y-94250000D03*
X230870000Y-94250000D03*
X233410000Y-94250000D03*
X235950000Y-94250000D03*
%TD*%
%TO.C,J2*%
X208010000Y-21130000D03*
X210550000Y-21130000D03*
X213090000Y-21130000D03*
X215630000Y-21130000D03*
X218170000Y-21130000D03*
X220710000Y-21130000D03*
X223250000Y-21130000D03*
X225790000Y-21130000D03*
X228330000Y-21130000D03*
X230870000Y-21130000D03*
X233410000Y-21130000D03*
X235950000Y-21130000D03*
%TD*%
%TO.C,J2*%
X169410000Y-57690000D03*
X171950000Y-57690000D03*
X174490000Y-57690000D03*
X177030000Y-57690000D03*
X179570000Y-57690000D03*
X182110000Y-57690000D03*
X184650000Y-57690000D03*
X187190000Y-57690000D03*
X189730000Y-57690000D03*
X192270000Y-57690000D03*
X194810000Y-57690000D03*
X197350000Y-57690000D03*
%TD*%
%TO.C,J2*%
X208010000Y-130810000D03*
X210550000Y-130810000D03*
X213090000Y-130810000D03*
X215630000Y-130810000D03*
X218170000Y-130810000D03*
X220710000Y-130810000D03*
X223250000Y-130810000D03*
X225790000Y-130810000D03*
X228330000Y-130810000D03*
X230870000Y-130810000D03*
X233410000Y-130810000D03*
X235950000Y-130810000D03*
%TD*%
%TO.C,J2*%
X246610000Y-94250000D03*
X249150000Y-94250000D03*
X251690000Y-94250000D03*
X254230000Y-94250000D03*
X256770000Y-94250000D03*
X259310000Y-94250000D03*
X261850000Y-94250000D03*
X264390000Y-94250000D03*
X266930000Y-94250000D03*
X269470000Y-94250000D03*
X272010000Y-94250000D03*
X274550000Y-94250000D03*
%TD*%
%TO.C,J2*%
X246610000Y-21130000D03*
X249150000Y-21130000D03*
X251690000Y-21130000D03*
X254230000Y-21130000D03*
X256770000Y-21130000D03*
X259310000Y-21130000D03*
X261850000Y-21130000D03*
X264390000Y-21130000D03*
X266930000Y-21130000D03*
X269470000Y-21130000D03*
X272010000Y-21130000D03*
X274550000Y-21130000D03*
%TD*%
M02*
