%TF.GenerationSoftware,KiCad,Pcbnew,7.0.6*%
%TF.CreationDate,2023-08-17T21:31:53-06:00*%
%TF.ProjectId,SparkFun_Pro_Mini-ESP32_panelized,53706172-6b46-4756-9e5f-50726f5f4d69,rev?*%
%TF.SameCoordinates,Original*%
%TF.FileFunction,Profile,NP*%
%FSLAX46Y46*%
G04 Gerber Fmt 4.6, Leading zero omitted, Abs format (unit mm)*
G04 Created by KiCad (PCBNEW 7.0.6) date 2023-08-17 21:31:53*
%MOMM*%
%LPD*%
G01*
G04 APERTURE LIST*
%TA.AperFunction,Profile*%
%ADD10C,0.100000*%
%TD*%
G04 APERTURE END LIST*
D10*
X245340000Y-22900000D02*
X278360000Y-22900000D01*
X278360000Y-40680000D01*
X245340000Y-40680000D01*
X245340000Y-22900000D01*
X206740000Y-59460000D02*
X239760000Y-59460000D01*
X239760000Y-77240000D01*
X206740000Y-77240000D01*
X206740000Y-59460000D01*
X168140000Y-96020000D02*
X201160000Y-96020000D01*
X201160000Y-113800000D01*
X168140000Y-113800000D01*
X168140000Y-96020000D01*
X129540000Y-41180000D02*
X162560000Y-41180000D01*
X162560000Y-58960000D01*
X129540000Y-58960000D01*
X129540000Y-41180000D01*
X129540000Y-114300000D02*
X162560000Y-114300000D01*
X162560000Y-132080000D01*
X129540000Y-132080000D01*
X129540000Y-114300000D01*
X129540000Y-22900000D02*
X162560000Y-22900000D01*
X162560000Y-40680000D01*
X129540000Y-40680000D01*
X129540000Y-22900000D01*
X206740000Y-77740000D02*
X239760000Y-77740000D01*
X239760000Y-95520000D01*
X206740000Y-95520000D01*
X206740000Y-77740000D01*
X206740000Y-4620000D02*
X239760000Y-4620000D01*
X239760000Y-22400000D01*
X206740000Y-22400000D01*
X206740000Y-4620000D01*
X290290000Y-138930000D02*
X117610000Y-138930000D01*
X123960000Y-132580000D02*
X123960000Y-4120000D01*
X168140000Y-41180000D02*
X201160000Y-41180000D01*
X201160000Y-58960000D01*
X168140000Y-58960000D01*
X168140000Y-41180000D01*
X283940000Y-132580000D02*
X123960000Y-132580000D01*
X245340000Y-4620000D02*
X278360000Y-4620000D01*
X278360000Y-22400000D01*
X245340000Y-22400000D01*
X245340000Y-4620000D01*
X245340000Y-59460000D02*
X278360000Y-59460000D01*
X278360000Y-77240000D01*
X245340000Y-77240000D01*
X245340000Y-59460000D01*
X129540000Y-59460000D02*
X162560000Y-59460000D01*
X162560000Y-77240000D01*
X129540000Y-77240000D01*
X129540000Y-59460000D01*
X117610000Y-138930000D02*
X117610000Y2230000D01*
X168140000Y-77740000D02*
X201160000Y-77740000D01*
X201160000Y-95520000D01*
X168140000Y-95520000D01*
X168140000Y-77740000D01*
X129540000Y-4620000D02*
X162560000Y-4620000D01*
X162560000Y-22400000D01*
X129540000Y-22400000D01*
X129540000Y-4620000D01*
X206740000Y-96020000D02*
X239760000Y-96020000D01*
X239760000Y-113800000D01*
X206740000Y-113800000D01*
X206740000Y-96020000D01*
X168140000Y-114300000D02*
X201160000Y-114300000D01*
X201160000Y-132080000D01*
X168140000Y-132080000D01*
X168140000Y-114300000D01*
X290290000Y2230000D02*
X290290000Y-138930000D01*
X206740000Y-22900000D02*
X239760000Y-22900000D01*
X239760000Y-40680000D01*
X206740000Y-40680000D01*
X206740000Y-22900000D01*
X168140000Y-4620000D02*
X201160000Y-4620000D01*
X201160000Y-22400000D01*
X168140000Y-22400000D01*
X168140000Y-4620000D01*
X245340000Y-96020000D02*
X278360000Y-96020000D01*
X278360000Y-113800000D01*
X245340000Y-113800000D01*
X245340000Y-96020000D01*
X129540000Y-77740000D02*
X162560000Y-77740000D01*
X162560000Y-95520000D01*
X129540000Y-95520000D01*
X129540000Y-77740000D01*
X206740000Y-114300000D02*
X239760000Y-114300000D01*
X239760000Y-132080000D01*
X206740000Y-132080000D01*
X206740000Y-114300000D01*
X117610000Y2230000D02*
X290290000Y2230000D01*
X245340000Y-114300000D02*
X278360000Y-114300000D01*
X278360000Y-132080000D01*
X245340000Y-132080000D01*
X245340000Y-114300000D01*
X245340000Y-77740000D02*
X278360000Y-77740000D01*
X278360000Y-95520000D01*
X245340000Y-95520000D01*
X245340000Y-77740000D01*
X129540000Y-96020000D02*
X162560000Y-96020000D01*
X162560000Y-113800000D01*
X129540000Y-113800000D01*
X129540000Y-96020000D01*
X206740000Y-41180000D02*
X239760000Y-41180000D01*
X239760000Y-58960000D01*
X206740000Y-58960000D01*
X206740000Y-41180000D01*
X283940000Y-4120000D02*
X283940000Y-132580000D01*
X123960000Y-4120000D02*
X283940000Y-4120000D01*
X168140000Y-59460000D02*
X201160000Y-59460000D01*
X201160000Y-77240000D01*
X168140000Y-77240000D01*
X168140000Y-59460000D01*
X168140000Y-22900000D02*
X201160000Y-22900000D01*
X201160000Y-40680000D01*
X168140000Y-40680000D01*
X168140000Y-22900000D01*
X245340000Y-41180000D02*
X278360000Y-41180000D01*
X278360000Y-58960000D01*
X245340000Y-58960000D01*
X245340000Y-41180000D01*
M02*
