%TF.GenerationSoftware,KiCad,Pcbnew,7.0.6*%
%TF.CreationDate,2023-10-27T14:02:02-06:00*%
%TF.ProjectId,SparkFun_ESP32_Qwiic_Pro_Mini_panelized,53706172-6b46-4756-9e5f-45535033325f,rev?*%
%TF.SameCoordinates,Original*%
%TF.FileFunction,Paste,Top*%
%TF.FilePolarity,Positive*%
%FSLAX46Y46*%
G04 Gerber Fmt 4.6, Leading zero omitted, Abs format (unit mm)*
G04 Created by KiCad (PCBNEW 7.0.6) date 2023-10-27 14:02:02*
%MOMM*%
%LPD*%
G01*
G04 APERTURE LIST*
G04 Aperture macros list*
%AMRoundRect*
0 Rectangle with rounded corners*
0 $1 Rounding radius*
0 $2 $3 $4 $5 $6 $7 $8 $9 X,Y pos of 4 corners*
0 Add a 4 corners polygon primitive as box body*
4,1,4,$2,$3,$4,$5,$6,$7,$8,$9,$2,$3,0*
0 Add four circle primitives for the rounded corners*
1,1,$1+$1,$2,$3*
1,1,$1+$1,$4,$5*
1,1,$1+$1,$6,$7*
1,1,$1+$1,$8,$9*
0 Add four rect primitives between the rounded corners*
20,1,$1+$1,$2,$3,$4,$5,0*
20,1,$1+$1,$4,$5,$6,$7,0*
20,1,$1+$1,$6,$7,$8,$9,0*
20,1,$1+$1,$8,$9,$2,$3,0*%
G04 Aperture macros list end*
%ADD10RoundRect,0.218750X0.218750X0.256250X-0.218750X0.256250X-0.218750X-0.256250X0.218750X-0.256250X0*%
%ADD11RoundRect,0.200000X0.200000X0.275000X-0.200000X0.275000X-0.200000X-0.275000X0.200000X-0.275000X0*%
%ADD12R,0.900000X1.000000*%
%ADD13RoundRect,0.225000X0.225000X0.250000X-0.225000X0.250000X-0.225000X-0.250000X0.225000X-0.250000X0*%
%ADD14R,1.550000X0.600000*%
%ADD15R,2.000000X1.200000*%
%ADD16RoundRect,0.225000X-0.225000X-0.250000X0.225000X-0.250000X0.225000X0.250000X-0.225000X0.250000X0*%
%ADD17RoundRect,0.200000X-0.200000X-0.275000X0.200000X-0.275000X0.200000X0.275000X-0.200000X0.275000X0*%
%ADD18R,0.550000X1.200000*%
%ADD19RoundRect,0.218750X0.256250X-0.218750X0.256250X0.218750X-0.256250X0.218750X-0.256250X-0.218750X0*%
%ADD20R,0.400000X0.800000*%
%ADD21R,0.800000X0.400000*%
%ADD22R,0.700000X0.700000*%
G04 APERTURE END LIST*
%TO.C,U1*%
G36*
X120370000Y116170000D02*
G01*
X119570000Y116170000D01*
X119570000Y116970000D01*
X120370000Y116970000D01*
X120370000Y116170000D01*
G37*
G36*
X122370000Y116170000D02*
G01*
X121570000Y116170000D01*
X121570000Y116970000D01*
X122370000Y116970000D01*
X122370000Y116170000D01*
G37*
G36*
X124370000Y116170000D02*
G01*
X123570000Y116170000D01*
X123570000Y116970000D01*
X124370000Y116970000D01*
X124370000Y116170000D01*
G37*
G36*
X120370000Y118170000D02*
G01*
X119570000Y118170000D01*
X119570000Y118970000D01*
X120370000Y118970000D01*
X120370000Y118170000D01*
G37*
G36*
X122370000Y118170000D02*
G01*
X121570000Y118170000D01*
X121570000Y118970000D01*
X122370000Y118970000D01*
X122370000Y118170000D01*
G37*
G36*
X124370000Y118170000D02*
G01*
X123570000Y118170000D01*
X123570000Y118970000D01*
X124370000Y118970000D01*
X124370000Y118170000D01*
G37*
G36*
X120370000Y120170000D02*
G01*
X119570000Y120170000D01*
X119570000Y120970000D01*
X120370000Y120970000D01*
X120370000Y120170000D01*
G37*
G36*
X122370000Y120170000D02*
G01*
X121570000Y120170000D01*
X121570000Y120970000D01*
X122370000Y120970000D01*
X122370000Y120170000D01*
G37*
G36*
X124370000Y120170000D02*
G01*
X123570000Y120170000D01*
X123570000Y120970000D01*
X124370000Y120970000D01*
X124370000Y120170000D01*
G37*
G36*
X120370000Y97890000D02*
G01*
X119570000Y97890000D01*
X119570000Y98690000D01*
X120370000Y98690000D01*
X120370000Y97890000D01*
G37*
G36*
X122370000Y97890000D02*
G01*
X121570000Y97890000D01*
X121570000Y98690000D01*
X122370000Y98690000D01*
X122370000Y97890000D01*
G37*
G36*
X124370000Y97890000D02*
G01*
X123570000Y97890000D01*
X123570000Y98690000D01*
X124370000Y98690000D01*
X124370000Y97890000D01*
G37*
G36*
X120370000Y99890000D02*
G01*
X119570000Y99890000D01*
X119570000Y100690000D01*
X120370000Y100690000D01*
X120370000Y99890000D01*
G37*
G36*
X122370000Y99890000D02*
G01*
X121570000Y99890000D01*
X121570000Y100690000D01*
X122370000Y100690000D01*
X122370000Y99890000D01*
G37*
G36*
X124370000Y99890000D02*
G01*
X123570000Y99890000D01*
X123570000Y100690000D01*
X124370000Y100690000D01*
X124370000Y99890000D01*
G37*
G36*
X120370000Y101890000D02*
G01*
X119570000Y101890000D01*
X119570000Y102690000D01*
X120370000Y102690000D01*
X120370000Y101890000D01*
G37*
G36*
X122370000Y101890000D02*
G01*
X121570000Y101890000D01*
X121570000Y102690000D01*
X122370000Y102690000D01*
X122370000Y101890000D01*
G37*
G36*
X124370000Y101890000D02*
G01*
X123570000Y101890000D01*
X123570000Y102690000D01*
X124370000Y102690000D01*
X124370000Y101890000D01*
G37*
G36*
X120370000Y79610000D02*
G01*
X119570000Y79610000D01*
X119570000Y80410000D01*
X120370000Y80410000D01*
X120370000Y79610000D01*
G37*
G36*
X122370000Y79610000D02*
G01*
X121570000Y79610000D01*
X121570000Y80410000D01*
X122370000Y80410000D01*
X122370000Y79610000D01*
G37*
G36*
X124370000Y79610000D02*
G01*
X123570000Y79610000D01*
X123570000Y80410000D01*
X124370000Y80410000D01*
X124370000Y79610000D01*
G37*
G36*
X120370000Y81610000D02*
G01*
X119570000Y81610000D01*
X119570000Y82410000D01*
X120370000Y82410000D01*
X120370000Y81610000D01*
G37*
G36*
X122370000Y81610000D02*
G01*
X121570000Y81610000D01*
X121570000Y82410000D01*
X122370000Y82410000D01*
X122370000Y81610000D01*
G37*
G36*
X124370000Y81610000D02*
G01*
X123570000Y81610000D01*
X123570000Y82410000D01*
X124370000Y82410000D01*
X124370000Y81610000D01*
G37*
G36*
X120370000Y83610000D02*
G01*
X119570000Y83610000D01*
X119570000Y84410000D01*
X120370000Y84410000D01*
X120370000Y83610000D01*
G37*
G36*
X122370000Y83610000D02*
G01*
X121570000Y83610000D01*
X121570000Y84410000D01*
X122370000Y84410000D01*
X122370000Y83610000D01*
G37*
G36*
X124370000Y83610000D02*
G01*
X123570000Y83610000D01*
X123570000Y84410000D01*
X124370000Y84410000D01*
X124370000Y83610000D01*
G37*
G36*
X120370000Y61330000D02*
G01*
X119570000Y61330000D01*
X119570000Y62130000D01*
X120370000Y62130000D01*
X120370000Y61330000D01*
G37*
G36*
X122370000Y61330000D02*
G01*
X121570000Y61330000D01*
X121570000Y62130000D01*
X122370000Y62130000D01*
X122370000Y61330000D01*
G37*
G36*
X124370000Y61330000D02*
G01*
X123570000Y61330000D01*
X123570000Y62130000D01*
X124370000Y62130000D01*
X124370000Y61330000D01*
G37*
G36*
X120370000Y63330000D02*
G01*
X119570000Y63330000D01*
X119570000Y64130000D01*
X120370000Y64130000D01*
X120370000Y63330000D01*
G37*
G36*
X122370000Y63330000D02*
G01*
X121570000Y63330000D01*
X121570000Y64130000D01*
X122370000Y64130000D01*
X122370000Y63330000D01*
G37*
G36*
X124370000Y63330000D02*
G01*
X123570000Y63330000D01*
X123570000Y64130000D01*
X124370000Y64130000D01*
X124370000Y63330000D01*
G37*
G36*
X120370000Y65330000D02*
G01*
X119570000Y65330000D01*
X119570000Y66130000D01*
X120370000Y66130000D01*
X120370000Y65330000D01*
G37*
G36*
X122370000Y65330000D02*
G01*
X121570000Y65330000D01*
X121570000Y66130000D01*
X122370000Y66130000D01*
X122370000Y65330000D01*
G37*
G36*
X124370000Y65330000D02*
G01*
X123570000Y65330000D01*
X123570000Y66130000D01*
X124370000Y66130000D01*
X124370000Y65330000D01*
G37*
G36*
X120370000Y43050000D02*
G01*
X119570000Y43050000D01*
X119570000Y43850000D01*
X120370000Y43850000D01*
X120370000Y43050000D01*
G37*
G36*
X122370000Y43050000D02*
G01*
X121570000Y43050000D01*
X121570000Y43850000D01*
X122370000Y43850000D01*
X122370000Y43050000D01*
G37*
G36*
X124370000Y43050000D02*
G01*
X123570000Y43050000D01*
X123570000Y43850000D01*
X124370000Y43850000D01*
X124370000Y43050000D01*
G37*
G36*
X120370000Y45050000D02*
G01*
X119570000Y45050000D01*
X119570000Y45850000D01*
X120370000Y45850000D01*
X120370000Y45050000D01*
G37*
G36*
X122370000Y45050000D02*
G01*
X121570000Y45050000D01*
X121570000Y45850000D01*
X122370000Y45850000D01*
X122370000Y45050000D01*
G37*
G36*
X124370000Y45050000D02*
G01*
X123570000Y45050000D01*
X123570000Y45850000D01*
X124370000Y45850000D01*
X124370000Y45050000D01*
G37*
G36*
X120370000Y47050000D02*
G01*
X119570000Y47050000D01*
X119570000Y47850000D01*
X120370000Y47850000D01*
X120370000Y47050000D01*
G37*
G36*
X122370000Y47050000D02*
G01*
X121570000Y47050000D01*
X121570000Y47850000D01*
X122370000Y47850000D01*
X122370000Y47050000D01*
G37*
G36*
X124370000Y47050000D02*
G01*
X123570000Y47050000D01*
X123570000Y47850000D01*
X124370000Y47850000D01*
X124370000Y47050000D01*
G37*
G36*
X120370000Y24770000D02*
G01*
X119570000Y24770000D01*
X119570000Y25570000D01*
X120370000Y25570000D01*
X120370000Y24770000D01*
G37*
G36*
X122370000Y24770000D02*
G01*
X121570000Y24770000D01*
X121570000Y25570000D01*
X122370000Y25570000D01*
X122370000Y24770000D01*
G37*
G36*
X124370000Y24770000D02*
G01*
X123570000Y24770000D01*
X123570000Y25570000D01*
X124370000Y25570000D01*
X124370000Y24770000D01*
G37*
G36*
X120370000Y26770000D02*
G01*
X119570000Y26770000D01*
X119570000Y27570000D01*
X120370000Y27570000D01*
X120370000Y26770000D01*
G37*
G36*
X122370000Y26770000D02*
G01*
X121570000Y26770000D01*
X121570000Y27570000D01*
X122370000Y27570000D01*
X122370000Y26770000D01*
G37*
G36*
X124370000Y26770000D02*
G01*
X123570000Y26770000D01*
X123570000Y27570000D01*
X124370000Y27570000D01*
X124370000Y26770000D01*
G37*
G36*
X120370000Y28770000D02*
G01*
X119570000Y28770000D01*
X119570000Y29570000D01*
X120370000Y29570000D01*
X120370000Y28770000D01*
G37*
G36*
X122370000Y28770000D02*
G01*
X121570000Y28770000D01*
X121570000Y29570000D01*
X122370000Y29570000D01*
X122370000Y28770000D01*
G37*
G36*
X124370000Y28770000D02*
G01*
X123570000Y28770000D01*
X123570000Y29570000D01*
X124370000Y29570000D01*
X124370000Y28770000D01*
G37*
G36*
X120370000Y6490000D02*
G01*
X119570000Y6490000D01*
X119570000Y7290000D01*
X120370000Y7290000D01*
X120370000Y6490000D01*
G37*
G36*
X122370000Y6490000D02*
G01*
X121570000Y6490000D01*
X121570000Y7290000D01*
X122370000Y7290000D01*
X122370000Y6490000D01*
G37*
G36*
X124370000Y6490000D02*
G01*
X123570000Y6490000D01*
X123570000Y7290000D01*
X124370000Y7290000D01*
X124370000Y6490000D01*
G37*
G36*
X120370000Y8490000D02*
G01*
X119570000Y8490000D01*
X119570000Y9290000D01*
X120370000Y9290000D01*
X120370000Y8490000D01*
G37*
G36*
X122370000Y8490000D02*
G01*
X121570000Y8490000D01*
X121570000Y9290000D01*
X122370000Y9290000D01*
X122370000Y8490000D01*
G37*
G36*
X124370000Y8490000D02*
G01*
X123570000Y8490000D01*
X123570000Y9290000D01*
X124370000Y9290000D01*
X124370000Y8490000D01*
G37*
G36*
X120370000Y10490000D02*
G01*
X119570000Y10490000D01*
X119570000Y11290000D01*
X120370000Y11290000D01*
X120370000Y10490000D01*
G37*
G36*
X122370000Y10490000D02*
G01*
X121570000Y10490000D01*
X121570000Y11290000D01*
X122370000Y11290000D01*
X122370000Y10490000D01*
G37*
G36*
X124370000Y10490000D02*
G01*
X123570000Y10490000D01*
X123570000Y11290000D01*
X124370000Y11290000D01*
X124370000Y10490000D01*
G37*
G36*
X81770000Y116170000D02*
G01*
X80970000Y116170000D01*
X80970000Y116970000D01*
X81770000Y116970000D01*
X81770000Y116170000D01*
G37*
G36*
X83770000Y116170000D02*
G01*
X82970000Y116170000D01*
X82970000Y116970000D01*
X83770000Y116970000D01*
X83770000Y116170000D01*
G37*
G36*
X85770000Y116170000D02*
G01*
X84970000Y116170000D01*
X84970000Y116970000D01*
X85770000Y116970000D01*
X85770000Y116170000D01*
G37*
G36*
X81770000Y118170000D02*
G01*
X80970000Y118170000D01*
X80970000Y118970000D01*
X81770000Y118970000D01*
X81770000Y118170000D01*
G37*
G36*
X83770000Y118170000D02*
G01*
X82970000Y118170000D01*
X82970000Y118970000D01*
X83770000Y118970000D01*
X83770000Y118170000D01*
G37*
G36*
X85770000Y118170000D02*
G01*
X84970000Y118170000D01*
X84970000Y118970000D01*
X85770000Y118970000D01*
X85770000Y118170000D01*
G37*
G36*
X81770000Y120170000D02*
G01*
X80970000Y120170000D01*
X80970000Y120970000D01*
X81770000Y120970000D01*
X81770000Y120170000D01*
G37*
G36*
X83770000Y120170000D02*
G01*
X82970000Y120170000D01*
X82970000Y120970000D01*
X83770000Y120970000D01*
X83770000Y120170000D01*
G37*
G36*
X85770000Y120170000D02*
G01*
X84970000Y120170000D01*
X84970000Y120970000D01*
X85770000Y120970000D01*
X85770000Y120170000D01*
G37*
G36*
X81770000Y97890000D02*
G01*
X80970000Y97890000D01*
X80970000Y98690000D01*
X81770000Y98690000D01*
X81770000Y97890000D01*
G37*
G36*
X83770000Y97890000D02*
G01*
X82970000Y97890000D01*
X82970000Y98690000D01*
X83770000Y98690000D01*
X83770000Y97890000D01*
G37*
G36*
X85770000Y97890000D02*
G01*
X84970000Y97890000D01*
X84970000Y98690000D01*
X85770000Y98690000D01*
X85770000Y97890000D01*
G37*
G36*
X81770000Y99890000D02*
G01*
X80970000Y99890000D01*
X80970000Y100690000D01*
X81770000Y100690000D01*
X81770000Y99890000D01*
G37*
G36*
X83770000Y99890000D02*
G01*
X82970000Y99890000D01*
X82970000Y100690000D01*
X83770000Y100690000D01*
X83770000Y99890000D01*
G37*
G36*
X85770000Y99890000D02*
G01*
X84970000Y99890000D01*
X84970000Y100690000D01*
X85770000Y100690000D01*
X85770000Y99890000D01*
G37*
G36*
X81770000Y101890000D02*
G01*
X80970000Y101890000D01*
X80970000Y102690000D01*
X81770000Y102690000D01*
X81770000Y101890000D01*
G37*
G36*
X83770000Y101890000D02*
G01*
X82970000Y101890000D01*
X82970000Y102690000D01*
X83770000Y102690000D01*
X83770000Y101890000D01*
G37*
G36*
X85770000Y101890000D02*
G01*
X84970000Y101890000D01*
X84970000Y102690000D01*
X85770000Y102690000D01*
X85770000Y101890000D01*
G37*
G36*
X81770000Y79610000D02*
G01*
X80970000Y79610000D01*
X80970000Y80410000D01*
X81770000Y80410000D01*
X81770000Y79610000D01*
G37*
G36*
X83770000Y79610000D02*
G01*
X82970000Y79610000D01*
X82970000Y80410000D01*
X83770000Y80410000D01*
X83770000Y79610000D01*
G37*
G36*
X85770000Y79610000D02*
G01*
X84970000Y79610000D01*
X84970000Y80410000D01*
X85770000Y80410000D01*
X85770000Y79610000D01*
G37*
G36*
X81770000Y81610000D02*
G01*
X80970000Y81610000D01*
X80970000Y82410000D01*
X81770000Y82410000D01*
X81770000Y81610000D01*
G37*
G36*
X83770000Y81610000D02*
G01*
X82970000Y81610000D01*
X82970000Y82410000D01*
X83770000Y82410000D01*
X83770000Y81610000D01*
G37*
G36*
X85770000Y81610000D02*
G01*
X84970000Y81610000D01*
X84970000Y82410000D01*
X85770000Y82410000D01*
X85770000Y81610000D01*
G37*
G36*
X81770000Y83610000D02*
G01*
X80970000Y83610000D01*
X80970000Y84410000D01*
X81770000Y84410000D01*
X81770000Y83610000D01*
G37*
G36*
X83770000Y83610000D02*
G01*
X82970000Y83610000D01*
X82970000Y84410000D01*
X83770000Y84410000D01*
X83770000Y83610000D01*
G37*
G36*
X85770000Y83610000D02*
G01*
X84970000Y83610000D01*
X84970000Y84410000D01*
X85770000Y84410000D01*
X85770000Y83610000D01*
G37*
G36*
X81770000Y61330000D02*
G01*
X80970000Y61330000D01*
X80970000Y62130000D01*
X81770000Y62130000D01*
X81770000Y61330000D01*
G37*
G36*
X83770000Y61330000D02*
G01*
X82970000Y61330000D01*
X82970000Y62130000D01*
X83770000Y62130000D01*
X83770000Y61330000D01*
G37*
G36*
X85770000Y61330000D02*
G01*
X84970000Y61330000D01*
X84970000Y62130000D01*
X85770000Y62130000D01*
X85770000Y61330000D01*
G37*
G36*
X81770000Y63330000D02*
G01*
X80970000Y63330000D01*
X80970000Y64130000D01*
X81770000Y64130000D01*
X81770000Y63330000D01*
G37*
G36*
X83770000Y63330000D02*
G01*
X82970000Y63330000D01*
X82970000Y64130000D01*
X83770000Y64130000D01*
X83770000Y63330000D01*
G37*
G36*
X85770000Y63330000D02*
G01*
X84970000Y63330000D01*
X84970000Y64130000D01*
X85770000Y64130000D01*
X85770000Y63330000D01*
G37*
G36*
X81770000Y65330000D02*
G01*
X80970000Y65330000D01*
X80970000Y66130000D01*
X81770000Y66130000D01*
X81770000Y65330000D01*
G37*
G36*
X83770000Y65330000D02*
G01*
X82970000Y65330000D01*
X82970000Y66130000D01*
X83770000Y66130000D01*
X83770000Y65330000D01*
G37*
G36*
X85770000Y65330000D02*
G01*
X84970000Y65330000D01*
X84970000Y66130000D01*
X85770000Y66130000D01*
X85770000Y65330000D01*
G37*
G36*
X81770000Y43050000D02*
G01*
X80970000Y43050000D01*
X80970000Y43850000D01*
X81770000Y43850000D01*
X81770000Y43050000D01*
G37*
G36*
X83770000Y43050000D02*
G01*
X82970000Y43050000D01*
X82970000Y43850000D01*
X83770000Y43850000D01*
X83770000Y43050000D01*
G37*
G36*
X85770000Y43050000D02*
G01*
X84970000Y43050000D01*
X84970000Y43850000D01*
X85770000Y43850000D01*
X85770000Y43050000D01*
G37*
G36*
X81770000Y45050000D02*
G01*
X80970000Y45050000D01*
X80970000Y45850000D01*
X81770000Y45850000D01*
X81770000Y45050000D01*
G37*
G36*
X83770000Y45050000D02*
G01*
X82970000Y45050000D01*
X82970000Y45850000D01*
X83770000Y45850000D01*
X83770000Y45050000D01*
G37*
G36*
X85770000Y45050000D02*
G01*
X84970000Y45050000D01*
X84970000Y45850000D01*
X85770000Y45850000D01*
X85770000Y45050000D01*
G37*
G36*
X81770000Y47050000D02*
G01*
X80970000Y47050000D01*
X80970000Y47850000D01*
X81770000Y47850000D01*
X81770000Y47050000D01*
G37*
G36*
X83770000Y47050000D02*
G01*
X82970000Y47050000D01*
X82970000Y47850000D01*
X83770000Y47850000D01*
X83770000Y47050000D01*
G37*
G36*
X85770000Y47050000D02*
G01*
X84970000Y47050000D01*
X84970000Y47850000D01*
X85770000Y47850000D01*
X85770000Y47050000D01*
G37*
G36*
X81770000Y24770000D02*
G01*
X80970000Y24770000D01*
X80970000Y25570000D01*
X81770000Y25570000D01*
X81770000Y24770000D01*
G37*
G36*
X83770000Y24770000D02*
G01*
X82970000Y24770000D01*
X82970000Y25570000D01*
X83770000Y25570000D01*
X83770000Y24770000D01*
G37*
G36*
X85770000Y24770000D02*
G01*
X84970000Y24770000D01*
X84970000Y25570000D01*
X85770000Y25570000D01*
X85770000Y24770000D01*
G37*
G36*
X81770000Y26770000D02*
G01*
X80970000Y26770000D01*
X80970000Y27570000D01*
X81770000Y27570000D01*
X81770000Y26770000D01*
G37*
G36*
X83770000Y26770000D02*
G01*
X82970000Y26770000D01*
X82970000Y27570000D01*
X83770000Y27570000D01*
X83770000Y26770000D01*
G37*
G36*
X85770000Y26770000D02*
G01*
X84970000Y26770000D01*
X84970000Y27570000D01*
X85770000Y27570000D01*
X85770000Y26770000D01*
G37*
G36*
X81770000Y28770000D02*
G01*
X80970000Y28770000D01*
X80970000Y29570000D01*
X81770000Y29570000D01*
X81770000Y28770000D01*
G37*
G36*
X83770000Y28770000D02*
G01*
X82970000Y28770000D01*
X82970000Y29570000D01*
X83770000Y29570000D01*
X83770000Y28770000D01*
G37*
G36*
X85770000Y28770000D02*
G01*
X84970000Y28770000D01*
X84970000Y29570000D01*
X85770000Y29570000D01*
X85770000Y28770000D01*
G37*
G36*
X81770000Y6490000D02*
G01*
X80970000Y6490000D01*
X80970000Y7290000D01*
X81770000Y7290000D01*
X81770000Y6490000D01*
G37*
G36*
X83770000Y6490000D02*
G01*
X82970000Y6490000D01*
X82970000Y7290000D01*
X83770000Y7290000D01*
X83770000Y6490000D01*
G37*
G36*
X85770000Y6490000D02*
G01*
X84970000Y6490000D01*
X84970000Y7290000D01*
X85770000Y7290000D01*
X85770000Y6490000D01*
G37*
G36*
X81770000Y8490000D02*
G01*
X80970000Y8490000D01*
X80970000Y9290000D01*
X81770000Y9290000D01*
X81770000Y8490000D01*
G37*
G36*
X83770000Y8490000D02*
G01*
X82970000Y8490000D01*
X82970000Y9290000D01*
X83770000Y9290000D01*
X83770000Y8490000D01*
G37*
G36*
X85770000Y8490000D02*
G01*
X84970000Y8490000D01*
X84970000Y9290000D01*
X85770000Y9290000D01*
X85770000Y8490000D01*
G37*
G36*
X81770000Y10490000D02*
G01*
X80970000Y10490000D01*
X80970000Y11290000D01*
X81770000Y11290000D01*
X81770000Y10490000D01*
G37*
G36*
X83770000Y10490000D02*
G01*
X82970000Y10490000D01*
X82970000Y11290000D01*
X83770000Y11290000D01*
X83770000Y10490000D01*
G37*
G36*
X85770000Y10490000D02*
G01*
X84970000Y10490000D01*
X84970000Y11290000D01*
X85770000Y11290000D01*
X85770000Y10490000D01*
G37*
G36*
X43170000Y116170000D02*
G01*
X42370000Y116170000D01*
X42370000Y116970000D01*
X43170000Y116970000D01*
X43170000Y116170000D01*
G37*
G36*
X45170000Y116170000D02*
G01*
X44370000Y116170000D01*
X44370000Y116970000D01*
X45170000Y116970000D01*
X45170000Y116170000D01*
G37*
G36*
X47170000Y116170000D02*
G01*
X46370000Y116170000D01*
X46370000Y116970000D01*
X47170000Y116970000D01*
X47170000Y116170000D01*
G37*
G36*
X43170000Y118170000D02*
G01*
X42370000Y118170000D01*
X42370000Y118970000D01*
X43170000Y118970000D01*
X43170000Y118170000D01*
G37*
G36*
X45170000Y118170000D02*
G01*
X44370000Y118170000D01*
X44370000Y118970000D01*
X45170000Y118970000D01*
X45170000Y118170000D01*
G37*
G36*
X47170000Y118170000D02*
G01*
X46370000Y118170000D01*
X46370000Y118970000D01*
X47170000Y118970000D01*
X47170000Y118170000D01*
G37*
G36*
X43170000Y120170000D02*
G01*
X42370000Y120170000D01*
X42370000Y120970000D01*
X43170000Y120970000D01*
X43170000Y120170000D01*
G37*
G36*
X45170000Y120170000D02*
G01*
X44370000Y120170000D01*
X44370000Y120970000D01*
X45170000Y120970000D01*
X45170000Y120170000D01*
G37*
G36*
X47170000Y120170000D02*
G01*
X46370000Y120170000D01*
X46370000Y120970000D01*
X47170000Y120970000D01*
X47170000Y120170000D01*
G37*
G36*
X43170000Y97890000D02*
G01*
X42370000Y97890000D01*
X42370000Y98690000D01*
X43170000Y98690000D01*
X43170000Y97890000D01*
G37*
G36*
X45170000Y97890000D02*
G01*
X44370000Y97890000D01*
X44370000Y98690000D01*
X45170000Y98690000D01*
X45170000Y97890000D01*
G37*
G36*
X47170000Y97890000D02*
G01*
X46370000Y97890000D01*
X46370000Y98690000D01*
X47170000Y98690000D01*
X47170000Y97890000D01*
G37*
G36*
X43170000Y99890000D02*
G01*
X42370000Y99890000D01*
X42370000Y100690000D01*
X43170000Y100690000D01*
X43170000Y99890000D01*
G37*
G36*
X45170000Y99890000D02*
G01*
X44370000Y99890000D01*
X44370000Y100690000D01*
X45170000Y100690000D01*
X45170000Y99890000D01*
G37*
G36*
X47170000Y99890000D02*
G01*
X46370000Y99890000D01*
X46370000Y100690000D01*
X47170000Y100690000D01*
X47170000Y99890000D01*
G37*
G36*
X43170000Y101890000D02*
G01*
X42370000Y101890000D01*
X42370000Y102690000D01*
X43170000Y102690000D01*
X43170000Y101890000D01*
G37*
G36*
X45170000Y101890000D02*
G01*
X44370000Y101890000D01*
X44370000Y102690000D01*
X45170000Y102690000D01*
X45170000Y101890000D01*
G37*
G36*
X47170000Y101890000D02*
G01*
X46370000Y101890000D01*
X46370000Y102690000D01*
X47170000Y102690000D01*
X47170000Y101890000D01*
G37*
G36*
X43170000Y79610000D02*
G01*
X42370000Y79610000D01*
X42370000Y80410000D01*
X43170000Y80410000D01*
X43170000Y79610000D01*
G37*
G36*
X45170000Y79610000D02*
G01*
X44370000Y79610000D01*
X44370000Y80410000D01*
X45170000Y80410000D01*
X45170000Y79610000D01*
G37*
G36*
X47170000Y79610000D02*
G01*
X46370000Y79610000D01*
X46370000Y80410000D01*
X47170000Y80410000D01*
X47170000Y79610000D01*
G37*
G36*
X43170000Y81610000D02*
G01*
X42370000Y81610000D01*
X42370000Y82410000D01*
X43170000Y82410000D01*
X43170000Y81610000D01*
G37*
G36*
X45170000Y81610000D02*
G01*
X44370000Y81610000D01*
X44370000Y82410000D01*
X45170000Y82410000D01*
X45170000Y81610000D01*
G37*
G36*
X47170000Y81610000D02*
G01*
X46370000Y81610000D01*
X46370000Y82410000D01*
X47170000Y82410000D01*
X47170000Y81610000D01*
G37*
G36*
X43170000Y83610000D02*
G01*
X42370000Y83610000D01*
X42370000Y84410000D01*
X43170000Y84410000D01*
X43170000Y83610000D01*
G37*
G36*
X45170000Y83610000D02*
G01*
X44370000Y83610000D01*
X44370000Y84410000D01*
X45170000Y84410000D01*
X45170000Y83610000D01*
G37*
G36*
X47170000Y83610000D02*
G01*
X46370000Y83610000D01*
X46370000Y84410000D01*
X47170000Y84410000D01*
X47170000Y83610000D01*
G37*
G36*
X43170000Y61330000D02*
G01*
X42370000Y61330000D01*
X42370000Y62130000D01*
X43170000Y62130000D01*
X43170000Y61330000D01*
G37*
G36*
X45170000Y61330000D02*
G01*
X44370000Y61330000D01*
X44370000Y62130000D01*
X45170000Y62130000D01*
X45170000Y61330000D01*
G37*
G36*
X47170000Y61330000D02*
G01*
X46370000Y61330000D01*
X46370000Y62130000D01*
X47170000Y62130000D01*
X47170000Y61330000D01*
G37*
G36*
X43170000Y63330000D02*
G01*
X42370000Y63330000D01*
X42370000Y64130000D01*
X43170000Y64130000D01*
X43170000Y63330000D01*
G37*
G36*
X45170000Y63330000D02*
G01*
X44370000Y63330000D01*
X44370000Y64130000D01*
X45170000Y64130000D01*
X45170000Y63330000D01*
G37*
G36*
X47170000Y63330000D02*
G01*
X46370000Y63330000D01*
X46370000Y64130000D01*
X47170000Y64130000D01*
X47170000Y63330000D01*
G37*
G36*
X43170000Y65330000D02*
G01*
X42370000Y65330000D01*
X42370000Y66130000D01*
X43170000Y66130000D01*
X43170000Y65330000D01*
G37*
G36*
X45170000Y65330000D02*
G01*
X44370000Y65330000D01*
X44370000Y66130000D01*
X45170000Y66130000D01*
X45170000Y65330000D01*
G37*
G36*
X47170000Y65330000D02*
G01*
X46370000Y65330000D01*
X46370000Y66130000D01*
X47170000Y66130000D01*
X47170000Y65330000D01*
G37*
G36*
X43170000Y43050000D02*
G01*
X42370000Y43050000D01*
X42370000Y43850000D01*
X43170000Y43850000D01*
X43170000Y43050000D01*
G37*
G36*
X45170000Y43050000D02*
G01*
X44370000Y43050000D01*
X44370000Y43850000D01*
X45170000Y43850000D01*
X45170000Y43050000D01*
G37*
G36*
X47170000Y43050000D02*
G01*
X46370000Y43050000D01*
X46370000Y43850000D01*
X47170000Y43850000D01*
X47170000Y43050000D01*
G37*
G36*
X43170000Y45050000D02*
G01*
X42370000Y45050000D01*
X42370000Y45850000D01*
X43170000Y45850000D01*
X43170000Y45050000D01*
G37*
G36*
X45170000Y45050000D02*
G01*
X44370000Y45050000D01*
X44370000Y45850000D01*
X45170000Y45850000D01*
X45170000Y45050000D01*
G37*
G36*
X47170000Y45050000D02*
G01*
X46370000Y45050000D01*
X46370000Y45850000D01*
X47170000Y45850000D01*
X47170000Y45050000D01*
G37*
G36*
X43170000Y47050000D02*
G01*
X42370000Y47050000D01*
X42370000Y47850000D01*
X43170000Y47850000D01*
X43170000Y47050000D01*
G37*
G36*
X45170000Y47050000D02*
G01*
X44370000Y47050000D01*
X44370000Y47850000D01*
X45170000Y47850000D01*
X45170000Y47050000D01*
G37*
G36*
X47170000Y47050000D02*
G01*
X46370000Y47050000D01*
X46370000Y47850000D01*
X47170000Y47850000D01*
X47170000Y47050000D01*
G37*
G36*
X43170000Y24770000D02*
G01*
X42370000Y24770000D01*
X42370000Y25570000D01*
X43170000Y25570000D01*
X43170000Y24770000D01*
G37*
G36*
X45170000Y24770000D02*
G01*
X44370000Y24770000D01*
X44370000Y25570000D01*
X45170000Y25570000D01*
X45170000Y24770000D01*
G37*
G36*
X47170000Y24770000D02*
G01*
X46370000Y24770000D01*
X46370000Y25570000D01*
X47170000Y25570000D01*
X47170000Y24770000D01*
G37*
G36*
X43170000Y26770000D02*
G01*
X42370000Y26770000D01*
X42370000Y27570000D01*
X43170000Y27570000D01*
X43170000Y26770000D01*
G37*
G36*
X45170000Y26770000D02*
G01*
X44370000Y26770000D01*
X44370000Y27570000D01*
X45170000Y27570000D01*
X45170000Y26770000D01*
G37*
G36*
X47170000Y26770000D02*
G01*
X46370000Y26770000D01*
X46370000Y27570000D01*
X47170000Y27570000D01*
X47170000Y26770000D01*
G37*
G36*
X43170000Y28770000D02*
G01*
X42370000Y28770000D01*
X42370000Y29570000D01*
X43170000Y29570000D01*
X43170000Y28770000D01*
G37*
G36*
X45170000Y28770000D02*
G01*
X44370000Y28770000D01*
X44370000Y29570000D01*
X45170000Y29570000D01*
X45170000Y28770000D01*
G37*
G36*
X47170000Y28770000D02*
G01*
X46370000Y28770000D01*
X46370000Y29570000D01*
X47170000Y29570000D01*
X47170000Y28770000D01*
G37*
G36*
X43170000Y6490000D02*
G01*
X42370000Y6490000D01*
X42370000Y7290000D01*
X43170000Y7290000D01*
X43170000Y6490000D01*
G37*
G36*
X45170000Y6490000D02*
G01*
X44370000Y6490000D01*
X44370000Y7290000D01*
X45170000Y7290000D01*
X45170000Y6490000D01*
G37*
G36*
X47170000Y6490000D02*
G01*
X46370000Y6490000D01*
X46370000Y7290000D01*
X47170000Y7290000D01*
X47170000Y6490000D01*
G37*
G36*
X43170000Y8490000D02*
G01*
X42370000Y8490000D01*
X42370000Y9290000D01*
X43170000Y9290000D01*
X43170000Y8490000D01*
G37*
G36*
X45170000Y8490000D02*
G01*
X44370000Y8490000D01*
X44370000Y9290000D01*
X45170000Y9290000D01*
X45170000Y8490000D01*
G37*
G36*
X47170000Y8490000D02*
G01*
X46370000Y8490000D01*
X46370000Y9290000D01*
X47170000Y9290000D01*
X47170000Y8490000D01*
G37*
G36*
X43170000Y10490000D02*
G01*
X42370000Y10490000D01*
X42370000Y11290000D01*
X43170000Y11290000D01*
X43170000Y10490000D01*
G37*
G36*
X45170000Y10490000D02*
G01*
X44370000Y10490000D01*
X44370000Y11290000D01*
X45170000Y11290000D01*
X45170000Y10490000D01*
G37*
G36*
X47170000Y10490000D02*
G01*
X46370000Y10490000D01*
X46370000Y11290000D01*
X47170000Y11290000D01*
X47170000Y10490000D01*
G37*
G36*
X4570000Y116170000D02*
G01*
X3770000Y116170000D01*
X3770000Y116970000D01*
X4570000Y116970000D01*
X4570000Y116170000D01*
G37*
G36*
X6570000Y116170000D02*
G01*
X5770000Y116170000D01*
X5770000Y116970000D01*
X6570000Y116970000D01*
X6570000Y116170000D01*
G37*
G36*
X8570000Y116170000D02*
G01*
X7770000Y116170000D01*
X7770000Y116970000D01*
X8570000Y116970000D01*
X8570000Y116170000D01*
G37*
G36*
X4570000Y118170000D02*
G01*
X3770000Y118170000D01*
X3770000Y118970000D01*
X4570000Y118970000D01*
X4570000Y118170000D01*
G37*
G36*
X6570000Y118170000D02*
G01*
X5770000Y118170000D01*
X5770000Y118970000D01*
X6570000Y118970000D01*
X6570000Y118170000D01*
G37*
G36*
X8570000Y118170000D02*
G01*
X7770000Y118170000D01*
X7770000Y118970000D01*
X8570000Y118970000D01*
X8570000Y118170000D01*
G37*
G36*
X4570000Y120170000D02*
G01*
X3770000Y120170000D01*
X3770000Y120970000D01*
X4570000Y120970000D01*
X4570000Y120170000D01*
G37*
G36*
X6570000Y120170000D02*
G01*
X5770000Y120170000D01*
X5770000Y120970000D01*
X6570000Y120970000D01*
X6570000Y120170000D01*
G37*
G36*
X8570000Y120170000D02*
G01*
X7770000Y120170000D01*
X7770000Y120970000D01*
X8570000Y120970000D01*
X8570000Y120170000D01*
G37*
G36*
X4570000Y97890000D02*
G01*
X3770000Y97890000D01*
X3770000Y98690000D01*
X4570000Y98690000D01*
X4570000Y97890000D01*
G37*
G36*
X6570000Y97890000D02*
G01*
X5770000Y97890000D01*
X5770000Y98690000D01*
X6570000Y98690000D01*
X6570000Y97890000D01*
G37*
G36*
X8570000Y97890000D02*
G01*
X7770000Y97890000D01*
X7770000Y98690000D01*
X8570000Y98690000D01*
X8570000Y97890000D01*
G37*
G36*
X4570000Y99890000D02*
G01*
X3770000Y99890000D01*
X3770000Y100690000D01*
X4570000Y100690000D01*
X4570000Y99890000D01*
G37*
G36*
X6570000Y99890000D02*
G01*
X5770000Y99890000D01*
X5770000Y100690000D01*
X6570000Y100690000D01*
X6570000Y99890000D01*
G37*
G36*
X8570000Y99890000D02*
G01*
X7770000Y99890000D01*
X7770000Y100690000D01*
X8570000Y100690000D01*
X8570000Y99890000D01*
G37*
G36*
X4570000Y101890000D02*
G01*
X3770000Y101890000D01*
X3770000Y102690000D01*
X4570000Y102690000D01*
X4570000Y101890000D01*
G37*
G36*
X6570000Y101890000D02*
G01*
X5770000Y101890000D01*
X5770000Y102690000D01*
X6570000Y102690000D01*
X6570000Y101890000D01*
G37*
G36*
X8570000Y101890000D02*
G01*
X7770000Y101890000D01*
X7770000Y102690000D01*
X8570000Y102690000D01*
X8570000Y101890000D01*
G37*
G36*
X4570000Y79610000D02*
G01*
X3770000Y79610000D01*
X3770000Y80410000D01*
X4570000Y80410000D01*
X4570000Y79610000D01*
G37*
G36*
X6570000Y79610000D02*
G01*
X5770000Y79610000D01*
X5770000Y80410000D01*
X6570000Y80410000D01*
X6570000Y79610000D01*
G37*
G36*
X8570000Y79610000D02*
G01*
X7770000Y79610000D01*
X7770000Y80410000D01*
X8570000Y80410000D01*
X8570000Y79610000D01*
G37*
G36*
X4570000Y81610000D02*
G01*
X3770000Y81610000D01*
X3770000Y82410000D01*
X4570000Y82410000D01*
X4570000Y81610000D01*
G37*
G36*
X6570000Y81610000D02*
G01*
X5770000Y81610000D01*
X5770000Y82410000D01*
X6570000Y82410000D01*
X6570000Y81610000D01*
G37*
G36*
X8570000Y81610000D02*
G01*
X7770000Y81610000D01*
X7770000Y82410000D01*
X8570000Y82410000D01*
X8570000Y81610000D01*
G37*
G36*
X4570000Y83610000D02*
G01*
X3770000Y83610000D01*
X3770000Y84410000D01*
X4570000Y84410000D01*
X4570000Y83610000D01*
G37*
G36*
X6570000Y83610000D02*
G01*
X5770000Y83610000D01*
X5770000Y84410000D01*
X6570000Y84410000D01*
X6570000Y83610000D01*
G37*
G36*
X8570000Y83610000D02*
G01*
X7770000Y83610000D01*
X7770000Y84410000D01*
X8570000Y84410000D01*
X8570000Y83610000D01*
G37*
G36*
X4570000Y61330000D02*
G01*
X3770000Y61330000D01*
X3770000Y62130000D01*
X4570000Y62130000D01*
X4570000Y61330000D01*
G37*
G36*
X6570000Y61330000D02*
G01*
X5770000Y61330000D01*
X5770000Y62130000D01*
X6570000Y62130000D01*
X6570000Y61330000D01*
G37*
G36*
X8570000Y61330000D02*
G01*
X7770000Y61330000D01*
X7770000Y62130000D01*
X8570000Y62130000D01*
X8570000Y61330000D01*
G37*
G36*
X4570000Y63330000D02*
G01*
X3770000Y63330000D01*
X3770000Y64130000D01*
X4570000Y64130000D01*
X4570000Y63330000D01*
G37*
G36*
X6570000Y63330000D02*
G01*
X5770000Y63330000D01*
X5770000Y64130000D01*
X6570000Y64130000D01*
X6570000Y63330000D01*
G37*
G36*
X8570000Y63330000D02*
G01*
X7770000Y63330000D01*
X7770000Y64130000D01*
X8570000Y64130000D01*
X8570000Y63330000D01*
G37*
G36*
X4570000Y65330000D02*
G01*
X3770000Y65330000D01*
X3770000Y66130000D01*
X4570000Y66130000D01*
X4570000Y65330000D01*
G37*
G36*
X6570000Y65330000D02*
G01*
X5770000Y65330000D01*
X5770000Y66130000D01*
X6570000Y66130000D01*
X6570000Y65330000D01*
G37*
G36*
X8570000Y65330000D02*
G01*
X7770000Y65330000D01*
X7770000Y66130000D01*
X8570000Y66130000D01*
X8570000Y65330000D01*
G37*
G36*
X4570000Y43050000D02*
G01*
X3770000Y43050000D01*
X3770000Y43850000D01*
X4570000Y43850000D01*
X4570000Y43050000D01*
G37*
G36*
X6570000Y43050000D02*
G01*
X5770000Y43050000D01*
X5770000Y43850000D01*
X6570000Y43850000D01*
X6570000Y43050000D01*
G37*
G36*
X8570000Y43050000D02*
G01*
X7770000Y43050000D01*
X7770000Y43850000D01*
X8570000Y43850000D01*
X8570000Y43050000D01*
G37*
G36*
X4570000Y45050000D02*
G01*
X3770000Y45050000D01*
X3770000Y45850000D01*
X4570000Y45850000D01*
X4570000Y45050000D01*
G37*
G36*
X6570000Y45050000D02*
G01*
X5770000Y45050000D01*
X5770000Y45850000D01*
X6570000Y45850000D01*
X6570000Y45050000D01*
G37*
G36*
X8570000Y45050000D02*
G01*
X7770000Y45050000D01*
X7770000Y45850000D01*
X8570000Y45850000D01*
X8570000Y45050000D01*
G37*
G36*
X4570000Y47050000D02*
G01*
X3770000Y47050000D01*
X3770000Y47850000D01*
X4570000Y47850000D01*
X4570000Y47050000D01*
G37*
G36*
X6570000Y47050000D02*
G01*
X5770000Y47050000D01*
X5770000Y47850000D01*
X6570000Y47850000D01*
X6570000Y47050000D01*
G37*
G36*
X8570000Y47050000D02*
G01*
X7770000Y47050000D01*
X7770000Y47850000D01*
X8570000Y47850000D01*
X8570000Y47050000D01*
G37*
G36*
X4570000Y24770000D02*
G01*
X3770000Y24770000D01*
X3770000Y25570000D01*
X4570000Y25570000D01*
X4570000Y24770000D01*
G37*
G36*
X6570000Y24770000D02*
G01*
X5770000Y24770000D01*
X5770000Y25570000D01*
X6570000Y25570000D01*
X6570000Y24770000D01*
G37*
G36*
X8570000Y24770000D02*
G01*
X7770000Y24770000D01*
X7770000Y25570000D01*
X8570000Y25570000D01*
X8570000Y24770000D01*
G37*
G36*
X4570000Y26770000D02*
G01*
X3770000Y26770000D01*
X3770000Y27570000D01*
X4570000Y27570000D01*
X4570000Y26770000D01*
G37*
G36*
X6570000Y26770000D02*
G01*
X5770000Y26770000D01*
X5770000Y27570000D01*
X6570000Y27570000D01*
X6570000Y26770000D01*
G37*
G36*
X8570000Y26770000D02*
G01*
X7770000Y26770000D01*
X7770000Y27570000D01*
X8570000Y27570000D01*
X8570000Y26770000D01*
G37*
G36*
X4570000Y28770000D02*
G01*
X3770000Y28770000D01*
X3770000Y29570000D01*
X4570000Y29570000D01*
X4570000Y28770000D01*
G37*
G36*
X6570000Y28770000D02*
G01*
X5770000Y28770000D01*
X5770000Y29570000D01*
X6570000Y29570000D01*
X6570000Y28770000D01*
G37*
G36*
X8570000Y28770000D02*
G01*
X7770000Y28770000D01*
X7770000Y29570000D01*
X8570000Y29570000D01*
X8570000Y28770000D01*
G37*
G36*
X4570000Y6490000D02*
G01*
X3770000Y6490000D01*
X3770000Y7290000D01*
X4570000Y7290000D01*
X4570000Y6490000D01*
G37*
G36*
X6570000Y6490000D02*
G01*
X5770000Y6490000D01*
X5770000Y7290000D01*
X6570000Y7290000D01*
X6570000Y6490000D01*
G37*
G36*
X8570000Y6490000D02*
G01*
X7770000Y6490000D01*
X7770000Y7290000D01*
X8570000Y7290000D01*
X8570000Y6490000D01*
G37*
G36*
X4570000Y8490000D02*
G01*
X3770000Y8490000D01*
X3770000Y9290000D01*
X4570000Y9290000D01*
X4570000Y8490000D01*
G37*
G36*
X6570000Y8490000D02*
G01*
X5770000Y8490000D01*
X5770000Y9290000D01*
X6570000Y9290000D01*
X6570000Y8490000D01*
G37*
G36*
X8570000Y8490000D02*
G01*
X7770000Y8490000D01*
X7770000Y9290000D01*
X8570000Y9290000D01*
X8570000Y8490000D01*
G37*
G36*
X4570000Y10490000D02*
G01*
X3770000Y10490000D01*
X3770000Y11290000D01*
X4570000Y11290000D01*
X4570000Y10490000D01*
G37*
G36*
X6570000Y10490000D02*
G01*
X5770000Y10490000D01*
X5770000Y11290000D01*
X6570000Y11290000D01*
X6570000Y10490000D01*
G37*
G36*
X8570000Y10490000D02*
G01*
X7770000Y10490000D01*
X7770000Y11290000D01*
X8570000Y11290000D01*
X8570000Y10490000D01*
G37*
%TD*%
D10*
%TO.C,D2*%
X145797500Y123142000D03*
X144222500Y123142000D03*
%TD*%
%TO.C,D2*%
X145797500Y104862000D03*
X144222500Y104862000D03*
%TD*%
%TO.C,D2*%
X145797500Y86582000D03*
X144222500Y86582000D03*
%TD*%
%TO.C,D2*%
X145797500Y68302000D03*
X144222500Y68302000D03*
%TD*%
%TO.C,D2*%
X145797500Y50022000D03*
X144222500Y50022000D03*
%TD*%
%TO.C,D2*%
X145797500Y31742000D03*
X144222500Y31742000D03*
%TD*%
%TO.C,D2*%
X145797500Y13462000D03*
X144222500Y13462000D03*
%TD*%
%TO.C,D2*%
X107197500Y123142000D03*
X105622500Y123142000D03*
%TD*%
%TO.C,D2*%
X107197500Y104862000D03*
X105622500Y104862000D03*
%TD*%
%TO.C,D2*%
X107197500Y86582000D03*
X105622500Y86582000D03*
%TD*%
%TO.C,D2*%
X107197500Y68302000D03*
X105622500Y68302000D03*
%TD*%
%TO.C,D2*%
X107197500Y50022000D03*
X105622500Y50022000D03*
%TD*%
%TO.C,D2*%
X107197500Y31742000D03*
X105622500Y31742000D03*
%TD*%
%TO.C,D2*%
X107197500Y13462000D03*
X105622500Y13462000D03*
%TD*%
%TO.C,D2*%
X68597500Y123142000D03*
X67022500Y123142000D03*
%TD*%
%TO.C,D2*%
X68597500Y104862000D03*
X67022500Y104862000D03*
%TD*%
%TO.C,D2*%
X68597500Y86582000D03*
X67022500Y86582000D03*
%TD*%
%TO.C,D2*%
X68597500Y68302000D03*
X67022500Y68302000D03*
%TD*%
%TO.C,D2*%
X68597500Y50022000D03*
X67022500Y50022000D03*
%TD*%
%TO.C,D2*%
X68597500Y31742000D03*
X67022500Y31742000D03*
%TD*%
%TO.C,D2*%
X68597500Y13462000D03*
X67022500Y13462000D03*
%TD*%
%TO.C,D2*%
X29997500Y123142000D03*
X28422500Y123142000D03*
%TD*%
%TO.C,D2*%
X29997500Y104862000D03*
X28422500Y104862000D03*
%TD*%
%TO.C,D2*%
X29997500Y86582000D03*
X28422500Y86582000D03*
%TD*%
%TO.C,D2*%
X29997500Y68302000D03*
X28422500Y68302000D03*
%TD*%
%TO.C,D2*%
X29997500Y50022000D03*
X28422500Y50022000D03*
%TD*%
%TO.C,D2*%
X29997500Y31742000D03*
X28422500Y31742000D03*
%TD*%
D11*
%TO.C,R4*%
X130595000Y119840000D03*
X128945000Y119840000D03*
%TD*%
%TO.C,R4*%
X130595000Y101560000D03*
X128945000Y101560000D03*
%TD*%
%TO.C,R4*%
X130595000Y83280000D03*
X128945000Y83280000D03*
%TD*%
%TO.C,R4*%
X130595000Y65000000D03*
X128945000Y65000000D03*
%TD*%
%TO.C,R4*%
X130595000Y46720000D03*
X128945000Y46720000D03*
%TD*%
%TO.C,R4*%
X130595000Y28440000D03*
X128945000Y28440000D03*
%TD*%
%TO.C,R4*%
X130595000Y10160000D03*
X128945000Y10160000D03*
%TD*%
%TO.C,R4*%
X91995000Y119840000D03*
X90345000Y119840000D03*
%TD*%
%TO.C,R4*%
X91995000Y101560000D03*
X90345000Y101560000D03*
%TD*%
%TO.C,R4*%
X91995000Y83280000D03*
X90345000Y83280000D03*
%TD*%
%TO.C,R4*%
X91995000Y65000000D03*
X90345000Y65000000D03*
%TD*%
%TO.C,R4*%
X91995000Y46720000D03*
X90345000Y46720000D03*
%TD*%
%TO.C,R4*%
X91995000Y28440000D03*
X90345000Y28440000D03*
%TD*%
%TO.C,R4*%
X91995000Y10160000D03*
X90345000Y10160000D03*
%TD*%
%TO.C,R4*%
X53395000Y119840000D03*
X51745000Y119840000D03*
%TD*%
%TO.C,R4*%
X53395000Y101560000D03*
X51745000Y101560000D03*
%TD*%
%TO.C,R4*%
X53395000Y83280000D03*
X51745000Y83280000D03*
%TD*%
%TO.C,R4*%
X53395000Y65000000D03*
X51745000Y65000000D03*
%TD*%
%TO.C,R4*%
X53395000Y46720000D03*
X51745000Y46720000D03*
%TD*%
%TO.C,R4*%
X53395000Y28440000D03*
X51745000Y28440000D03*
%TD*%
%TO.C,R4*%
X53395000Y10160000D03*
X51745000Y10160000D03*
%TD*%
%TO.C,R4*%
X14795000Y119840000D03*
X13145000Y119840000D03*
%TD*%
%TO.C,R4*%
X14795000Y101560000D03*
X13145000Y101560000D03*
%TD*%
%TO.C,R4*%
X14795000Y83280000D03*
X13145000Y83280000D03*
%TD*%
%TO.C,R4*%
X14795000Y65000000D03*
X13145000Y65000000D03*
%TD*%
%TO.C,R4*%
X14795000Y46720000D03*
X13145000Y46720000D03*
%TD*%
%TO.C,R4*%
X14795000Y28440000D03*
X13145000Y28440000D03*
%TD*%
D12*
%TO.C,SW1*%
X133090000Y121580000D03*
X128990000Y121580000D03*
X133090000Y123180000D03*
X128990000Y123180000D03*
%TD*%
%TO.C,SW1*%
X133090000Y103300000D03*
X128990000Y103300000D03*
X133090000Y104900000D03*
X128990000Y104900000D03*
%TD*%
%TO.C,SW1*%
X133090000Y85020000D03*
X128990000Y85020000D03*
X133090000Y86620000D03*
X128990000Y86620000D03*
%TD*%
%TO.C,SW1*%
X133090000Y66740000D03*
X128990000Y66740000D03*
X133090000Y68340000D03*
X128990000Y68340000D03*
%TD*%
%TO.C,SW1*%
X133090000Y48460000D03*
X128990000Y48460000D03*
X133090000Y50060000D03*
X128990000Y50060000D03*
%TD*%
%TO.C,SW1*%
X133090000Y30180000D03*
X128990000Y30180000D03*
X133090000Y31780000D03*
X128990000Y31780000D03*
%TD*%
%TO.C,SW1*%
X133090000Y11900000D03*
X128990000Y11900000D03*
X133090000Y13500000D03*
X128990000Y13500000D03*
%TD*%
%TO.C,SW1*%
X94490000Y121580000D03*
X90390000Y121580000D03*
X94490000Y123180000D03*
X90390000Y123180000D03*
%TD*%
%TO.C,SW1*%
X94490000Y103300000D03*
X90390000Y103300000D03*
X94490000Y104900000D03*
X90390000Y104900000D03*
%TD*%
%TO.C,SW1*%
X94490000Y85020000D03*
X90390000Y85020000D03*
X94490000Y86620000D03*
X90390000Y86620000D03*
%TD*%
%TO.C,SW1*%
X94490000Y66740000D03*
X90390000Y66740000D03*
X94490000Y68340000D03*
X90390000Y68340000D03*
%TD*%
%TO.C,SW1*%
X94490000Y48460000D03*
X90390000Y48460000D03*
X94490000Y50060000D03*
X90390000Y50060000D03*
%TD*%
%TO.C,SW1*%
X94490000Y30180000D03*
X90390000Y30180000D03*
X94490000Y31780000D03*
X90390000Y31780000D03*
%TD*%
%TO.C,SW1*%
X94490000Y11900000D03*
X90390000Y11900000D03*
X94490000Y13500000D03*
X90390000Y13500000D03*
%TD*%
%TO.C,SW1*%
X55890000Y121580000D03*
X51790000Y121580000D03*
X55890000Y123180000D03*
X51790000Y123180000D03*
%TD*%
%TO.C,SW1*%
X55890000Y103300000D03*
X51790000Y103300000D03*
X55890000Y104900000D03*
X51790000Y104900000D03*
%TD*%
%TO.C,SW1*%
X55890000Y85020000D03*
X51790000Y85020000D03*
X55890000Y86620000D03*
X51790000Y86620000D03*
%TD*%
%TO.C,SW1*%
X55890000Y66740000D03*
X51790000Y66740000D03*
X55890000Y68340000D03*
X51790000Y68340000D03*
%TD*%
%TO.C,SW1*%
X55890000Y48460000D03*
X51790000Y48460000D03*
X55890000Y50060000D03*
X51790000Y50060000D03*
%TD*%
%TO.C,SW1*%
X55890000Y30180000D03*
X51790000Y30180000D03*
X55890000Y31780000D03*
X51790000Y31780000D03*
%TD*%
%TO.C,SW1*%
X55890000Y11900000D03*
X51790000Y11900000D03*
X55890000Y13500000D03*
X51790000Y13500000D03*
%TD*%
%TO.C,SW1*%
X17290000Y121580000D03*
X13190000Y121580000D03*
X17290000Y123180000D03*
X13190000Y123180000D03*
%TD*%
%TO.C,SW1*%
X17290000Y103300000D03*
X13190000Y103300000D03*
X17290000Y104900000D03*
X13190000Y104900000D03*
%TD*%
%TO.C,SW1*%
X17290000Y85020000D03*
X13190000Y85020000D03*
X17290000Y86620000D03*
X13190000Y86620000D03*
%TD*%
%TO.C,SW1*%
X17290000Y66740000D03*
X13190000Y66740000D03*
X17290000Y68340000D03*
X13190000Y68340000D03*
%TD*%
%TO.C,SW1*%
X17290000Y48460000D03*
X13190000Y48460000D03*
X17290000Y50060000D03*
X13190000Y50060000D03*
%TD*%
%TO.C,SW1*%
X17290000Y30180000D03*
X13190000Y30180000D03*
X17290000Y31780000D03*
X13190000Y31780000D03*
%TD*%
D13*
%TO.C,C3*%
X138165000Y123142000D03*
X136615000Y123142000D03*
%TD*%
%TO.C,C3*%
X138165000Y104862000D03*
X136615000Y104862000D03*
%TD*%
%TO.C,C3*%
X138165000Y86582000D03*
X136615000Y86582000D03*
%TD*%
%TO.C,C3*%
X138165000Y68302000D03*
X136615000Y68302000D03*
%TD*%
%TO.C,C3*%
X138165000Y50022000D03*
X136615000Y50022000D03*
%TD*%
%TO.C,C3*%
X138165000Y31742000D03*
X136615000Y31742000D03*
%TD*%
%TO.C,C3*%
X138165000Y13462000D03*
X136615000Y13462000D03*
%TD*%
%TO.C,C3*%
X99565000Y123142000D03*
X98015000Y123142000D03*
%TD*%
%TO.C,C3*%
X99565000Y104862000D03*
X98015000Y104862000D03*
%TD*%
%TO.C,C3*%
X99565000Y86582000D03*
X98015000Y86582000D03*
%TD*%
%TO.C,C3*%
X99565000Y68302000D03*
X98015000Y68302000D03*
%TD*%
%TO.C,C3*%
X99565000Y50022000D03*
X98015000Y50022000D03*
%TD*%
%TO.C,C3*%
X99565000Y31742000D03*
X98015000Y31742000D03*
%TD*%
%TO.C,C3*%
X99565000Y13462000D03*
X98015000Y13462000D03*
%TD*%
%TO.C,C3*%
X60965000Y123142000D03*
X59415000Y123142000D03*
%TD*%
%TO.C,C3*%
X60965000Y104862000D03*
X59415000Y104862000D03*
%TD*%
%TO.C,C3*%
X60965000Y86582000D03*
X59415000Y86582000D03*
%TD*%
%TO.C,C3*%
X60965000Y68302000D03*
X59415000Y68302000D03*
%TD*%
%TO.C,C3*%
X60965000Y50022000D03*
X59415000Y50022000D03*
%TD*%
%TO.C,C3*%
X60965000Y31742000D03*
X59415000Y31742000D03*
%TD*%
%TO.C,C3*%
X60965000Y13462000D03*
X59415000Y13462000D03*
%TD*%
%TO.C,C3*%
X22365000Y123142000D03*
X20815000Y123142000D03*
%TD*%
%TO.C,C3*%
X22365000Y104862000D03*
X20815000Y104862000D03*
%TD*%
%TO.C,C3*%
X22365000Y86582000D03*
X20815000Y86582000D03*
%TD*%
%TO.C,C3*%
X22365000Y68302000D03*
X20815000Y68302000D03*
%TD*%
%TO.C,C3*%
X22365000Y50022000D03*
X20815000Y50022000D03*
%TD*%
%TO.C,C3*%
X22365000Y31742000D03*
X20815000Y31742000D03*
%TD*%
D14*
%TO.C,J5*%
X140324000Y120070000D03*
X140324000Y119070000D03*
X140324000Y118070000D03*
X140324000Y117070000D03*
D15*
X142749000Y121370000D03*
X142749000Y115770000D03*
%TD*%
D14*
%TO.C,J5*%
X140324000Y101790000D03*
X140324000Y100790000D03*
X140324000Y99790000D03*
X140324000Y98790000D03*
D15*
X142749000Y103090000D03*
X142749000Y97490000D03*
%TD*%
D14*
%TO.C,J5*%
X140324000Y83510000D03*
X140324000Y82510000D03*
X140324000Y81510000D03*
X140324000Y80510000D03*
D15*
X142749000Y84810000D03*
X142749000Y79210000D03*
%TD*%
D14*
%TO.C,J5*%
X140324000Y65230000D03*
X140324000Y64230000D03*
X140324000Y63230000D03*
X140324000Y62230000D03*
D15*
X142749000Y66530000D03*
X142749000Y60930000D03*
%TD*%
D14*
%TO.C,J5*%
X140324000Y46950000D03*
X140324000Y45950000D03*
X140324000Y44950000D03*
X140324000Y43950000D03*
D15*
X142749000Y48250000D03*
X142749000Y42650000D03*
%TD*%
D14*
%TO.C,J5*%
X140324000Y28670000D03*
X140324000Y27670000D03*
X140324000Y26670000D03*
X140324000Y25670000D03*
D15*
X142749000Y29970000D03*
X142749000Y24370000D03*
%TD*%
D14*
%TO.C,J5*%
X140324000Y10390000D03*
X140324000Y9390000D03*
X140324000Y8390000D03*
X140324000Y7390000D03*
D15*
X142749000Y11690000D03*
X142749000Y6090000D03*
%TD*%
D14*
%TO.C,J5*%
X101724000Y120070000D03*
X101724000Y119070000D03*
X101724000Y118070000D03*
X101724000Y117070000D03*
D15*
X104149000Y121370000D03*
X104149000Y115770000D03*
%TD*%
D14*
%TO.C,J5*%
X101724000Y101790000D03*
X101724000Y100790000D03*
X101724000Y99790000D03*
X101724000Y98790000D03*
D15*
X104149000Y103090000D03*
X104149000Y97490000D03*
%TD*%
D14*
%TO.C,J5*%
X101724000Y83510000D03*
X101724000Y82510000D03*
X101724000Y81510000D03*
X101724000Y80510000D03*
D15*
X104149000Y84810000D03*
X104149000Y79210000D03*
%TD*%
D14*
%TO.C,J5*%
X101724000Y65230000D03*
X101724000Y64230000D03*
X101724000Y63230000D03*
X101724000Y62230000D03*
D15*
X104149000Y66530000D03*
X104149000Y60930000D03*
%TD*%
D14*
%TO.C,J5*%
X101724000Y46950000D03*
X101724000Y45950000D03*
X101724000Y44950000D03*
X101724000Y43950000D03*
D15*
X104149000Y48250000D03*
X104149000Y42650000D03*
%TD*%
D14*
%TO.C,J5*%
X101724000Y28670000D03*
X101724000Y27670000D03*
X101724000Y26670000D03*
X101724000Y25670000D03*
D15*
X104149000Y29970000D03*
X104149000Y24370000D03*
%TD*%
D14*
%TO.C,J5*%
X101724000Y10390000D03*
X101724000Y9390000D03*
X101724000Y8390000D03*
X101724000Y7390000D03*
D15*
X104149000Y11690000D03*
X104149000Y6090000D03*
%TD*%
D14*
%TO.C,J5*%
X63124000Y120070000D03*
X63124000Y119070000D03*
X63124000Y118070000D03*
X63124000Y117070000D03*
D15*
X65549000Y121370000D03*
X65549000Y115770000D03*
%TD*%
D14*
%TO.C,J5*%
X63124000Y101790000D03*
X63124000Y100790000D03*
X63124000Y99790000D03*
X63124000Y98790000D03*
D15*
X65549000Y103090000D03*
X65549000Y97490000D03*
%TD*%
D14*
%TO.C,J5*%
X63124000Y83510000D03*
X63124000Y82510000D03*
X63124000Y81510000D03*
X63124000Y80510000D03*
D15*
X65549000Y84810000D03*
X65549000Y79210000D03*
%TD*%
D14*
%TO.C,J5*%
X63124000Y65230000D03*
X63124000Y64230000D03*
X63124000Y63230000D03*
X63124000Y62230000D03*
D15*
X65549000Y66530000D03*
X65549000Y60930000D03*
%TD*%
D14*
%TO.C,J5*%
X63124000Y46950000D03*
X63124000Y45950000D03*
X63124000Y44950000D03*
X63124000Y43950000D03*
D15*
X65549000Y48250000D03*
X65549000Y42650000D03*
%TD*%
D14*
%TO.C,J5*%
X63124000Y28670000D03*
X63124000Y27670000D03*
X63124000Y26670000D03*
X63124000Y25670000D03*
D15*
X65549000Y29970000D03*
X65549000Y24370000D03*
%TD*%
D14*
%TO.C,J5*%
X63124000Y10390000D03*
X63124000Y9390000D03*
X63124000Y8390000D03*
X63124000Y7390000D03*
D15*
X65549000Y11690000D03*
X65549000Y6090000D03*
%TD*%
D14*
%TO.C,J5*%
X24524000Y120070000D03*
X24524000Y119070000D03*
X24524000Y118070000D03*
X24524000Y117070000D03*
D15*
X26949000Y121370000D03*
X26949000Y115770000D03*
%TD*%
D14*
%TO.C,J5*%
X24524000Y101790000D03*
X24524000Y100790000D03*
X24524000Y99790000D03*
X24524000Y98790000D03*
D15*
X26949000Y103090000D03*
X26949000Y97490000D03*
%TD*%
D14*
%TO.C,J5*%
X24524000Y83510000D03*
X24524000Y82510000D03*
X24524000Y81510000D03*
X24524000Y80510000D03*
D15*
X26949000Y84810000D03*
X26949000Y79210000D03*
%TD*%
D14*
%TO.C,J5*%
X24524000Y65230000D03*
X24524000Y64230000D03*
X24524000Y63230000D03*
X24524000Y62230000D03*
D15*
X26949000Y66530000D03*
X26949000Y60930000D03*
%TD*%
D14*
%TO.C,J5*%
X24524000Y46950000D03*
X24524000Y45950000D03*
X24524000Y44950000D03*
X24524000Y43950000D03*
D15*
X26949000Y48250000D03*
X26949000Y42650000D03*
%TD*%
D14*
%TO.C,J5*%
X24524000Y28670000D03*
X24524000Y27670000D03*
X24524000Y26670000D03*
X24524000Y25670000D03*
D15*
X26949000Y29970000D03*
X26949000Y24370000D03*
%TD*%
D16*
%TO.C,C6*%
X136615000Y121491000D03*
X138165000Y121491000D03*
%TD*%
%TO.C,C6*%
X136615000Y103211000D03*
X138165000Y103211000D03*
%TD*%
%TO.C,C6*%
X136615000Y84931000D03*
X138165000Y84931000D03*
%TD*%
%TO.C,C6*%
X136615000Y66651000D03*
X138165000Y66651000D03*
%TD*%
%TO.C,C6*%
X136615000Y48371000D03*
X138165000Y48371000D03*
%TD*%
%TO.C,C6*%
X136615000Y30091000D03*
X138165000Y30091000D03*
%TD*%
%TO.C,C6*%
X136615000Y11811000D03*
X138165000Y11811000D03*
%TD*%
%TO.C,C6*%
X98015000Y121491000D03*
X99565000Y121491000D03*
%TD*%
%TO.C,C6*%
X98015000Y103211000D03*
X99565000Y103211000D03*
%TD*%
%TO.C,C6*%
X98015000Y84931000D03*
X99565000Y84931000D03*
%TD*%
%TO.C,C6*%
X98015000Y66651000D03*
X99565000Y66651000D03*
%TD*%
%TO.C,C6*%
X98015000Y48371000D03*
X99565000Y48371000D03*
%TD*%
%TO.C,C6*%
X98015000Y30091000D03*
X99565000Y30091000D03*
%TD*%
%TO.C,C6*%
X98015000Y11811000D03*
X99565000Y11811000D03*
%TD*%
%TO.C,C6*%
X59415000Y121491000D03*
X60965000Y121491000D03*
%TD*%
%TO.C,C6*%
X59415000Y103211000D03*
X60965000Y103211000D03*
%TD*%
%TO.C,C6*%
X59415000Y84931000D03*
X60965000Y84931000D03*
%TD*%
%TO.C,C6*%
X59415000Y66651000D03*
X60965000Y66651000D03*
%TD*%
%TO.C,C6*%
X59415000Y48371000D03*
X60965000Y48371000D03*
%TD*%
%TO.C,C6*%
X59415000Y30091000D03*
X60965000Y30091000D03*
%TD*%
%TO.C,C6*%
X59415000Y11811000D03*
X60965000Y11811000D03*
%TD*%
%TO.C,C6*%
X20815000Y121491000D03*
X22365000Y121491000D03*
%TD*%
%TO.C,C6*%
X20815000Y103211000D03*
X22365000Y103211000D03*
%TD*%
%TO.C,C6*%
X20815000Y84931000D03*
X22365000Y84931000D03*
%TD*%
%TO.C,C6*%
X20815000Y66651000D03*
X22365000Y66651000D03*
%TD*%
%TO.C,C6*%
X20815000Y48371000D03*
X22365000Y48371000D03*
%TD*%
%TO.C,C6*%
X20815000Y30091000D03*
X22365000Y30091000D03*
%TD*%
D12*
%TO.C,SW2*%
X128990000Y115560000D03*
X133090000Y115560000D03*
X128990000Y113960000D03*
X133090000Y113960000D03*
%TD*%
%TO.C,SW2*%
X128990000Y97280000D03*
X133090000Y97280000D03*
X128990000Y95680000D03*
X133090000Y95680000D03*
%TD*%
%TO.C,SW2*%
X128990000Y79000000D03*
X133090000Y79000000D03*
X128990000Y77400000D03*
X133090000Y77400000D03*
%TD*%
%TO.C,SW2*%
X128990000Y60720000D03*
X133090000Y60720000D03*
X128990000Y59120000D03*
X133090000Y59120000D03*
%TD*%
%TO.C,SW2*%
X128990000Y42440000D03*
X133090000Y42440000D03*
X128990000Y40840000D03*
X133090000Y40840000D03*
%TD*%
%TO.C,SW2*%
X128990000Y24160000D03*
X133090000Y24160000D03*
X128990000Y22560000D03*
X133090000Y22560000D03*
%TD*%
%TO.C,SW2*%
X128990000Y5880000D03*
X133090000Y5880000D03*
X128990000Y4280000D03*
X133090000Y4280000D03*
%TD*%
%TO.C,SW2*%
X90390000Y115560000D03*
X94490000Y115560000D03*
X90390000Y113960000D03*
X94490000Y113960000D03*
%TD*%
%TO.C,SW2*%
X90390000Y97280000D03*
X94490000Y97280000D03*
X90390000Y95680000D03*
X94490000Y95680000D03*
%TD*%
%TO.C,SW2*%
X90390000Y79000000D03*
X94490000Y79000000D03*
X90390000Y77400000D03*
X94490000Y77400000D03*
%TD*%
%TO.C,SW2*%
X90390000Y60720000D03*
X94490000Y60720000D03*
X90390000Y59120000D03*
X94490000Y59120000D03*
%TD*%
%TO.C,SW2*%
X90390000Y42440000D03*
X94490000Y42440000D03*
X90390000Y40840000D03*
X94490000Y40840000D03*
%TD*%
%TO.C,SW2*%
X90390000Y24160000D03*
X94490000Y24160000D03*
X90390000Y22560000D03*
X94490000Y22560000D03*
%TD*%
%TO.C,SW2*%
X90390000Y5880000D03*
X94490000Y5880000D03*
X90390000Y4280000D03*
X94490000Y4280000D03*
%TD*%
%TO.C,SW2*%
X51790000Y115560000D03*
X55890000Y115560000D03*
X51790000Y113960000D03*
X55890000Y113960000D03*
%TD*%
%TO.C,SW2*%
X51790000Y97280000D03*
X55890000Y97280000D03*
X51790000Y95680000D03*
X55890000Y95680000D03*
%TD*%
%TO.C,SW2*%
X51790000Y79000000D03*
X55890000Y79000000D03*
X51790000Y77400000D03*
X55890000Y77400000D03*
%TD*%
%TO.C,SW2*%
X51790000Y60720000D03*
X55890000Y60720000D03*
X51790000Y59120000D03*
X55890000Y59120000D03*
%TD*%
%TO.C,SW2*%
X51790000Y42440000D03*
X55890000Y42440000D03*
X51790000Y40840000D03*
X55890000Y40840000D03*
%TD*%
%TO.C,SW2*%
X51790000Y24160000D03*
X55890000Y24160000D03*
X51790000Y22560000D03*
X55890000Y22560000D03*
%TD*%
%TO.C,SW2*%
X51790000Y5880000D03*
X55890000Y5880000D03*
X51790000Y4280000D03*
X55890000Y4280000D03*
%TD*%
%TO.C,SW2*%
X13190000Y115560000D03*
X17290000Y115560000D03*
X13190000Y113960000D03*
X17290000Y113960000D03*
%TD*%
%TO.C,SW2*%
X13190000Y97280000D03*
X17290000Y97280000D03*
X13190000Y95680000D03*
X17290000Y95680000D03*
%TD*%
%TO.C,SW2*%
X13190000Y79000000D03*
X17290000Y79000000D03*
X13190000Y77400000D03*
X17290000Y77400000D03*
%TD*%
%TO.C,SW2*%
X13190000Y60720000D03*
X17290000Y60720000D03*
X13190000Y59120000D03*
X17290000Y59120000D03*
%TD*%
%TO.C,SW2*%
X13190000Y42440000D03*
X17290000Y42440000D03*
X13190000Y40840000D03*
X17290000Y40840000D03*
%TD*%
%TO.C,SW2*%
X13190000Y24160000D03*
X17290000Y24160000D03*
X13190000Y22560000D03*
X17290000Y22560000D03*
%TD*%
D11*
%TO.C,R1*%
X142025000Y123142000D03*
X140375000Y123142000D03*
%TD*%
%TO.C,R1*%
X142025000Y104862000D03*
X140375000Y104862000D03*
%TD*%
%TO.C,R1*%
X142025000Y86582000D03*
X140375000Y86582000D03*
%TD*%
%TO.C,R1*%
X142025000Y68302000D03*
X140375000Y68302000D03*
%TD*%
%TO.C,R1*%
X142025000Y50022000D03*
X140375000Y50022000D03*
%TD*%
%TO.C,R1*%
X142025000Y31742000D03*
X140375000Y31742000D03*
%TD*%
%TO.C,R1*%
X142025000Y13462000D03*
X140375000Y13462000D03*
%TD*%
%TO.C,R1*%
X103425000Y123142000D03*
X101775000Y123142000D03*
%TD*%
%TO.C,R1*%
X103425000Y104862000D03*
X101775000Y104862000D03*
%TD*%
%TO.C,R1*%
X103425000Y86582000D03*
X101775000Y86582000D03*
%TD*%
%TO.C,R1*%
X103425000Y68302000D03*
X101775000Y68302000D03*
%TD*%
%TO.C,R1*%
X103425000Y50022000D03*
X101775000Y50022000D03*
%TD*%
%TO.C,R1*%
X103425000Y31742000D03*
X101775000Y31742000D03*
%TD*%
%TO.C,R1*%
X103425000Y13462000D03*
X101775000Y13462000D03*
%TD*%
%TO.C,R1*%
X64825000Y123142000D03*
X63175000Y123142000D03*
%TD*%
%TO.C,R1*%
X64825000Y104862000D03*
X63175000Y104862000D03*
%TD*%
%TO.C,R1*%
X64825000Y86582000D03*
X63175000Y86582000D03*
%TD*%
%TO.C,R1*%
X64825000Y68302000D03*
X63175000Y68302000D03*
%TD*%
%TO.C,R1*%
X64825000Y50022000D03*
X63175000Y50022000D03*
%TD*%
%TO.C,R1*%
X64825000Y31742000D03*
X63175000Y31742000D03*
%TD*%
%TO.C,R1*%
X64825000Y13462000D03*
X63175000Y13462000D03*
%TD*%
%TO.C,R1*%
X26225000Y123142000D03*
X24575000Y123142000D03*
%TD*%
%TO.C,R1*%
X26225000Y104862000D03*
X24575000Y104862000D03*
%TD*%
%TO.C,R1*%
X26225000Y86582000D03*
X24575000Y86582000D03*
%TD*%
%TO.C,R1*%
X26225000Y68302000D03*
X24575000Y68302000D03*
%TD*%
%TO.C,R1*%
X26225000Y50022000D03*
X24575000Y50022000D03*
%TD*%
%TO.C,R1*%
X26225000Y31742000D03*
X24575000Y31742000D03*
%TD*%
D17*
%TO.C,R5*%
X144185000Y113998000D03*
X145835000Y113998000D03*
%TD*%
%TO.C,R5*%
X144185000Y95718000D03*
X145835000Y95718000D03*
%TD*%
%TO.C,R5*%
X144185000Y77438000D03*
X145835000Y77438000D03*
%TD*%
%TO.C,R5*%
X144185000Y59158000D03*
X145835000Y59158000D03*
%TD*%
%TO.C,R5*%
X144185000Y40878000D03*
X145835000Y40878000D03*
%TD*%
%TO.C,R5*%
X144185000Y22598000D03*
X145835000Y22598000D03*
%TD*%
%TO.C,R5*%
X144185000Y4318000D03*
X145835000Y4318000D03*
%TD*%
%TO.C,R5*%
X105585000Y113998000D03*
X107235000Y113998000D03*
%TD*%
%TO.C,R5*%
X105585000Y95718000D03*
X107235000Y95718000D03*
%TD*%
%TO.C,R5*%
X105585000Y77438000D03*
X107235000Y77438000D03*
%TD*%
%TO.C,R5*%
X105585000Y59158000D03*
X107235000Y59158000D03*
%TD*%
%TO.C,R5*%
X105585000Y40878000D03*
X107235000Y40878000D03*
%TD*%
%TO.C,R5*%
X105585000Y22598000D03*
X107235000Y22598000D03*
%TD*%
%TO.C,R5*%
X105585000Y4318000D03*
X107235000Y4318000D03*
%TD*%
%TO.C,R5*%
X66985000Y113998000D03*
X68635000Y113998000D03*
%TD*%
%TO.C,R5*%
X66985000Y95718000D03*
X68635000Y95718000D03*
%TD*%
%TO.C,R5*%
X66985000Y77438000D03*
X68635000Y77438000D03*
%TD*%
%TO.C,R5*%
X66985000Y59158000D03*
X68635000Y59158000D03*
%TD*%
%TO.C,R5*%
X66985000Y40878000D03*
X68635000Y40878000D03*
%TD*%
%TO.C,R5*%
X66985000Y22598000D03*
X68635000Y22598000D03*
%TD*%
%TO.C,R5*%
X66985000Y4318000D03*
X68635000Y4318000D03*
%TD*%
%TO.C,R5*%
X28385000Y113998000D03*
X30035000Y113998000D03*
%TD*%
%TO.C,R5*%
X28385000Y95718000D03*
X30035000Y95718000D03*
%TD*%
%TO.C,R5*%
X28385000Y77438000D03*
X30035000Y77438000D03*
%TD*%
%TO.C,R5*%
X28385000Y59158000D03*
X30035000Y59158000D03*
%TD*%
%TO.C,R5*%
X28385000Y40878000D03*
X30035000Y40878000D03*
%TD*%
%TO.C,R5*%
X28385000Y22598000D03*
X30035000Y22598000D03*
%TD*%
D13*
%TO.C,C1*%
X138165000Y115649000D03*
X136615000Y115649000D03*
%TD*%
%TO.C,C1*%
X138165000Y97369000D03*
X136615000Y97369000D03*
%TD*%
%TO.C,C1*%
X138165000Y79089000D03*
X136615000Y79089000D03*
%TD*%
%TO.C,C1*%
X138165000Y60809000D03*
X136615000Y60809000D03*
%TD*%
%TO.C,C1*%
X138165000Y42529000D03*
X136615000Y42529000D03*
%TD*%
%TO.C,C1*%
X138165000Y24249000D03*
X136615000Y24249000D03*
%TD*%
%TO.C,C1*%
X138165000Y5969000D03*
X136615000Y5969000D03*
%TD*%
%TO.C,C1*%
X99565000Y115649000D03*
X98015000Y115649000D03*
%TD*%
%TO.C,C1*%
X99565000Y97369000D03*
X98015000Y97369000D03*
%TD*%
%TO.C,C1*%
X99565000Y79089000D03*
X98015000Y79089000D03*
%TD*%
%TO.C,C1*%
X99565000Y60809000D03*
X98015000Y60809000D03*
%TD*%
%TO.C,C1*%
X99565000Y42529000D03*
X98015000Y42529000D03*
%TD*%
%TO.C,C1*%
X99565000Y24249000D03*
X98015000Y24249000D03*
%TD*%
%TO.C,C1*%
X99565000Y5969000D03*
X98015000Y5969000D03*
%TD*%
%TO.C,C1*%
X60965000Y115649000D03*
X59415000Y115649000D03*
%TD*%
%TO.C,C1*%
X60965000Y97369000D03*
X59415000Y97369000D03*
%TD*%
%TO.C,C1*%
X60965000Y79089000D03*
X59415000Y79089000D03*
%TD*%
%TO.C,C1*%
X60965000Y60809000D03*
X59415000Y60809000D03*
%TD*%
%TO.C,C1*%
X60965000Y42529000D03*
X59415000Y42529000D03*
%TD*%
%TO.C,C1*%
X60965000Y24249000D03*
X59415000Y24249000D03*
%TD*%
%TO.C,C1*%
X60965000Y5969000D03*
X59415000Y5969000D03*
%TD*%
%TO.C,C1*%
X22365000Y115649000D03*
X20815000Y115649000D03*
%TD*%
%TO.C,C1*%
X22365000Y97369000D03*
X20815000Y97369000D03*
%TD*%
%TO.C,C1*%
X22365000Y79089000D03*
X20815000Y79089000D03*
%TD*%
%TO.C,C1*%
X22365000Y60809000D03*
X20815000Y60809000D03*
%TD*%
%TO.C,C1*%
X22365000Y42529000D03*
X20815000Y42529000D03*
%TD*%
%TO.C,C1*%
X22365000Y24249000D03*
X20815000Y24249000D03*
%TD*%
D18*
%TO.C,U2*%
X136440000Y117269900D03*
X137390000Y117269900D03*
X138340000Y117269900D03*
X138340000Y119870100D03*
X136440000Y119870100D03*
%TD*%
%TO.C,U2*%
X136440000Y98989900D03*
X137390000Y98989900D03*
X138340000Y98989900D03*
X138340000Y101590100D03*
X136440000Y101590100D03*
%TD*%
%TO.C,U2*%
X136440000Y80709900D03*
X137390000Y80709900D03*
X138340000Y80709900D03*
X138340000Y83310100D03*
X136440000Y83310100D03*
%TD*%
%TO.C,U2*%
X136440000Y62429900D03*
X137390000Y62429900D03*
X138340000Y62429900D03*
X138340000Y65030100D03*
X136440000Y65030100D03*
%TD*%
%TO.C,U2*%
X136440000Y44149900D03*
X137390000Y44149900D03*
X138340000Y44149900D03*
X138340000Y46750100D03*
X136440000Y46750100D03*
%TD*%
%TO.C,U2*%
X136440000Y25869900D03*
X137390000Y25869900D03*
X138340000Y25869900D03*
X138340000Y28470100D03*
X136440000Y28470100D03*
%TD*%
%TO.C,U2*%
X136440000Y7589900D03*
X137390000Y7589900D03*
X138340000Y7589900D03*
X138340000Y10190100D03*
X136440000Y10190100D03*
%TD*%
%TO.C,U2*%
X97840000Y117269900D03*
X98790000Y117269900D03*
X99740000Y117269900D03*
X99740000Y119870100D03*
X97840000Y119870100D03*
%TD*%
%TO.C,U2*%
X97840000Y98989900D03*
X98790000Y98989900D03*
X99740000Y98989900D03*
X99740000Y101590100D03*
X97840000Y101590100D03*
%TD*%
%TO.C,U2*%
X97840000Y80709900D03*
X98790000Y80709900D03*
X99740000Y80709900D03*
X99740000Y83310100D03*
X97840000Y83310100D03*
%TD*%
%TO.C,U2*%
X97840000Y62429900D03*
X98790000Y62429900D03*
X99740000Y62429900D03*
X99740000Y65030100D03*
X97840000Y65030100D03*
%TD*%
%TO.C,U2*%
X97840000Y44149900D03*
X98790000Y44149900D03*
X99740000Y44149900D03*
X99740000Y46750100D03*
X97840000Y46750100D03*
%TD*%
%TO.C,U2*%
X97840000Y25869900D03*
X98790000Y25869900D03*
X99740000Y25869900D03*
X99740000Y28470100D03*
X97840000Y28470100D03*
%TD*%
%TO.C,U2*%
X97840000Y7589900D03*
X98790000Y7589900D03*
X99740000Y7589900D03*
X99740000Y10190100D03*
X97840000Y10190100D03*
%TD*%
%TO.C,U2*%
X59240000Y117269900D03*
X60190000Y117269900D03*
X61140000Y117269900D03*
X61140000Y119870100D03*
X59240000Y119870100D03*
%TD*%
%TO.C,U2*%
X59240000Y98989900D03*
X60190000Y98989900D03*
X61140000Y98989900D03*
X61140000Y101590100D03*
X59240000Y101590100D03*
%TD*%
%TO.C,U2*%
X59240000Y80709900D03*
X60190000Y80709900D03*
X61140000Y80709900D03*
X61140000Y83310100D03*
X59240000Y83310100D03*
%TD*%
%TO.C,U2*%
X59240000Y62429900D03*
X60190000Y62429900D03*
X61140000Y62429900D03*
X61140000Y65030100D03*
X59240000Y65030100D03*
%TD*%
%TO.C,U2*%
X59240000Y44149900D03*
X60190000Y44149900D03*
X61140000Y44149900D03*
X61140000Y46750100D03*
X59240000Y46750100D03*
%TD*%
%TO.C,U2*%
X59240000Y25869900D03*
X60190000Y25869900D03*
X61140000Y25869900D03*
X61140000Y28470100D03*
X59240000Y28470100D03*
%TD*%
%TO.C,U2*%
X59240000Y7589900D03*
X60190000Y7589900D03*
X61140000Y7589900D03*
X61140000Y10190100D03*
X59240000Y10190100D03*
%TD*%
%TO.C,U2*%
X20640000Y117269900D03*
X21590000Y117269900D03*
X22540000Y117269900D03*
X22540000Y119870100D03*
X20640000Y119870100D03*
%TD*%
%TO.C,U2*%
X20640000Y98989900D03*
X21590000Y98989900D03*
X22540000Y98989900D03*
X22540000Y101590100D03*
X20640000Y101590100D03*
%TD*%
%TO.C,U2*%
X20640000Y80709900D03*
X21590000Y80709900D03*
X22540000Y80709900D03*
X22540000Y83310100D03*
X20640000Y83310100D03*
%TD*%
%TO.C,U2*%
X20640000Y62429900D03*
X21590000Y62429900D03*
X22540000Y62429900D03*
X22540000Y65030100D03*
X20640000Y65030100D03*
%TD*%
%TO.C,U2*%
X20640000Y44149900D03*
X21590000Y44149900D03*
X22540000Y44149900D03*
X22540000Y46750100D03*
X20640000Y46750100D03*
%TD*%
%TO.C,U2*%
X20640000Y25869900D03*
X21590000Y25869900D03*
X22540000Y25869900D03*
X22540000Y28470100D03*
X20640000Y28470100D03*
%TD*%
D13*
%TO.C,C2*%
X138165000Y113998000D03*
X136615000Y113998000D03*
%TD*%
%TO.C,C2*%
X138165000Y95718000D03*
X136615000Y95718000D03*
%TD*%
%TO.C,C2*%
X138165000Y77438000D03*
X136615000Y77438000D03*
%TD*%
%TO.C,C2*%
X138165000Y59158000D03*
X136615000Y59158000D03*
%TD*%
%TO.C,C2*%
X138165000Y40878000D03*
X136615000Y40878000D03*
%TD*%
%TO.C,C2*%
X138165000Y22598000D03*
X136615000Y22598000D03*
%TD*%
%TO.C,C2*%
X138165000Y4318000D03*
X136615000Y4318000D03*
%TD*%
%TO.C,C2*%
X99565000Y113998000D03*
X98015000Y113998000D03*
%TD*%
%TO.C,C2*%
X99565000Y95718000D03*
X98015000Y95718000D03*
%TD*%
%TO.C,C2*%
X99565000Y77438000D03*
X98015000Y77438000D03*
%TD*%
%TO.C,C2*%
X99565000Y59158000D03*
X98015000Y59158000D03*
%TD*%
%TO.C,C2*%
X99565000Y40878000D03*
X98015000Y40878000D03*
%TD*%
%TO.C,C2*%
X99565000Y22598000D03*
X98015000Y22598000D03*
%TD*%
%TO.C,C2*%
X99565000Y4318000D03*
X98015000Y4318000D03*
%TD*%
%TO.C,C2*%
X60965000Y113998000D03*
X59415000Y113998000D03*
%TD*%
%TO.C,C2*%
X60965000Y95718000D03*
X59415000Y95718000D03*
%TD*%
%TO.C,C2*%
X60965000Y77438000D03*
X59415000Y77438000D03*
%TD*%
%TO.C,C2*%
X60965000Y59158000D03*
X59415000Y59158000D03*
%TD*%
%TO.C,C2*%
X60965000Y40878000D03*
X59415000Y40878000D03*
%TD*%
%TO.C,C2*%
X60965000Y22598000D03*
X59415000Y22598000D03*
%TD*%
%TO.C,C2*%
X60965000Y4318000D03*
X59415000Y4318000D03*
%TD*%
%TO.C,C2*%
X22365000Y113998000D03*
X20815000Y113998000D03*
%TD*%
%TO.C,C2*%
X22365000Y95718000D03*
X20815000Y95718000D03*
%TD*%
%TO.C,C2*%
X22365000Y77438000D03*
X20815000Y77438000D03*
%TD*%
%TO.C,C2*%
X22365000Y59158000D03*
X20815000Y59158000D03*
%TD*%
%TO.C,C2*%
X22365000Y40878000D03*
X20815000Y40878000D03*
%TD*%
%TO.C,C2*%
X22365000Y22598000D03*
X20815000Y22598000D03*
%TD*%
D19*
%TO.C,D1*%
X133072000Y117782500D03*
X133072000Y119357500D03*
%TD*%
%TO.C,D1*%
X133072000Y99502500D03*
X133072000Y101077500D03*
%TD*%
%TO.C,D1*%
X133072000Y81222500D03*
X133072000Y82797500D03*
%TD*%
%TO.C,D1*%
X133072000Y62942500D03*
X133072000Y64517500D03*
%TD*%
%TO.C,D1*%
X133072000Y44662500D03*
X133072000Y46237500D03*
%TD*%
%TO.C,D1*%
X133072000Y26382500D03*
X133072000Y27957500D03*
%TD*%
%TO.C,D1*%
X133072000Y8102500D03*
X133072000Y9677500D03*
%TD*%
%TO.C,D1*%
X94472000Y117782500D03*
X94472000Y119357500D03*
%TD*%
%TO.C,D1*%
X94472000Y99502500D03*
X94472000Y101077500D03*
%TD*%
%TO.C,D1*%
X94472000Y81222500D03*
X94472000Y82797500D03*
%TD*%
%TO.C,D1*%
X94472000Y62942500D03*
X94472000Y64517500D03*
%TD*%
%TO.C,D1*%
X94472000Y44662500D03*
X94472000Y46237500D03*
%TD*%
%TO.C,D1*%
X94472000Y26382500D03*
X94472000Y27957500D03*
%TD*%
%TO.C,D1*%
X94472000Y8102500D03*
X94472000Y9677500D03*
%TD*%
%TO.C,D1*%
X55872000Y117782500D03*
X55872000Y119357500D03*
%TD*%
%TO.C,D1*%
X55872000Y99502500D03*
X55872000Y101077500D03*
%TD*%
%TO.C,D1*%
X55872000Y81222500D03*
X55872000Y82797500D03*
%TD*%
%TO.C,D1*%
X55872000Y62942500D03*
X55872000Y64517500D03*
%TD*%
%TO.C,D1*%
X55872000Y44662500D03*
X55872000Y46237500D03*
%TD*%
%TO.C,D1*%
X55872000Y26382500D03*
X55872000Y27957500D03*
%TD*%
%TO.C,D1*%
X55872000Y8102500D03*
X55872000Y9677500D03*
%TD*%
%TO.C,D1*%
X17272000Y117782500D03*
X17272000Y119357500D03*
%TD*%
%TO.C,D1*%
X17272000Y99502500D03*
X17272000Y101077500D03*
%TD*%
%TO.C,D1*%
X17272000Y81222500D03*
X17272000Y82797500D03*
%TD*%
%TO.C,D1*%
X17272000Y62942500D03*
X17272000Y64517500D03*
%TD*%
%TO.C,D1*%
X17272000Y44662500D03*
X17272000Y46237500D03*
%TD*%
%TO.C,D1*%
X17272000Y26382500D03*
X17272000Y27957500D03*
%TD*%
D11*
%TO.C,R3*%
X130595000Y117300000D03*
X128945000Y117300000D03*
%TD*%
%TO.C,R3*%
X130595000Y99020000D03*
X128945000Y99020000D03*
%TD*%
%TO.C,R3*%
X130595000Y80740000D03*
X128945000Y80740000D03*
%TD*%
%TO.C,R3*%
X130595000Y62460000D03*
X128945000Y62460000D03*
%TD*%
%TO.C,R3*%
X130595000Y44180000D03*
X128945000Y44180000D03*
%TD*%
%TO.C,R3*%
X130595000Y25900000D03*
X128945000Y25900000D03*
%TD*%
%TO.C,R3*%
X130595000Y7620000D03*
X128945000Y7620000D03*
%TD*%
%TO.C,R3*%
X91995000Y117300000D03*
X90345000Y117300000D03*
%TD*%
%TO.C,R3*%
X91995000Y99020000D03*
X90345000Y99020000D03*
%TD*%
%TO.C,R3*%
X91995000Y80740000D03*
X90345000Y80740000D03*
%TD*%
%TO.C,R3*%
X91995000Y62460000D03*
X90345000Y62460000D03*
%TD*%
%TO.C,R3*%
X91995000Y44180000D03*
X90345000Y44180000D03*
%TD*%
%TO.C,R3*%
X91995000Y25900000D03*
X90345000Y25900000D03*
%TD*%
%TO.C,R3*%
X91995000Y7620000D03*
X90345000Y7620000D03*
%TD*%
%TO.C,R3*%
X53395000Y117300000D03*
X51745000Y117300000D03*
%TD*%
%TO.C,R3*%
X53395000Y99020000D03*
X51745000Y99020000D03*
%TD*%
%TO.C,R3*%
X53395000Y80740000D03*
X51745000Y80740000D03*
%TD*%
%TO.C,R3*%
X53395000Y62460000D03*
X51745000Y62460000D03*
%TD*%
%TO.C,R3*%
X53395000Y44180000D03*
X51745000Y44180000D03*
%TD*%
%TO.C,R3*%
X53395000Y25900000D03*
X51745000Y25900000D03*
%TD*%
%TO.C,R3*%
X53395000Y7620000D03*
X51745000Y7620000D03*
%TD*%
%TO.C,R3*%
X14795000Y117300000D03*
X13145000Y117300000D03*
%TD*%
%TO.C,R3*%
X14795000Y99020000D03*
X13145000Y99020000D03*
%TD*%
%TO.C,R3*%
X14795000Y80740000D03*
X13145000Y80740000D03*
%TD*%
%TO.C,R3*%
X14795000Y62460000D03*
X13145000Y62460000D03*
%TD*%
%TO.C,R3*%
X14795000Y44180000D03*
X13145000Y44180000D03*
%TD*%
%TO.C,R3*%
X14795000Y25900000D03*
X13145000Y25900000D03*
%TD*%
%TO.C,R2*%
X142025000Y113998000D03*
X140375000Y113998000D03*
%TD*%
%TO.C,R2*%
X142025000Y95718000D03*
X140375000Y95718000D03*
%TD*%
%TO.C,R2*%
X142025000Y77438000D03*
X140375000Y77438000D03*
%TD*%
%TO.C,R2*%
X142025000Y59158000D03*
X140375000Y59158000D03*
%TD*%
%TO.C,R2*%
X142025000Y40878000D03*
X140375000Y40878000D03*
%TD*%
%TO.C,R2*%
X142025000Y22598000D03*
X140375000Y22598000D03*
%TD*%
%TO.C,R2*%
X142025000Y4318000D03*
X140375000Y4318000D03*
%TD*%
%TO.C,R2*%
X103425000Y113998000D03*
X101775000Y113998000D03*
%TD*%
%TO.C,R2*%
X103425000Y95718000D03*
X101775000Y95718000D03*
%TD*%
%TO.C,R2*%
X103425000Y77438000D03*
X101775000Y77438000D03*
%TD*%
%TO.C,R2*%
X103425000Y59158000D03*
X101775000Y59158000D03*
%TD*%
%TO.C,R2*%
X103425000Y40878000D03*
X101775000Y40878000D03*
%TD*%
%TO.C,R2*%
X103425000Y22598000D03*
X101775000Y22598000D03*
%TD*%
%TO.C,R2*%
X103425000Y4318000D03*
X101775000Y4318000D03*
%TD*%
%TO.C,R2*%
X64825000Y113998000D03*
X63175000Y113998000D03*
%TD*%
%TO.C,R2*%
X64825000Y95718000D03*
X63175000Y95718000D03*
%TD*%
%TO.C,R2*%
X64825000Y77438000D03*
X63175000Y77438000D03*
%TD*%
%TO.C,R2*%
X64825000Y59158000D03*
X63175000Y59158000D03*
%TD*%
%TO.C,R2*%
X64825000Y40878000D03*
X63175000Y40878000D03*
%TD*%
%TO.C,R2*%
X64825000Y22598000D03*
X63175000Y22598000D03*
%TD*%
%TO.C,R2*%
X64825000Y4318000D03*
X63175000Y4318000D03*
%TD*%
%TO.C,R2*%
X26225000Y113998000D03*
X24575000Y113998000D03*
%TD*%
%TO.C,R2*%
X26225000Y95718000D03*
X24575000Y95718000D03*
%TD*%
%TO.C,R2*%
X26225000Y77438000D03*
X24575000Y77438000D03*
%TD*%
%TO.C,R2*%
X26225000Y59158000D03*
X24575000Y59158000D03*
%TD*%
%TO.C,R2*%
X26225000Y40878000D03*
X24575000Y40878000D03*
%TD*%
%TO.C,R2*%
X26225000Y22598000D03*
X24575000Y22598000D03*
%TD*%
D20*
%TO.C,U1*%
X117970000Y112670000D03*
X118770000Y112670000D03*
X119570000Y112670000D03*
X120370000Y112670000D03*
X121170000Y112670000D03*
X121970000Y112670000D03*
X122770000Y112670000D03*
X123570000Y112670000D03*
X124370000Y112670000D03*
X125170000Y112670000D03*
X125970000Y112670000D03*
D21*
X126870000Y113770000D03*
X126870000Y114570000D03*
X126870000Y115370000D03*
X126870000Y116170000D03*
X126870000Y116970000D03*
X126870000Y117770000D03*
X126870000Y118570000D03*
X126870000Y119370000D03*
X126870000Y120170000D03*
X126870000Y120970000D03*
X126870000Y121770000D03*
X126870000Y122570000D03*
X126870000Y123370000D03*
D20*
X125970000Y124470000D03*
X125170000Y124470000D03*
X124370000Y124470000D03*
X123570000Y124470000D03*
X122770000Y124470000D03*
X121970000Y124470000D03*
X121170000Y124470000D03*
X120370000Y124470000D03*
X119570000Y124470000D03*
X118770000Y124470000D03*
X117970000Y124470000D03*
D21*
X117070000Y123370000D03*
X117070000Y122570000D03*
X117070000Y121770000D03*
X117070000Y120970000D03*
X117070000Y120170000D03*
X117070000Y119370000D03*
X117070000Y118570000D03*
X117070000Y117770000D03*
X117070000Y116970000D03*
X117070000Y116170000D03*
X117070000Y115370000D03*
X117070000Y114570000D03*
X117070000Y113770000D03*
D22*
X117020000Y124520000D03*
X126920000Y124520000D03*
X126920000Y112620000D03*
X117020000Y112620000D03*
%TD*%
D20*
%TO.C,U1*%
X117970000Y94390000D03*
X118770000Y94390000D03*
X119570000Y94390000D03*
X120370000Y94390000D03*
X121170000Y94390000D03*
X121970000Y94390000D03*
X122770000Y94390000D03*
X123570000Y94390000D03*
X124370000Y94390000D03*
X125170000Y94390000D03*
X125970000Y94390000D03*
D21*
X126870000Y95490000D03*
X126870000Y96290000D03*
X126870000Y97090000D03*
X126870000Y97890000D03*
X126870000Y98690000D03*
X126870000Y99490000D03*
X126870000Y100290000D03*
X126870000Y101090000D03*
X126870000Y101890000D03*
X126870000Y102690000D03*
X126870000Y103490000D03*
X126870000Y104290000D03*
X126870000Y105090000D03*
D20*
X125970000Y106190000D03*
X125170000Y106190000D03*
X124370000Y106190000D03*
X123570000Y106190000D03*
X122770000Y106190000D03*
X121970000Y106190000D03*
X121170000Y106190000D03*
X120370000Y106190000D03*
X119570000Y106190000D03*
X118770000Y106190000D03*
X117970000Y106190000D03*
D21*
X117070000Y105090000D03*
X117070000Y104290000D03*
X117070000Y103490000D03*
X117070000Y102690000D03*
X117070000Y101890000D03*
X117070000Y101090000D03*
X117070000Y100290000D03*
X117070000Y99490000D03*
X117070000Y98690000D03*
X117070000Y97890000D03*
X117070000Y97090000D03*
X117070000Y96290000D03*
X117070000Y95490000D03*
D22*
X117020000Y106240000D03*
X126920000Y106240000D03*
X126920000Y94340000D03*
X117020000Y94340000D03*
%TD*%
D20*
%TO.C,U1*%
X117970000Y76110000D03*
X118770000Y76110000D03*
X119570000Y76110000D03*
X120370000Y76110000D03*
X121170000Y76110000D03*
X121970000Y76110000D03*
X122770000Y76110000D03*
X123570000Y76110000D03*
X124370000Y76110000D03*
X125170000Y76110000D03*
X125970000Y76110000D03*
D21*
X126870000Y77210000D03*
X126870000Y78010000D03*
X126870000Y78810000D03*
X126870000Y79610000D03*
X126870000Y80410000D03*
X126870000Y81210000D03*
X126870000Y82010000D03*
X126870000Y82810000D03*
X126870000Y83610000D03*
X126870000Y84410000D03*
X126870000Y85210000D03*
X126870000Y86010000D03*
X126870000Y86810000D03*
D20*
X125970000Y87910000D03*
X125170000Y87910000D03*
X124370000Y87910000D03*
X123570000Y87910000D03*
X122770000Y87910000D03*
X121970000Y87910000D03*
X121170000Y87910000D03*
X120370000Y87910000D03*
X119570000Y87910000D03*
X118770000Y87910000D03*
X117970000Y87910000D03*
D21*
X117070000Y86810000D03*
X117070000Y86010000D03*
X117070000Y85210000D03*
X117070000Y84410000D03*
X117070000Y83610000D03*
X117070000Y82810000D03*
X117070000Y82010000D03*
X117070000Y81210000D03*
X117070000Y80410000D03*
X117070000Y79610000D03*
X117070000Y78810000D03*
X117070000Y78010000D03*
X117070000Y77210000D03*
D22*
X117020000Y87960000D03*
X126920000Y87960000D03*
X126920000Y76060000D03*
X117020000Y76060000D03*
%TD*%
D20*
%TO.C,U1*%
X117970000Y57830000D03*
X118770000Y57830000D03*
X119570000Y57830000D03*
X120370000Y57830000D03*
X121170000Y57830000D03*
X121970000Y57830000D03*
X122770000Y57830000D03*
X123570000Y57830000D03*
X124370000Y57830000D03*
X125170000Y57830000D03*
X125970000Y57830000D03*
D21*
X126870000Y58930000D03*
X126870000Y59730000D03*
X126870000Y60530000D03*
X126870000Y61330000D03*
X126870000Y62130000D03*
X126870000Y62930000D03*
X126870000Y63730000D03*
X126870000Y64530000D03*
X126870000Y65330000D03*
X126870000Y66130000D03*
X126870000Y66930000D03*
X126870000Y67730000D03*
X126870000Y68530000D03*
D20*
X125970000Y69630000D03*
X125170000Y69630000D03*
X124370000Y69630000D03*
X123570000Y69630000D03*
X122770000Y69630000D03*
X121970000Y69630000D03*
X121170000Y69630000D03*
X120370000Y69630000D03*
X119570000Y69630000D03*
X118770000Y69630000D03*
X117970000Y69630000D03*
D21*
X117070000Y68530000D03*
X117070000Y67730000D03*
X117070000Y66930000D03*
X117070000Y66130000D03*
X117070000Y65330000D03*
X117070000Y64530000D03*
X117070000Y63730000D03*
X117070000Y62930000D03*
X117070000Y62130000D03*
X117070000Y61330000D03*
X117070000Y60530000D03*
X117070000Y59730000D03*
X117070000Y58930000D03*
D22*
X117020000Y69680000D03*
X126920000Y69680000D03*
X126920000Y57780000D03*
X117020000Y57780000D03*
%TD*%
D20*
%TO.C,U1*%
X117970000Y39550000D03*
X118770000Y39550000D03*
X119570000Y39550000D03*
X120370000Y39550000D03*
X121170000Y39550000D03*
X121970000Y39550000D03*
X122770000Y39550000D03*
X123570000Y39550000D03*
X124370000Y39550000D03*
X125170000Y39550000D03*
X125970000Y39550000D03*
D21*
X126870000Y40650000D03*
X126870000Y41450000D03*
X126870000Y42250000D03*
X126870000Y43050000D03*
X126870000Y43850000D03*
X126870000Y44650000D03*
X126870000Y45450000D03*
X126870000Y46250000D03*
X126870000Y47050000D03*
X126870000Y47850000D03*
X126870000Y48650000D03*
X126870000Y49450000D03*
X126870000Y50250000D03*
D20*
X125970000Y51350000D03*
X125170000Y51350000D03*
X124370000Y51350000D03*
X123570000Y51350000D03*
X122770000Y51350000D03*
X121970000Y51350000D03*
X121170000Y51350000D03*
X120370000Y51350000D03*
X119570000Y51350000D03*
X118770000Y51350000D03*
X117970000Y51350000D03*
D21*
X117070000Y50250000D03*
X117070000Y49450000D03*
X117070000Y48650000D03*
X117070000Y47850000D03*
X117070000Y47050000D03*
X117070000Y46250000D03*
X117070000Y45450000D03*
X117070000Y44650000D03*
X117070000Y43850000D03*
X117070000Y43050000D03*
X117070000Y42250000D03*
X117070000Y41450000D03*
X117070000Y40650000D03*
D22*
X117020000Y51400000D03*
X126920000Y51400000D03*
X126920000Y39500000D03*
X117020000Y39500000D03*
%TD*%
D20*
%TO.C,U1*%
X117970000Y21270000D03*
X118770000Y21270000D03*
X119570000Y21270000D03*
X120370000Y21270000D03*
X121170000Y21270000D03*
X121970000Y21270000D03*
X122770000Y21270000D03*
X123570000Y21270000D03*
X124370000Y21270000D03*
X125170000Y21270000D03*
X125970000Y21270000D03*
D21*
X126870000Y22370000D03*
X126870000Y23170000D03*
X126870000Y23970000D03*
X126870000Y24770000D03*
X126870000Y25570000D03*
X126870000Y26370000D03*
X126870000Y27170000D03*
X126870000Y27970000D03*
X126870000Y28770000D03*
X126870000Y29570000D03*
X126870000Y30370000D03*
X126870000Y31170000D03*
X126870000Y31970000D03*
D20*
X125970000Y33070000D03*
X125170000Y33070000D03*
X124370000Y33070000D03*
X123570000Y33070000D03*
X122770000Y33070000D03*
X121970000Y33070000D03*
X121170000Y33070000D03*
X120370000Y33070000D03*
X119570000Y33070000D03*
X118770000Y33070000D03*
X117970000Y33070000D03*
D21*
X117070000Y31970000D03*
X117070000Y31170000D03*
X117070000Y30370000D03*
X117070000Y29570000D03*
X117070000Y28770000D03*
X117070000Y27970000D03*
X117070000Y27170000D03*
X117070000Y26370000D03*
X117070000Y25570000D03*
X117070000Y24770000D03*
X117070000Y23970000D03*
X117070000Y23170000D03*
X117070000Y22370000D03*
D22*
X117020000Y33120000D03*
X126920000Y33120000D03*
X126920000Y21220000D03*
X117020000Y21220000D03*
%TD*%
D20*
%TO.C,U1*%
X117970000Y2990000D03*
X118770000Y2990000D03*
X119570000Y2990000D03*
X120370000Y2990000D03*
X121170000Y2990000D03*
X121970000Y2990000D03*
X122770000Y2990000D03*
X123570000Y2990000D03*
X124370000Y2990000D03*
X125170000Y2990000D03*
X125970000Y2990000D03*
D21*
X126870000Y4090000D03*
X126870000Y4890000D03*
X126870000Y5690000D03*
X126870000Y6490000D03*
X126870000Y7290000D03*
X126870000Y8090000D03*
X126870000Y8890000D03*
X126870000Y9690000D03*
X126870000Y10490000D03*
X126870000Y11290000D03*
X126870000Y12090000D03*
X126870000Y12890000D03*
X126870000Y13690000D03*
D20*
X125970000Y14790000D03*
X125170000Y14790000D03*
X124370000Y14790000D03*
X123570000Y14790000D03*
X122770000Y14790000D03*
X121970000Y14790000D03*
X121170000Y14790000D03*
X120370000Y14790000D03*
X119570000Y14790000D03*
X118770000Y14790000D03*
X117970000Y14790000D03*
D21*
X117070000Y13690000D03*
X117070000Y12890000D03*
X117070000Y12090000D03*
X117070000Y11290000D03*
X117070000Y10490000D03*
X117070000Y9690000D03*
X117070000Y8890000D03*
X117070000Y8090000D03*
X117070000Y7290000D03*
X117070000Y6490000D03*
X117070000Y5690000D03*
X117070000Y4890000D03*
X117070000Y4090000D03*
D22*
X117020000Y14840000D03*
X126920000Y14840000D03*
X126920000Y2940000D03*
X117020000Y2940000D03*
%TD*%
D20*
%TO.C,U1*%
X79370000Y112670000D03*
X80170000Y112670000D03*
X80970000Y112670000D03*
X81770000Y112670000D03*
X82570000Y112670000D03*
X83370000Y112670000D03*
X84170000Y112670000D03*
X84970000Y112670000D03*
X85770000Y112670000D03*
X86570000Y112670000D03*
X87370000Y112670000D03*
D21*
X88270000Y113770000D03*
X88270000Y114570000D03*
X88270000Y115370000D03*
X88270000Y116170000D03*
X88270000Y116970000D03*
X88270000Y117770000D03*
X88270000Y118570000D03*
X88270000Y119370000D03*
X88270000Y120170000D03*
X88270000Y120970000D03*
X88270000Y121770000D03*
X88270000Y122570000D03*
X88270000Y123370000D03*
D20*
X87370000Y124470000D03*
X86570000Y124470000D03*
X85770000Y124470000D03*
X84970000Y124470000D03*
X84170000Y124470000D03*
X83370000Y124470000D03*
X82570000Y124470000D03*
X81770000Y124470000D03*
X80970000Y124470000D03*
X80170000Y124470000D03*
X79370000Y124470000D03*
D21*
X78470000Y123370000D03*
X78470000Y122570000D03*
X78470000Y121770000D03*
X78470000Y120970000D03*
X78470000Y120170000D03*
X78470000Y119370000D03*
X78470000Y118570000D03*
X78470000Y117770000D03*
X78470000Y116970000D03*
X78470000Y116170000D03*
X78470000Y115370000D03*
X78470000Y114570000D03*
X78470000Y113770000D03*
D22*
X78420000Y124520000D03*
X88320000Y124520000D03*
X88320000Y112620000D03*
X78420000Y112620000D03*
%TD*%
D20*
%TO.C,U1*%
X79370000Y94390000D03*
X80170000Y94390000D03*
X80970000Y94390000D03*
X81770000Y94390000D03*
X82570000Y94390000D03*
X83370000Y94390000D03*
X84170000Y94390000D03*
X84970000Y94390000D03*
X85770000Y94390000D03*
X86570000Y94390000D03*
X87370000Y94390000D03*
D21*
X88270000Y95490000D03*
X88270000Y96290000D03*
X88270000Y97090000D03*
X88270000Y97890000D03*
X88270000Y98690000D03*
X88270000Y99490000D03*
X88270000Y100290000D03*
X88270000Y101090000D03*
X88270000Y101890000D03*
X88270000Y102690000D03*
X88270000Y103490000D03*
X88270000Y104290000D03*
X88270000Y105090000D03*
D20*
X87370000Y106190000D03*
X86570000Y106190000D03*
X85770000Y106190000D03*
X84970000Y106190000D03*
X84170000Y106190000D03*
X83370000Y106190000D03*
X82570000Y106190000D03*
X81770000Y106190000D03*
X80970000Y106190000D03*
X80170000Y106190000D03*
X79370000Y106190000D03*
D21*
X78470000Y105090000D03*
X78470000Y104290000D03*
X78470000Y103490000D03*
X78470000Y102690000D03*
X78470000Y101890000D03*
X78470000Y101090000D03*
X78470000Y100290000D03*
X78470000Y99490000D03*
X78470000Y98690000D03*
X78470000Y97890000D03*
X78470000Y97090000D03*
X78470000Y96290000D03*
X78470000Y95490000D03*
D22*
X78420000Y106240000D03*
X88320000Y106240000D03*
X88320000Y94340000D03*
X78420000Y94340000D03*
%TD*%
D20*
%TO.C,U1*%
X79370000Y76110000D03*
X80170000Y76110000D03*
X80970000Y76110000D03*
X81770000Y76110000D03*
X82570000Y76110000D03*
X83370000Y76110000D03*
X84170000Y76110000D03*
X84970000Y76110000D03*
X85770000Y76110000D03*
X86570000Y76110000D03*
X87370000Y76110000D03*
D21*
X88270000Y77210000D03*
X88270000Y78010000D03*
X88270000Y78810000D03*
X88270000Y79610000D03*
X88270000Y80410000D03*
X88270000Y81210000D03*
X88270000Y82010000D03*
X88270000Y82810000D03*
X88270000Y83610000D03*
X88270000Y84410000D03*
X88270000Y85210000D03*
X88270000Y86010000D03*
X88270000Y86810000D03*
D20*
X87370000Y87910000D03*
X86570000Y87910000D03*
X85770000Y87910000D03*
X84970000Y87910000D03*
X84170000Y87910000D03*
X83370000Y87910000D03*
X82570000Y87910000D03*
X81770000Y87910000D03*
X80970000Y87910000D03*
X80170000Y87910000D03*
X79370000Y87910000D03*
D21*
X78470000Y86810000D03*
X78470000Y86010000D03*
X78470000Y85210000D03*
X78470000Y84410000D03*
X78470000Y83610000D03*
X78470000Y82810000D03*
X78470000Y82010000D03*
X78470000Y81210000D03*
X78470000Y80410000D03*
X78470000Y79610000D03*
X78470000Y78810000D03*
X78470000Y78010000D03*
X78470000Y77210000D03*
D22*
X78420000Y87960000D03*
X88320000Y87960000D03*
X88320000Y76060000D03*
X78420000Y76060000D03*
%TD*%
D20*
%TO.C,U1*%
X79370000Y57830000D03*
X80170000Y57830000D03*
X80970000Y57830000D03*
X81770000Y57830000D03*
X82570000Y57830000D03*
X83370000Y57830000D03*
X84170000Y57830000D03*
X84970000Y57830000D03*
X85770000Y57830000D03*
X86570000Y57830000D03*
X87370000Y57830000D03*
D21*
X88270000Y58930000D03*
X88270000Y59730000D03*
X88270000Y60530000D03*
X88270000Y61330000D03*
X88270000Y62130000D03*
X88270000Y62930000D03*
X88270000Y63730000D03*
X88270000Y64530000D03*
X88270000Y65330000D03*
X88270000Y66130000D03*
X88270000Y66930000D03*
X88270000Y67730000D03*
X88270000Y68530000D03*
D20*
X87370000Y69630000D03*
X86570000Y69630000D03*
X85770000Y69630000D03*
X84970000Y69630000D03*
X84170000Y69630000D03*
X83370000Y69630000D03*
X82570000Y69630000D03*
X81770000Y69630000D03*
X80970000Y69630000D03*
X80170000Y69630000D03*
X79370000Y69630000D03*
D21*
X78470000Y68530000D03*
X78470000Y67730000D03*
X78470000Y66930000D03*
X78470000Y66130000D03*
X78470000Y65330000D03*
X78470000Y64530000D03*
X78470000Y63730000D03*
X78470000Y62930000D03*
X78470000Y62130000D03*
X78470000Y61330000D03*
X78470000Y60530000D03*
X78470000Y59730000D03*
X78470000Y58930000D03*
D22*
X78420000Y69680000D03*
X88320000Y69680000D03*
X88320000Y57780000D03*
X78420000Y57780000D03*
%TD*%
D20*
%TO.C,U1*%
X79370000Y39550000D03*
X80170000Y39550000D03*
X80970000Y39550000D03*
X81770000Y39550000D03*
X82570000Y39550000D03*
X83370000Y39550000D03*
X84170000Y39550000D03*
X84970000Y39550000D03*
X85770000Y39550000D03*
X86570000Y39550000D03*
X87370000Y39550000D03*
D21*
X88270000Y40650000D03*
X88270000Y41450000D03*
X88270000Y42250000D03*
X88270000Y43050000D03*
X88270000Y43850000D03*
X88270000Y44650000D03*
X88270000Y45450000D03*
X88270000Y46250000D03*
X88270000Y47050000D03*
X88270000Y47850000D03*
X88270000Y48650000D03*
X88270000Y49450000D03*
X88270000Y50250000D03*
D20*
X87370000Y51350000D03*
X86570000Y51350000D03*
X85770000Y51350000D03*
X84970000Y51350000D03*
X84170000Y51350000D03*
X83370000Y51350000D03*
X82570000Y51350000D03*
X81770000Y51350000D03*
X80970000Y51350000D03*
X80170000Y51350000D03*
X79370000Y51350000D03*
D21*
X78470000Y50250000D03*
X78470000Y49450000D03*
X78470000Y48650000D03*
X78470000Y47850000D03*
X78470000Y47050000D03*
X78470000Y46250000D03*
X78470000Y45450000D03*
X78470000Y44650000D03*
X78470000Y43850000D03*
X78470000Y43050000D03*
X78470000Y42250000D03*
X78470000Y41450000D03*
X78470000Y40650000D03*
D22*
X78420000Y51400000D03*
X88320000Y51400000D03*
X88320000Y39500000D03*
X78420000Y39500000D03*
%TD*%
D20*
%TO.C,U1*%
X79370000Y21270000D03*
X80170000Y21270000D03*
X80970000Y21270000D03*
X81770000Y21270000D03*
X82570000Y21270000D03*
X83370000Y21270000D03*
X84170000Y21270000D03*
X84970000Y21270000D03*
X85770000Y21270000D03*
X86570000Y21270000D03*
X87370000Y21270000D03*
D21*
X88270000Y22370000D03*
X88270000Y23170000D03*
X88270000Y23970000D03*
X88270000Y24770000D03*
X88270000Y25570000D03*
X88270000Y26370000D03*
X88270000Y27170000D03*
X88270000Y27970000D03*
X88270000Y28770000D03*
X88270000Y29570000D03*
X88270000Y30370000D03*
X88270000Y31170000D03*
X88270000Y31970000D03*
D20*
X87370000Y33070000D03*
X86570000Y33070000D03*
X85770000Y33070000D03*
X84970000Y33070000D03*
X84170000Y33070000D03*
X83370000Y33070000D03*
X82570000Y33070000D03*
X81770000Y33070000D03*
X80970000Y33070000D03*
X80170000Y33070000D03*
X79370000Y33070000D03*
D21*
X78470000Y31970000D03*
X78470000Y31170000D03*
X78470000Y30370000D03*
X78470000Y29570000D03*
X78470000Y28770000D03*
X78470000Y27970000D03*
X78470000Y27170000D03*
X78470000Y26370000D03*
X78470000Y25570000D03*
X78470000Y24770000D03*
X78470000Y23970000D03*
X78470000Y23170000D03*
X78470000Y22370000D03*
D22*
X78420000Y33120000D03*
X88320000Y33120000D03*
X88320000Y21220000D03*
X78420000Y21220000D03*
%TD*%
D20*
%TO.C,U1*%
X79370000Y2990000D03*
X80170000Y2990000D03*
X80970000Y2990000D03*
X81770000Y2990000D03*
X82570000Y2990000D03*
X83370000Y2990000D03*
X84170000Y2990000D03*
X84970000Y2990000D03*
X85770000Y2990000D03*
X86570000Y2990000D03*
X87370000Y2990000D03*
D21*
X88270000Y4090000D03*
X88270000Y4890000D03*
X88270000Y5690000D03*
X88270000Y6490000D03*
X88270000Y7290000D03*
X88270000Y8090000D03*
X88270000Y8890000D03*
X88270000Y9690000D03*
X88270000Y10490000D03*
X88270000Y11290000D03*
X88270000Y12090000D03*
X88270000Y12890000D03*
X88270000Y13690000D03*
D20*
X87370000Y14790000D03*
X86570000Y14790000D03*
X85770000Y14790000D03*
X84970000Y14790000D03*
X84170000Y14790000D03*
X83370000Y14790000D03*
X82570000Y14790000D03*
X81770000Y14790000D03*
X80970000Y14790000D03*
X80170000Y14790000D03*
X79370000Y14790000D03*
D21*
X78470000Y13690000D03*
X78470000Y12890000D03*
X78470000Y12090000D03*
X78470000Y11290000D03*
X78470000Y10490000D03*
X78470000Y9690000D03*
X78470000Y8890000D03*
X78470000Y8090000D03*
X78470000Y7290000D03*
X78470000Y6490000D03*
X78470000Y5690000D03*
X78470000Y4890000D03*
X78470000Y4090000D03*
D22*
X78420000Y14840000D03*
X88320000Y14840000D03*
X88320000Y2940000D03*
X78420000Y2940000D03*
%TD*%
D20*
%TO.C,U1*%
X40770000Y112670000D03*
X41570000Y112670000D03*
X42370000Y112670000D03*
X43170000Y112670000D03*
X43970000Y112670000D03*
X44770000Y112670000D03*
X45570000Y112670000D03*
X46370000Y112670000D03*
X47170000Y112670000D03*
X47970000Y112670000D03*
X48770000Y112670000D03*
D21*
X49670000Y113770000D03*
X49670000Y114570000D03*
X49670000Y115370000D03*
X49670000Y116170000D03*
X49670000Y116970000D03*
X49670000Y117770000D03*
X49670000Y118570000D03*
X49670000Y119370000D03*
X49670000Y120170000D03*
X49670000Y120970000D03*
X49670000Y121770000D03*
X49670000Y122570000D03*
X49670000Y123370000D03*
D20*
X48770000Y124470000D03*
X47970000Y124470000D03*
X47170000Y124470000D03*
X46370000Y124470000D03*
X45570000Y124470000D03*
X44770000Y124470000D03*
X43970000Y124470000D03*
X43170000Y124470000D03*
X42370000Y124470000D03*
X41570000Y124470000D03*
X40770000Y124470000D03*
D21*
X39870000Y123370000D03*
X39870000Y122570000D03*
X39870000Y121770000D03*
X39870000Y120970000D03*
X39870000Y120170000D03*
X39870000Y119370000D03*
X39870000Y118570000D03*
X39870000Y117770000D03*
X39870000Y116970000D03*
X39870000Y116170000D03*
X39870000Y115370000D03*
X39870000Y114570000D03*
X39870000Y113770000D03*
D22*
X39820000Y124520000D03*
X49720000Y124520000D03*
X49720000Y112620000D03*
X39820000Y112620000D03*
%TD*%
D20*
%TO.C,U1*%
X40770000Y94390000D03*
X41570000Y94390000D03*
X42370000Y94390000D03*
X43170000Y94390000D03*
X43970000Y94390000D03*
X44770000Y94390000D03*
X45570000Y94390000D03*
X46370000Y94390000D03*
X47170000Y94390000D03*
X47970000Y94390000D03*
X48770000Y94390000D03*
D21*
X49670000Y95490000D03*
X49670000Y96290000D03*
X49670000Y97090000D03*
X49670000Y97890000D03*
X49670000Y98690000D03*
X49670000Y99490000D03*
X49670000Y100290000D03*
X49670000Y101090000D03*
X49670000Y101890000D03*
X49670000Y102690000D03*
X49670000Y103490000D03*
X49670000Y104290000D03*
X49670000Y105090000D03*
D20*
X48770000Y106190000D03*
X47970000Y106190000D03*
X47170000Y106190000D03*
X46370000Y106190000D03*
X45570000Y106190000D03*
X44770000Y106190000D03*
X43970000Y106190000D03*
X43170000Y106190000D03*
X42370000Y106190000D03*
X41570000Y106190000D03*
X40770000Y106190000D03*
D21*
X39870000Y105090000D03*
X39870000Y104290000D03*
X39870000Y103490000D03*
X39870000Y102690000D03*
X39870000Y101890000D03*
X39870000Y101090000D03*
X39870000Y100290000D03*
X39870000Y99490000D03*
X39870000Y98690000D03*
X39870000Y97890000D03*
X39870000Y97090000D03*
X39870000Y96290000D03*
X39870000Y95490000D03*
D22*
X39820000Y106240000D03*
X49720000Y106240000D03*
X49720000Y94340000D03*
X39820000Y94340000D03*
%TD*%
D20*
%TO.C,U1*%
X40770000Y76110000D03*
X41570000Y76110000D03*
X42370000Y76110000D03*
X43170000Y76110000D03*
X43970000Y76110000D03*
X44770000Y76110000D03*
X45570000Y76110000D03*
X46370000Y76110000D03*
X47170000Y76110000D03*
X47970000Y76110000D03*
X48770000Y76110000D03*
D21*
X49670000Y77210000D03*
X49670000Y78010000D03*
X49670000Y78810000D03*
X49670000Y79610000D03*
X49670000Y80410000D03*
X49670000Y81210000D03*
X49670000Y82010000D03*
X49670000Y82810000D03*
X49670000Y83610000D03*
X49670000Y84410000D03*
X49670000Y85210000D03*
X49670000Y86010000D03*
X49670000Y86810000D03*
D20*
X48770000Y87910000D03*
X47970000Y87910000D03*
X47170000Y87910000D03*
X46370000Y87910000D03*
X45570000Y87910000D03*
X44770000Y87910000D03*
X43970000Y87910000D03*
X43170000Y87910000D03*
X42370000Y87910000D03*
X41570000Y87910000D03*
X40770000Y87910000D03*
D21*
X39870000Y86810000D03*
X39870000Y86010000D03*
X39870000Y85210000D03*
X39870000Y84410000D03*
X39870000Y83610000D03*
X39870000Y82810000D03*
X39870000Y82010000D03*
X39870000Y81210000D03*
X39870000Y80410000D03*
X39870000Y79610000D03*
X39870000Y78810000D03*
X39870000Y78010000D03*
X39870000Y77210000D03*
D22*
X39820000Y87960000D03*
X49720000Y87960000D03*
X49720000Y76060000D03*
X39820000Y76060000D03*
%TD*%
D20*
%TO.C,U1*%
X40770000Y57830000D03*
X41570000Y57830000D03*
X42370000Y57830000D03*
X43170000Y57830000D03*
X43970000Y57830000D03*
X44770000Y57830000D03*
X45570000Y57830000D03*
X46370000Y57830000D03*
X47170000Y57830000D03*
X47970000Y57830000D03*
X48770000Y57830000D03*
D21*
X49670000Y58930000D03*
X49670000Y59730000D03*
X49670000Y60530000D03*
X49670000Y61330000D03*
X49670000Y62130000D03*
X49670000Y62930000D03*
X49670000Y63730000D03*
X49670000Y64530000D03*
X49670000Y65330000D03*
X49670000Y66130000D03*
X49670000Y66930000D03*
X49670000Y67730000D03*
X49670000Y68530000D03*
D20*
X48770000Y69630000D03*
X47970000Y69630000D03*
X47170000Y69630000D03*
X46370000Y69630000D03*
X45570000Y69630000D03*
X44770000Y69630000D03*
X43970000Y69630000D03*
X43170000Y69630000D03*
X42370000Y69630000D03*
X41570000Y69630000D03*
X40770000Y69630000D03*
D21*
X39870000Y68530000D03*
X39870000Y67730000D03*
X39870000Y66930000D03*
X39870000Y66130000D03*
X39870000Y65330000D03*
X39870000Y64530000D03*
X39870000Y63730000D03*
X39870000Y62930000D03*
X39870000Y62130000D03*
X39870000Y61330000D03*
X39870000Y60530000D03*
X39870000Y59730000D03*
X39870000Y58930000D03*
D22*
X39820000Y69680000D03*
X49720000Y69680000D03*
X49720000Y57780000D03*
X39820000Y57780000D03*
%TD*%
D20*
%TO.C,U1*%
X40770000Y39550000D03*
X41570000Y39550000D03*
X42370000Y39550000D03*
X43170000Y39550000D03*
X43970000Y39550000D03*
X44770000Y39550000D03*
X45570000Y39550000D03*
X46370000Y39550000D03*
X47170000Y39550000D03*
X47970000Y39550000D03*
X48770000Y39550000D03*
D21*
X49670000Y40650000D03*
X49670000Y41450000D03*
X49670000Y42250000D03*
X49670000Y43050000D03*
X49670000Y43850000D03*
X49670000Y44650000D03*
X49670000Y45450000D03*
X49670000Y46250000D03*
X49670000Y47050000D03*
X49670000Y47850000D03*
X49670000Y48650000D03*
X49670000Y49450000D03*
X49670000Y50250000D03*
D20*
X48770000Y51350000D03*
X47970000Y51350000D03*
X47170000Y51350000D03*
X46370000Y51350000D03*
X45570000Y51350000D03*
X44770000Y51350000D03*
X43970000Y51350000D03*
X43170000Y51350000D03*
X42370000Y51350000D03*
X41570000Y51350000D03*
X40770000Y51350000D03*
D21*
X39870000Y50250000D03*
X39870000Y49450000D03*
X39870000Y48650000D03*
X39870000Y47850000D03*
X39870000Y47050000D03*
X39870000Y46250000D03*
X39870000Y45450000D03*
X39870000Y44650000D03*
X39870000Y43850000D03*
X39870000Y43050000D03*
X39870000Y42250000D03*
X39870000Y41450000D03*
X39870000Y40650000D03*
D22*
X39820000Y51400000D03*
X49720000Y51400000D03*
X49720000Y39500000D03*
X39820000Y39500000D03*
%TD*%
D20*
%TO.C,U1*%
X40770000Y21270000D03*
X41570000Y21270000D03*
X42370000Y21270000D03*
X43170000Y21270000D03*
X43970000Y21270000D03*
X44770000Y21270000D03*
X45570000Y21270000D03*
X46370000Y21270000D03*
X47170000Y21270000D03*
X47970000Y21270000D03*
X48770000Y21270000D03*
D21*
X49670000Y22370000D03*
X49670000Y23170000D03*
X49670000Y23970000D03*
X49670000Y24770000D03*
X49670000Y25570000D03*
X49670000Y26370000D03*
X49670000Y27170000D03*
X49670000Y27970000D03*
X49670000Y28770000D03*
X49670000Y29570000D03*
X49670000Y30370000D03*
X49670000Y31170000D03*
X49670000Y31970000D03*
D20*
X48770000Y33070000D03*
X47970000Y33070000D03*
X47170000Y33070000D03*
X46370000Y33070000D03*
X45570000Y33070000D03*
X44770000Y33070000D03*
X43970000Y33070000D03*
X43170000Y33070000D03*
X42370000Y33070000D03*
X41570000Y33070000D03*
X40770000Y33070000D03*
D21*
X39870000Y31970000D03*
X39870000Y31170000D03*
X39870000Y30370000D03*
X39870000Y29570000D03*
X39870000Y28770000D03*
X39870000Y27970000D03*
X39870000Y27170000D03*
X39870000Y26370000D03*
X39870000Y25570000D03*
X39870000Y24770000D03*
X39870000Y23970000D03*
X39870000Y23170000D03*
X39870000Y22370000D03*
D22*
X39820000Y33120000D03*
X49720000Y33120000D03*
X49720000Y21220000D03*
X39820000Y21220000D03*
%TD*%
D20*
%TO.C,U1*%
X40770000Y2990000D03*
X41570000Y2990000D03*
X42370000Y2990000D03*
X43170000Y2990000D03*
X43970000Y2990000D03*
X44770000Y2990000D03*
X45570000Y2990000D03*
X46370000Y2990000D03*
X47170000Y2990000D03*
X47970000Y2990000D03*
X48770000Y2990000D03*
D21*
X49670000Y4090000D03*
X49670000Y4890000D03*
X49670000Y5690000D03*
X49670000Y6490000D03*
X49670000Y7290000D03*
X49670000Y8090000D03*
X49670000Y8890000D03*
X49670000Y9690000D03*
X49670000Y10490000D03*
X49670000Y11290000D03*
X49670000Y12090000D03*
X49670000Y12890000D03*
X49670000Y13690000D03*
D20*
X48770000Y14790000D03*
X47970000Y14790000D03*
X47170000Y14790000D03*
X46370000Y14790000D03*
X45570000Y14790000D03*
X44770000Y14790000D03*
X43970000Y14790000D03*
X43170000Y14790000D03*
X42370000Y14790000D03*
X41570000Y14790000D03*
X40770000Y14790000D03*
D21*
X39870000Y13690000D03*
X39870000Y12890000D03*
X39870000Y12090000D03*
X39870000Y11290000D03*
X39870000Y10490000D03*
X39870000Y9690000D03*
X39870000Y8890000D03*
X39870000Y8090000D03*
X39870000Y7290000D03*
X39870000Y6490000D03*
X39870000Y5690000D03*
X39870000Y4890000D03*
X39870000Y4090000D03*
D22*
X39820000Y14840000D03*
X49720000Y14840000D03*
X49720000Y2940000D03*
X39820000Y2940000D03*
%TD*%
D20*
%TO.C,U1*%
X2170000Y112670000D03*
X2970000Y112670000D03*
X3770000Y112670000D03*
X4570000Y112670000D03*
X5370000Y112670000D03*
X6170000Y112670000D03*
X6970000Y112670000D03*
X7770000Y112670000D03*
X8570000Y112670000D03*
X9370000Y112670000D03*
X10170000Y112670000D03*
D21*
X11070000Y113770000D03*
X11070000Y114570000D03*
X11070000Y115370000D03*
X11070000Y116170000D03*
X11070000Y116970000D03*
X11070000Y117770000D03*
X11070000Y118570000D03*
X11070000Y119370000D03*
X11070000Y120170000D03*
X11070000Y120970000D03*
X11070000Y121770000D03*
X11070000Y122570000D03*
X11070000Y123370000D03*
D20*
X10170000Y124470000D03*
X9370000Y124470000D03*
X8570000Y124470000D03*
X7770000Y124470000D03*
X6970000Y124470000D03*
X6170000Y124470000D03*
X5370000Y124470000D03*
X4570000Y124470000D03*
X3770000Y124470000D03*
X2970000Y124470000D03*
X2170000Y124470000D03*
D21*
X1270000Y123370000D03*
X1270000Y122570000D03*
X1270000Y121770000D03*
X1270000Y120970000D03*
X1270000Y120170000D03*
X1270000Y119370000D03*
X1270000Y118570000D03*
X1270000Y117770000D03*
X1270000Y116970000D03*
X1270000Y116170000D03*
X1270000Y115370000D03*
X1270000Y114570000D03*
X1270000Y113770000D03*
D22*
X1220000Y124520000D03*
X11120000Y124520000D03*
X11120000Y112620000D03*
X1220000Y112620000D03*
%TD*%
D20*
%TO.C,U1*%
X2170000Y94390000D03*
X2970000Y94390000D03*
X3770000Y94390000D03*
X4570000Y94390000D03*
X5370000Y94390000D03*
X6170000Y94390000D03*
X6970000Y94390000D03*
X7770000Y94390000D03*
X8570000Y94390000D03*
X9370000Y94390000D03*
X10170000Y94390000D03*
D21*
X11070000Y95490000D03*
X11070000Y96290000D03*
X11070000Y97090000D03*
X11070000Y97890000D03*
X11070000Y98690000D03*
X11070000Y99490000D03*
X11070000Y100290000D03*
X11070000Y101090000D03*
X11070000Y101890000D03*
X11070000Y102690000D03*
X11070000Y103490000D03*
X11070000Y104290000D03*
X11070000Y105090000D03*
D20*
X10170000Y106190000D03*
X9370000Y106190000D03*
X8570000Y106190000D03*
X7770000Y106190000D03*
X6970000Y106190000D03*
X6170000Y106190000D03*
X5370000Y106190000D03*
X4570000Y106190000D03*
X3770000Y106190000D03*
X2970000Y106190000D03*
X2170000Y106190000D03*
D21*
X1270000Y105090000D03*
X1270000Y104290000D03*
X1270000Y103490000D03*
X1270000Y102690000D03*
X1270000Y101890000D03*
X1270000Y101090000D03*
X1270000Y100290000D03*
X1270000Y99490000D03*
X1270000Y98690000D03*
X1270000Y97890000D03*
X1270000Y97090000D03*
X1270000Y96290000D03*
X1270000Y95490000D03*
D22*
X1220000Y106240000D03*
X11120000Y106240000D03*
X11120000Y94340000D03*
X1220000Y94340000D03*
%TD*%
D20*
%TO.C,U1*%
X2170000Y76110000D03*
X2970000Y76110000D03*
X3770000Y76110000D03*
X4570000Y76110000D03*
X5370000Y76110000D03*
X6170000Y76110000D03*
X6970000Y76110000D03*
X7770000Y76110000D03*
X8570000Y76110000D03*
X9370000Y76110000D03*
X10170000Y76110000D03*
D21*
X11070000Y77210000D03*
X11070000Y78010000D03*
X11070000Y78810000D03*
X11070000Y79610000D03*
X11070000Y80410000D03*
X11070000Y81210000D03*
X11070000Y82010000D03*
X11070000Y82810000D03*
X11070000Y83610000D03*
X11070000Y84410000D03*
X11070000Y85210000D03*
X11070000Y86010000D03*
X11070000Y86810000D03*
D20*
X10170000Y87910000D03*
X9370000Y87910000D03*
X8570000Y87910000D03*
X7770000Y87910000D03*
X6970000Y87910000D03*
X6170000Y87910000D03*
X5370000Y87910000D03*
X4570000Y87910000D03*
X3770000Y87910000D03*
X2970000Y87910000D03*
X2170000Y87910000D03*
D21*
X1270000Y86810000D03*
X1270000Y86010000D03*
X1270000Y85210000D03*
X1270000Y84410000D03*
X1270000Y83610000D03*
X1270000Y82810000D03*
X1270000Y82010000D03*
X1270000Y81210000D03*
X1270000Y80410000D03*
X1270000Y79610000D03*
X1270000Y78810000D03*
X1270000Y78010000D03*
X1270000Y77210000D03*
D22*
X1220000Y87960000D03*
X11120000Y87960000D03*
X11120000Y76060000D03*
X1220000Y76060000D03*
%TD*%
D20*
%TO.C,U1*%
X2170000Y57830000D03*
X2970000Y57830000D03*
X3770000Y57830000D03*
X4570000Y57830000D03*
X5370000Y57830000D03*
X6170000Y57830000D03*
X6970000Y57830000D03*
X7770000Y57830000D03*
X8570000Y57830000D03*
X9370000Y57830000D03*
X10170000Y57830000D03*
D21*
X11070000Y58930000D03*
X11070000Y59730000D03*
X11070000Y60530000D03*
X11070000Y61330000D03*
X11070000Y62130000D03*
X11070000Y62930000D03*
X11070000Y63730000D03*
X11070000Y64530000D03*
X11070000Y65330000D03*
X11070000Y66130000D03*
X11070000Y66930000D03*
X11070000Y67730000D03*
X11070000Y68530000D03*
D20*
X10170000Y69630000D03*
X9370000Y69630000D03*
X8570000Y69630000D03*
X7770000Y69630000D03*
X6970000Y69630000D03*
X6170000Y69630000D03*
X5370000Y69630000D03*
X4570000Y69630000D03*
X3770000Y69630000D03*
X2970000Y69630000D03*
X2170000Y69630000D03*
D21*
X1270000Y68530000D03*
X1270000Y67730000D03*
X1270000Y66930000D03*
X1270000Y66130000D03*
X1270000Y65330000D03*
X1270000Y64530000D03*
X1270000Y63730000D03*
X1270000Y62930000D03*
X1270000Y62130000D03*
X1270000Y61330000D03*
X1270000Y60530000D03*
X1270000Y59730000D03*
X1270000Y58930000D03*
D22*
X1220000Y69680000D03*
X11120000Y69680000D03*
X11120000Y57780000D03*
X1220000Y57780000D03*
%TD*%
D20*
%TO.C,U1*%
X2170000Y39550000D03*
X2970000Y39550000D03*
X3770000Y39550000D03*
X4570000Y39550000D03*
X5370000Y39550000D03*
X6170000Y39550000D03*
X6970000Y39550000D03*
X7770000Y39550000D03*
X8570000Y39550000D03*
X9370000Y39550000D03*
X10170000Y39550000D03*
D21*
X11070000Y40650000D03*
X11070000Y41450000D03*
X11070000Y42250000D03*
X11070000Y43050000D03*
X11070000Y43850000D03*
X11070000Y44650000D03*
X11070000Y45450000D03*
X11070000Y46250000D03*
X11070000Y47050000D03*
X11070000Y47850000D03*
X11070000Y48650000D03*
X11070000Y49450000D03*
X11070000Y50250000D03*
D20*
X10170000Y51350000D03*
X9370000Y51350000D03*
X8570000Y51350000D03*
X7770000Y51350000D03*
X6970000Y51350000D03*
X6170000Y51350000D03*
X5370000Y51350000D03*
X4570000Y51350000D03*
X3770000Y51350000D03*
X2970000Y51350000D03*
X2170000Y51350000D03*
D21*
X1270000Y50250000D03*
X1270000Y49450000D03*
X1270000Y48650000D03*
X1270000Y47850000D03*
X1270000Y47050000D03*
X1270000Y46250000D03*
X1270000Y45450000D03*
X1270000Y44650000D03*
X1270000Y43850000D03*
X1270000Y43050000D03*
X1270000Y42250000D03*
X1270000Y41450000D03*
X1270000Y40650000D03*
D22*
X1220000Y51400000D03*
X11120000Y51400000D03*
X11120000Y39500000D03*
X1220000Y39500000D03*
%TD*%
D20*
%TO.C,U1*%
X2170000Y21270000D03*
X2970000Y21270000D03*
X3770000Y21270000D03*
X4570000Y21270000D03*
X5370000Y21270000D03*
X6170000Y21270000D03*
X6970000Y21270000D03*
X7770000Y21270000D03*
X8570000Y21270000D03*
X9370000Y21270000D03*
X10170000Y21270000D03*
D21*
X11070000Y22370000D03*
X11070000Y23170000D03*
X11070000Y23970000D03*
X11070000Y24770000D03*
X11070000Y25570000D03*
X11070000Y26370000D03*
X11070000Y27170000D03*
X11070000Y27970000D03*
X11070000Y28770000D03*
X11070000Y29570000D03*
X11070000Y30370000D03*
X11070000Y31170000D03*
X11070000Y31970000D03*
D20*
X10170000Y33070000D03*
X9370000Y33070000D03*
X8570000Y33070000D03*
X7770000Y33070000D03*
X6970000Y33070000D03*
X6170000Y33070000D03*
X5370000Y33070000D03*
X4570000Y33070000D03*
X3770000Y33070000D03*
X2970000Y33070000D03*
X2170000Y33070000D03*
D21*
X1270000Y31970000D03*
X1270000Y31170000D03*
X1270000Y30370000D03*
X1270000Y29570000D03*
X1270000Y28770000D03*
X1270000Y27970000D03*
X1270000Y27170000D03*
X1270000Y26370000D03*
X1270000Y25570000D03*
X1270000Y24770000D03*
X1270000Y23970000D03*
X1270000Y23170000D03*
X1270000Y22370000D03*
D22*
X1220000Y33120000D03*
X11120000Y33120000D03*
X11120000Y21220000D03*
X1220000Y21220000D03*
%TD*%
D20*
%TO.C,U1*%
X2170000Y2990000D03*
X2970000Y2990000D03*
X3770000Y2990000D03*
X4570000Y2990000D03*
X5370000Y2990000D03*
X6170000Y2990000D03*
X6970000Y2990000D03*
X7770000Y2990000D03*
X8570000Y2990000D03*
X9370000Y2990000D03*
X10170000Y2990000D03*
D21*
X11070000Y4090000D03*
X11070000Y4890000D03*
X11070000Y5690000D03*
X11070000Y6490000D03*
X11070000Y7290000D03*
X11070000Y8090000D03*
X11070000Y8890000D03*
X11070000Y9690000D03*
X11070000Y10490000D03*
X11070000Y11290000D03*
X11070000Y12090000D03*
X11070000Y12890000D03*
X11070000Y13690000D03*
D20*
X10170000Y14790000D03*
X9370000Y14790000D03*
X8570000Y14790000D03*
X7770000Y14790000D03*
X6970000Y14790000D03*
X6170000Y14790000D03*
X5370000Y14790000D03*
X4570000Y14790000D03*
X3770000Y14790000D03*
X2970000Y14790000D03*
X2170000Y14790000D03*
D21*
X1270000Y13690000D03*
X1270000Y12890000D03*
X1270000Y12090000D03*
X1270000Y11290000D03*
X1270000Y10490000D03*
X1270000Y9690000D03*
X1270000Y8890000D03*
X1270000Y8090000D03*
X1270000Y7290000D03*
X1270000Y6490000D03*
X1270000Y5690000D03*
X1270000Y4890000D03*
X1270000Y4090000D03*
D22*
X1220000Y14840000D03*
X11120000Y14840000D03*
X11120000Y2940000D03*
X1220000Y2940000D03*
%TD*%
D11*
%TO.C,R2*%
X26225000Y4318000D03*
X24575000Y4318000D03*
%TD*%
%TO.C,R3*%
X14795000Y7620000D03*
X13145000Y7620000D03*
%TD*%
D19*
%TO.C,D1*%
X17272000Y8102500D03*
X17272000Y9677500D03*
%TD*%
D13*
%TO.C,C2*%
X22365000Y4318000D03*
X20815000Y4318000D03*
%TD*%
D18*
%TO.C,U2*%
X20640000Y7589900D03*
X21590000Y7589900D03*
X22540000Y7589900D03*
X22540000Y10190100D03*
X20640000Y10190100D03*
%TD*%
D13*
%TO.C,C1*%
X22365000Y5969000D03*
X20815000Y5969000D03*
%TD*%
D17*
%TO.C,R5*%
X28385000Y4318000D03*
X30035000Y4318000D03*
%TD*%
D11*
%TO.C,R1*%
X26225000Y13462000D03*
X24575000Y13462000D03*
%TD*%
D12*
%TO.C,SW2*%
X13190000Y5880000D03*
X17290000Y5880000D03*
X13190000Y4280000D03*
X17290000Y4280000D03*
%TD*%
D16*
%TO.C,C6*%
X20815000Y11811000D03*
X22365000Y11811000D03*
%TD*%
D14*
%TO.C,J5*%
X24524000Y10390000D03*
X24524000Y9390000D03*
X24524000Y8390000D03*
X24524000Y7390000D03*
D15*
X26949000Y11690000D03*
X26949000Y6090000D03*
%TD*%
D13*
%TO.C,C3*%
X22365000Y13462000D03*
X20815000Y13462000D03*
%TD*%
D12*
%TO.C,SW1*%
X17290000Y11900000D03*
X13190000Y11900000D03*
X17290000Y13500000D03*
X13190000Y13500000D03*
%TD*%
D11*
%TO.C,R4*%
X14795000Y10160000D03*
X13145000Y10160000D03*
%TD*%
D10*
%TO.C,D2*%
X29997500Y13462000D03*
X28422500Y13462000D03*
%TD*%
M02*
