%TF.GenerationSoftware,KiCad,Pcbnew,7.0.6*%
%TF.CreationDate,2023-08-17T21:31:53-06:00*%
%TF.ProjectId,SparkFun_Pro_Mini-ESP32_panelized,53706172-6b46-4756-9e5f-50726f5f4d69,rev?*%
%TF.SameCoordinates,Original*%
%TF.FileFunction,Soldermask,Bot*%
%TF.FilePolarity,Negative*%
%FSLAX46Y46*%
G04 Gerber Fmt 4.6, Leading zero omitted, Abs format (unit mm)*
G04 Created by KiCad (PCBNEW 7.0.6) date 2023-08-17 21:31:53*
%MOMM*%
%LPD*%
G01*
G04 APERTURE LIST*
%ADD10C,2.082800*%
%ADD11C,3.000000*%
G04 APERTURE END LIST*
D10*
%TO.C,J1*%
X161290000Y-129540000D03*
X161290000Y-127000000D03*
X161290000Y-124460000D03*
X161290000Y-121920000D03*
X161290000Y-119380000D03*
X161290000Y-116840000D03*
%TD*%
%TO.C,J1*%
X161290000Y-111260000D03*
X161290000Y-108720000D03*
X161290000Y-106180000D03*
X161290000Y-103640000D03*
X161290000Y-101100000D03*
X161290000Y-98560000D03*
%TD*%
%TO.C,J1*%
X161290000Y-92980000D03*
X161290000Y-90440000D03*
X161290000Y-87900000D03*
X161290000Y-85360000D03*
X161290000Y-82820000D03*
X161290000Y-80280000D03*
%TD*%
%TO.C,J1*%
X161290000Y-74700000D03*
X161290000Y-72160000D03*
X161290000Y-69620000D03*
X161290000Y-67080000D03*
X161290000Y-64540000D03*
X161290000Y-62000000D03*
%TD*%
%TO.C,J1*%
X161290000Y-56420000D03*
X161290000Y-53880000D03*
X161290000Y-51340000D03*
X161290000Y-48800000D03*
X161290000Y-46260000D03*
X161290000Y-43720000D03*
%TD*%
%TO.C,J1*%
X161290000Y-38140000D03*
X161290000Y-35600000D03*
X161290000Y-33060000D03*
X161290000Y-30520000D03*
X161290000Y-27980000D03*
X161290000Y-25440000D03*
%TD*%
%TO.C,J1*%
X199890000Y-74700000D03*
X199890000Y-72160000D03*
X199890000Y-69620000D03*
X199890000Y-67080000D03*
X199890000Y-64540000D03*
X199890000Y-62000000D03*
%TD*%
%TO.C,J1*%
X277090000Y-92980000D03*
X277090000Y-90440000D03*
X277090000Y-87900000D03*
X277090000Y-85360000D03*
X277090000Y-82820000D03*
X277090000Y-80280000D03*
%TD*%
%TO.C,J1*%
X199890000Y-92980000D03*
X199890000Y-90440000D03*
X199890000Y-87900000D03*
X199890000Y-85360000D03*
X199890000Y-82820000D03*
X199890000Y-80280000D03*
%TD*%
%TO.C,J1*%
X277090000Y-19860000D03*
X277090000Y-17320000D03*
X277090000Y-14780000D03*
X277090000Y-12240000D03*
X277090000Y-9700000D03*
X277090000Y-7160000D03*
%TD*%
%TO.C,J1*%
X277090000Y-56420000D03*
X277090000Y-53880000D03*
X277090000Y-51340000D03*
X277090000Y-48800000D03*
X277090000Y-46260000D03*
X277090000Y-43720000D03*
%TD*%
%TO.C,J1*%
X161290000Y-19860000D03*
X161290000Y-17320000D03*
X161290000Y-14780000D03*
X161290000Y-12240000D03*
X161290000Y-9700000D03*
X161290000Y-7160000D03*
%TD*%
%TO.C,J1*%
X199890000Y-111260000D03*
X199890000Y-108720000D03*
X199890000Y-106180000D03*
X199890000Y-103640000D03*
X199890000Y-101100000D03*
X199890000Y-98560000D03*
%TD*%
%TO.C,J1*%
X199890000Y-19860000D03*
X199890000Y-17320000D03*
X199890000Y-14780000D03*
X199890000Y-12240000D03*
X199890000Y-9700000D03*
X199890000Y-7160000D03*
%TD*%
%TO.C,J1*%
X199890000Y-129540000D03*
X199890000Y-127000000D03*
X199890000Y-124460000D03*
X199890000Y-121920000D03*
X199890000Y-119380000D03*
X199890000Y-116840000D03*
%TD*%
%TO.C,J1*%
X199890000Y-56420000D03*
X199890000Y-53880000D03*
X199890000Y-51340000D03*
X199890000Y-48800000D03*
X199890000Y-46260000D03*
X199890000Y-43720000D03*
%TD*%
%TO.C,J1*%
X238490000Y-111260000D03*
X238490000Y-108720000D03*
X238490000Y-106180000D03*
X238490000Y-103640000D03*
X238490000Y-101100000D03*
X238490000Y-98560000D03*
%TD*%
%TO.C,J1*%
X238490000Y-92980000D03*
X238490000Y-90440000D03*
X238490000Y-87900000D03*
X238490000Y-85360000D03*
X238490000Y-82820000D03*
X238490000Y-80280000D03*
%TD*%
%TO.C,J1*%
X238490000Y-38140000D03*
X238490000Y-35600000D03*
X238490000Y-33060000D03*
X238490000Y-30520000D03*
X238490000Y-27980000D03*
X238490000Y-25440000D03*
%TD*%
%TO.C,J1*%
X238490000Y-19860000D03*
X238490000Y-17320000D03*
X238490000Y-14780000D03*
X238490000Y-12240000D03*
X238490000Y-9700000D03*
X238490000Y-7160000D03*
%TD*%
%TO.C,J1*%
X199890000Y-38140000D03*
X199890000Y-35600000D03*
X199890000Y-33060000D03*
X199890000Y-30520000D03*
X199890000Y-27980000D03*
X199890000Y-25440000D03*
%TD*%
%TO.C,J1*%
X277090000Y-111260000D03*
X277090000Y-108720000D03*
X277090000Y-106180000D03*
X277090000Y-103640000D03*
X277090000Y-101100000D03*
X277090000Y-98560000D03*
%TD*%
%TO.C,J1*%
X238490000Y-74700000D03*
X238490000Y-72160000D03*
X238490000Y-69620000D03*
X238490000Y-67080000D03*
X238490000Y-64540000D03*
X238490000Y-62000000D03*
%TD*%
%TO.C,J1*%
X238490000Y-129540000D03*
X238490000Y-127000000D03*
X238490000Y-124460000D03*
X238490000Y-121920000D03*
X238490000Y-119380000D03*
X238490000Y-116840000D03*
%TD*%
%TO.C,J1*%
X238490000Y-56420000D03*
X238490000Y-53880000D03*
X238490000Y-51340000D03*
X238490000Y-48800000D03*
X238490000Y-46260000D03*
X238490000Y-43720000D03*
%TD*%
%TO.C,J1*%
X277090000Y-129540000D03*
X277090000Y-127000000D03*
X277090000Y-124460000D03*
X277090000Y-121920000D03*
X277090000Y-119380000D03*
X277090000Y-116840000D03*
%TD*%
%TO.C,J1*%
X277090000Y-74700000D03*
X277090000Y-72160000D03*
X277090000Y-69620000D03*
X277090000Y-67080000D03*
X277090000Y-64540000D03*
X277090000Y-62000000D03*
%TD*%
%TO.C,J1*%
X277090000Y-38140000D03*
X277090000Y-35600000D03*
X277090000Y-33060000D03*
X277090000Y-30520000D03*
X277090000Y-27980000D03*
X277090000Y-25440000D03*
%TD*%
%TO.C,J3*%
X130810000Y-115570000D03*
X133350000Y-115570000D03*
X135890000Y-115570000D03*
X138430000Y-115570000D03*
X140970000Y-115570000D03*
X143510000Y-115570000D03*
X146050000Y-115570000D03*
X148590000Y-115570000D03*
X151130000Y-115570000D03*
X153670000Y-115570000D03*
X156210000Y-115570000D03*
X158750000Y-115570000D03*
%TD*%
%TO.C,J3*%
X130810000Y-97290000D03*
X133350000Y-97290000D03*
X135890000Y-97290000D03*
X138430000Y-97290000D03*
X140970000Y-97290000D03*
X143510000Y-97290000D03*
X146050000Y-97290000D03*
X148590000Y-97290000D03*
X151130000Y-97290000D03*
X153670000Y-97290000D03*
X156210000Y-97290000D03*
X158750000Y-97290000D03*
%TD*%
%TO.C,J3*%
X130810000Y-79010000D03*
X133350000Y-79010000D03*
X135890000Y-79010000D03*
X138430000Y-79010000D03*
X140970000Y-79010000D03*
X143510000Y-79010000D03*
X146050000Y-79010000D03*
X148590000Y-79010000D03*
X151130000Y-79010000D03*
X153670000Y-79010000D03*
X156210000Y-79010000D03*
X158750000Y-79010000D03*
%TD*%
%TO.C,J3*%
X130810000Y-42450000D03*
X133350000Y-42450000D03*
X135890000Y-42450000D03*
X138430000Y-42450000D03*
X140970000Y-42450000D03*
X143510000Y-42450000D03*
X146050000Y-42450000D03*
X148590000Y-42450000D03*
X151130000Y-42450000D03*
X153670000Y-42450000D03*
X156210000Y-42450000D03*
X158750000Y-42450000D03*
%TD*%
%TO.C,J3*%
X130810000Y-60730000D03*
X133350000Y-60730000D03*
X135890000Y-60730000D03*
X138430000Y-60730000D03*
X140970000Y-60730000D03*
X143510000Y-60730000D03*
X146050000Y-60730000D03*
X148590000Y-60730000D03*
X151130000Y-60730000D03*
X153670000Y-60730000D03*
X156210000Y-60730000D03*
X158750000Y-60730000D03*
%TD*%
%TO.C,J3*%
X130810000Y-24170000D03*
X133350000Y-24170000D03*
X135890000Y-24170000D03*
X138430000Y-24170000D03*
X140970000Y-24170000D03*
X143510000Y-24170000D03*
X146050000Y-24170000D03*
X148590000Y-24170000D03*
X151130000Y-24170000D03*
X153670000Y-24170000D03*
X156210000Y-24170000D03*
X158750000Y-24170000D03*
%TD*%
%TO.C,J3*%
X130810000Y-5890000D03*
X133350000Y-5890000D03*
X135890000Y-5890000D03*
X138430000Y-5890000D03*
X140970000Y-5890000D03*
X143510000Y-5890000D03*
X146050000Y-5890000D03*
X148590000Y-5890000D03*
X151130000Y-5890000D03*
X153670000Y-5890000D03*
X156210000Y-5890000D03*
X158750000Y-5890000D03*
%TD*%
%TO.C,J3*%
X169410000Y-115570000D03*
X171950000Y-115570000D03*
X174490000Y-115570000D03*
X177030000Y-115570000D03*
X179570000Y-115570000D03*
X182110000Y-115570000D03*
X184650000Y-115570000D03*
X187190000Y-115570000D03*
X189730000Y-115570000D03*
X192270000Y-115570000D03*
X194810000Y-115570000D03*
X197350000Y-115570000D03*
%TD*%
%TO.C,J3*%
X169410000Y-97290000D03*
X171950000Y-97290000D03*
X174490000Y-97290000D03*
X177030000Y-97290000D03*
X179570000Y-97290000D03*
X182110000Y-97290000D03*
X184650000Y-97290000D03*
X187190000Y-97290000D03*
X189730000Y-97290000D03*
X192270000Y-97290000D03*
X194810000Y-97290000D03*
X197350000Y-97290000D03*
%TD*%
%TO.C,J3*%
X169410000Y-79010000D03*
X171950000Y-79010000D03*
X174490000Y-79010000D03*
X177030000Y-79010000D03*
X179570000Y-79010000D03*
X182110000Y-79010000D03*
X184650000Y-79010000D03*
X187190000Y-79010000D03*
X189730000Y-79010000D03*
X192270000Y-79010000D03*
X194810000Y-79010000D03*
X197350000Y-79010000D03*
%TD*%
%TO.C,J3*%
X169410000Y-60730000D03*
X171950000Y-60730000D03*
X174490000Y-60730000D03*
X177030000Y-60730000D03*
X179570000Y-60730000D03*
X182110000Y-60730000D03*
X184650000Y-60730000D03*
X187190000Y-60730000D03*
X189730000Y-60730000D03*
X192270000Y-60730000D03*
X194810000Y-60730000D03*
X197350000Y-60730000D03*
%TD*%
%TO.C,J3*%
X246610000Y-60730000D03*
X249150000Y-60730000D03*
X251690000Y-60730000D03*
X254230000Y-60730000D03*
X256770000Y-60730000D03*
X259310000Y-60730000D03*
X261850000Y-60730000D03*
X264390000Y-60730000D03*
X266930000Y-60730000D03*
X269470000Y-60730000D03*
X272010000Y-60730000D03*
X274550000Y-60730000D03*
%TD*%
%TO.C,J3*%
X246610000Y-5890000D03*
X249150000Y-5890000D03*
X251690000Y-5890000D03*
X254230000Y-5890000D03*
X256770000Y-5890000D03*
X259310000Y-5890000D03*
X261850000Y-5890000D03*
X264390000Y-5890000D03*
X266930000Y-5890000D03*
X269470000Y-5890000D03*
X272010000Y-5890000D03*
X274550000Y-5890000D03*
%TD*%
%TO.C,J3*%
X246610000Y-97290000D03*
X249150000Y-97290000D03*
X251690000Y-97290000D03*
X254230000Y-97290000D03*
X256770000Y-97290000D03*
X259310000Y-97290000D03*
X261850000Y-97290000D03*
X264390000Y-97290000D03*
X266930000Y-97290000D03*
X269470000Y-97290000D03*
X272010000Y-97290000D03*
X274550000Y-97290000D03*
%TD*%
%TO.C,J3*%
X246610000Y-42450000D03*
X249150000Y-42450000D03*
X251690000Y-42450000D03*
X254230000Y-42450000D03*
X256770000Y-42450000D03*
X259310000Y-42450000D03*
X261850000Y-42450000D03*
X264390000Y-42450000D03*
X266930000Y-42450000D03*
X269470000Y-42450000D03*
X272010000Y-42450000D03*
X274550000Y-42450000D03*
%TD*%
%TO.C,J3*%
X246610000Y-79010000D03*
X249150000Y-79010000D03*
X251690000Y-79010000D03*
X254230000Y-79010000D03*
X256770000Y-79010000D03*
X259310000Y-79010000D03*
X261850000Y-79010000D03*
X264390000Y-79010000D03*
X266930000Y-79010000D03*
X269470000Y-79010000D03*
X272010000Y-79010000D03*
X274550000Y-79010000D03*
%TD*%
%TO.C,J3*%
X246610000Y-24170000D03*
X249150000Y-24170000D03*
X251690000Y-24170000D03*
X254230000Y-24170000D03*
X256770000Y-24170000D03*
X259310000Y-24170000D03*
X261850000Y-24170000D03*
X264390000Y-24170000D03*
X266930000Y-24170000D03*
X269470000Y-24170000D03*
X272010000Y-24170000D03*
X274550000Y-24170000D03*
%TD*%
%TO.C,J3*%
X208010000Y-24170000D03*
X210550000Y-24170000D03*
X213090000Y-24170000D03*
X215630000Y-24170000D03*
X218170000Y-24170000D03*
X220710000Y-24170000D03*
X223250000Y-24170000D03*
X225790000Y-24170000D03*
X228330000Y-24170000D03*
X230870000Y-24170000D03*
X233410000Y-24170000D03*
X235950000Y-24170000D03*
%TD*%
%TO.C,J3*%
X169410000Y-42450000D03*
X171950000Y-42450000D03*
X174490000Y-42450000D03*
X177030000Y-42450000D03*
X179570000Y-42450000D03*
X182110000Y-42450000D03*
X184650000Y-42450000D03*
X187190000Y-42450000D03*
X189730000Y-42450000D03*
X192270000Y-42450000D03*
X194810000Y-42450000D03*
X197350000Y-42450000D03*
%TD*%
%TO.C,J3*%
X169410000Y-24170000D03*
X171950000Y-24170000D03*
X174490000Y-24170000D03*
X177030000Y-24170000D03*
X179570000Y-24170000D03*
X182110000Y-24170000D03*
X184650000Y-24170000D03*
X187190000Y-24170000D03*
X189730000Y-24170000D03*
X192270000Y-24170000D03*
X194810000Y-24170000D03*
X197350000Y-24170000D03*
%TD*%
%TO.C,J3*%
X208010000Y-115570000D03*
X210550000Y-115570000D03*
X213090000Y-115570000D03*
X215630000Y-115570000D03*
X218170000Y-115570000D03*
X220710000Y-115570000D03*
X223250000Y-115570000D03*
X225790000Y-115570000D03*
X228330000Y-115570000D03*
X230870000Y-115570000D03*
X233410000Y-115570000D03*
X235950000Y-115570000D03*
%TD*%
%TO.C,J3*%
X208010000Y-5890000D03*
X210550000Y-5890000D03*
X213090000Y-5890000D03*
X215630000Y-5890000D03*
X218170000Y-5890000D03*
X220710000Y-5890000D03*
X223250000Y-5890000D03*
X225790000Y-5890000D03*
X228330000Y-5890000D03*
X230870000Y-5890000D03*
X233410000Y-5890000D03*
X235950000Y-5890000D03*
%TD*%
%TO.C,J3*%
X208010000Y-79010000D03*
X210550000Y-79010000D03*
X213090000Y-79010000D03*
X215630000Y-79010000D03*
X218170000Y-79010000D03*
X220710000Y-79010000D03*
X223250000Y-79010000D03*
X225790000Y-79010000D03*
X228330000Y-79010000D03*
X230870000Y-79010000D03*
X233410000Y-79010000D03*
X235950000Y-79010000D03*
%TD*%
%TO.C,J3*%
X169410000Y-5890000D03*
X171950000Y-5890000D03*
X174490000Y-5890000D03*
X177030000Y-5890000D03*
X179570000Y-5890000D03*
X182110000Y-5890000D03*
X184650000Y-5890000D03*
X187190000Y-5890000D03*
X189730000Y-5890000D03*
X192270000Y-5890000D03*
X194810000Y-5890000D03*
X197350000Y-5890000D03*
%TD*%
%TO.C,J3*%
X208010000Y-42450000D03*
X210550000Y-42450000D03*
X213090000Y-42450000D03*
X215630000Y-42450000D03*
X218170000Y-42450000D03*
X220710000Y-42450000D03*
X223250000Y-42450000D03*
X225790000Y-42450000D03*
X228330000Y-42450000D03*
X230870000Y-42450000D03*
X233410000Y-42450000D03*
X235950000Y-42450000D03*
%TD*%
%TO.C,J3*%
X208010000Y-97290000D03*
X210550000Y-97290000D03*
X213090000Y-97290000D03*
X215630000Y-97290000D03*
X218170000Y-97290000D03*
X220710000Y-97290000D03*
X223250000Y-97290000D03*
X225790000Y-97290000D03*
X228330000Y-97290000D03*
X230870000Y-97290000D03*
X233410000Y-97290000D03*
X235950000Y-97290000D03*
%TD*%
%TO.C,J3*%
X246610000Y-115570000D03*
X249150000Y-115570000D03*
X251690000Y-115570000D03*
X254230000Y-115570000D03*
X256770000Y-115570000D03*
X259310000Y-115570000D03*
X261850000Y-115570000D03*
X264390000Y-115570000D03*
X266930000Y-115570000D03*
X269470000Y-115570000D03*
X272010000Y-115570000D03*
X274550000Y-115570000D03*
%TD*%
%TO.C,J3*%
X208010000Y-60730000D03*
X210550000Y-60730000D03*
X213090000Y-60730000D03*
X215630000Y-60730000D03*
X218170000Y-60730000D03*
X220710000Y-60730000D03*
X223250000Y-60730000D03*
X225790000Y-60730000D03*
X228330000Y-60730000D03*
X230870000Y-60730000D03*
X233410000Y-60730000D03*
X235950000Y-60730000D03*
%TD*%
D11*
%TO.C,*%
X120785000Y-6620000D03*
%TD*%
%TO.C,*%
X287115000Y-6620000D03*
%TD*%
D10*
%TO.C,J2*%
X130810000Y-130810000D03*
X133350000Y-130810000D03*
X135890000Y-130810000D03*
X138430000Y-130810000D03*
X140970000Y-130810000D03*
X143510000Y-130810000D03*
X146050000Y-130810000D03*
X148590000Y-130810000D03*
X151130000Y-130810000D03*
X153670000Y-130810000D03*
X156210000Y-130810000D03*
X158750000Y-130810000D03*
%TD*%
%TO.C,J2*%
X130810000Y-94250000D03*
X133350000Y-94250000D03*
X135890000Y-94250000D03*
X138430000Y-94250000D03*
X140970000Y-94250000D03*
X143510000Y-94250000D03*
X146050000Y-94250000D03*
X148590000Y-94250000D03*
X151130000Y-94250000D03*
X153670000Y-94250000D03*
X156210000Y-94250000D03*
X158750000Y-94250000D03*
%TD*%
%TO.C,J2*%
X130810000Y-39410000D03*
X133350000Y-39410000D03*
X135890000Y-39410000D03*
X138430000Y-39410000D03*
X140970000Y-39410000D03*
X143510000Y-39410000D03*
X146050000Y-39410000D03*
X148590000Y-39410000D03*
X151130000Y-39410000D03*
X153670000Y-39410000D03*
X156210000Y-39410000D03*
X158750000Y-39410000D03*
%TD*%
%TO.C,J2*%
X130810000Y-21130000D03*
X133350000Y-21130000D03*
X135890000Y-21130000D03*
X138430000Y-21130000D03*
X140970000Y-21130000D03*
X143510000Y-21130000D03*
X146050000Y-21130000D03*
X148590000Y-21130000D03*
X151130000Y-21130000D03*
X153670000Y-21130000D03*
X156210000Y-21130000D03*
X158750000Y-21130000D03*
%TD*%
%TO.C,J2*%
X130810000Y-112530000D03*
X133350000Y-112530000D03*
X135890000Y-112530000D03*
X138430000Y-112530000D03*
X140970000Y-112530000D03*
X143510000Y-112530000D03*
X146050000Y-112530000D03*
X148590000Y-112530000D03*
X151130000Y-112530000D03*
X153670000Y-112530000D03*
X156210000Y-112530000D03*
X158750000Y-112530000D03*
%TD*%
%TO.C,J2*%
X130810000Y-75970000D03*
X133350000Y-75970000D03*
X135890000Y-75970000D03*
X138430000Y-75970000D03*
X140970000Y-75970000D03*
X143510000Y-75970000D03*
X146050000Y-75970000D03*
X148590000Y-75970000D03*
X151130000Y-75970000D03*
X153670000Y-75970000D03*
X156210000Y-75970000D03*
X158750000Y-75970000D03*
%TD*%
%TO.C,J2*%
X130810000Y-57690000D03*
X133350000Y-57690000D03*
X135890000Y-57690000D03*
X138430000Y-57690000D03*
X140970000Y-57690000D03*
X143510000Y-57690000D03*
X146050000Y-57690000D03*
X148590000Y-57690000D03*
X151130000Y-57690000D03*
X153670000Y-57690000D03*
X156210000Y-57690000D03*
X158750000Y-57690000D03*
%TD*%
%TO.C,J2*%
X169410000Y-130810000D03*
X171950000Y-130810000D03*
X174490000Y-130810000D03*
X177030000Y-130810000D03*
X179570000Y-130810000D03*
X182110000Y-130810000D03*
X184650000Y-130810000D03*
X187190000Y-130810000D03*
X189730000Y-130810000D03*
X192270000Y-130810000D03*
X194810000Y-130810000D03*
X197350000Y-130810000D03*
%TD*%
%TO.C,J2*%
X169410000Y-112530000D03*
X171950000Y-112530000D03*
X174490000Y-112530000D03*
X177030000Y-112530000D03*
X179570000Y-112530000D03*
X182110000Y-112530000D03*
X184650000Y-112530000D03*
X187190000Y-112530000D03*
X189730000Y-112530000D03*
X192270000Y-112530000D03*
X194810000Y-112530000D03*
X197350000Y-112530000D03*
%TD*%
%TO.C,J2*%
X169410000Y-94250000D03*
X171950000Y-94250000D03*
X174490000Y-94250000D03*
X177030000Y-94250000D03*
X179570000Y-94250000D03*
X182110000Y-94250000D03*
X184650000Y-94250000D03*
X187190000Y-94250000D03*
X189730000Y-94250000D03*
X192270000Y-94250000D03*
X194810000Y-94250000D03*
X197350000Y-94250000D03*
%TD*%
%TO.C,J2*%
X208010000Y-39410000D03*
X210550000Y-39410000D03*
X213090000Y-39410000D03*
X215630000Y-39410000D03*
X218170000Y-39410000D03*
X220710000Y-39410000D03*
X223250000Y-39410000D03*
X225790000Y-39410000D03*
X228330000Y-39410000D03*
X230870000Y-39410000D03*
X233410000Y-39410000D03*
X235950000Y-39410000D03*
%TD*%
%TO.C,J2*%
X169410000Y-21130000D03*
X171950000Y-21130000D03*
X174490000Y-21130000D03*
X177030000Y-21130000D03*
X179570000Y-21130000D03*
X182110000Y-21130000D03*
X184650000Y-21130000D03*
X187190000Y-21130000D03*
X189730000Y-21130000D03*
X192270000Y-21130000D03*
X194810000Y-21130000D03*
X197350000Y-21130000D03*
%TD*%
%TO.C,J2*%
X246610000Y-112530000D03*
X249150000Y-112530000D03*
X251690000Y-112530000D03*
X254230000Y-112530000D03*
X256770000Y-112530000D03*
X259310000Y-112530000D03*
X261850000Y-112530000D03*
X264390000Y-112530000D03*
X266930000Y-112530000D03*
X269470000Y-112530000D03*
X272010000Y-112530000D03*
X274550000Y-112530000D03*
%TD*%
%TO.C,J2*%
X169410000Y-39410000D03*
X171950000Y-39410000D03*
X174490000Y-39410000D03*
X177030000Y-39410000D03*
X179570000Y-39410000D03*
X182110000Y-39410000D03*
X184650000Y-39410000D03*
X187190000Y-39410000D03*
X189730000Y-39410000D03*
X192270000Y-39410000D03*
X194810000Y-39410000D03*
X197350000Y-39410000D03*
%TD*%
%TO.C,J2*%
X208010000Y-75970000D03*
X210550000Y-75970000D03*
X213090000Y-75970000D03*
X215630000Y-75970000D03*
X218170000Y-75970000D03*
X220710000Y-75970000D03*
X223250000Y-75970000D03*
X225790000Y-75970000D03*
X228330000Y-75970000D03*
X230870000Y-75970000D03*
X233410000Y-75970000D03*
X235950000Y-75970000D03*
%TD*%
%TO.C,J2*%
X246610000Y-130810000D03*
X249150000Y-130810000D03*
X251690000Y-130810000D03*
X254230000Y-130810000D03*
X256770000Y-130810000D03*
X259310000Y-130810000D03*
X261850000Y-130810000D03*
X264390000Y-130810000D03*
X266930000Y-130810000D03*
X269470000Y-130810000D03*
X272010000Y-130810000D03*
X274550000Y-130810000D03*
%TD*%
%TO.C,J2*%
X208010000Y-57690000D03*
X210550000Y-57690000D03*
X213090000Y-57690000D03*
X215630000Y-57690000D03*
X218170000Y-57690000D03*
X220710000Y-57690000D03*
X223250000Y-57690000D03*
X225790000Y-57690000D03*
X228330000Y-57690000D03*
X230870000Y-57690000D03*
X233410000Y-57690000D03*
X235950000Y-57690000D03*
%TD*%
%TO.C,J2*%
X246610000Y-39410000D03*
X249150000Y-39410000D03*
X251690000Y-39410000D03*
X254230000Y-39410000D03*
X256770000Y-39410000D03*
X259310000Y-39410000D03*
X261850000Y-39410000D03*
X264390000Y-39410000D03*
X266930000Y-39410000D03*
X269470000Y-39410000D03*
X272010000Y-39410000D03*
X274550000Y-39410000D03*
%TD*%
%TO.C,J2*%
X246610000Y-75970000D03*
X249150000Y-75970000D03*
X251690000Y-75970000D03*
X254230000Y-75970000D03*
X256770000Y-75970000D03*
X259310000Y-75970000D03*
X261850000Y-75970000D03*
X264390000Y-75970000D03*
X266930000Y-75970000D03*
X269470000Y-75970000D03*
X272010000Y-75970000D03*
X274550000Y-75970000D03*
%TD*%
%TO.C,J2*%
X208010000Y-112530000D03*
X210550000Y-112530000D03*
X213090000Y-112530000D03*
X215630000Y-112530000D03*
X218170000Y-112530000D03*
X220710000Y-112530000D03*
X223250000Y-112530000D03*
X225790000Y-112530000D03*
X228330000Y-112530000D03*
X230870000Y-112530000D03*
X233410000Y-112530000D03*
X235950000Y-112530000D03*
%TD*%
%TO.C,J2*%
X246610000Y-57690000D03*
X249150000Y-57690000D03*
X251690000Y-57690000D03*
X254230000Y-57690000D03*
X256770000Y-57690000D03*
X259310000Y-57690000D03*
X261850000Y-57690000D03*
X264390000Y-57690000D03*
X266930000Y-57690000D03*
X269470000Y-57690000D03*
X272010000Y-57690000D03*
X274550000Y-57690000D03*
%TD*%
%TO.C,J2*%
X169410000Y-75970000D03*
X171950000Y-75970000D03*
X174490000Y-75970000D03*
X177030000Y-75970000D03*
X179570000Y-75970000D03*
X182110000Y-75970000D03*
X184650000Y-75970000D03*
X187190000Y-75970000D03*
X189730000Y-75970000D03*
X192270000Y-75970000D03*
X194810000Y-75970000D03*
X197350000Y-75970000D03*
%TD*%
%TO.C,J2*%
X208010000Y-94250000D03*
X210550000Y-94250000D03*
X213090000Y-94250000D03*
X215630000Y-94250000D03*
X218170000Y-94250000D03*
X220710000Y-94250000D03*
X223250000Y-94250000D03*
X225790000Y-94250000D03*
X228330000Y-94250000D03*
X230870000Y-94250000D03*
X233410000Y-94250000D03*
X235950000Y-94250000D03*
%TD*%
%TO.C,J2*%
X208010000Y-21130000D03*
X210550000Y-21130000D03*
X213090000Y-21130000D03*
X215630000Y-21130000D03*
X218170000Y-21130000D03*
X220710000Y-21130000D03*
X223250000Y-21130000D03*
X225790000Y-21130000D03*
X228330000Y-21130000D03*
X230870000Y-21130000D03*
X233410000Y-21130000D03*
X235950000Y-21130000D03*
%TD*%
%TO.C,J2*%
X169410000Y-57690000D03*
X171950000Y-57690000D03*
X174490000Y-57690000D03*
X177030000Y-57690000D03*
X179570000Y-57690000D03*
X182110000Y-57690000D03*
X184650000Y-57690000D03*
X187190000Y-57690000D03*
X189730000Y-57690000D03*
X192270000Y-57690000D03*
X194810000Y-57690000D03*
X197350000Y-57690000D03*
%TD*%
%TO.C,J2*%
X208010000Y-130810000D03*
X210550000Y-130810000D03*
X213090000Y-130810000D03*
X215630000Y-130810000D03*
X218170000Y-130810000D03*
X220710000Y-130810000D03*
X223250000Y-130810000D03*
X225790000Y-130810000D03*
X228330000Y-130810000D03*
X230870000Y-130810000D03*
X233410000Y-130810000D03*
X235950000Y-130810000D03*
%TD*%
%TO.C,J2*%
X246610000Y-94250000D03*
X249150000Y-94250000D03*
X251690000Y-94250000D03*
X254230000Y-94250000D03*
X256770000Y-94250000D03*
X259310000Y-94250000D03*
X261850000Y-94250000D03*
X264390000Y-94250000D03*
X266930000Y-94250000D03*
X269470000Y-94250000D03*
X272010000Y-94250000D03*
X274550000Y-94250000D03*
%TD*%
%TO.C,J2*%
X246610000Y-21130000D03*
X249150000Y-21130000D03*
X251690000Y-21130000D03*
X254230000Y-21130000D03*
X256770000Y-21130000D03*
X259310000Y-21130000D03*
X261850000Y-21130000D03*
X264390000Y-21130000D03*
X266930000Y-21130000D03*
X269470000Y-21130000D03*
X272010000Y-21130000D03*
X274550000Y-21130000D03*
%TD*%
D11*
%TO.C,*%
X120785000Y-130080000D03*
%TD*%
M02*
