M48
; DRILL file {KiCad 7.0.6} date Wed Sep 13 11:56:15 2023
; FORMAT={-:-/ absolute / metric / decimal}
; #@! TF.CreationDate,2023-09-13T11:56:15-06:00
; #@! TF.GenerationSoftware,Kicad,Pcbnew,7.0.6
; #@! TF.FileFunction,MixedPlating,1,2
FMAT,2
METRIC
; #@! TA.AperFunction,Plated,PTH,ViaDrill
T1C0.300
; #@! TA.AperFunction,Plated,PTH,ViaDrill
T2C0.305
; #@! TA.AperFunction,Plated,PTH,ComponentDrill
T3C1.016
%
G90
G05
T1
X2.032Y118.824
X2.032Y117.554
X2.032Y100.544
X2.032Y99.274
X2.032Y82.264
X2.032Y80.994
X2.032Y63.984
X2.032Y62.714
X2.032Y45.704
X2.032Y44.434
X2.032Y27.424
X2.032Y26.154
X2.032Y9.144
X2.032Y7.874
X2.54Y113.998
X2.54Y95.718
X2.54Y77.438
X2.54Y59.158
X2.54Y40.878
X2.54Y22.598
X2.54Y4.318
X2.761Y115.654
X2.761Y97.374
X2.761Y79.094
X2.761Y60.814
X2.761Y42.534
X2.761Y24.254
X2.761Y5.974
X2.966Y116.411
X2.966Y98.131
X2.966Y79.851
X2.966Y61.571
X2.966Y43.291
X2.966Y25.011
X2.966Y6.731
X3.036Y114.772
X3.036Y96.492
X3.036Y78.212
X3.036Y59.932
X3.036Y41.652
X3.036Y23.372
X3.036Y5.092
X4.064Y123.523
X4.064Y105.243
X4.064Y86.963
X4.064Y68.683
X4.064Y50.403
X4.064Y32.123
X4.064Y13.843
X4.195Y120.545
X4.195Y118.57
X4.195Y102.265
X4.195Y100.29
X4.195Y83.985
X4.195Y82.01
X4.195Y65.705
X4.195Y63.73
X4.195Y47.425
X4.195Y45.45
X4.195Y29.145
X4.195Y27.17
X4.195Y10.865
X4.195Y8.89
X5.37Y113.49
X5.37Y95.21
X5.37Y76.93
X5.37Y58.65
X5.37Y40.37
X5.37Y22.09
X5.37Y3.81
X5.842Y122.634
X5.842Y104.354
X5.842Y86.074
X5.842Y67.794
X5.842Y49.514
X5.842Y31.234
X5.842Y12.954
X6.17Y120.545
X6.17Y118.57
X6.17Y102.265
X6.17Y100.29
X6.17Y83.985
X6.17Y82.01
X6.17Y65.705
X6.17Y63.73
X6.17Y47.425
X6.17Y45.45
X6.17Y29.145
X6.17Y27.17
X6.17Y10.865
X6.17Y8.89
X6.223Y113.49
X6.223Y95.21
X6.223Y76.93
X6.223Y58.65
X6.223Y40.37
X6.223Y22.09
X6.223Y3.81
X6.35Y115.366
X6.35Y97.086
X6.35Y78.806
X6.35Y60.526
X6.35Y42.246
X6.35Y23.966
X6.35Y5.686
X7.01Y113.49
X7.01Y95.21
X7.01Y76.93
X7.01Y58.65
X7.01Y40.37
X7.01Y22.09
X7.01Y3.81
X7.366Y115.34
X7.366Y97.06
X7.366Y78.78
X7.366Y60.5
X7.366Y42.22
X7.366Y23.94
X7.366Y5.66
X7.747Y122.253
X7.747Y103.973
X7.747Y85.693
X7.747Y67.413
X7.747Y49.133
X7.747Y30.853
X7.747Y12.573
X8.128Y114.204
X8.128Y95.924
X8.128Y77.644
X8.128Y59.364
X8.128Y41.084
X8.128Y22.804
X8.128Y4.524
X8.145Y120.545
X8.145Y118.57
X8.145Y102.265
X8.145Y100.29
X8.145Y83.985
X8.145Y82.01
X8.145Y65.705
X8.145Y63.73
X8.145Y47.425
X8.145Y45.45
X8.145Y29.145
X8.145Y27.17
X8.145Y10.865
X8.145Y8.89
X8.347Y113.452
X8.347Y95.172
X8.347Y76.892
X8.347Y58.612
X8.347Y40.332
X8.347Y22.052
X8.347Y3.772
X8.636Y122.834
X8.636Y104.553
X8.636Y86.273
X8.636Y67.993
X8.636Y49.713
X8.636Y31.433
X8.636Y13.153
X8.999Y113.842
X8.999Y95.562
X8.999Y77.282
X8.999Y59.002
X8.999Y40.722
X8.999Y22.442
X8.999Y4.162
X9.398Y119.586
X9.398Y101.306
X9.398Y83.026
X9.398Y64.746
X9.398Y46.466
X9.398Y28.186
X9.398Y9.906
X9.954Y118.697
X9.954Y100.417
X9.954Y82.137
X9.954Y63.857
X9.954Y45.577
X9.954Y27.297
X9.954Y9.017
X10.16Y114.326
X10.16Y96.046
X10.16Y77.766
X10.16Y59.486
X10.16Y41.206
X10.16Y22.926
X10.16Y4.646
X10.264Y120.971
X10.264Y102.691
X10.264Y84.411
X10.264Y66.131
X10.264Y47.851
X10.264Y29.571
X10.264Y11.291
X12.004Y120.16
X12.004Y101.88
X12.004Y83.6
X12.004Y65.32
X12.004Y47.04
X12.004Y28.76
X12.004Y10.48
X12.065Y116.773
X12.065Y98.493
X12.065Y80.213
X12.065Y61.933
X12.065Y43.653
X12.065Y25.373
X12.065Y7.093
X12.192Y123.215
X12.192Y113.998
X12.192Y104.934
X12.192Y95.718
X12.192Y86.654
X12.192Y77.438
X12.192Y68.374
X12.192Y59.158
X12.192Y50.094
X12.192Y40.878
X12.192Y31.814
X12.192Y22.598
X12.192Y13.534
X12.192Y4.318
X12.319Y121.618
X12.319Y103.338
X12.319Y85.058
X12.319Y66.778
X12.319Y48.498
X12.319Y30.218
X12.319Y11.938
X13.208Y124.412
X13.208Y106.132
X13.208Y87.852
X13.208Y69.572
X13.208Y51.292
X13.208Y33.012
X13.208Y14.732
X13.97Y120.602
X13.97Y102.322
X13.97Y84.042
X13.97Y65.762
X13.97Y47.482
X13.97Y29.202
X13.97Y10.922
X14.224Y113.998
X14.224Y95.718
X14.224Y77.438
X14.224Y59.158
X14.224Y40.878
X14.224Y22.598
X14.224Y4.318
X17.653Y124.412
X17.653Y106.132
X17.653Y87.852
X17.653Y69.572
X17.653Y51.292
X17.653Y33.012
X17.653Y14.732
X18.288Y121.618
X18.288Y103.338
X18.288Y85.058
X18.288Y66.778
X18.288Y48.498
X18.288Y30.218
X18.288Y11.938
X18.796Y113.488
X18.796Y95.208
X18.796Y76.928
X18.796Y58.648
X18.796Y40.368
X18.796Y22.088
X18.796Y3.808
X18.853Y114.332
X18.853Y96.052
X18.853Y77.772
X18.853Y59.492
X18.853Y41.212
X18.853Y22.932
X18.853Y4.652
X18.875Y123.269
X18.875Y104.989
X18.875Y86.709
X18.875Y68.429
X18.875Y50.149
X18.875Y31.869
X18.875Y13.589
X19.4Y118.268
X19.4Y99.988
X19.4Y81.708
X19.4Y63.428
X19.4Y45.148
X19.4Y26.868
X19.4Y8.588
X19.987Y120.856
X19.987Y102.576
X19.987Y84.296
X19.987Y66.016
X19.987Y47.736
X19.987Y29.456
X19.987Y11.176
X20.447Y112.855
X20.447Y94.575
X20.447Y76.295
X20.447Y58.015
X20.447Y39.735
X20.447Y21.455
X20.447Y3.175
X21.59Y120.094
X21.59Y101.814
X21.59Y83.534
X21.59Y65.254
X21.59Y46.974
X21.59Y28.694
X21.59Y10.414
X22.733Y113.018
X22.733Y94.738
X22.733Y76.458
X22.733Y58.178
X22.733Y39.898
X22.733Y21.618
X22.733Y3.338
X23.294Y121.618
X23.294Y103.338
X23.294Y85.058
X23.294Y66.778
X23.294Y48.498
X23.294Y30.218
X23.294Y11.938
X23.495Y123.396
X23.495Y105.116
X23.495Y86.836
X23.495Y68.556
X23.495Y50.276
X23.495Y31.996
X23.495Y13.716
X24.892Y121.491
X24.892Y103.211
X24.892Y84.931
X24.892Y66.651
X24.892Y48.371
X24.892Y30.091
X24.892Y11.811
X25.321Y114.179
X25.321Y95.899
X25.321Y77.62
X25.321Y59.339
X25.321Y41.059
X25.321Y22.779
X25.321Y4.499
X25.4Y123.777
X25.4Y105.497
X25.4Y87.217
X25.4Y68.937
X25.4Y50.657
X25.4Y32.377
X25.4Y14.097
X27.178Y113.998
X27.178Y95.718
X27.178Y77.438
X27.178Y59.158
X27.178Y40.878
X27.178Y22.598
X27.178Y4.318
X27.305Y122.634
X27.305Y104.354
X27.305Y86.074
X27.305Y67.794
X27.305Y49.514
X27.305Y31.234
X27.305Y12.954
X40.632Y118.824
X40.632Y117.554
X40.632Y100.544
X40.632Y99.274
X40.632Y82.264
X40.632Y80.994
X40.632Y63.984
X40.632Y62.714
X40.632Y45.704
X40.632Y44.434
X40.632Y27.424
X40.632Y26.154
X40.632Y9.144
X40.632Y7.874
X41.14Y113.998
X41.14Y95.718
X41.14Y77.438
X41.14Y59.158
X41.14Y40.878
X41.14Y22.598
X41.14Y4.318
X41.361Y115.654
X41.361Y97.374
X41.361Y79.094
X41.361Y60.814
X41.361Y42.534
X41.361Y24.254
X41.361Y5.974
X41.566Y116.411
X41.566Y98.131
X41.566Y79.851
X41.566Y61.571
X41.566Y43.291
X41.566Y25.011
X41.566Y6.731
X41.636Y114.772
X41.636Y96.492
X41.636Y78.212
X41.636Y59.932
X41.636Y41.652
X41.636Y23.372
X41.636Y5.092
X42.664Y123.523
X42.664Y105.243
X42.664Y86.963
X42.664Y68.683
X42.664Y50.403
X42.664Y32.123
X42.664Y13.843
X42.795Y120.545
X42.795Y118.57
X42.795Y102.265
X42.795Y100.29
X42.795Y83.985
X42.795Y82.01
X42.795Y65.705
X42.795Y63.73
X42.795Y47.425
X42.795Y45.45
X42.795Y29.145
X42.795Y27.17
X42.795Y10.865
X42.795Y8.89
X43.97Y113.49
X43.97Y95.21
X43.97Y76.93
X43.97Y58.65
X43.97Y40.37
X43.97Y22.09
X43.97Y3.81
X44.442Y122.634
X44.442Y104.354
X44.442Y86.074
X44.442Y67.794
X44.442Y49.514
X44.442Y31.234
X44.442Y12.954
X44.77Y120.545
X44.77Y118.57
X44.77Y102.265
X44.77Y100.29
X44.77Y83.985
X44.77Y82.01
X44.77Y65.705
X44.77Y63.73
X44.77Y47.425
X44.77Y45.45
X44.77Y29.145
X44.77Y27.17
X44.77Y10.865
X44.77Y8.89
X44.823Y113.49
X44.823Y95.21
X44.823Y76.93
X44.823Y58.65
X44.823Y40.37
X44.823Y22.09
X44.823Y3.81
X44.95Y115.366
X44.95Y97.086
X44.95Y78.806
X44.95Y60.526
X44.95Y42.246
X44.95Y23.966
X44.95Y5.686
X45.61Y113.49
X45.61Y95.21
X45.61Y76.93
X45.61Y58.65
X45.61Y40.37
X45.61Y22.09
X45.61Y3.81
X45.966Y115.34
X45.966Y97.06
X45.966Y78.78
X45.966Y60.5
X45.966Y42.22
X45.966Y23.94
X45.966Y5.66
X46.347Y122.253
X46.347Y103.973
X46.347Y85.693
X46.347Y67.413
X46.347Y49.133
X46.347Y30.853
X46.347Y12.573
X46.728Y114.204
X46.728Y95.924
X46.728Y77.644
X46.728Y59.364
X46.728Y41.084
X46.728Y22.804
X46.728Y4.524
X46.745Y120.545
X46.745Y118.57
X46.745Y102.265
X46.745Y100.29
X46.745Y83.985
X46.745Y82.01
X46.745Y65.705
X46.745Y63.73
X46.745Y47.425
X46.745Y45.45
X46.745Y29.145
X46.745Y27.17
X46.745Y10.865
X46.745Y8.89
X46.947Y113.452
X46.947Y95.172
X46.947Y76.892
X46.947Y58.612
X46.947Y40.332
X46.947Y22.052
X46.947Y3.772
X47.236Y122.834
X47.236Y104.553
X47.236Y86.273
X47.236Y67.993
X47.236Y49.713
X47.236Y31.433
X47.236Y13.153
X47.599Y113.842
X47.599Y95.562
X47.599Y77.282
X47.599Y59.002
X47.599Y40.722
X47.599Y22.442
X47.599Y4.162
X47.998Y119.586
X47.998Y101.306
X47.998Y83.026
X47.998Y64.746
X47.998Y46.466
X47.998Y28.186
X47.998Y9.906
X48.554Y118.697
X48.554Y100.417
X48.554Y82.137
X48.554Y63.857
X48.554Y45.577
X48.554Y27.297
X48.554Y9.017
X48.76Y114.326
X48.76Y96.046
X48.76Y77.766
X48.76Y59.486
X48.76Y41.206
X48.76Y22.926
X48.76Y4.646
X48.864Y120.971
X48.864Y102.691
X48.864Y84.411
X48.864Y66.131
X48.864Y47.851
X48.864Y29.571
X48.864Y11.291
X50.604Y120.16
X50.604Y101.88
X50.604Y83.6
X50.604Y65.32
X50.604Y47.04
X50.604Y28.76
X50.604Y10.48
X50.665Y116.773
X50.665Y98.493
X50.665Y80.213
X50.665Y61.933
X50.665Y43.653
X50.665Y25.373
X50.665Y7.093
X50.792Y123.215
X50.792Y113.998
X50.792Y104.934
X50.792Y95.718
X50.792Y86.654
X50.792Y77.438
X50.792Y68.374
X50.792Y59.158
X50.792Y50.094
X50.792Y40.878
X50.792Y31.814
X50.792Y22.598
X50.792Y13.534
X50.792Y4.318
X50.919Y121.618
X50.919Y103.338
X50.919Y85.058
X50.919Y66.778
X50.919Y48.498
X50.919Y30.218
X50.919Y11.938
X51.808Y124.412
X51.808Y106.132
X51.808Y87.852
X51.808Y69.572
X51.808Y51.292
X51.808Y33.012
X51.808Y14.732
X52.57Y120.602
X52.57Y102.322
X52.57Y84.042
X52.57Y65.762
X52.57Y47.482
X52.57Y29.202
X52.57Y10.922
X52.824Y113.998
X52.824Y95.718
X52.824Y77.438
X52.824Y59.158
X52.824Y40.878
X52.824Y22.598
X52.824Y4.318
X56.253Y124.412
X56.253Y106.132
X56.253Y87.852
X56.253Y69.572
X56.253Y51.292
X56.253Y33.012
X56.253Y14.732
X56.888Y121.618
X56.888Y103.338
X56.888Y85.058
X56.888Y66.778
X56.888Y48.498
X56.888Y30.218
X56.888Y11.938
X57.396Y113.488
X57.396Y95.208
X57.396Y76.928
X57.396Y58.648
X57.396Y40.368
X57.396Y22.088
X57.396Y3.808
X57.453Y114.332
X57.453Y96.052
X57.453Y77.772
X57.453Y59.492
X57.453Y41.212
X57.453Y22.932
X57.453Y4.652
X57.475Y123.269
X57.475Y104.989
X57.475Y86.709
X57.475Y68.429
X57.475Y50.149
X57.475Y31.869
X57.475Y13.589
X58.0Y118.268
X58.0Y99.988
X58.0Y81.708
X58.0Y63.428
X58.0Y45.148
X58.0Y26.868
X58.0Y8.588
X58.587Y120.856
X58.587Y102.576
X58.587Y84.296
X58.587Y66.016
X58.587Y47.736
X58.587Y29.456
X58.587Y11.176
X59.047Y112.855
X59.047Y94.575
X59.047Y76.295
X59.047Y58.015
X59.047Y39.735
X59.047Y21.455
X59.047Y3.175
X60.19Y120.094
X60.19Y101.814
X60.19Y83.534
X60.19Y65.254
X60.19Y46.974
X60.19Y28.694
X60.19Y10.414
X61.333Y113.018
X61.333Y94.738
X61.333Y76.458
X61.333Y58.178
X61.333Y39.898
X61.333Y21.618
X61.333Y3.338
X61.895Y121.618
X61.895Y103.338
X61.895Y85.058
X61.895Y66.778
X61.895Y48.498
X61.895Y30.218
X61.895Y11.938
X62.095Y123.396
X62.095Y105.116
X62.095Y86.836
X62.095Y68.556
X62.095Y50.276
X62.095Y31.996
X62.095Y13.716
X63.492Y121.491
X63.492Y103.211
X63.492Y84.931
X63.492Y66.651
X63.492Y48.371
X63.492Y30.091
X63.492Y11.811
X63.921Y114.179
X63.921Y95.899
X63.921Y77.62
X63.921Y59.339
X63.921Y41.059
X63.921Y22.779
X63.921Y4.499
X64.0Y123.777
X64.0Y105.497
X64.0Y87.217
X64.0Y68.937
X64.0Y50.657
X64.0Y32.377
X64.0Y14.097
X65.778Y113.998
X65.778Y95.718
X65.778Y77.438
X65.778Y59.158
X65.778Y40.878
X65.778Y22.598
X65.778Y4.318
X65.905Y122.634
X65.905Y104.354
X65.905Y86.074
X65.905Y67.794
X65.905Y49.514
X65.905Y31.234
X65.905Y12.954
X79.232Y118.824
X79.232Y117.554
X79.232Y100.544
X79.232Y99.274
X79.232Y82.264
X79.232Y80.994
X79.232Y63.984
X79.232Y62.714
X79.232Y45.704
X79.232Y44.434
X79.232Y27.424
X79.232Y26.154
X79.232Y9.144
X79.232Y7.874
X79.74Y113.998
X79.74Y95.718
X79.74Y77.438
X79.74Y59.158
X79.74Y40.878
X79.74Y22.598
X79.74Y4.318
X79.961Y115.654
X79.961Y97.374
X79.961Y79.094
X79.961Y60.814
X79.961Y42.534
X79.961Y24.254
X79.961Y5.974
X80.166Y116.411
X80.166Y98.131
X80.166Y79.851
X80.166Y61.571
X80.166Y43.291
X80.166Y25.011
X80.166Y6.731
X80.236Y114.772
X80.236Y96.492
X80.236Y78.212
X80.236Y59.932
X80.236Y41.652
X80.236Y23.372
X80.236Y5.092
X81.264Y123.523
X81.264Y105.243
X81.264Y86.963
X81.264Y68.683
X81.264Y50.403
X81.264Y32.123
X81.264Y13.843
X81.395Y120.545
X81.395Y118.57
X81.395Y102.265
X81.395Y100.29
X81.395Y83.985
X81.395Y82.01
X81.395Y65.705
X81.395Y63.73
X81.395Y47.425
X81.395Y45.45
X81.395Y29.145
X81.395Y27.17
X81.395Y10.865
X81.395Y8.89
X82.57Y113.49
X82.57Y95.21
X82.57Y76.93
X82.57Y58.65
X82.57Y40.37
X82.57Y22.09
X82.57Y3.81
X83.042Y122.634
X83.042Y104.354
X83.042Y86.074
X83.042Y67.794
X83.042Y49.514
X83.042Y31.234
X83.042Y12.954
X83.37Y120.545
X83.37Y118.57
X83.37Y102.265
X83.37Y100.29
X83.37Y83.985
X83.37Y82.01
X83.37Y65.705
X83.37Y63.73
X83.37Y47.425
X83.37Y45.45
X83.37Y29.145
X83.37Y27.17
X83.37Y10.865
X83.37Y8.89
X83.423Y113.49
X83.423Y95.21
X83.423Y76.93
X83.423Y58.65
X83.423Y40.37
X83.423Y22.09
X83.423Y3.81
X83.55Y115.366
X83.55Y97.086
X83.55Y78.806
X83.55Y60.526
X83.55Y42.246
X83.55Y23.966
X83.55Y5.686
X84.21Y113.49
X84.21Y95.21
X84.21Y76.93
X84.21Y58.65
X84.21Y40.37
X84.21Y22.09
X84.21Y3.81
X84.566Y115.34
X84.566Y97.06
X84.566Y78.78
X84.566Y60.5
X84.566Y42.22
X84.566Y23.94
X84.566Y5.66
X84.947Y122.253
X84.947Y103.973
X84.947Y85.693
X84.947Y67.413
X84.947Y49.133
X84.947Y30.853
X84.947Y12.573
X85.328Y114.204
X85.328Y95.924
X85.328Y77.644
X85.328Y59.364
X85.328Y41.084
X85.328Y22.804
X85.328Y4.524
X85.345Y120.545
X85.345Y118.57
X85.345Y102.265
X85.345Y100.29
X85.345Y83.985
X85.345Y82.01
X85.345Y65.705
X85.345Y63.73
X85.345Y47.425
X85.345Y45.45
X85.345Y29.145
X85.345Y27.17
X85.345Y10.865
X85.345Y8.89
X85.547Y113.452
X85.547Y95.172
X85.547Y76.892
X85.547Y58.612
X85.547Y40.332
X85.547Y22.052
X85.547Y3.772
X85.836Y122.834
X85.836Y104.553
X85.836Y86.273
X85.836Y67.993
X85.836Y49.713
X85.836Y31.433
X85.836Y13.153
X86.199Y113.842
X86.199Y95.562
X86.199Y77.282
X86.199Y59.002
X86.199Y40.722
X86.199Y22.442
X86.199Y4.162
X86.598Y119.586
X86.598Y101.306
X86.598Y83.026
X86.598Y64.746
X86.598Y46.466
X86.598Y28.186
X86.598Y9.906
X87.154Y118.697
X87.154Y100.417
X87.154Y82.137
X87.154Y63.857
X87.154Y45.577
X87.154Y27.297
X87.154Y9.017
X87.36Y114.326
X87.36Y96.046
X87.36Y77.766
X87.36Y59.486
X87.36Y41.206
X87.36Y22.926
X87.36Y4.646
X87.464Y120.971
X87.464Y102.691
X87.464Y84.411
X87.464Y66.131
X87.464Y47.851
X87.464Y29.571
X87.464Y11.291
X89.204Y120.16
X89.204Y101.88
X89.204Y83.6
X89.204Y65.32
X89.204Y47.04
X89.204Y28.76
X89.204Y10.48
X89.265Y116.773
X89.265Y98.493
X89.265Y80.213
X89.265Y61.933
X89.265Y43.653
X89.265Y25.373
X89.265Y7.093
X89.392Y123.215
X89.392Y113.998
X89.392Y104.934
X89.392Y95.718
X89.392Y86.654
X89.392Y77.438
X89.392Y68.374
X89.392Y59.158
X89.392Y50.094
X89.392Y40.878
X89.392Y31.814
X89.392Y22.598
X89.392Y13.534
X89.392Y4.318
X89.519Y121.618
X89.519Y103.338
X89.519Y85.058
X89.519Y66.778
X89.519Y48.498
X89.519Y30.218
X89.519Y11.938
X90.408Y124.412
X90.408Y106.132
X90.408Y87.852
X90.408Y69.572
X90.408Y51.292
X90.408Y33.012
X90.408Y14.732
X91.17Y120.602
X91.17Y102.322
X91.17Y84.042
X91.17Y65.762
X91.17Y47.482
X91.17Y29.202
X91.17Y10.922
X91.424Y113.998
X91.424Y95.718
X91.424Y77.438
X91.424Y59.158
X91.424Y40.878
X91.424Y22.598
X91.424Y4.318
X94.853Y124.412
X94.853Y106.132
X94.853Y87.852
X94.853Y69.572
X94.853Y51.292
X94.853Y33.012
X94.853Y14.732
X95.488Y121.618
X95.488Y103.338
X95.488Y85.058
X95.488Y66.778
X95.488Y48.498
X95.488Y30.218
X95.488Y11.938
X95.996Y113.488
X95.996Y95.208
X95.996Y76.928
X95.996Y58.648
X95.996Y40.368
X95.996Y22.088
X95.996Y3.808
X96.053Y114.332
X96.053Y96.052
X96.053Y77.772
X96.053Y59.492
X96.053Y41.212
X96.053Y22.932
X96.053Y4.652
X96.075Y123.269
X96.075Y104.989
X96.075Y86.709
X96.075Y68.429
X96.075Y50.149
X96.075Y31.869
X96.075Y13.589
X96.6Y118.268
X96.6Y99.988
X96.6Y81.708
X96.6Y63.428
X96.6Y45.148
X96.6Y26.868
X96.6Y8.588
X97.187Y120.856
X97.187Y102.576
X97.187Y84.296
X97.187Y66.016
X97.187Y47.736
X97.187Y29.456
X97.187Y11.176
X97.647Y112.855
X97.647Y94.575
X97.647Y76.295
X97.647Y58.015
X97.647Y39.735
X97.647Y21.455
X97.647Y3.175
X98.79Y120.094
X98.79Y101.814
X98.79Y83.534
X98.79Y65.254
X98.79Y46.974
X98.79Y28.694
X98.79Y10.414
X99.933Y113.018
X99.933Y94.738
X99.933Y76.458
X99.933Y58.178
X99.933Y39.898
X99.933Y21.618
X99.933Y3.338
X100.495Y121.618
X100.495Y103.338
X100.495Y85.058
X100.495Y66.778
X100.495Y48.498
X100.495Y30.218
X100.495Y11.938
X100.695Y123.396
X100.695Y105.116
X100.695Y86.836
X100.695Y68.556
X100.695Y50.276
X100.695Y31.996
X100.695Y13.716
X102.092Y121.491
X102.092Y103.211
X102.092Y84.931
X102.092Y66.651
X102.092Y48.371
X102.092Y30.091
X102.092Y11.811
X102.521Y114.179
X102.521Y95.899
X102.521Y77.62
X102.521Y59.339
X102.521Y41.059
X102.521Y22.779
X102.521Y4.499
X102.6Y123.777
X102.6Y105.497
X102.6Y87.217
X102.6Y68.937
X102.6Y50.657
X102.6Y32.377
X102.6Y14.097
X104.378Y113.998
X104.378Y95.718
X104.378Y77.438
X104.378Y59.158
X104.378Y40.878
X104.378Y22.598
X104.378Y4.318
X104.505Y122.634
X104.505Y104.354
X104.505Y86.074
X104.505Y67.794
X104.505Y49.514
X104.505Y31.234
X104.505Y12.954
X117.832Y118.824
X117.832Y117.554
X117.832Y100.544
X117.832Y99.274
X117.832Y82.264
X117.832Y80.994
X117.832Y63.984
X117.832Y62.714
X117.832Y45.704
X117.832Y44.434
X117.832Y27.424
X117.832Y26.154
X117.832Y9.144
X117.832Y7.874
X118.34Y113.998
X118.34Y95.718
X118.34Y77.438
X118.34Y59.158
X118.34Y40.878
X118.34Y22.598
X118.34Y4.318
X118.561Y115.654
X118.561Y97.374
X118.561Y79.094
X118.561Y60.814
X118.561Y42.534
X118.561Y24.254
X118.561Y5.974
X118.766Y116.411
X118.766Y98.131
X118.766Y79.851
X118.766Y61.571
X118.766Y43.291
X118.766Y25.011
X118.766Y6.731
X118.836Y114.772
X118.836Y96.492
X118.836Y78.212
X118.836Y59.932
X118.836Y41.652
X118.836Y23.372
X118.836Y5.092
X119.864Y123.523
X119.864Y105.243
X119.864Y86.963
X119.864Y68.683
X119.864Y50.403
X119.864Y32.123
X119.864Y13.843
X119.995Y120.545
X119.995Y118.57
X119.995Y102.265
X119.995Y100.29
X119.995Y83.985
X119.995Y82.01
X119.995Y65.705
X119.995Y63.73
X119.995Y47.425
X119.995Y45.45
X119.995Y29.145
X119.995Y27.17
X119.995Y10.865
X119.995Y8.89
X121.17Y113.49
X121.17Y95.21
X121.17Y76.93
X121.17Y58.65
X121.17Y40.37
X121.17Y22.09
X121.17Y3.81
X121.642Y122.634
X121.642Y104.354
X121.642Y86.074
X121.642Y67.794
X121.642Y49.514
X121.642Y31.234
X121.642Y12.954
X121.97Y120.545
X121.97Y118.57
X121.97Y102.265
X121.97Y100.29
X121.97Y83.985
X121.97Y82.01
X121.97Y65.705
X121.97Y63.73
X121.97Y47.425
X121.97Y45.45
X121.97Y29.145
X121.97Y27.17
X121.97Y10.865
X121.97Y8.89
X122.023Y113.49
X122.023Y95.21
X122.023Y76.93
X122.023Y58.65
X122.023Y40.37
X122.023Y22.09
X122.023Y3.81
X122.15Y115.366
X122.15Y97.086
X122.15Y78.806
X122.15Y60.526
X122.15Y42.246
X122.15Y23.966
X122.15Y5.686
X122.81Y113.49
X122.81Y95.21
X122.81Y76.93
X122.81Y58.65
X122.81Y40.37
X122.81Y22.09
X122.81Y3.81
X123.166Y115.34
X123.166Y97.06
X123.166Y78.78
X123.166Y60.5
X123.166Y42.22
X123.166Y23.94
X123.166Y5.66
X123.547Y122.253
X123.547Y103.973
X123.547Y85.693
X123.547Y67.413
X123.547Y49.133
X123.547Y30.853
X123.547Y12.573
X123.928Y114.204
X123.928Y95.924
X123.928Y77.644
X123.928Y59.364
X123.928Y41.084
X123.928Y22.804
X123.928Y4.524
X123.945Y120.545
X123.945Y118.57
X123.945Y102.265
X123.945Y100.29
X123.945Y83.985
X123.945Y82.01
X123.945Y65.705
X123.945Y63.73
X123.945Y47.425
X123.945Y45.45
X123.945Y29.145
X123.945Y27.17
X123.945Y10.865
X123.945Y8.89
X124.147Y113.452
X124.147Y95.172
X124.147Y76.892
X124.147Y58.612
X124.147Y40.332
X124.147Y22.052
X124.147Y3.772
X124.436Y122.834
X124.436Y104.553
X124.436Y86.273
X124.436Y67.993
X124.436Y49.713
X124.436Y31.433
X124.436Y13.153
X124.799Y113.842
X124.799Y95.562
X124.799Y77.282
X124.799Y59.002
X124.799Y40.722
X124.799Y22.442
X124.799Y4.162
X125.198Y119.586
X125.198Y101.306
X125.198Y83.026
X125.198Y64.746
X125.198Y46.466
X125.198Y28.186
X125.198Y9.906
X125.754Y118.697
X125.754Y100.417
X125.754Y82.137
X125.754Y63.857
X125.754Y45.577
X125.754Y27.297
X125.754Y9.017
X125.96Y114.326
X125.96Y96.046
X125.96Y77.766
X125.96Y59.486
X125.96Y41.206
X125.96Y22.926
X125.96Y4.646
X126.064Y120.971
X126.064Y102.691
X126.064Y84.411
X126.064Y66.131
X126.064Y47.851
X126.064Y29.571
X126.064Y11.291
X127.804Y120.16
X127.804Y101.88
X127.804Y83.6
X127.804Y65.32
X127.804Y47.04
X127.804Y28.76
X127.804Y10.48
X127.865Y116.773
X127.865Y98.493
X127.865Y80.213
X127.865Y61.933
X127.865Y43.653
X127.865Y25.373
X127.865Y7.093
X127.992Y123.215
X127.992Y113.998
X127.992Y104.934
X127.992Y95.718
X127.992Y86.654
X127.992Y77.438
X127.992Y68.374
X127.992Y59.158
X127.992Y50.094
X127.992Y40.878
X127.992Y31.814
X127.992Y22.598
X127.992Y13.534
X127.992Y4.318
X128.119Y121.618
X128.119Y103.338
X128.119Y85.058
X128.119Y66.778
X128.119Y48.498
X128.119Y30.218
X128.119Y11.938
X129.008Y124.412
X129.008Y106.132
X129.008Y87.852
X129.008Y69.572
X129.008Y51.292
X129.008Y33.012
X129.008Y14.732
X129.77Y120.602
X129.77Y102.322
X129.77Y84.042
X129.77Y65.762
X129.77Y47.482
X129.77Y29.202
X129.77Y10.922
X130.024Y113.998
X130.024Y95.718
X130.024Y77.438
X130.024Y59.158
X130.024Y40.878
X130.024Y22.598
X130.024Y4.318
X133.453Y124.412
X133.453Y106.132
X133.453Y87.852
X133.453Y69.572
X133.453Y51.292
X133.453Y33.012
X133.453Y14.732
X134.088Y121.618
X134.088Y103.338
X134.088Y85.058
X134.088Y66.778
X134.088Y48.498
X134.088Y30.218
X134.088Y11.938
X134.596Y113.488
X134.596Y95.208
X134.596Y76.928
X134.596Y58.648
X134.596Y40.368
X134.596Y22.088
X134.596Y3.808
X134.653Y114.332
X134.653Y96.052
X134.653Y77.772
X134.653Y59.492
X134.653Y41.212
X134.653Y22.932
X134.653Y4.652
X134.675Y123.269
X134.675Y104.989
X134.675Y86.709
X134.675Y68.429
X134.675Y50.149
X134.675Y31.869
X134.675Y13.589
X135.2Y118.268
X135.2Y99.988
X135.2Y81.708
X135.2Y63.428
X135.2Y45.148
X135.2Y26.868
X135.2Y8.588
X135.787Y120.856
X135.787Y102.576
X135.787Y84.296
X135.787Y66.016
X135.787Y47.736
X135.787Y29.456
X135.787Y11.176
X136.247Y112.855
X136.247Y94.575
X136.247Y76.295
X136.247Y58.015
X136.247Y39.735
X136.247Y21.455
X136.247Y3.175
X137.39Y120.094
X137.39Y101.814
X137.39Y83.534
X137.39Y65.254
X137.39Y46.974
X137.39Y28.694
X137.39Y10.414
X138.533Y113.018
X138.533Y94.738
X138.533Y76.458
X138.533Y58.178
X138.533Y39.898
X138.533Y21.618
X138.533Y3.338
X139.094Y121.618
X139.094Y103.338
X139.094Y85.058
X139.094Y66.778
X139.094Y48.498
X139.094Y30.218
X139.094Y11.938
X139.295Y123.396
X139.295Y105.116
X139.295Y86.836
X139.295Y68.556
X139.295Y50.276
X139.295Y31.996
X139.295Y13.716
X140.692Y121.491
X140.692Y103.211
X140.692Y84.931
X140.692Y66.651
X140.692Y48.371
X140.692Y30.091
X140.692Y11.811
X141.121Y114.179
X141.121Y95.899
X141.121Y77.62
X141.121Y59.339
X141.121Y41.059
X141.121Y22.779
X141.121Y4.499
X141.2Y123.777
X141.2Y105.497
X141.2Y87.217
X141.2Y68.937
X141.2Y50.657
X141.2Y32.377
X141.2Y14.097
X142.978Y113.998
X142.978Y95.718
X142.978Y77.438
X142.978Y59.158
X142.978Y40.878
X142.978Y22.598
X142.978Y4.318
X143.105Y122.634
X143.105Y104.354
X143.105Y86.074
X143.105Y67.794
X143.105Y49.514
X143.105Y31.234
X143.105Y12.954
T2
X11.938Y124.666
X11.938Y106.386
X11.938Y88.106
X11.938Y69.826
X11.938Y51.546
X11.938Y33.266
X11.938Y14.986
X13.97Y119.15
X13.97Y100.87
X13.97Y82.59
X13.97Y64.31
X13.97Y46.03
X13.97Y27.75
X13.97Y9.47
X15.52Y117.8
X15.52Y99.52
X15.52Y81.24
X15.52Y62.96
X15.52Y44.68
X15.52Y26.4
X15.52Y8.12
X23.876Y115.637
X23.876Y97.357
X23.876Y79.077
X23.876Y60.797
X23.876Y42.517
X23.876Y24.237
X23.876Y5.957
X26.035Y117.554
X26.035Y99.274
X26.035Y80.994
X26.035Y62.714
X26.035Y44.434
X26.035Y26.154
X26.035Y7.874
X26.13Y118.829
X26.13Y100.549
X26.13Y82.269
X26.13Y63.989
X26.13Y45.709
X26.13Y27.429
X26.13Y9.149
X26.563Y116.941
X26.563Y98.661
X26.563Y80.381
X26.563Y62.101
X26.563Y43.821
X26.563Y25.541
X26.563Y7.261
X26.924Y119.84
X26.924Y101.56
X26.924Y83.28
X26.924Y65.0
X26.924Y46.72
X26.924Y28.44
X26.924Y10.16
X28.956Y116.03
X28.956Y97.75
X28.956Y79.47
X28.956Y61.19
X28.956Y42.91
X28.956Y24.63
X28.956Y6.35
X29.315Y115.268
X29.315Y96.988
X29.315Y78.708
X29.315Y60.428
X29.315Y42.148
X29.315Y23.868
X29.315Y5.588
X50.538Y124.666
X50.538Y106.386
X50.538Y88.106
X50.538Y69.826
X50.538Y51.546
X50.538Y33.266
X50.538Y14.986
X52.57Y119.15
X52.57Y100.87
X52.57Y82.59
X52.57Y64.31
X52.57Y46.03
X52.57Y27.75
X52.57Y9.47
X54.12Y117.8
X54.12Y99.52
X54.12Y81.24
X54.12Y62.96
X54.12Y44.68
X54.12Y26.4
X54.12Y8.12
X62.476Y115.637
X62.476Y97.357
X62.476Y79.077
X62.476Y60.797
X62.476Y42.517
X62.476Y24.237
X62.476Y5.957
X64.635Y117.554
X64.635Y99.274
X64.635Y80.994
X64.635Y62.714
X64.635Y44.434
X64.635Y26.154
X64.635Y7.874
X64.73Y118.829
X64.73Y100.549
X64.73Y82.269
X64.73Y63.989
X64.73Y45.709
X64.73Y27.429
X64.73Y9.149
X65.163Y116.941
X65.163Y98.661
X65.163Y80.381
X65.163Y62.101
X65.163Y43.821
X65.163Y25.541
X65.163Y7.261
X65.524Y119.84
X65.524Y101.56
X65.524Y83.28
X65.524Y65.0
X65.524Y46.72
X65.524Y28.44
X65.524Y10.16
X67.556Y116.03
X67.556Y97.75
X67.556Y79.47
X67.556Y61.19
X67.556Y42.91
X67.556Y24.63
X67.556Y6.35
X67.915Y115.268
X67.915Y96.988
X67.915Y78.708
X67.915Y60.428
X67.915Y42.148
X67.915Y23.868
X67.915Y5.588
X89.138Y124.666
X89.138Y106.386
X89.138Y88.106
X89.138Y69.826
X89.138Y51.546
X89.138Y33.266
X89.138Y14.986
X91.17Y119.15
X91.17Y100.87
X91.17Y82.59
X91.17Y64.31
X91.17Y46.03
X91.17Y27.75
X91.17Y9.47
X92.72Y117.8
X92.72Y99.52
X92.72Y81.24
X92.72Y62.96
X92.72Y44.68
X92.72Y26.4
X92.72Y8.12
X101.076Y115.637
X101.076Y97.357
X101.076Y79.077
X101.076Y60.797
X101.076Y42.517
X101.076Y24.237
X101.076Y5.957
X103.235Y117.554
X103.235Y99.274
X103.235Y80.994
X103.235Y62.714
X103.235Y44.434
X103.235Y26.154
X103.235Y7.874
X103.33Y118.829
X103.33Y100.549
X103.33Y82.269
X103.33Y63.989
X103.33Y45.709
X103.33Y27.429
X103.33Y9.149
X103.763Y116.941
X103.763Y98.661
X103.763Y80.381
X103.763Y62.101
X103.763Y43.821
X103.763Y25.541
X103.763Y7.261
X104.124Y119.84
X104.124Y101.56
X104.124Y83.28
X104.124Y65.0
X104.124Y46.72
X104.124Y28.44
X104.124Y10.16
X106.156Y116.03
X106.156Y97.75
X106.156Y79.47
X106.156Y61.19
X106.156Y42.91
X106.156Y24.63
X106.156Y6.35
X106.515Y115.268
X106.515Y96.988
X106.515Y78.708
X106.515Y60.428
X106.515Y42.148
X106.515Y23.868
X106.515Y5.588
X127.738Y124.666
X127.738Y106.386
X127.738Y88.106
X127.738Y69.826
X127.738Y51.546
X127.738Y33.266
X127.738Y14.986
X129.77Y119.15
X129.77Y100.87
X129.77Y82.59
X129.77Y64.31
X129.77Y46.03
X129.77Y27.75
X129.77Y9.47
X131.32Y117.8
X131.32Y99.52
X131.32Y81.24
X131.32Y62.96
X131.32Y44.68
X131.32Y26.4
X131.32Y8.12
X139.676Y115.637
X139.676Y97.357
X139.676Y79.077
X139.676Y60.797
X139.676Y42.517
X139.676Y24.237
X139.676Y5.957
X141.835Y117.554
X141.835Y99.274
X141.835Y80.994
X141.835Y62.714
X141.835Y44.434
X141.835Y26.154
X141.835Y7.874
X141.93Y118.829
X141.93Y100.549
X141.93Y82.269
X141.93Y63.989
X141.93Y45.709
X141.93Y27.429
X141.93Y9.149
X142.363Y116.941
X142.363Y98.661
X142.363Y80.381
X142.363Y62.101
X142.363Y43.821
X142.363Y25.541
X142.363Y7.261
X142.724Y119.84
X142.724Y101.56
X142.724Y83.28
X142.724Y65.0
X142.724Y46.72
X142.724Y28.44
X142.724Y10.16
X144.756Y116.03
X144.756Y97.75
X144.756Y79.47
X144.756Y61.19
X144.756Y42.91
X144.756Y24.63
X144.756Y6.35
X145.115Y115.268
X145.115Y96.988
X145.115Y78.708
X145.115Y60.428
X145.115Y42.148
X145.115Y23.868
X145.115Y5.588
T3
X1.27Y126.19
X1.27Y110.95
X1.27Y107.91
X1.27Y92.67
X1.27Y89.63
X1.27Y74.39
X1.27Y71.35
X1.27Y56.11
X1.27Y53.07
X1.27Y37.83
X1.27Y34.79
X1.27Y19.55
X1.27Y16.51
X1.27Y1.27
X3.81Y126.19
X3.81Y110.95
X3.81Y107.91
X3.81Y92.67
X3.81Y89.63
X3.81Y74.39
X3.81Y71.35
X3.81Y56.11
X3.81Y53.07
X3.81Y37.83
X3.81Y34.79
X3.81Y19.55
X3.81Y16.51
X3.81Y1.27
X6.35Y126.19
X6.35Y110.95
X6.35Y107.91
X6.35Y92.67
X6.35Y89.63
X6.35Y74.39
X6.35Y71.35
X6.35Y56.11
X6.35Y53.07
X6.35Y37.83
X6.35Y34.79
X6.35Y19.55
X6.35Y16.51
X6.35Y1.27
X8.89Y126.19
X8.89Y110.95
X8.89Y107.91
X8.89Y92.67
X8.89Y89.63
X8.89Y74.39
X8.89Y71.35
X8.89Y56.11
X8.89Y53.07
X8.89Y37.83
X8.89Y34.79
X8.89Y19.55
X8.89Y16.51
X8.89Y1.27
X11.43Y126.19
X11.43Y110.95
X11.43Y107.91
X11.43Y92.67
X11.43Y89.63
X11.43Y74.39
X11.43Y71.35
X11.43Y56.11
X11.43Y53.07
X11.43Y37.83
X11.43Y34.79
X11.43Y19.55
X11.43Y16.51
X11.43Y1.27
X13.97Y126.19
X13.97Y110.95
X13.97Y107.91
X13.97Y92.67
X13.97Y89.63
X13.97Y74.39
X13.97Y71.35
X13.97Y56.11
X13.97Y53.07
X13.97Y37.83
X13.97Y34.79
X13.97Y19.55
X13.97Y16.51
X13.97Y1.27
X16.51Y126.19
X16.51Y110.95
X16.51Y107.91
X16.51Y92.67
X16.51Y89.63
X16.51Y74.39
X16.51Y71.35
X16.51Y56.11
X16.51Y53.07
X16.51Y37.83
X16.51Y34.79
X16.51Y19.55
X16.51Y16.51
X16.51Y1.27
X19.05Y126.19
X19.05Y110.95
X19.05Y107.91
X19.05Y92.67
X19.05Y89.63
X19.05Y74.39
X19.05Y71.35
X19.05Y56.11
X19.05Y53.07
X19.05Y37.83
X19.05Y34.79
X19.05Y19.55
X19.05Y16.51
X19.05Y1.27
X21.59Y126.19
X21.59Y110.95
X21.59Y107.91
X21.59Y92.67
X21.59Y89.63
X21.59Y74.39
X21.59Y71.35
X21.59Y56.11
X21.59Y53.07
X21.59Y37.83
X21.59Y34.79
X21.59Y19.55
X21.59Y16.51
X21.59Y1.27
X24.13Y126.19
X24.13Y110.95
X24.13Y107.91
X24.13Y92.67
X24.13Y89.63
X24.13Y74.39
X24.13Y71.35
X24.13Y56.11
X24.13Y53.07
X24.13Y37.83
X24.13Y34.79
X24.13Y19.55
X24.13Y16.51
X24.13Y1.27
X26.67Y126.19
X26.67Y110.95
X26.67Y107.91
X26.67Y92.67
X26.67Y89.63
X26.67Y74.39
X26.67Y71.35
X26.67Y56.11
X26.67Y53.07
X26.67Y37.83
X26.67Y34.79
X26.67Y19.55
X26.67Y16.51
X26.67Y1.27
X29.21Y126.19
X29.21Y110.95
X29.21Y107.91
X29.21Y92.67
X29.21Y89.63
X29.21Y74.39
X29.21Y71.35
X29.21Y56.11
X29.21Y53.07
X29.21Y37.83
X29.21Y34.79
X29.21Y19.55
X29.21Y16.51
X29.21Y1.27
X31.75Y124.92
X31.75Y122.38
X31.75Y119.84
X31.75Y117.3
X31.75Y114.76
X31.75Y112.22
X31.75Y106.64
X31.75Y104.1
X31.75Y101.56
X31.75Y99.02
X31.75Y96.48
X31.75Y93.94
X31.75Y88.36
X31.75Y85.82
X31.75Y83.28
X31.75Y80.74
X31.75Y78.2
X31.75Y75.66
X31.75Y70.08
X31.75Y67.54
X31.75Y65.0
X31.75Y62.46
X31.75Y59.92
X31.75Y57.38
X31.75Y51.8
X31.75Y49.26
X31.75Y46.72
X31.75Y44.18
X31.75Y41.64
X31.75Y39.1
X31.75Y33.52
X31.75Y30.98
X31.75Y28.44
X31.75Y25.9
X31.75Y23.36
X31.75Y20.82
X31.75Y15.24
X31.75Y12.7
X31.75Y10.16
X31.75Y7.62
X31.75Y5.08
X31.75Y2.54
X39.87Y126.19
X39.87Y110.95
X39.87Y107.91
X39.87Y92.67
X39.87Y89.63
X39.87Y74.39
X39.87Y71.35
X39.87Y56.11
X39.87Y53.07
X39.87Y37.83
X39.87Y34.79
X39.87Y19.55
X39.87Y16.51
X39.87Y1.27
X42.41Y126.19
X42.41Y110.95
X42.41Y107.91
X42.41Y92.67
X42.41Y89.63
X42.41Y74.39
X42.41Y71.35
X42.41Y56.11
X42.41Y53.07
X42.41Y37.83
X42.41Y34.79
X42.41Y19.55
X42.41Y16.51
X42.41Y1.27
X44.95Y126.19
X44.95Y110.95
X44.95Y107.91
X44.95Y92.67
X44.95Y89.63
X44.95Y74.39
X44.95Y71.35
X44.95Y56.11
X44.95Y53.07
X44.95Y37.83
X44.95Y34.79
X44.95Y19.55
X44.95Y16.51
X44.95Y1.27
X47.49Y126.19
X47.49Y110.95
X47.49Y107.91
X47.49Y92.67
X47.49Y89.63
X47.49Y74.39
X47.49Y71.35
X47.49Y56.11
X47.49Y53.07
X47.49Y37.83
X47.49Y34.79
X47.49Y19.55
X47.49Y16.51
X47.49Y1.27
X50.03Y126.19
X50.03Y110.95
X50.03Y107.91
X50.03Y92.67
X50.03Y89.63
X50.03Y74.39
X50.03Y71.35
X50.03Y56.11
X50.03Y53.07
X50.03Y37.83
X50.03Y34.79
X50.03Y19.55
X50.03Y16.51
X50.03Y1.27
X52.57Y126.19
X52.57Y110.95
X52.57Y107.91
X52.57Y92.67
X52.57Y89.63
X52.57Y74.39
X52.57Y71.35
X52.57Y56.11
X52.57Y53.07
X52.57Y37.83
X52.57Y34.79
X52.57Y19.55
X52.57Y16.51
X52.57Y1.27
X55.11Y126.19
X55.11Y110.95
X55.11Y107.91
X55.11Y92.67
X55.11Y89.63
X55.11Y74.39
X55.11Y71.35
X55.11Y56.11
X55.11Y53.07
X55.11Y37.83
X55.11Y34.79
X55.11Y19.55
X55.11Y16.51
X55.11Y1.27
X57.65Y126.19
X57.65Y110.95
X57.65Y107.91
X57.65Y92.67
X57.65Y89.63
X57.65Y74.39
X57.65Y71.35
X57.65Y56.11
X57.65Y53.07
X57.65Y37.83
X57.65Y34.79
X57.65Y19.55
X57.65Y16.51
X57.65Y1.27
X60.19Y126.19
X60.19Y110.95
X60.19Y107.91
X60.19Y92.67
X60.19Y89.63
X60.19Y74.39
X60.19Y71.35
X60.19Y56.11
X60.19Y53.07
X60.19Y37.83
X60.19Y34.79
X60.19Y19.55
X60.19Y16.51
X60.19Y1.27
X62.73Y126.19
X62.73Y110.95
X62.73Y107.91
X62.73Y92.67
X62.73Y89.63
X62.73Y74.39
X62.73Y71.35
X62.73Y56.11
X62.73Y53.07
X62.73Y37.83
X62.73Y34.79
X62.73Y19.55
X62.73Y16.51
X62.73Y1.27
X65.27Y126.19
X65.27Y110.95
X65.27Y107.91
X65.27Y92.67
X65.27Y89.63
X65.27Y74.39
X65.27Y71.35
X65.27Y56.11
X65.27Y53.07
X65.27Y37.83
X65.27Y34.79
X65.27Y19.55
X65.27Y16.51
X65.27Y1.27
X67.81Y126.19
X67.81Y110.95
X67.81Y107.91
X67.81Y92.67
X67.81Y89.63
X67.81Y74.39
X67.81Y71.35
X67.81Y56.11
X67.81Y53.07
X67.81Y37.83
X67.81Y34.79
X67.81Y19.55
X67.81Y16.51
X67.81Y1.27
X70.35Y124.92
X70.35Y122.38
X70.35Y119.84
X70.35Y117.3
X70.35Y114.76
X70.35Y112.22
X70.35Y106.64
X70.35Y104.1
X70.35Y101.56
X70.35Y99.02
X70.35Y96.48
X70.35Y93.94
X70.35Y88.36
X70.35Y85.82
X70.35Y83.28
X70.35Y80.74
X70.35Y78.2
X70.35Y75.66
X70.35Y70.08
X70.35Y67.54
X70.35Y65.0
X70.35Y62.46
X70.35Y59.92
X70.35Y57.38
X70.35Y51.8
X70.35Y49.26
X70.35Y46.72
X70.35Y44.18
X70.35Y41.64
X70.35Y39.1
X70.35Y33.52
X70.35Y30.98
X70.35Y28.44
X70.35Y25.9
X70.35Y23.36
X70.35Y20.82
X70.35Y15.24
X70.35Y12.7
X70.35Y10.16
X70.35Y7.62
X70.35Y5.08
X70.35Y2.54
X78.47Y126.19
X78.47Y110.95
X78.47Y107.91
X78.47Y92.67
X78.47Y89.63
X78.47Y74.39
X78.47Y71.35
X78.47Y56.11
X78.47Y53.07
X78.47Y37.83
X78.47Y34.79
X78.47Y19.55
X78.47Y16.51
X78.47Y1.27
X81.01Y126.19
X81.01Y110.95
X81.01Y107.91
X81.01Y92.67
X81.01Y89.63
X81.01Y74.39
X81.01Y71.35
X81.01Y56.11
X81.01Y53.07
X81.01Y37.83
X81.01Y34.79
X81.01Y19.55
X81.01Y16.51
X81.01Y1.27
X83.55Y126.19
X83.55Y110.95
X83.55Y107.91
X83.55Y92.67
X83.55Y89.63
X83.55Y74.39
X83.55Y71.35
X83.55Y56.11
X83.55Y53.07
X83.55Y37.83
X83.55Y34.79
X83.55Y19.55
X83.55Y16.51
X83.55Y1.27
X86.09Y126.19
X86.09Y110.95
X86.09Y107.91
X86.09Y92.67
X86.09Y89.63
X86.09Y74.39
X86.09Y71.35
X86.09Y56.11
X86.09Y53.07
X86.09Y37.83
X86.09Y34.79
X86.09Y19.55
X86.09Y16.51
X86.09Y1.27
X88.63Y126.19
X88.63Y110.95
X88.63Y107.91
X88.63Y92.67
X88.63Y89.63
X88.63Y74.39
X88.63Y71.35
X88.63Y56.11
X88.63Y53.07
X88.63Y37.83
X88.63Y34.79
X88.63Y19.55
X88.63Y16.51
X88.63Y1.27
X91.17Y126.19
X91.17Y110.95
X91.17Y107.91
X91.17Y92.67
X91.17Y89.63
X91.17Y74.39
X91.17Y71.35
X91.17Y56.11
X91.17Y53.07
X91.17Y37.83
X91.17Y34.79
X91.17Y19.55
X91.17Y16.51
X91.17Y1.27
X93.71Y126.19
X93.71Y110.95
X93.71Y107.91
X93.71Y92.67
X93.71Y89.63
X93.71Y74.39
X93.71Y71.35
X93.71Y56.11
X93.71Y53.07
X93.71Y37.83
X93.71Y34.79
X93.71Y19.55
X93.71Y16.51
X93.71Y1.27
X96.25Y126.19
X96.25Y110.95
X96.25Y107.91
X96.25Y92.67
X96.25Y89.63
X96.25Y74.39
X96.25Y71.35
X96.25Y56.11
X96.25Y53.07
X96.25Y37.83
X96.25Y34.79
X96.25Y19.55
X96.25Y16.51
X96.25Y1.27
X98.79Y126.19
X98.79Y110.95
X98.79Y107.91
X98.79Y92.67
X98.79Y89.63
X98.79Y74.39
X98.79Y71.35
X98.79Y56.11
X98.79Y53.07
X98.79Y37.83
X98.79Y34.79
X98.79Y19.55
X98.79Y16.51
X98.79Y1.27
X101.33Y126.19
X101.33Y110.95
X101.33Y107.91
X101.33Y92.67
X101.33Y89.63
X101.33Y74.39
X101.33Y71.35
X101.33Y56.11
X101.33Y53.07
X101.33Y37.83
X101.33Y34.79
X101.33Y19.55
X101.33Y16.51
X101.33Y1.27
X103.87Y126.19
X103.87Y110.95
X103.87Y107.91
X103.87Y92.67
X103.87Y89.63
X103.87Y74.39
X103.87Y71.35
X103.87Y56.11
X103.87Y53.07
X103.87Y37.83
X103.87Y34.79
X103.87Y19.55
X103.87Y16.51
X103.87Y1.27
X106.41Y126.19
X106.41Y110.95
X106.41Y107.91
X106.41Y92.67
X106.41Y89.63
X106.41Y74.39
X106.41Y71.35
X106.41Y56.11
X106.41Y53.07
X106.41Y37.83
X106.41Y34.79
X106.41Y19.55
X106.41Y16.51
X106.41Y1.27
X108.95Y124.92
X108.95Y122.38
X108.95Y119.84
X108.95Y117.3
X108.95Y114.76
X108.95Y112.22
X108.95Y106.64
X108.95Y104.1
X108.95Y101.56
X108.95Y99.02
X108.95Y96.48
X108.95Y93.94
X108.95Y88.36
X108.95Y85.82
X108.95Y83.28
X108.95Y80.74
X108.95Y78.2
X108.95Y75.66
X108.95Y70.08
X108.95Y67.54
X108.95Y65.0
X108.95Y62.46
X108.95Y59.92
X108.95Y57.38
X108.95Y51.8
X108.95Y49.26
X108.95Y46.72
X108.95Y44.18
X108.95Y41.64
X108.95Y39.1
X108.95Y33.52
X108.95Y30.98
X108.95Y28.44
X108.95Y25.9
X108.95Y23.36
X108.95Y20.82
X108.95Y15.24
X108.95Y12.7
X108.95Y10.16
X108.95Y7.62
X108.95Y5.08
X108.95Y2.54
X117.07Y126.19
X117.07Y110.95
X117.07Y107.91
X117.07Y92.67
X117.07Y89.63
X117.07Y74.39
X117.07Y71.35
X117.07Y56.11
X117.07Y53.07
X117.07Y37.83
X117.07Y34.79
X117.07Y19.55
X117.07Y16.51
X117.07Y1.27
X119.61Y126.19
X119.61Y110.95
X119.61Y107.91
X119.61Y92.67
X119.61Y89.63
X119.61Y74.39
X119.61Y71.35
X119.61Y56.11
X119.61Y53.07
X119.61Y37.83
X119.61Y34.79
X119.61Y19.55
X119.61Y16.51
X119.61Y1.27
X122.15Y126.19
X122.15Y110.95
X122.15Y107.91
X122.15Y92.67
X122.15Y89.63
X122.15Y74.39
X122.15Y71.35
X122.15Y56.11
X122.15Y53.07
X122.15Y37.83
X122.15Y34.79
X122.15Y19.55
X122.15Y16.51
X122.15Y1.27
X124.69Y126.19
X124.69Y110.95
X124.69Y107.91
X124.69Y92.67
X124.69Y89.63
X124.69Y74.39
X124.69Y71.35
X124.69Y56.11
X124.69Y53.07
X124.69Y37.83
X124.69Y34.79
X124.69Y19.55
X124.69Y16.51
X124.69Y1.27
X127.23Y126.19
X127.23Y110.95
X127.23Y107.91
X127.23Y92.67
X127.23Y89.63
X127.23Y74.39
X127.23Y71.35
X127.23Y56.11
X127.23Y53.07
X127.23Y37.83
X127.23Y34.79
X127.23Y19.55
X127.23Y16.51
X127.23Y1.27
X129.77Y126.19
X129.77Y110.95
X129.77Y107.91
X129.77Y92.67
X129.77Y89.63
X129.77Y74.39
X129.77Y71.35
X129.77Y56.11
X129.77Y53.07
X129.77Y37.83
X129.77Y34.79
X129.77Y19.55
X129.77Y16.51
X129.77Y1.27
X132.31Y126.19
X132.31Y110.95
X132.31Y107.91
X132.31Y92.67
X132.31Y89.63
X132.31Y74.39
X132.31Y71.35
X132.31Y56.11
X132.31Y53.07
X132.31Y37.83
X132.31Y34.79
X132.31Y19.55
X132.31Y16.51
X132.31Y1.27
X134.85Y126.19
X134.85Y110.95
X134.85Y107.91
X134.85Y92.67
X134.85Y89.63
X134.85Y74.39
X134.85Y71.35
X134.85Y56.11
X134.85Y53.07
X134.85Y37.83
X134.85Y34.79
X134.85Y19.55
X134.85Y16.51
X134.85Y1.27
X137.39Y126.19
X137.39Y110.95
X137.39Y107.91
X137.39Y92.67
X137.39Y89.63
X137.39Y74.39
X137.39Y71.35
X137.39Y56.11
X137.39Y53.07
X137.39Y37.83
X137.39Y34.79
X137.39Y19.55
X137.39Y16.51
X137.39Y1.27
X139.93Y126.19
X139.93Y110.95
X139.93Y107.91
X139.93Y92.67
X139.93Y89.63
X139.93Y74.39
X139.93Y71.35
X139.93Y56.11
X139.93Y53.07
X139.93Y37.83
X139.93Y34.79
X139.93Y19.55
X139.93Y16.51
X139.93Y1.27
X142.47Y126.19
X142.47Y110.95
X142.47Y107.91
X142.47Y92.67
X142.47Y89.63
X142.47Y74.39
X142.47Y71.35
X142.47Y56.11
X142.47Y53.07
X142.47Y37.83
X142.47Y34.79
X142.47Y19.55
X142.47Y16.51
X142.47Y1.27
X145.01Y126.19
X145.01Y110.95
X145.01Y107.91
X145.01Y92.67
X145.01Y89.63
X145.01Y74.39
X145.01Y71.35
X145.01Y56.11
X145.01Y53.07
X145.01Y37.83
X145.01Y34.79
X145.01Y19.55
X145.01Y16.51
X145.01Y1.27
X147.55Y124.92
X147.55Y122.38
X147.55Y119.84
X147.55Y117.3
X147.55Y114.76
X147.55Y112.22
X147.55Y106.64
X147.55Y104.1
X147.55Y101.56
X147.55Y99.02
X147.55Y96.48
X147.55Y93.94
X147.55Y88.36
X147.55Y85.82
X147.55Y83.28
X147.55Y80.74
X147.55Y78.2
X147.55Y75.66
X147.55Y70.08
X147.55Y67.54
X147.55Y65.0
X147.55Y62.46
X147.55Y59.92
X147.55Y57.38
X147.55Y51.8
X147.55Y49.26
X147.55Y46.72
X147.55Y44.18
X147.55Y41.64
X147.55Y39.1
X147.55Y33.52
X147.55Y30.98
X147.55Y28.44
X147.55Y25.9
X147.55Y23.36
X147.55Y20.82
X147.55Y15.24
X147.55Y12.7
X147.55Y10.16
X147.55Y7.62
X147.55Y5.08
X147.55Y2.54
T0
M30
