%TF.GenerationSoftware,KiCad,Pcbnew,7.0.6*%
%TF.CreationDate,2023-09-18T12:22:24-06:00*%
%TF.ProjectId,SparkFun_ESP32_Qwiic_Pro_Mini_panelized,53706172-6b46-4756-9e5f-45535033325f,rev?*%
%TF.SameCoordinates,Original*%
%TF.FileFunction,Soldermask,Bot*%
%TF.FilePolarity,Negative*%
%FSLAX46Y46*%
G04 Gerber Fmt 4.6, Leading zero omitted, Abs format (unit mm)*
G04 Created by KiCad (PCBNEW 7.0.6) date 2023-09-18 12:22:24*
%MOMM*%
%LPD*%
G01*
G04 APERTURE LIST*
%TA.AperFunction,Profile*%
%ADD10C,0.100000*%
%TD*%
%ADD11C,0.500000*%
%ADD12C,0.250000*%
G04 APERTURE END LIST*
D10*
X115800000Y127460000D02*
X148820000Y127460000D01*
X148820000Y109680000D01*
X115800000Y109680000D01*
X115800000Y127460000D01*
X115800000Y109180000D02*
X148820000Y109180000D01*
X148820000Y91400000D01*
X115800000Y91400000D01*
X115800000Y109180000D01*
X-5580000Y-500000D02*
X-5580000Y127960000D01*
X160750000Y-6850000D02*
X-11930000Y-6850000D01*
X77200000Y36060000D02*
X110220000Y36060000D01*
X110220000Y18280000D01*
X77200000Y18280000D01*
X77200000Y36060000D01*
X0Y17780000D02*
X33020000Y17780000D01*
X33020000Y0D01*
X0Y0D01*
X0Y17780000D01*
X38600000Y54340000D02*
X71620000Y54340000D01*
X71620000Y36560000D01*
X38600000Y36560000D01*
X38600000Y54340000D01*
X77200000Y90900000D02*
X110220000Y90900000D01*
X110220000Y73120000D01*
X77200000Y73120000D01*
X77200000Y90900000D01*
X-5580000Y127960000D02*
X154400000Y127960000D01*
X38600000Y72620000D02*
X71620000Y72620000D01*
X71620000Y54840000D01*
X38600000Y54840000D01*
X38600000Y72620000D01*
X0Y127460000D02*
X33020000Y127460000D01*
X33020000Y109680000D01*
X0Y109680000D01*
X0Y127460000D01*
X0Y90900000D02*
X33020000Y90900000D01*
X33020000Y73120000D01*
X0Y73120000D01*
X0Y90900000D01*
X0Y109180000D02*
X33020000Y109180000D01*
X33020000Y91400000D01*
X0Y91400000D01*
X0Y109180000D01*
X77200000Y109180000D02*
X110220000Y109180000D01*
X110220000Y91400000D01*
X77200000Y91400000D01*
X77200000Y109180000D01*
X38600000Y127460000D02*
X71620000Y127460000D01*
X71620000Y109680000D01*
X38600000Y109680000D01*
X38600000Y127460000D01*
X115800000Y72620000D02*
X148820000Y72620000D01*
X148820000Y54840000D01*
X115800000Y54840000D01*
X115800000Y72620000D01*
X115800000Y54340000D02*
X148820000Y54340000D01*
X148820000Y36560000D01*
X115800000Y36560000D01*
X115800000Y54340000D01*
X-11930000Y-6850000D02*
X-11930000Y134310000D01*
X38600000Y109180000D02*
X71620000Y109180000D01*
X71620000Y91400000D01*
X38600000Y91400000D01*
X38600000Y109180000D01*
X0Y36060000D02*
X33020000Y36060000D01*
X33020000Y18280000D01*
X0Y18280000D01*
X0Y36060000D01*
X77200000Y54340000D02*
X110220000Y54340000D01*
X110220000Y36560000D01*
X77200000Y36560000D01*
X77200000Y54340000D01*
X154400000Y127960000D02*
X154400000Y-500000D01*
X38600000Y36060000D02*
X71620000Y36060000D01*
X71620000Y18280000D01*
X38600000Y18280000D01*
X38600000Y36060000D01*
X154400000Y-500000D02*
X-5580000Y-500000D01*
X160750000Y134310000D02*
X160750000Y-6850000D01*
X115800000Y90900000D02*
X148820000Y90900000D01*
X148820000Y73120000D01*
X115800000Y73120000D01*
X115800000Y90900000D01*
X77200000Y127460000D02*
X110220000Y127460000D01*
X110220000Y109680000D01*
X77200000Y109680000D01*
X77200000Y127460000D01*
X115800000Y17780000D02*
X148820000Y17780000D01*
X148820000Y0D01*
X115800000Y0D01*
X115800000Y17780000D01*
X77200000Y72620000D02*
X110220000Y72620000D01*
X110220000Y54840000D01*
X77200000Y54840000D01*
X77200000Y72620000D01*
X38600000Y90900000D02*
X71620000Y90900000D01*
X71620000Y73120000D01*
X38600000Y73120000D01*
X38600000Y90900000D01*
X77200000Y17780000D02*
X110220000Y17780000D01*
X110220000Y0D01*
X77200000Y0D01*
X77200000Y17780000D01*
X0Y54340000D02*
X33020000Y54340000D01*
X33020000Y36560000D01*
X0Y36560000D01*
X0Y54340000D01*
X-11930000Y134310000D02*
X160750000Y134310000D01*
X38600000Y17780000D02*
X71620000Y17780000D01*
X71620000Y0D01*
X38600000Y0D01*
X38600000Y17780000D01*
X0Y72620000D02*
X33020000Y72620000D01*
X33020000Y54840000D01*
X0Y54840000D01*
X0Y72620000D01*
X115800000Y36060000D02*
X148820000Y36060000D01*
X148820000Y18280000D01*
X115800000Y18280000D01*
X115800000Y36060000D01*
D11*
X-12180000Y109430000D02*
X161000000Y109430000D01*
X-12180000Y18030000D02*
X161000000Y18030000D01*
X-12180000Y-250000D02*
X161000000Y-250000D01*
X-12180000Y54590000D02*
X161000000Y54590000D01*
X-12180000Y72870000D02*
X161000000Y72870000D01*
X-12180000Y127710000D02*
X161000000Y127710000D01*
X-12180000Y91150000D02*
X161000000Y91150000D01*
X-12180000Y36310000D02*
X161000000Y36310000D01*
D12*
X-28153997Y55677762D02*
X-27487331Y53677762D01*
X-27487331Y53677762D02*
X-26820664Y55677762D01*
X-26153997Y54439667D02*
X-24630187Y54439667D01*
X-23773045Y53773000D02*
X-23487331Y53677762D01*
X-23487331Y53677762D02*
X-23011140Y53677762D01*
X-23011140Y53677762D02*
X-22820664Y53773000D01*
X-22820664Y53773000D02*
X-22725426Y53868239D01*
X-22725426Y53868239D02*
X-22630188Y54058715D01*
X-22630188Y54058715D02*
X-22630188Y54249191D01*
X-22630188Y54249191D02*
X-22725426Y54439667D01*
X-22725426Y54439667D02*
X-22820664Y54534905D01*
X-22820664Y54534905D02*
X-23011140Y54630143D01*
X-23011140Y54630143D02*
X-23392093Y54725381D01*
X-23392093Y54725381D02*
X-23582569Y54820620D01*
X-23582569Y54820620D02*
X-23677807Y54915858D01*
X-23677807Y54915858D02*
X-23773045Y55106334D01*
X-23773045Y55106334D02*
X-23773045Y55296810D01*
X-23773045Y55296810D02*
X-23677807Y55487286D01*
X-23677807Y55487286D02*
X-23582569Y55582524D01*
X-23582569Y55582524D02*
X-23392093Y55677762D01*
X-23392093Y55677762D02*
X-22915902Y55677762D01*
X-22915902Y55677762D02*
X-22630188Y55582524D01*
X-20630188Y53868239D02*
X-20725426Y53773000D01*
X-20725426Y53773000D02*
X-21011140Y53677762D01*
X-21011140Y53677762D02*
X-21201616Y53677762D01*
X-21201616Y53677762D02*
X-21487331Y53773000D01*
X-21487331Y53773000D02*
X-21677807Y53963477D01*
X-21677807Y53963477D02*
X-21773045Y54153953D01*
X-21773045Y54153953D02*
X-21868283Y54534905D01*
X-21868283Y54534905D02*
X-21868283Y54820620D01*
X-21868283Y54820620D02*
X-21773045Y55201572D01*
X-21773045Y55201572D02*
X-21677807Y55392048D01*
X-21677807Y55392048D02*
X-21487331Y55582524D01*
X-21487331Y55582524D02*
X-21201616Y55677762D01*
X-21201616Y55677762D02*
X-21011140Y55677762D01*
X-21011140Y55677762D02*
X-20725426Y55582524D01*
X-20725426Y55582524D02*
X-20630188Y55487286D01*
X-19392093Y55677762D02*
X-19011140Y55677762D01*
X-19011140Y55677762D02*
X-18820664Y55582524D01*
X-18820664Y55582524D02*
X-18630188Y55392048D01*
X-18630188Y55392048D02*
X-18534950Y55011096D01*
X-18534950Y55011096D02*
X-18534950Y54344429D01*
X-18534950Y54344429D02*
X-18630188Y53963477D01*
X-18630188Y53963477D02*
X-18820664Y53773000D01*
X-18820664Y53773000D02*
X-19011140Y53677762D01*
X-19011140Y53677762D02*
X-19392093Y53677762D01*
X-19392093Y53677762D02*
X-19582569Y53773000D01*
X-19582569Y53773000D02*
X-19773045Y53963477D01*
X-19773045Y53963477D02*
X-19868283Y54344429D01*
X-19868283Y54344429D02*
X-19868283Y55011096D01*
X-19868283Y55011096D02*
X-19773045Y55392048D01*
X-19773045Y55392048D02*
X-19582569Y55582524D01*
X-19582569Y55582524D02*
X-19392093Y55677762D01*
X-16534950Y53677762D02*
X-17201617Y54630143D01*
X-17677807Y53677762D02*
X-17677807Y55677762D01*
X-17677807Y55677762D02*
X-16915902Y55677762D01*
X-16915902Y55677762D02*
X-16725426Y55582524D01*
X-16725426Y55582524D02*
X-16630188Y55487286D01*
X-16630188Y55487286D02*
X-16534950Y55296810D01*
X-16534950Y55296810D02*
X-16534950Y55011096D01*
X-16534950Y55011096D02*
X-16630188Y54820620D01*
X-16630188Y54820620D02*
X-16725426Y54725381D01*
X-16725426Y54725381D02*
X-16915902Y54630143D01*
X-16915902Y54630143D02*
X-17677807Y54630143D01*
X-15677807Y54725381D02*
X-15011140Y54725381D01*
X-14725426Y53677762D02*
X-15677807Y53677762D01*
X-15677807Y53677762D02*
X-15677807Y55677762D01*
X-15677807Y55677762D02*
X-14725426Y55677762D01*
X-28153997Y19117762D02*
X-27487331Y17117762D01*
X-27487331Y17117762D02*
X-26820664Y19117762D01*
X-26153997Y17879667D02*
X-24630187Y17879667D01*
X-23773045Y17213000D02*
X-23487331Y17117762D01*
X-23487331Y17117762D02*
X-23011140Y17117762D01*
X-23011140Y17117762D02*
X-22820664Y17213000D01*
X-22820664Y17213000D02*
X-22725426Y17308239D01*
X-22725426Y17308239D02*
X-22630188Y17498715D01*
X-22630188Y17498715D02*
X-22630188Y17689191D01*
X-22630188Y17689191D02*
X-22725426Y17879667D01*
X-22725426Y17879667D02*
X-22820664Y17974905D01*
X-22820664Y17974905D02*
X-23011140Y18070143D01*
X-23011140Y18070143D02*
X-23392093Y18165381D01*
X-23392093Y18165381D02*
X-23582569Y18260620D01*
X-23582569Y18260620D02*
X-23677807Y18355858D01*
X-23677807Y18355858D02*
X-23773045Y18546334D01*
X-23773045Y18546334D02*
X-23773045Y18736810D01*
X-23773045Y18736810D02*
X-23677807Y18927286D01*
X-23677807Y18927286D02*
X-23582569Y19022524D01*
X-23582569Y19022524D02*
X-23392093Y19117762D01*
X-23392093Y19117762D02*
X-22915902Y19117762D01*
X-22915902Y19117762D02*
X-22630188Y19022524D01*
X-20630188Y17308239D02*
X-20725426Y17213000D01*
X-20725426Y17213000D02*
X-21011140Y17117762D01*
X-21011140Y17117762D02*
X-21201616Y17117762D01*
X-21201616Y17117762D02*
X-21487331Y17213000D01*
X-21487331Y17213000D02*
X-21677807Y17403477D01*
X-21677807Y17403477D02*
X-21773045Y17593953D01*
X-21773045Y17593953D02*
X-21868283Y17974905D01*
X-21868283Y17974905D02*
X-21868283Y18260620D01*
X-21868283Y18260620D02*
X-21773045Y18641572D01*
X-21773045Y18641572D02*
X-21677807Y18832048D01*
X-21677807Y18832048D02*
X-21487331Y19022524D01*
X-21487331Y19022524D02*
X-21201616Y19117762D01*
X-21201616Y19117762D02*
X-21011140Y19117762D01*
X-21011140Y19117762D02*
X-20725426Y19022524D01*
X-20725426Y19022524D02*
X-20630188Y18927286D01*
X-19392093Y19117762D02*
X-19011140Y19117762D01*
X-19011140Y19117762D02*
X-18820664Y19022524D01*
X-18820664Y19022524D02*
X-18630188Y18832048D01*
X-18630188Y18832048D02*
X-18534950Y18451096D01*
X-18534950Y18451096D02*
X-18534950Y17784429D01*
X-18534950Y17784429D02*
X-18630188Y17403477D01*
X-18630188Y17403477D02*
X-18820664Y17213000D01*
X-18820664Y17213000D02*
X-19011140Y17117762D01*
X-19011140Y17117762D02*
X-19392093Y17117762D01*
X-19392093Y17117762D02*
X-19582569Y17213000D01*
X-19582569Y17213000D02*
X-19773045Y17403477D01*
X-19773045Y17403477D02*
X-19868283Y17784429D01*
X-19868283Y17784429D02*
X-19868283Y18451096D01*
X-19868283Y18451096D02*
X-19773045Y18832048D01*
X-19773045Y18832048D02*
X-19582569Y19022524D01*
X-19582569Y19022524D02*
X-19392093Y19117762D01*
X-16534950Y17117762D02*
X-17201617Y18070143D01*
X-17677807Y17117762D02*
X-17677807Y19117762D01*
X-17677807Y19117762D02*
X-16915902Y19117762D01*
X-16915902Y19117762D02*
X-16725426Y19022524D01*
X-16725426Y19022524D02*
X-16630188Y18927286D01*
X-16630188Y18927286D02*
X-16534950Y18736810D01*
X-16534950Y18736810D02*
X-16534950Y18451096D01*
X-16534950Y18451096D02*
X-16630188Y18260620D01*
X-16630188Y18260620D02*
X-16725426Y18165381D01*
X-16725426Y18165381D02*
X-16915902Y18070143D01*
X-16915902Y18070143D02*
X-17677807Y18070143D01*
X-15677807Y18165381D02*
X-15011140Y18165381D01*
X-14725426Y17117762D02*
X-15677807Y17117762D01*
X-15677807Y17117762D02*
X-15677807Y19117762D01*
X-15677807Y19117762D02*
X-14725426Y19117762D01*
X-28153997Y73957762D02*
X-27487331Y71957762D01*
X-27487331Y71957762D02*
X-26820664Y73957762D01*
X-26153997Y72719667D02*
X-24630187Y72719667D01*
X-23773045Y72053000D02*
X-23487331Y71957762D01*
X-23487331Y71957762D02*
X-23011140Y71957762D01*
X-23011140Y71957762D02*
X-22820664Y72053000D01*
X-22820664Y72053000D02*
X-22725426Y72148239D01*
X-22725426Y72148239D02*
X-22630188Y72338715D01*
X-22630188Y72338715D02*
X-22630188Y72529191D01*
X-22630188Y72529191D02*
X-22725426Y72719667D01*
X-22725426Y72719667D02*
X-22820664Y72814905D01*
X-22820664Y72814905D02*
X-23011140Y72910143D01*
X-23011140Y72910143D02*
X-23392093Y73005381D01*
X-23392093Y73005381D02*
X-23582569Y73100620D01*
X-23582569Y73100620D02*
X-23677807Y73195858D01*
X-23677807Y73195858D02*
X-23773045Y73386334D01*
X-23773045Y73386334D02*
X-23773045Y73576810D01*
X-23773045Y73576810D02*
X-23677807Y73767286D01*
X-23677807Y73767286D02*
X-23582569Y73862524D01*
X-23582569Y73862524D02*
X-23392093Y73957762D01*
X-23392093Y73957762D02*
X-22915902Y73957762D01*
X-22915902Y73957762D02*
X-22630188Y73862524D01*
X-20630188Y72148239D02*
X-20725426Y72053000D01*
X-20725426Y72053000D02*
X-21011140Y71957762D01*
X-21011140Y71957762D02*
X-21201616Y71957762D01*
X-21201616Y71957762D02*
X-21487331Y72053000D01*
X-21487331Y72053000D02*
X-21677807Y72243477D01*
X-21677807Y72243477D02*
X-21773045Y72433953D01*
X-21773045Y72433953D02*
X-21868283Y72814905D01*
X-21868283Y72814905D02*
X-21868283Y73100620D01*
X-21868283Y73100620D02*
X-21773045Y73481572D01*
X-21773045Y73481572D02*
X-21677807Y73672048D01*
X-21677807Y73672048D02*
X-21487331Y73862524D01*
X-21487331Y73862524D02*
X-21201616Y73957762D01*
X-21201616Y73957762D02*
X-21011140Y73957762D01*
X-21011140Y73957762D02*
X-20725426Y73862524D01*
X-20725426Y73862524D02*
X-20630188Y73767286D01*
X-19392093Y73957762D02*
X-19011140Y73957762D01*
X-19011140Y73957762D02*
X-18820664Y73862524D01*
X-18820664Y73862524D02*
X-18630188Y73672048D01*
X-18630188Y73672048D02*
X-18534950Y73291096D01*
X-18534950Y73291096D02*
X-18534950Y72624429D01*
X-18534950Y72624429D02*
X-18630188Y72243477D01*
X-18630188Y72243477D02*
X-18820664Y72053000D01*
X-18820664Y72053000D02*
X-19011140Y71957762D01*
X-19011140Y71957762D02*
X-19392093Y71957762D01*
X-19392093Y71957762D02*
X-19582569Y72053000D01*
X-19582569Y72053000D02*
X-19773045Y72243477D01*
X-19773045Y72243477D02*
X-19868283Y72624429D01*
X-19868283Y72624429D02*
X-19868283Y73291096D01*
X-19868283Y73291096D02*
X-19773045Y73672048D01*
X-19773045Y73672048D02*
X-19582569Y73862524D01*
X-19582569Y73862524D02*
X-19392093Y73957762D01*
X-16534950Y71957762D02*
X-17201617Y72910143D01*
X-17677807Y71957762D02*
X-17677807Y73957762D01*
X-17677807Y73957762D02*
X-16915902Y73957762D01*
X-16915902Y73957762D02*
X-16725426Y73862524D01*
X-16725426Y73862524D02*
X-16630188Y73767286D01*
X-16630188Y73767286D02*
X-16534950Y73576810D01*
X-16534950Y73576810D02*
X-16534950Y73291096D01*
X-16534950Y73291096D02*
X-16630188Y73100620D01*
X-16630188Y73100620D02*
X-16725426Y73005381D01*
X-16725426Y73005381D02*
X-16915902Y72910143D01*
X-16915902Y72910143D02*
X-17677807Y72910143D01*
X-15677807Y73005381D02*
X-15011140Y73005381D01*
X-14725426Y71957762D02*
X-15677807Y71957762D01*
X-15677807Y71957762D02*
X-15677807Y73957762D01*
X-15677807Y73957762D02*
X-14725426Y73957762D01*
X-28153997Y92237762D02*
X-27487331Y90237762D01*
X-27487331Y90237762D02*
X-26820664Y92237762D01*
X-26153997Y90999667D02*
X-24630187Y90999667D01*
X-23773045Y90333000D02*
X-23487331Y90237762D01*
X-23487331Y90237762D02*
X-23011140Y90237762D01*
X-23011140Y90237762D02*
X-22820664Y90333000D01*
X-22820664Y90333000D02*
X-22725426Y90428239D01*
X-22725426Y90428239D02*
X-22630188Y90618715D01*
X-22630188Y90618715D02*
X-22630188Y90809191D01*
X-22630188Y90809191D02*
X-22725426Y90999667D01*
X-22725426Y90999667D02*
X-22820664Y91094905D01*
X-22820664Y91094905D02*
X-23011140Y91190143D01*
X-23011140Y91190143D02*
X-23392093Y91285381D01*
X-23392093Y91285381D02*
X-23582569Y91380620D01*
X-23582569Y91380620D02*
X-23677807Y91475858D01*
X-23677807Y91475858D02*
X-23773045Y91666334D01*
X-23773045Y91666334D02*
X-23773045Y91856810D01*
X-23773045Y91856810D02*
X-23677807Y92047286D01*
X-23677807Y92047286D02*
X-23582569Y92142524D01*
X-23582569Y92142524D02*
X-23392093Y92237762D01*
X-23392093Y92237762D02*
X-22915902Y92237762D01*
X-22915902Y92237762D02*
X-22630188Y92142524D01*
X-20630188Y90428239D02*
X-20725426Y90333000D01*
X-20725426Y90333000D02*
X-21011140Y90237762D01*
X-21011140Y90237762D02*
X-21201616Y90237762D01*
X-21201616Y90237762D02*
X-21487331Y90333000D01*
X-21487331Y90333000D02*
X-21677807Y90523477D01*
X-21677807Y90523477D02*
X-21773045Y90713953D01*
X-21773045Y90713953D02*
X-21868283Y91094905D01*
X-21868283Y91094905D02*
X-21868283Y91380620D01*
X-21868283Y91380620D02*
X-21773045Y91761572D01*
X-21773045Y91761572D02*
X-21677807Y91952048D01*
X-21677807Y91952048D02*
X-21487331Y92142524D01*
X-21487331Y92142524D02*
X-21201616Y92237762D01*
X-21201616Y92237762D02*
X-21011140Y92237762D01*
X-21011140Y92237762D02*
X-20725426Y92142524D01*
X-20725426Y92142524D02*
X-20630188Y92047286D01*
X-19392093Y92237762D02*
X-19011140Y92237762D01*
X-19011140Y92237762D02*
X-18820664Y92142524D01*
X-18820664Y92142524D02*
X-18630188Y91952048D01*
X-18630188Y91952048D02*
X-18534950Y91571096D01*
X-18534950Y91571096D02*
X-18534950Y90904429D01*
X-18534950Y90904429D02*
X-18630188Y90523477D01*
X-18630188Y90523477D02*
X-18820664Y90333000D01*
X-18820664Y90333000D02*
X-19011140Y90237762D01*
X-19011140Y90237762D02*
X-19392093Y90237762D01*
X-19392093Y90237762D02*
X-19582569Y90333000D01*
X-19582569Y90333000D02*
X-19773045Y90523477D01*
X-19773045Y90523477D02*
X-19868283Y90904429D01*
X-19868283Y90904429D02*
X-19868283Y91571096D01*
X-19868283Y91571096D02*
X-19773045Y91952048D01*
X-19773045Y91952048D02*
X-19582569Y92142524D01*
X-19582569Y92142524D02*
X-19392093Y92237762D01*
X-16534950Y90237762D02*
X-17201617Y91190143D01*
X-17677807Y90237762D02*
X-17677807Y92237762D01*
X-17677807Y92237762D02*
X-16915902Y92237762D01*
X-16915902Y92237762D02*
X-16725426Y92142524D01*
X-16725426Y92142524D02*
X-16630188Y92047286D01*
X-16630188Y92047286D02*
X-16534950Y91856810D01*
X-16534950Y91856810D02*
X-16534950Y91571096D01*
X-16534950Y91571096D02*
X-16630188Y91380620D01*
X-16630188Y91380620D02*
X-16725426Y91285381D01*
X-16725426Y91285381D02*
X-16915902Y91190143D01*
X-16915902Y91190143D02*
X-17677807Y91190143D01*
X-15677807Y91285381D02*
X-15011140Y91285381D01*
X-14725426Y90237762D02*
X-15677807Y90237762D01*
X-15677807Y90237762D02*
X-15677807Y92237762D01*
X-15677807Y92237762D02*
X-14725426Y92237762D01*
X113922238Y56968095D02*
X112969857Y56301428D01*
X113922238Y55825238D02*
X111922238Y55825238D01*
X111922238Y55825238D02*
X111922238Y56587143D01*
X111922238Y56587143D02*
X112017476Y56777619D01*
X112017476Y56777619D02*
X112112714Y56872857D01*
X112112714Y56872857D02*
X112303190Y56968095D01*
X112303190Y56968095D02*
X112588904Y56968095D01*
X112588904Y56968095D02*
X112779380Y56872857D01*
X112779380Y56872857D02*
X112874619Y56777619D01*
X112874619Y56777619D02*
X112969857Y56587143D01*
X112969857Y56587143D02*
X112969857Y55825238D01*
X111922238Y58206190D02*
X111922238Y58587143D01*
X111922238Y58587143D02*
X112017476Y58777619D01*
X112017476Y58777619D02*
X112207952Y58968095D01*
X112207952Y58968095D02*
X112588904Y59063333D01*
X112588904Y59063333D02*
X113255571Y59063333D01*
X113255571Y59063333D02*
X113636523Y58968095D01*
X113636523Y58968095D02*
X113827000Y58777619D01*
X113827000Y58777619D02*
X113922238Y58587143D01*
X113922238Y58587143D02*
X113922238Y58206190D01*
X113922238Y58206190D02*
X113827000Y58015714D01*
X113827000Y58015714D02*
X113636523Y57825238D01*
X113636523Y57825238D02*
X113255571Y57730000D01*
X113255571Y57730000D02*
X112588904Y57730000D01*
X112588904Y57730000D02*
X112207952Y57825238D01*
X112207952Y57825238D02*
X112017476Y58015714D01*
X112017476Y58015714D02*
X111922238Y58206190D01*
X111922238Y59920476D02*
X113541285Y59920476D01*
X113541285Y59920476D02*
X113731761Y60015714D01*
X113731761Y60015714D02*
X113827000Y60110952D01*
X113827000Y60110952D02*
X113922238Y60301428D01*
X113922238Y60301428D02*
X113922238Y60682381D01*
X113922238Y60682381D02*
X113827000Y60872857D01*
X113827000Y60872857D02*
X113731761Y60968095D01*
X113731761Y60968095D02*
X113541285Y61063333D01*
X113541285Y61063333D02*
X111922238Y61063333D01*
X111922238Y61730000D02*
X111922238Y62872857D01*
X113922238Y62301428D02*
X111922238Y62301428D01*
X112874619Y63539524D02*
X112874619Y64206191D01*
X113922238Y64491905D02*
X113922238Y63539524D01*
X113922238Y63539524D02*
X111922238Y63539524D01*
X111922238Y63539524D02*
X111922238Y64491905D01*
X111922238Y67253810D02*
X111922238Y67634763D01*
X111922238Y67634763D02*
X112017476Y67825239D01*
X112017476Y67825239D02*
X112207952Y68015715D01*
X112207952Y68015715D02*
X112588904Y68110953D01*
X112588904Y68110953D02*
X113255571Y68110953D01*
X113255571Y68110953D02*
X113636523Y68015715D01*
X113636523Y68015715D02*
X113827000Y67825239D01*
X113827000Y67825239D02*
X113922238Y67634763D01*
X113922238Y67634763D02*
X113922238Y67253810D01*
X113922238Y67253810D02*
X113827000Y67063334D01*
X113827000Y67063334D02*
X113636523Y66872858D01*
X113636523Y66872858D02*
X113255571Y66777620D01*
X113255571Y66777620D02*
X112588904Y66777620D01*
X112588904Y66777620D02*
X112207952Y66872858D01*
X112207952Y66872858D02*
X112017476Y67063334D01*
X112017476Y67063334D02*
X111922238Y67253810D01*
X111922238Y68968096D02*
X113541285Y68968096D01*
X113541285Y68968096D02*
X113731761Y69063334D01*
X113731761Y69063334D02*
X113827000Y69158572D01*
X113827000Y69158572D02*
X113922238Y69349048D01*
X113922238Y69349048D02*
X113922238Y69730001D01*
X113922238Y69730001D02*
X113827000Y69920477D01*
X113827000Y69920477D02*
X113731761Y70015715D01*
X113731761Y70015715D02*
X113541285Y70110953D01*
X113541285Y70110953D02*
X111922238Y70110953D01*
X111922238Y70777620D02*
X111922238Y71920477D01*
X113922238Y71349048D02*
X111922238Y71349048D01*
X-28153997Y37397762D02*
X-27487331Y35397762D01*
X-27487331Y35397762D02*
X-26820664Y37397762D01*
X-26153997Y36159667D02*
X-24630187Y36159667D01*
X-23773045Y35493000D02*
X-23487331Y35397762D01*
X-23487331Y35397762D02*
X-23011140Y35397762D01*
X-23011140Y35397762D02*
X-22820664Y35493000D01*
X-22820664Y35493000D02*
X-22725426Y35588239D01*
X-22725426Y35588239D02*
X-22630188Y35778715D01*
X-22630188Y35778715D02*
X-22630188Y35969191D01*
X-22630188Y35969191D02*
X-22725426Y36159667D01*
X-22725426Y36159667D02*
X-22820664Y36254905D01*
X-22820664Y36254905D02*
X-23011140Y36350143D01*
X-23011140Y36350143D02*
X-23392093Y36445381D01*
X-23392093Y36445381D02*
X-23582569Y36540620D01*
X-23582569Y36540620D02*
X-23677807Y36635858D01*
X-23677807Y36635858D02*
X-23773045Y36826334D01*
X-23773045Y36826334D02*
X-23773045Y37016810D01*
X-23773045Y37016810D02*
X-23677807Y37207286D01*
X-23677807Y37207286D02*
X-23582569Y37302524D01*
X-23582569Y37302524D02*
X-23392093Y37397762D01*
X-23392093Y37397762D02*
X-22915902Y37397762D01*
X-22915902Y37397762D02*
X-22630188Y37302524D01*
X-20630188Y35588239D02*
X-20725426Y35493000D01*
X-20725426Y35493000D02*
X-21011140Y35397762D01*
X-21011140Y35397762D02*
X-21201616Y35397762D01*
X-21201616Y35397762D02*
X-21487331Y35493000D01*
X-21487331Y35493000D02*
X-21677807Y35683477D01*
X-21677807Y35683477D02*
X-21773045Y35873953D01*
X-21773045Y35873953D02*
X-21868283Y36254905D01*
X-21868283Y36254905D02*
X-21868283Y36540620D01*
X-21868283Y36540620D02*
X-21773045Y36921572D01*
X-21773045Y36921572D02*
X-21677807Y37112048D01*
X-21677807Y37112048D02*
X-21487331Y37302524D01*
X-21487331Y37302524D02*
X-21201616Y37397762D01*
X-21201616Y37397762D02*
X-21011140Y37397762D01*
X-21011140Y37397762D02*
X-20725426Y37302524D01*
X-20725426Y37302524D02*
X-20630188Y37207286D01*
X-19392093Y37397762D02*
X-19011140Y37397762D01*
X-19011140Y37397762D02*
X-18820664Y37302524D01*
X-18820664Y37302524D02*
X-18630188Y37112048D01*
X-18630188Y37112048D02*
X-18534950Y36731096D01*
X-18534950Y36731096D02*
X-18534950Y36064429D01*
X-18534950Y36064429D02*
X-18630188Y35683477D01*
X-18630188Y35683477D02*
X-18820664Y35493000D01*
X-18820664Y35493000D02*
X-19011140Y35397762D01*
X-19011140Y35397762D02*
X-19392093Y35397762D01*
X-19392093Y35397762D02*
X-19582569Y35493000D01*
X-19582569Y35493000D02*
X-19773045Y35683477D01*
X-19773045Y35683477D02*
X-19868283Y36064429D01*
X-19868283Y36064429D02*
X-19868283Y36731096D01*
X-19868283Y36731096D02*
X-19773045Y37112048D01*
X-19773045Y37112048D02*
X-19582569Y37302524D01*
X-19582569Y37302524D02*
X-19392093Y37397762D01*
X-16534950Y35397762D02*
X-17201617Y36350143D01*
X-17677807Y35397762D02*
X-17677807Y37397762D01*
X-17677807Y37397762D02*
X-16915902Y37397762D01*
X-16915902Y37397762D02*
X-16725426Y37302524D01*
X-16725426Y37302524D02*
X-16630188Y37207286D01*
X-16630188Y37207286D02*
X-16534950Y37016810D01*
X-16534950Y37016810D02*
X-16534950Y36731096D01*
X-16534950Y36731096D02*
X-16630188Y36540620D01*
X-16630188Y36540620D02*
X-16725426Y36445381D01*
X-16725426Y36445381D02*
X-16915902Y36350143D01*
X-16915902Y36350143D02*
X-17677807Y36350143D01*
X-15677807Y36445381D02*
X-15011140Y36445381D01*
X-14725426Y35397762D02*
X-15677807Y35397762D01*
X-15677807Y35397762D02*
X-15677807Y37397762D01*
X-15677807Y37397762D02*
X-14725426Y37397762D01*
X152522238Y56968095D02*
X151569857Y56301428D01*
X152522238Y55825238D02*
X150522238Y55825238D01*
X150522238Y55825238D02*
X150522238Y56587143D01*
X150522238Y56587143D02*
X150617476Y56777619D01*
X150617476Y56777619D02*
X150712714Y56872857D01*
X150712714Y56872857D02*
X150903190Y56968095D01*
X150903190Y56968095D02*
X151188904Y56968095D01*
X151188904Y56968095D02*
X151379380Y56872857D01*
X151379380Y56872857D02*
X151474619Y56777619D01*
X151474619Y56777619D02*
X151569857Y56587143D01*
X151569857Y56587143D02*
X151569857Y55825238D01*
X150522238Y58206190D02*
X150522238Y58587143D01*
X150522238Y58587143D02*
X150617476Y58777619D01*
X150617476Y58777619D02*
X150807952Y58968095D01*
X150807952Y58968095D02*
X151188904Y59063333D01*
X151188904Y59063333D02*
X151855571Y59063333D01*
X151855571Y59063333D02*
X152236523Y58968095D01*
X152236523Y58968095D02*
X152427000Y58777619D01*
X152427000Y58777619D02*
X152522238Y58587143D01*
X152522238Y58587143D02*
X152522238Y58206190D01*
X152522238Y58206190D02*
X152427000Y58015714D01*
X152427000Y58015714D02*
X152236523Y57825238D01*
X152236523Y57825238D02*
X151855571Y57730000D01*
X151855571Y57730000D02*
X151188904Y57730000D01*
X151188904Y57730000D02*
X150807952Y57825238D01*
X150807952Y57825238D02*
X150617476Y58015714D01*
X150617476Y58015714D02*
X150522238Y58206190D01*
X150522238Y59920476D02*
X152141285Y59920476D01*
X152141285Y59920476D02*
X152331761Y60015714D01*
X152331761Y60015714D02*
X152427000Y60110952D01*
X152427000Y60110952D02*
X152522238Y60301428D01*
X152522238Y60301428D02*
X152522238Y60682381D01*
X152522238Y60682381D02*
X152427000Y60872857D01*
X152427000Y60872857D02*
X152331761Y60968095D01*
X152331761Y60968095D02*
X152141285Y61063333D01*
X152141285Y61063333D02*
X150522238Y61063333D01*
X150522238Y61730000D02*
X150522238Y62872857D01*
X152522238Y62301428D02*
X150522238Y62301428D01*
X151474619Y63539524D02*
X151474619Y64206191D01*
X152522238Y64491905D02*
X152522238Y63539524D01*
X152522238Y63539524D02*
X150522238Y63539524D01*
X150522238Y63539524D02*
X150522238Y64491905D01*
X150522238Y67253810D02*
X150522238Y67634763D01*
X150522238Y67634763D02*
X150617476Y67825239D01*
X150617476Y67825239D02*
X150807952Y68015715D01*
X150807952Y68015715D02*
X151188904Y68110953D01*
X151188904Y68110953D02*
X151855571Y68110953D01*
X151855571Y68110953D02*
X152236523Y68015715D01*
X152236523Y68015715D02*
X152427000Y67825239D01*
X152427000Y67825239D02*
X152522238Y67634763D01*
X152522238Y67634763D02*
X152522238Y67253810D01*
X152522238Y67253810D02*
X152427000Y67063334D01*
X152427000Y67063334D02*
X152236523Y66872858D01*
X152236523Y66872858D02*
X151855571Y66777620D01*
X151855571Y66777620D02*
X151188904Y66777620D01*
X151188904Y66777620D02*
X150807952Y66872858D01*
X150807952Y66872858D02*
X150617476Y67063334D01*
X150617476Y67063334D02*
X150522238Y67253810D01*
X150522238Y68968096D02*
X152141285Y68968096D01*
X152141285Y68968096D02*
X152331761Y69063334D01*
X152331761Y69063334D02*
X152427000Y69158572D01*
X152427000Y69158572D02*
X152522238Y69349048D01*
X152522238Y69349048D02*
X152522238Y69730001D01*
X152522238Y69730001D02*
X152427000Y69920477D01*
X152427000Y69920477D02*
X152331761Y70015715D01*
X152331761Y70015715D02*
X152141285Y70110953D01*
X152141285Y70110953D02*
X150522238Y70110953D01*
X150522238Y70777620D02*
X150522238Y71920477D01*
X152522238Y71349048D02*
X150522238Y71349048D01*
X-28153997Y837762D02*
X-27487331Y-1162238D01*
X-27487331Y-1162238D02*
X-26820664Y837762D01*
X-26153997Y-400333D02*
X-24630187Y-400333D01*
X-23773045Y-1067000D02*
X-23487331Y-1162238D01*
X-23487331Y-1162238D02*
X-23011140Y-1162238D01*
X-23011140Y-1162238D02*
X-22820664Y-1067000D01*
X-22820664Y-1067000D02*
X-22725426Y-971761D01*
X-22725426Y-971761D02*
X-22630188Y-781285D01*
X-22630188Y-781285D02*
X-22630188Y-590809D01*
X-22630188Y-590809D02*
X-22725426Y-400333D01*
X-22725426Y-400333D02*
X-22820664Y-305095D01*
X-22820664Y-305095D02*
X-23011140Y-209857D01*
X-23011140Y-209857D02*
X-23392093Y-114619D01*
X-23392093Y-114619D02*
X-23582569Y-19380D01*
X-23582569Y-19380D02*
X-23677807Y75858D01*
X-23677807Y75858D02*
X-23773045Y266334D01*
X-23773045Y266334D02*
X-23773045Y456810D01*
X-23773045Y456810D02*
X-23677807Y647286D01*
X-23677807Y647286D02*
X-23582569Y742524D01*
X-23582569Y742524D02*
X-23392093Y837762D01*
X-23392093Y837762D02*
X-22915902Y837762D01*
X-22915902Y837762D02*
X-22630188Y742524D01*
X-20630188Y-971761D02*
X-20725426Y-1067000D01*
X-20725426Y-1067000D02*
X-21011140Y-1162238D01*
X-21011140Y-1162238D02*
X-21201616Y-1162238D01*
X-21201616Y-1162238D02*
X-21487331Y-1067000D01*
X-21487331Y-1067000D02*
X-21677807Y-876523D01*
X-21677807Y-876523D02*
X-21773045Y-686047D01*
X-21773045Y-686047D02*
X-21868283Y-305095D01*
X-21868283Y-305095D02*
X-21868283Y-19380D01*
X-21868283Y-19380D02*
X-21773045Y361572D01*
X-21773045Y361572D02*
X-21677807Y552048D01*
X-21677807Y552048D02*
X-21487331Y742524D01*
X-21487331Y742524D02*
X-21201616Y837762D01*
X-21201616Y837762D02*
X-21011140Y837762D01*
X-21011140Y837762D02*
X-20725426Y742524D01*
X-20725426Y742524D02*
X-20630188Y647286D01*
X-19392093Y837762D02*
X-19011140Y837762D01*
X-19011140Y837762D02*
X-18820664Y742524D01*
X-18820664Y742524D02*
X-18630188Y552048D01*
X-18630188Y552048D02*
X-18534950Y171096D01*
X-18534950Y171096D02*
X-18534950Y-495571D01*
X-18534950Y-495571D02*
X-18630188Y-876523D01*
X-18630188Y-876523D02*
X-18820664Y-1067000D01*
X-18820664Y-1067000D02*
X-19011140Y-1162238D01*
X-19011140Y-1162238D02*
X-19392093Y-1162238D01*
X-19392093Y-1162238D02*
X-19582569Y-1067000D01*
X-19582569Y-1067000D02*
X-19773045Y-876523D01*
X-19773045Y-876523D02*
X-19868283Y-495571D01*
X-19868283Y-495571D02*
X-19868283Y171096D01*
X-19868283Y171096D02*
X-19773045Y552048D01*
X-19773045Y552048D02*
X-19582569Y742524D01*
X-19582569Y742524D02*
X-19392093Y837762D01*
X-16534950Y-1162238D02*
X-17201617Y-209857D01*
X-17677807Y-1162238D02*
X-17677807Y837762D01*
X-17677807Y837762D02*
X-16915902Y837762D01*
X-16915902Y837762D02*
X-16725426Y742524D01*
X-16725426Y742524D02*
X-16630188Y647286D01*
X-16630188Y647286D02*
X-16534950Y456810D01*
X-16534950Y456810D02*
X-16534950Y171096D01*
X-16534950Y171096D02*
X-16630188Y-19380D01*
X-16630188Y-19380D02*
X-16725426Y-114619D01*
X-16725426Y-114619D02*
X-16915902Y-209857D01*
X-16915902Y-209857D02*
X-17677807Y-209857D01*
X-15677807Y-114619D02*
X-15011140Y-114619D01*
X-14725426Y-1162238D02*
X-15677807Y-1162238D01*
X-15677807Y-1162238D02*
X-15677807Y837762D01*
X-15677807Y837762D02*
X-14725426Y837762D01*
X-28153997Y128797762D02*
X-27487331Y126797762D01*
X-27487331Y126797762D02*
X-26820664Y128797762D01*
X-26153997Y127559667D02*
X-24630187Y127559667D01*
X-23773045Y126893000D02*
X-23487331Y126797762D01*
X-23487331Y126797762D02*
X-23011140Y126797762D01*
X-23011140Y126797762D02*
X-22820664Y126893000D01*
X-22820664Y126893000D02*
X-22725426Y126988239D01*
X-22725426Y126988239D02*
X-22630188Y127178715D01*
X-22630188Y127178715D02*
X-22630188Y127369191D01*
X-22630188Y127369191D02*
X-22725426Y127559667D01*
X-22725426Y127559667D02*
X-22820664Y127654905D01*
X-22820664Y127654905D02*
X-23011140Y127750143D01*
X-23011140Y127750143D02*
X-23392093Y127845381D01*
X-23392093Y127845381D02*
X-23582569Y127940620D01*
X-23582569Y127940620D02*
X-23677807Y128035858D01*
X-23677807Y128035858D02*
X-23773045Y128226334D01*
X-23773045Y128226334D02*
X-23773045Y128416810D01*
X-23773045Y128416810D02*
X-23677807Y128607286D01*
X-23677807Y128607286D02*
X-23582569Y128702524D01*
X-23582569Y128702524D02*
X-23392093Y128797762D01*
X-23392093Y128797762D02*
X-22915902Y128797762D01*
X-22915902Y128797762D02*
X-22630188Y128702524D01*
X-20630188Y126988239D02*
X-20725426Y126893000D01*
X-20725426Y126893000D02*
X-21011140Y126797762D01*
X-21011140Y126797762D02*
X-21201616Y126797762D01*
X-21201616Y126797762D02*
X-21487331Y126893000D01*
X-21487331Y126893000D02*
X-21677807Y127083477D01*
X-21677807Y127083477D02*
X-21773045Y127273953D01*
X-21773045Y127273953D02*
X-21868283Y127654905D01*
X-21868283Y127654905D02*
X-21868283Y127940620D01*
X-21868283Y127940620D02*
X-21773045Y128321572D01*
X-21773045Y128321572D02*
X-21677807Y128512048D01*
X-21677807Y128512048D02*
X-21487331Y128702524D01*
X-21487331Y128702524D02*
X-21201616Y128797762D01*
X-21201616Y128797762D02*
X-21011140Y128797762D01*
X-21011140Y128797762D02*
X-20725426Y128702524D01*
X-20725426Y128702524D02*
X-20630188Y128607286D01*
X-19392093Y128797762D02*
X-19011140Y128797762D01*
X-19011140Y128797762D02*
X-18820664Y128702524D01*
X-18820664Y128702524D02*
X-18630188Y128512048D01*
X-18630188Y128512048D02*
X-18534950Y128131096D01*
X-18534950Y128131096D02*
X-18534950Y127464429D01*
X-18534950Y127464429D02*
X-18630188Y127083477D01*
X-18630188Y127083477D02*
X-18820664Y126893000D01*
X-18820664Y126893000D02*
X-19011140Y126797762D01*
X-19011140Y126797762D02*
X-19392093Y126797762D01*
X-19392093Y126797762D02*
X-19582569Y126893000D01*
X-19582569Y126893000D02*
X-19773045Y127083477D01*
X-19773045Y127083477D02*
X-19868283Y127464429D01*
X-19868283Y127464429D02*
X-19868283Y128131096D01*
X-19868283Y128131096D02*
X-19773045Y128512048D01*
X-19773045Y128512048D02*
X-19582569Y128702524D01*
X-19582569Y128702524D02*
X-19392093Y128797762D01*
X-16534950Y126797762D02*
X-17201617Y127750143D01*
X-17677807Y126797762D02*
X-17677807Y128797762D01*
X-17677807Y128797762D02*
X-16915902Y128797762D01*
X-16915902Y128797762D02*
X-16725426Y128702524D01*
X-16725426Y128702524D02*
X-16630188Y128607286D01*
X-16630188Y128607286D02*
X-16534950Y128416810D01*
X-16534950Y128416810D02*
X-16534950Y128131096D01*
X-16534950Y128131096D02*
X-16630188Y127940620D01*
X-16630188Y127940620D02*
X-16725426Y127845381D01*
X-16725426Y127845381D02*
X-16915902Y127750143D01*
X-16915902Y127750143D02*
X-17677807Y127750143D01*
X-15677807Y127845381D02*
X-15011140Y127845381D01*
X-14725426Y126797762D02*
X-15677807Y126797762D01*
X-15677807Y126797762D02*
X-15677807Y128797762D01*
X-15677807Y128797762D02*
X-14725426Y128797762D01*
X75322238Y56968095D02*
X74369857Y56301428D01*
X75322238Y55825238D02*
X73322238Y55825238D01*
X73322238Y55825238D02*
X73322238Y56587143D01*
X73322238Y56587143D02*
X73417476Y56777619D01*
X73417476Y56777619D02*
X73512714Y56872857D01*
X73512714Y56872857D02*
X73703190Y56968095D01*
X73703190Y56968095D02*
X73988904Y56968095D01*
X73988904Y56968095D02*
X74179380Y56872857D01*
X74179380Y56872857D02*
X74274619Y56777619D01*
X74274619Y56777619D02*
X74369857Y56587143D01*
X74369857Y56587143D02*
X74369857Y55825238D01*
X73322238Y58206190D02*
X73322238Y58587143D01*
X73322238Y58587143D02*
X73417476Y58777619D01*
X73417476Y58777619D02*
X73607952Y58968095D01*
X73607952Y58968095D02*
X73988904Y59063333D01*
X73988904Y59063333D02*
X74655571Y59063333D01*
X74655571Y59063333D02*
X75036523Y58968095D01*
X75036523Y58968095D02*
X75227000Y58777619D01*
X75227000Y58777619D02*
X75322238Y58587143D01*
X75322238Y58587143D02*
X75322238Y58206190D01*
X75322238Y58206190D02*
X75227000Y58015714D01*
X75227000Y58015714D02*
X75036523Y57825238D01*
X75036523Y57825238D02*
X74655571Y57730000D01*
X74655571Y57730000D02*
X73988904Y57730000D01*
X73988904Y57730000D02*
X73607952Y57825238D01*
X73607952Y57825238D02*
X73417476Y58015714D01*
X73417476Y58015714D02*
X73322238Y58206190D01*
X73322238Y59920476D02*
X74941285Y59920476D01*
X74941285Y59920476D02*
X75131761Y60015714D01*
X75131761Y60015714D02*
X75227000Y60110952D01*
X75227000Y60110952D02*
X75322238Y60301428D01*
X75322238Y60301428D02*
X75322238Y60682381D01*
X75322238Y60682381D02*
X75227000Y60872857D01*
X75227000Y60872857D02*
X75131761Y60968095D01*
X75131761Y60968095D02*
X74941285Y61063333D01*
X74941285Y61063333D02*
X73322238Y61063333D01*
X73322238Y61730000D02*
X73322238Y62872857D01*
X75322238Y62301428D02*
X73322238Y62301428D01*
X74274619Y63539524D02*
X74274619Y64206191D01*
X75322238Y64491905D02*
X75322238Y63539524D01*
X75322238Y63539524D02*
X73322238Y63539524D01*
X73322238Y63539524D02*
X73322238Y64491905D01*
X73322238Y67253810D02*
X73322238Y67634763D01*
X73322238Y67634763D02*
X73417476Y67825239D01*
X73417476Y67825239D02*
X73607952Y68015715D01*
X73607952Y68015715D02*
X73988904Y68110953D01*
X73988904Y68110953D02*
X74655571Y68110953D01*
X74655571Y68110953D02*
X75036523Y68015715D01*
X75036523Y68015715D02*
X75227000Y67825239D01*
X75227000Y67825239D02*
X75322238Y67634763D01*
X75322238Y67634763D02*
X75322238Y67253810D01*
X75322238Y67253810D02*
X75227000Y67063334D01*
X75227000Y67063334D02*
X75036523Y66872858D01*
X75036523Y66872858D02*
X74655571Y66777620D01*
X74655571Y66777620D02*
X73988904Y66777620D01*
X73988904Y66777620D02*
X73607952Y66872858D01*
X73607952Y66872858D02*
X73417476Y67063334D01*
X73417476Y67063334D02*
X73322238Y67253810D01*
X73322238Y68968096D02*
X74941285Y68968096D01*
X74941285Y68968096D02*
X75131761Y69063334D01*
X75131761Y69063334D02*
X75227000Y69158572D01*
X75227000Y69158572D02*
X75322238Y69349048D01*
X75322238Y69349048D02*
X75322238Y69730001D01*
X75322238Y69730001D02*
X75227000Y69920477D01*
X75227000Y69920477D02*
X75131761Y70015715D01*
X75131761Y70015715D02*
X74941285Y70110953D01*
X74941285Y70110953D02*
X73322238Y70110953D01*
X73322238Y70777620D02*
X73322238Y71920477D01*
X75322238Y71349048D02*
X73322238Y71349048D01*
X-1877762Y56968095D02*
X-2830143Y56301428D01*
X-1877762Y55825238D02*
X-3877762Y55825238D01*
X-3877762Y55825238D02*
X-3877762Y56587143D01*
X-3877762Y56587143D02*
X-3782524Y56777619D01*
X-3782524Y56777619D02*
X-3687286Y56872857D01*
X-3687286Y56872857D02*
X-3496810Y56968095D01*
X-3496810Y56968095D02*
X-3211096Y56968095D01*
X-3211096Y56968095D02*
X-3020620Y56872857D01*
X-3020620Y56872857D02*
X-2925381Y56777619D01*
X-2925381Y56777619D02*
X-2830143Y56587143D01*
X-2830143Y56587143D02*
X-2830143Y55825238D01*
X-3877762Y58206190D02*
X-3877762Y58587143D01*
X-3877762Y58587143D02*
X-3782524Y58777619D01*
X-3782524Y58777619D02*
X-3592048Y58968095D01*
X-3592048Y58968095D02*
X-3211096Y59063333D01*
X-3211096Y59063333D02*
X-2544429Y59063333D01*
X-2544429Y59063333D02*
X-2163477Y58968095D01*
X-2163477Y58968095D02*
X-1973000Y58777619D01*
X-1973000Y58777619D02*
X-1877762Y58587143D01*
X-1877762Y58587143D02*
X-1877762Y58206190D01*
X-1877762Y58206190D02*
X-1973000Y58015714D01*
X-1973000Y58015714D02*
X-2163477Y57825238D01*
X-2163477Y57825238D02*
X-2544429Y57730000D01*
X-2544429Y57730000D02*
X-3211096Y57730000D01*
X-3211096Y57730000D02*
X-3592048Y57825238D01*
X-3592048Y57825238D02*
X-3782524Y58015714D01*
X-3782524Y58015714D02*
X-3877762Y58206190D01*
X-3877762Y59920476D02*
X-2258715Y59920476D01*
X-2258715Y59920476D02*
X-2068239Y60015714D01*
X-2068239Y60015714D02*
X-1973000Y60110952D01*
X-1973000Y60110952D02*
X-1877762Y60301428D01*
X-1877762Y60301428D02*
X-1877762Y60682381D01*
X-1877762Y60682381D02*
X-1973000Y60872857D01*
X-1973000Y60872857D02*
X-2068239Y60968095D01*
X-2068239Y60968095D02*
X-2258715Y61063333D01*
X-2258715Y61063333D02*
X-3877762Y61063333D01*
X-3877762Y61730000D02*
X-3877762Y62872857D01*
X-1877762Y62301428D02*
X-3877762Y62301428D01*
X-2925381Y63539524D02*
X-2925381Y64206191D01*
X-1877762Y64491905D02*
X-1877762Y63539524D01*
X-1877762Y63539524D02*
X-3877762Y63539524D01*
X-3877762Y63539524D02*
X-3877762Y64491905D01*
X-3877762Y67253810D02*
X-3877762Y67634763D01*
X-3877762Y67634763D02*
X-3782524Y67825239D01*
X-3782524Y67825239D02*
X-3592048Y68015715D01*
X-3592048Y68015715D02*
X-3211096Y68110953D01*
X-3211096Y68110953D02*
X-2544429Y68110953D01*
X-2544429Y68110953D02*
X-2163477Y68015715D01*
X-2163477Y68015715D02*
X-1973000Y67825239D01*
X-1973000Y67825239D02*
X-1877762Y67634763D01*
X-1877762Y67634763D02*
X-1877762Y67253810D01*
X-1877762Y67253810D02*
X-1973000Y67063334D01*
X-1973000Y67063334D02*
X-2163477Y66872858D01*
X-2163477Y66872858D02*
X-2544429Y66777620D01*
X-2544429Y66777620D02*
X-3211096Y66777620D01*
X-3211096Y66777620D02*
X-3592048Y66872858D01*
X-3592048Y66872858D02*
X-3782524Y67063334D01*
X-3782524Y67063334D02*
X-3877762Y67253810D01*
X-3877762Y68968096D02*
X-2258715Y68968096D01*
X-2258715Y68968096D02*
X-2068239Y69063334D01*
X-2068239Y69063334D02*
X-1973000Y69158572D01*
X-1973000Y69158572D02*
X-1877762Y69349048D01*
X-1877762Y69349048D02*
X-1877762Y69730001D01*
X-1877762Y69730001D02*
X-1973000Y69920477D01*
X-1973000Y69920477D02*
X-2068239Y70015715D01*
X-2068239Y70015715D02*
X-2258715Y70110953D01*
X-2258715Y70110953D02*
X-3877762Y70110953D01*
X-3877762Y70777620D02*
X-3877762Y71920477D01*
X-1877762Y71349048D02*
X-3877762Y71349048D01*
X-28153997Y110517762D02*
X-27487331Y108517762D01*
X-27487331Y108517762D02*
X-26820664Y110517762D01*
X-26153997Y109279667D02*
X-24630187Y109279667D01*
X-23773045Y108613000D02*
X-23487331Y108517762D01*
X-23487331Y108517762D02*
X-23011140Y108517762D01*
X-23011140Y108517762D02*
X-22820664Y108613000D01*
X-22820664Y108613000D02*
X-22725426Y108708239D01*
X-22725426Y108708239D02*
X-22630188Y108898715D01*
X-22630188Y108898715D02*
X-22630188Y109089191D01*
X-22630188Y109089191D02*
X-22725426Y109279667D01*
X-22725426Y109279667D02*
X-22820664Y109374905D01*
X-22820664Y109374905D02*
X-23011140Y109470143D01*
X-23011140Y109470143D02*
X-23392093Y109565381D01*
X-23392093Y109565381D02*
X-23582569Y109660620D01*
X-23582569Y109660620D02*
X-23677807Y109755858D01*
X-23677807Y109755858D02*
X-23773045Y109946334D01*
X-23773045Y109946334D02*
X-23773045Y110136810D01*
X-23773045Y110136810D02*
X-23677807Y110327286D01*
X-23677807Y110327286D02*
X-23582569Y110422524D01*
X-23582569Y110422524D02*
X-23392093Y110517762D01*
X-23392093Y110517762D02*
X-22915902Y110517762D01*
X-22915902Y110517762D02*
X-22630188Y110422524D01*
X-20630188Y108708239D02*
X-20725426Y108613000D01*
X-20725426Y108613000D02*
X-21011140Y108517762D01*
X-21011140Y108517762D02*
X-21201616Y108517762D01*
X-21201616Y108517762D02*
X-21487331Y108613000D01*
X-21487331Y108613000D02*
X-21677807Y108803477D01*
X-21677807Y108803477D02*
X-21773045Y108993953D01*
X-21773045Y108993953D02*
X-21868283Y109374905D01*
X-21868283Y109374905D02*
X-21868283Y109660620D01*
X-21868283Y109660620D02*
X-21773045Y110041572D01*
X-21773045Y110041572D02*
X-21677807Y110232048D01*
X-21677807Y110232048D02*
X-21487331Y110422524D01*
X-21487331Y110422524D02*
X-21201616Y110517762D01*
X-21201616Y110517762D02*
X-21011140Y110517762D01*
X-21011140Y110517762D02*
X-20725426Y110422524D01*
X-20725426Y110422524D02*
X-20630188Y110327286D01*
X-19392093Y110517762D02*
X-19011140Y110517762D01*
X-19011140Y110517762D02*
X-18820664Y110422524D01*
X-18820664Y110422524D02*
X-18630188Y110232048D01*
X-18630188Y110232048D02*
X-18534950Y109851096D01*
X-18534950Y109851096D02*
X-18534950Y109184429D01*
X-18534950Y109184429D02*
X-18630188Y108803477D01*
X-18630188Y108803477D02*
X-18820664Y108613000D01*
X-18820664Y108613000D02*
X-19011140Y108517762D01*
X-19011140Y108517762D02*
X-19392093Y108517762D01*
X-19392093Y108517762D02*
X-19582569Y108613000D01*
X-19582569Y108613000D02*
X-19773045Y108803477D01*
X-19773045Y108803477D02*
X-19868283Y109184429D01*
X-19868283Y109184429D02*
X-19868283Y109851096D01*
X-19868283Y109851096D02*
X-19773045Y110232048D01*
X-19773045Y110232048D02*
X-19582569Y110422524D01*
X-19582569Y110422524D02*
X-19392093Y110517762D01*
X-16534950Y108517762D02*
X-17201617Y109470143D01*
X-17677807Y108517762D02*
X-17677807Y110517762D01*
X-17677807Y110517762D02*
X-16915902Y110517762D01*
X-16915902Y110517762D02*
X-16725426Y110422524D01*
X-16725426Y110422524D02*
X-16630188Y110327286D01*
X-16630188Y110327286D02*
X-16534950Y110136810D01*
X-16534950Y110136810D02*
X-16534950Y109851096D01*
X-16534950Y109851096D02*
X-16630188Y109660620D01*
X-16630188Y109660620D02*
X-16725426Y109565381D01*
X-16725426Y109565381D02*
X-16915902Y109470143D01*
X-16915902Y109470143D02*
X-17677807Y109470143D01*
X-15677807Y109565381D02*
X-15011140Y109565381D01*
X-14725426Y108517762D02*
X-15677807Y108517762D01*
X-15677807Y108517762D02*
X-15677807Y110517762D01*
X-15677807Y110517762D02*
X-14725426Y110517762D01*
X36722238Y56968095D02*
X35769857Y56301428D01*
X36722238Y55825238D02*
X34722238Y55825238D01*
X34722238Y55825238D02*
X34722238Y56587143D01*
X34722238Y56587143D02*
X34817476Y56777619D01*
X34817476Y56777619D02*
X34912714Y56872857D01*
X34912714Y56872857D02*
X35103190Y56968095D01*
X35103190Y56968095D02*
X35388904Y56968095D01*
X35388904Y56968095D02*
X35579380Y56872857D01*
X35579380Y56872857D02*
X35674619Y56777619D01*
X35674619Y56777619D02*
X35769857Y56587143D01*
X35769857Y56587143D02*
X35769857Y55825238D01*
X34722238Y58206190D02*
X34722238Y58587143D01*
X34722238Y58587143D02*
X34817476Y58777619D01*
X34817476Y58777619D02*
X35007952Y58968095D01*
X35007952Y58968095D02*
X35388904Y59063333D01*
X35388904Y59063333D02*
X36055571Y59063333D01*
X36055571Y59063333D02*
X36436523Y58968095D01*
X36436523Y58968095D02*
X36627000Y58777619D01*
X36627000Y58777619D02*
X36722238Y58587143D01*
X36722238Y58587143D02*
X36722238Y58206190D01*
X36722238Y58206190D02*
X36627000Y58015714D01*
X36627000Y58015714D02*
X36436523Y57825238D01*
X36436523Y57825238D02*
X36055571Y57730000D01*
X36055571Y57730000D02*
X35388904Y57730000D01*
X35388904Y57730000D02*
X35007952Y57825238D01*
X35007952Y57825238D02*
X34817476Y58015714D01*
X34817476Y58015714D02*
X34722238Y58206190D01*
X34722238Y59920476D02*
X36341285Y59920476D01*
X36341285Y59920476D02*
X36531761Y60015714D01*
X36531761Y60015714D02*
X36627000Y60110952D01*
X36627000Y60110952D02*
X36722238Y60301428D01*
X36722238Y60301428D02*
X36722238Y60682381D01*
X36722238Y60682381D02*
X36627000Y60872857D01*
X36627000Y60872857D02*
X36531761Y60968095D01*
X36531761Y60968095D02*
X36341285Y61063333D01*
X36341285Y61063333D02*
X34722238Y61063333D01*
X34722238Y61730000D02*
X34722238Y62872857D01*
X36722238Y62301428D02*
X34722238Y62301428D01*
X35674619Y63539524D02*
X35674619Y64206191D01*
X36722238Y64491905D02*
X36722238Y63539524D01*
X36722238Y63539524D02*
X34722238Y63539524D01*
X34722238Y63539524D02*
X34722238Y64491905D01*
X34722238Y67253810D02*
X34722238Y67634763D01*
X34722238Y67634763D02*
X34817476Y67825239D01*
X34817476Y67825239D02*
X35007952Y68015715D01*
X35007952Y68015715D02*
X35388904Y68110953D01*
X35388904Y68110953D02*
X36055571Y68110953D01*
X36055571Y68110953D02*
X36436523Y68015715D01*
X36436523Y68015715D02*
X36627000Y67825239D01*
X36627000Y67825239D02*
X36722238Y67634763D01*
X36722238Y67634763D02*
X36722238Y67253810D01*
X36722238Y67253810D02*
X36627000Y67063334D01*
X36627000Y67063334D02*
X36436523Y66872858D01*
X36436523Y66872858D02*
X36055571Y66777620D01*
X36055571Y66777620D02*
X35388904Y66777620D01*
X35388904Y66777620D02*
X35007952Y66872858D01*
X35007952Y66872858D02*
X34817476Y67063334D01*
X34817476Y67063334D02*
X34722238Y67253810D01*
X34722238Y68968096D02*
X36341285Y68968096D01*
X36341285Y68968096D02*
X36531761Y69063334D01*
X36531761Y69063334D02*
X36627000Y69158572D01*
X36627000Y69158572D02*
X36722238Y69349048D01*
X36722238Y69349048D02*
X36722238Y69730001D01*
X36722238Y69730001D02*
X36627000Y69920477D01*
X36627000Y69920477D02*
X36531761Y70015715D01*
X36531761Y70015715D02*
X36341285Y70110953D01*
X36341285Y70110953D02*
X34722238Y70110953D01*
X34722238Y70777620D02*
X34722238Y71920477D01*
X36722238Y71349048D02*
X34722238Y71349048D01*
M02*
