%TF.GenerationSoftware,KiCad,Pcbnew,7.0.6*%
%TF.CreationDate,2023-09-18T10:41:28-06:00*%
%TF.ProjectId,SparkFun_ESP32_Qwiic_Pro_Mini_panelized,53706172-6b46-4756-9e5f-45535033325f,rev?*%
%TF.SameCoordinates,Original*%
%TF.FileFunction,Soldermask,Bot*%
%TF.FilePolarity,Negative*%
%FSLAX46Y46*%
G04 Gerber Fmt 4.6, Leading zero omitted, Abs format (unit mm)*
G04 Created by KiCad (PCBNEW 7.0.6) date 2023-09-18 10:41:28*
%MOMM*%
%LPD*%
G01*
G04 APERTURE LIST*
G04 Aperture macros list*
%AMRoundRect*
0 Rectangle with rounded corners*
0 $1 Rounding radius*
0 $2 $3 $4 $5 $6 $7 $8 $9 X,Y pos of 4 corners*
0 Add a 4 corners polygon primitive as box body*
4,1,4,$2,$3,$4,$5,$6,$7,$8,$9,$2,$3,0*
0 Add four circle primitives for the rounded corners*
1,1,$1+$1,$2,$3*
1,1,$1+$1,$4,$5*
1,1,$1+$1,$6,$7*
1,1,$1+$1,$8,$9*
0 Add four rect primitives between the rounded corners*
20,1,$1+$1,$2,$3,$4,$5,0*
20,1,$1+$1,$4,$5,$6,$7,0*
20,1,$1+$1,$6,$7,$8,$9,0*
20,1,$1+$1,$8,$9,$2,$3,0*%
G04 Aperture macros list end*
%ADD10RoundRect,0.101600X0.330200X0.635000X-0.330200X0.635000X-0.330200X-0.635000X0.330200X-0.635000X0*%
%ADD11C,2.082800*%
G04 APERTURE END LIST*
%TO.C,JP1*%
G36*
X144121000Y118329500D02*
G01*
X143613000Y118329500D01*
X143613000Y118810500D01*
X144121000Y118810500D01*
X144121000Y118329500D01*
G37*
G36*
X144121000Y100049500D02*
G01*
X143613000Y100049500D01*
X143613000Y100530500D01*
X144121000Y100530500D01*
X144121000Y100049500D01*
G37*
G36*
X144121000Y81769500D02*
G01*
X143613000Y81769500D01*
X143613000Y82250500D01*
X144121000Y82250500D01*
X144121000Y81769500D01*
G37*
G36*
X144121000Y63489500D02*
G01*
X143613000Y63489500D01*
X143613000Y63970500D01*
X144121000Y63970500D01*
X144121000Y63489500D01*
G37*
G36*
X144121000Y45209500D02*
G01*
X143613000Y45209500D01*
X143613000Y45690500D01*
X144121000Y45690500D01*
X144121000Y45209500D01*
G37*
G36*
X144121000Y26929500D02*
G01*
X143613000Y26929500D01*
X143613000Y27410500D01*
X144121000Y27410500D01*
X144121000Y26929500D01*
G37*
G36*
X144121000Y8649500D02*
G01*
X143613000Y8649500D01*
X143613000Y9130500D01*
X144121000Y9130500D01*
X144121000Y8649500D01*
G37*
G36*
X105521000Y118329500D02*
G01*
X105013000Y118329500D01*
X105013000Y118810500D01*
X105521000Y118810500D01*
X105521000Y118329500D01*
G37*
G36*
X105521000Y100049500D02*
G01*
X105013000Y100049500D01*
X105013000Y100530500D01*
X105521000Y100530500D01*
X105521000Y100049500D01*
G37*
G36*
X105521000Y81769500D02*
G01*
X105013000Y81769500D01*
X105013000Y82250500D01*
X105521000Y82250500D01*
X105521000Y81769500D01*
G37*
G36*
X105521000Y63489500D02*
G01*
X105013000Y63489500D01*
X105013000Y63970500D01*
X105521000Y63970500D01*
X105521000Y63489500D01*
G37*
G36*
X105521000Y45209500D02*
G01*
X105013000Y45209500D01*
X105013000Y45690500D01*
X105521000Y45690500D01*
X105521000Y45209500D01*
G37*
G36*
X105521000Y26929500D02*
G01*
X105013000Y26929500D01*
X105013000Y27410500D01*
X105521000Y27410500D01*
X105521000Y26929500D01*
G37*
G36*
X105521000Y8649500D02*
G01*
X105013000Y8649500D01*
X105013000Y9130500D01*
X105521000Y9130500D01*
X105521000Y8649500D01*
G37*
G36*
X66921000Y118329500D02*
G01*
X66413000Y118329500D01*
X66413000Y118810500D01*
X66921000Y118810500D01*
X66921000Y118329500D01*
G37*
G36*
X66921000Y100049500D02*
G01*
X66413000Y100049500D01*
X66413000Y100530500D01*
X66921000Y100530500D01*
X66921000Y100049500D01*
G37*
G36*
X66921000Y81769500D02*
G01*
X66413000Y81769500D01*
X66413000Y82250500D01*
X66921000Y82250500D01*
X66921000Y81769500D01*
G37*
G36*
X66921000Y63489500D02*
G01*
X66413000Y63489500D01*
X66413000Y63970500D01*
X66921000Y63970500D01*
X66921000Y63489500D01*
G37*
G36*
X66921000Y45209500D02*
G01*
X66413000Y45209500D01*
X66413000Y45690500D01*
X66921000Y45690500D01*
X66921000Y45209500D01*
G37*
G36*
X66921000Y26929500D02*
G01*
X66413000Y26929500D01*
X66413000Y27410500D01*
X66921000Y27410500D01*
X66921000Y26929500D01*
G37*
G36*
X66921000Y8649500D02*
G01*
X66413000Y8649500D01*
X66413000Y9130500D01*
X66921000Y9130500D01*
X66921000Y8649500D01*
G37*
G36*
X28321000Y118329500D02*
G01*
X27813000Y118329500D01*
X27813000Y118810500D01*
X28321000Y118810500D01*
X28321000Y118329500D01*
G37*
G36*
X28321000Y100049500D02*
G01*
X27813000Y100049500D01*
X27813000Y100530500D01*
X28321000Y100530500D01*
X28321000Y100049500D01*
G37*
G36*
X28321000Y81769500D02*
G01*
X27813000Y81769500D01*
X27813000Y82250500D01*
X28321000Y82250500D01*
X28321000Y81769500D01*
G37*
G36*
X28321000Y63489500D02*
G01*
X27813000Y63489500D01*
X27813000Y63970500D01*
X28321000Y63970500D01*
X28321000Y63489500D01*
G37*
G36*
X28321000Y45209500D02*
G01*
X27813000Y45209500D01*
X27813000Y45690500D01*
X28321000Y45690500D01*
X28321000Y45209500D01*
G37*
G36*
X28321000Y26929500D02*
G01*
X27813000Y26929500D01*
X27813000Y27410500D01*
X28321000Y27410500D01*
X28321000Y26929500D01*
G37*
G36*
X28321000Y8649500D02*
G01*
X27813000Y8649500D01*
X27813000Y9130500D01*
X28321000Y9130500D01*
X28321000Y8649500D01*
G37*
%TD*%
D10*
%TO.C,JP1*%
X144387700Y118570000D03*
X143346300Y118570000D03*
%TD*%
%TO.C,JP1*%
X144387700Y100290000D03*
X143346300Y100290000D03*
%TD*%
%TO.C,JP1*%
X144387700Y82010000D03*
X143346300Y82010000D03*
%TD*%
%TO.C,JP1*%
X144387700Y63730000D03*
X143346300Y63730000D03*
%TD*%
%TO.C,JP1*%
X144387700Y45450000D03*
X143346300Y45450000D03*
%TD*%
%TO.C,JP1*%
X144387700Y27170000D03*
X143346300Y27170000D03*
%TD*%
%TO.C,JP1*%
X144387700Y8890000D03*
X143346300Y8890000D03*
%TD*%
%TO.C,JP1*%
X105787700Y118570000D03*
X104746300Y118570000D03*
%TD*%
%TO.C,JP1*%
X105787700Y100290000D03*
X104746300Y100290000D03*
%TD*%
%TO.C,JP1*%
X105787700Y82010000D03*
X104746300Y82010000D03*
%TD*%
%TO.C,JP1*%
X105787700Y63730000D03*
X104746300Y63730000D03*
%TD*%
%TO.C,JP1*%
X105787700Y45450000D03*
X104746300Y45450000D03*
%TD*%
%TO.C,JP1*%
X105787700Y27170000D03*
X104746300Y27170000D03*
%TD*%
%TO.C,JP1*%
X105787700Y8890000D03*
X104746300Y8890000D03*
%TD*%
%TO.C,JP1*%
X67187700Y118570000D03*
X66146300Y118570000D03*
%TD*%
%TO.C,JP1*%
X67187700Y100290000D03*
X66146300Y100290000D03*
%TD*%
%TO.C,JP1*%
X67187700Y82010000D03*
X66146300Y82010000D03*
%TD*%
%TO.C,JP1*%
X67187700Y63730000D03*
X66146300Y63730000D03*
%TD*%
%TO.C,JP1*%
X67187700Y45450000D03*
X66146300Y45450000D03*
%TD*%
%TO.C,JP1*%
X67187700Y27170000D03*
X66146300Y27170000D03*
%TD*%
%TO.C,JP1*%
X67187700Y8890000D03*
X66146300Y8890000D03*
%TD*%
%TO.C,JP1*%
X28587700Y118570000D03*
X27546300Y118570000D03*
%TD*%
%TO.C,JP1*%
X28587700Y100290000D03*
X27546300Y100290000D03*
%TD*%
%TO.C,JP1*%
X28587700Y82010000D03*
X27546300Y82010000D03*
%TD*%
%TO.C,JP1*%
X28587700Y63730000D03*
X27546300Y63730000D03*
%TD*%
%TO.C,JP1*%
X28587700Y45450000D03*
X27546300Y45450000D03*
%TD*%
%TO.C,JP1*%
X28587700Y27170000D03*
X27546300Y27170000D03*
%TD*%
D11*
%TO.C,J2*%
X117070000Y110950000D03*
X119610000Y110950000D03*
X122150000Y110950000D03*
X124690000Y110950000D03*
X127230000Y110950000D03*
X129770000Y110950000D03*
X132310000Y110950000D03*
X134850000Y110950000D03*
X137390000Y110950000D03*
X139930000Y110950000D03*
X142470000Y110950000D03*
X145010000Y110950000D03*
%TD*%
%TO.C,J2*%
X117070000Y92670000D03*
X119610000Y92670000D03*
X122150000Y92670000D03*
X124690000Y92670000D03*
X127230000Y92670000D03*
X129770000Y92670000D03*
X132310000Y92670000D03*
X134850000Y92670000D03*
X137390000Y92670000D03*
X139930000Y92670000D03*
X142470000Y92670000D03*
X145010000Y92670000D03*
%TD*%
%TO.C,J2*%
X117070000Y74390000D03*
X119610000Y74390000D03*
X122150000Y74390000D03*
X124690000Y74390000D03*
X127230000Y74390000D03*
X129770000Y74390000D03*
X132310000Y74390000D03*
X134850000Y74390000D03*
X137390000Y74390000D03*
X139930000Y74390000D03*
X142470000Y74390000D03*
X145010000Y74390000D03*
%TD*%
%TO.C,J2*%
X117070000Y56110000D03*
X119610000Y56110000D03*
X122150000Y56110000D03*
X124690000Y56110000D03*
X127230000Y56110000D03*
X129770000Y56110000D03*
X132310000Y56110000D03*
X134850000Y56110000D03*
X137390000Y56110000D03*
X139930000Y56110000D03*
X142470000Y56110000D03*
X145010000Y56110000D03*
%TD*%
%TO.C,J2*%
X117070000Y37830000D03*
X119610000Y37830000D03*
X122150000Y37830000D03*
X124690000Y37830000D03*
X127230000Y37830000D03*
X129770000Y37830000D03*
X132310000Y37830000D03*
X134850000Y37830000D03*
X137390000Y37830000D03*
X139930000Y37830000D03*
X142470000Y37830000D03*
X145010000Y37830000D03*
%TD*%
%TO.C,J2*%
X117070000Y19550000D03*
X119610000Y19550000D03*
X122150000Y19550000D03*
X124690000Y19550000D03*
X127230000Y19550000D03*
X129770000Y19550000D03*
X132310000Y19550000D03*
X134850000Y19550000D03*
X137390000Y19550000D03*
X139930000Y19550000D03*
X142470000Y19550000D03*
X145010000Y19550000D03*
%TD*%
%TO.C,J2*%
X117070000Y1270000D03*
X119610000Y1270000D03*
X122150000Y1270000D03*
X124690000Y1270000D03*
X127230000Y1270000D03*
X129770000Y1270000D03*
X132310000Y1270000D03*
X134850000Y1270000D03*
X137390000Y1270000D03*
X139930000Y1270000D03*
X142470000Y1270000D03*
X145010000Y1270000D03*
%TD*%
%TO.C,J2*%
X78470000Y110950000D03*
X81010000Y110950000D03*
X83550000Y110950000D03*
X86090000Y110950000D03*
X88630000Y110950000D03*
X91170000Y110950000D03*
X93710000Y110950000D03*
X96250000Y110950000D03*
X98790000Y110950000D03*
X101330000Y110950000D03*
X103870000Y110950000D03*
X106410000Y110950000D03*
%TD*%
%TO.C,J2*%
X78470000Y92670000D03*
X81010000Y92670000D03*
X83550000Y92670000D03*
X86090000Y92670000D03*
X88630000Y92670000D03*
X91170000Y92670000D03*
X93710000Y92670000D03*
X96250000Y92670000D03*
X98790000Y92670000D03*
X101330000Y92670000D03*
X103870000Y92670000D03*
X106410000Y92670000D03*
%TD*%
%TO.C,J2*%
X78470000Y74390000D03*
X81010000Y74390000D03*
X83550000Y74390000D03*
X86090000Y74390000D03*
X88630000Y74390000D03*
X91170000Y74390000D03*
X93710000Y74390000D03*
X96250000Y74390000D03*
X98790000Y74390000D03*
X101330000Y74390000D03*
X103870000Y74390000D03*
X106410000Y74390000D03*
%TD*%
%TO.C,J2*%
X78470000Y56110000D03*
X81010000Y56110000D03*
X83550000Y56110000D03*
X86090000Y56110000D03*
X88630000Y56110000D03*
X91170000Y56110000D03*
X93710000Y56110000D03*
X96250000Y56110000D03*
X98790000Y56110000D03*
X101330000Y56110000D03*
X103870000Y56110000D03*
X106410000Y56110000D03*
%TD*%
%TO.C,J2*%
X78470000Y37830000D03*
X81010000Y37830000D03*
X83550000Y37830000D03*
X86090000Y37830000D03*
X88630000Y37830000D03*
X91170000Y37830000D03*
X93710000Y37830000D03*
X96250000Y37830000D03*
X98790000Y37830000D03*
X101330000Y37830000D03*
X103870000Y37830000D03*
X106410000Y37830000D03*
%TD*%
%TO.C,J2*%
X78470000Y19550000D03*
X81010000Y19550000D03*
X83550000Y19550000D03*
X86090000Y19550000D03*
X88630000Y19550000D03*
X91170000Y19550000D03*
X93710000Y19550000D03*
X96250000Y19550000D03*
X98790000Y19550000D03*
X101330000Y19550000D03*
X103870000Y19550000D03*
X106410000Y19550000D03*
%TD*%
%TO.C,J2*%
X78470000Y1270000D03*
X81010000Y1270000D03*
X83550000Y1270000D03*
X86090000Y1270000D03*
X88630000Y1270000D03*
X91170000Y1270000D03*
X93710000Y1270000D03*
X96250000Y1270000D03*
X98790000Y1270000D03*
X101330000Y1270000D03*
X103870000Y1270000D03*
X106410000Y1270000D03*
%TD*%
%TO.C,J2*%
X39870000Y110950000D03*
X42410000Y110950000D03*
X44950000Y110950000D03*
X47490000Y110950000D03*
X50030000Y110950000D03*
X52570000Y110950000D03*
X55110000Y110950000D03*
X57650000Y110950000D03*
X60190000Y110950000D03*
X62730000Y110950000D03*
X65270000Y110950000D03*
X67810000Y110950000D03*
%TD*%
%TO.C,J2*%
X39870000Y92670000D03*
X42410000Y92670000D03*
X44950000Y92670000D03*
X47490000Y92670000D03*
X50030000Y92670000D03*
X52570000Y92670000D03*
X55110000Y92670000D03*
X57650000Y92670000D03*
X60190000Y92670000D03*
X62730000Y92670000D03*
X65270000Y92670000D03*
X67810000Y92670000D03*
%TD*%
%TO.C,J2*%
X39870000Y74390000D03*
X42410000Y74390000D03*
X44950000Y74390000D03*
X47490000Y74390000D03*
X50030000Y74390000D03*
X52570000Y74390000D03*
X55110000Y74390000D03*
X57650000Y74390000D03*
X60190000Y74390000D03*
X62730000Y74390000D03*
X65270000Y74390000D03*
X67810000Y74390000D03*
%TD*%
%TO.C,J2*%
X39870000Y56110000D03*
X42410000Y56110000D03*
X44950000Y56110000D03*
X47490000Y56110000D03*
X50030000Y56110000D03*
X52570000Y56110000D03*
X55110000Y56110000D03*
X57650000Y56110000D03*
X60190000Y56110000D03*
X62730000Y56110000D03*
X65270000Y56110000D03*
X67810000Y56110000D03*
%TD*%
%TO.C,J2*%
X39870000Y37830000D03*
X42410000Y37830000D03*
X44950000Y37830000D03*
X47490000Y37830000D03*
X50030000Y37830000D03*
X52570000Y37830000D03*
X55110000Y37830000D03*
X57650000Y37830000D03*
X60190000Y37830000D03*
X62730000Y37830000D03*
X65270000Y37830000D03*
X67810000Y37830000D03*
%TD*%
%TO.C,J2*%
X39870000Y19550000D03*
X42410000Y19550000D03*
X44950000Y19550000D03*
X47490000Y19550000D03*
X50030000Y19550000D03*
X52570000Y19550000D03*
X55110000Y19550000D03*
X57650000Y19550000D03*
X60190000Y19550000D03*
X62730000Y19550000D03*
X65270000Y19550000D03*
X67810000Y19550000D03*
%TD*%
%TO.C,J2*%
X39870000Y1270000D03*
X42410000Y1270000D03*
X44950000Y1270000D03*
X47490000Y1270000D03*
X50030000Y1270000D03*
X52570000Y1270000D03*
X55110000Y1270000D03*
X57650000Y1270000D03*
X60190000Y1270000D03*
X62730000Y1270000D03*
X65270000Y1270000D03*
X67810000Y1270000D03*
%TD*%
%TO.C,J2*%
X1270000Y110950000D03*
X3810000Y110950000D03*
X6350000Y110950000D03*
X8890000Y110950000D03*
X11430000Y110950000D03*
X13970000Y110950000D03*
X16510000Y110950000D03*
X19050000Y110950000D03*
X21590000Y110950000D03*
X24130000Y110950000D03*
X26670000Y110950000D03*
X29210000Y110950000D03*
%TD*%
%TO.C,J2*%
X1270000Y92670000D03*
X3810000Y92670000D03*
X6350000Y92670000D03*
X8890000Y92670000D03*
X11430000Y92670000D03*
X13970000Y92670000D03*
X16510000Y92670000D03*
X19050000Y92670000D03*
X21590000Y92670000D03*
X24130000Y92670000D03*
X26670000Y92670000D03*
X29210000Y92670000D03*
%TD*%
%TO.C,J2*%
X1270000Y74390000D03*
X3810000Y74390000D03*
X6350000Y74390000D03*
X8890000Y74390000D03*
X11430000Y74390000D03*
X13970000Y74390000D03*
X16510000Y74390000D03*
X19050000Y74390000D03*
X21590000Y74390000D03*
X24130000Y74390000D03*
X26670000Y74390000D03*
X29210000Y74390000D03*
%TD*%
%TO.C,J2*%
X1270000Y56110000D03*
X3810000Y56110000D03*
X6350000Y56110000D03*
X8890000Y56110000D03*
X11430000Y56110000D03*
X13970000Y56110000D03*
X16510000Y56110000D03*
X19050000Y56110000D03*
X21590000Y56110000D03*
X24130000Y56110000D03*
X26670000Y56110000D03*
X29210000Y56110000D03*
%TD*%
%TO.C,J2*%
X1270000Y37830000D03*
X3810000Y37830000D03*
X6350000Y37830000D03*
X8890000Y37830000D03*
X11430000Y37830000D03*
X13970000Y37830000D03*
X16510000Y37830000D03*
X19050000Y37830000D03*
X21590000Y37830000D03*
X24130000Y37830000D03*
X26670000Y37830000D03*
X29210000Y37830000D03*
%TD*%
%TO.C,J2*%
X1270000Y19550000D03*
X3810000Y19550000D03*
X6350000Y19550000D03*
X8890000Y19550000D03*
X11430000Y19550000D03*
X13970000Y19550000D03*
X16510000Y19550000D03*
X19050000Y19550000D03*
X21590000Y19550000D03*
X24130000Y19550000D03*
X26670000Y19550000D03*
X29210000Y19550000D03*
%TD*%
%TO.C,J3*%
X117070000Y126190000D03*
X119610000Y126190000D03*
X122150000Y126190000D03*
X124690000Y126190000D03*
X127230000Y126190000D03*
X129770000Y126190000D03*
X132310000Y126190000D03*
X134850000Y126190000D03*
X137390000Y126190000D03*
X139930000Y126190000D03*
X142470000Y126190000D03*
X145010000Y126190000D03*
%TD*%
%TO.C,J3*%
X117070000Y107910000D03*
X119610000Y107910000D03*
X122150000Y107910000D03*
X124690000Y107910000D03*
X127230000Y107910000D03*
X129770000Y107910000D03*
X132310000Y107910000D03*
X134850000Y107910000D03*
X137390000Y107910000D03*
X139930000Y107910000D03*
X142470000Y107910000D03*
X145010000Y107910000D03*
%TD*%
%TO.C,J3*%
X117070000Y89630000D03*
X119610000Y89630000D03*
X122150000Y89630000D03*
X124690000Y89630000D03*
X127230000Y89630000D03*
X129770000Y89630000D03*
X132310000Y89630000D03*
X134850000Y89630000D03*
X137390000Y89630000D03*
X139930000Y89630000D03*
X142470000Y89630000D03*
X145010000Y89630000D03*
%TD*%
%TO.C,J3*%
X117070000Y71350000D03*
X119610000Y71350000D03*
X122150000Y71350000D03*
X124690000Y71350000D03*
X127230000Y71350000D03*
X129770000Y71350000D03*
X132310000Y71350000D03*
X134850000Y71350000D03*
X137390000Y71350000D03*
X139930000Y71350000D03*
X142470000Y71350000D03*
X145010000Y71350000D03*
%TD*%
%TO.C,J3*%
X117070000Y53070000D03*
X119610000Y53070000D03*
X122150000Y53070000D03*
X124690000Y53070000D03*
X127230000Y53070000D03*
X129770000Y53070000D03*
X132310000Y53070000D03*
X134850000Y53070000D03*
X137390000Y53070000D03*
X139930000Y53070000D03*
X142470000Y53070000D03*
X145010000Y53070000D03*
%TD*%
%TO.C,J3*%
X117070000Y34790000D03*
X119610000Y34790000D03*
X122150000Y34790000D03*
X124690000Y34790000D03*
X127230000Y34790000D03*
X129770000Y34790000D03*
X132310000Y34790000D03*
X134850000Y34790000D03*
X137390000Y34790000D03*
X139930000Y34790000D03*
X142470000Y34790000D03*
X145010000Y34790000D03*
%TD*%
%TO.C,J3*%
X117070000Y16510000D03*
X119610000Y16510000D03*
X122150000Y16510000D03*
X124690000Y16510000D03*
X127230000Y16510000D03*
X129770000Y16510000D03*
X132310000Y16510000D03*
X134850000Y16510000D03*
X137390000Y16510000D03*
X139930000Y16510000D03*
X142470000Y16510000D03*
X145010000Y16510000D03*
%TD*%
%TO.C,J3*%
X78470000Y126190000D03*
X81010000Y126190000D03*
X83550000Y126190000D03*
X86090000Y126190000D03*
X88630000Y126190000D03*
X91170000Y126190000D03*
X93710000Y126190000D03*
X96250000Y126190000D03*
X98790000Y126190000D03*
X101330000Y126190000D03*
X103870000Y126190000D03*
X106410000Y126190000D03*
%TD*%
%TO.C,J3*%
X78470000Y107910000D03*
X81010000Y107910000D03*
X83550000Y107910000D03*
X86090000Y107910000D03*
X88630000Y107910000D03*
X91170000Y107910000D03*
X93710000Y107910000D03*
X96250000Y107910000D03*
X98790000Y107910000D03*
X101330000Y107910000D03*
X103870000Y107910000D03*
X106410000Y107910000D03*
%TD*%
%TO.C,J3*%
X78470000Y89630000D03*
X81010000Y89630000D03*
X83550000Y89630000D03*
X86090000Y89630000D03*
X88630000Y89630000D03*
X91170000Y89630000D03*
X93710000Y89630000D03*
X96250000Y89630000D03*
X98790000Y89630000D03*
X101330000Y89630000D03*
X103870000Y89630000D03*
X106410000Y89630000D03*
%TD*%
%TO.C,J3*%
X78470000Y71350000D03*
X81010000Y71350000D03*
X83550000Y71350000D03*
X86090000Y71350000D03*
X88630000Y71350000D03*
X91170000Y71350000D03*
X93710000Y71350000D03*
X96250000Y71350000D03*
X98790000Y71350000D03*
X101330000Y71350000D03*
X103870000Y71350000D03*
X106410000Y71350000D03*
%TD*%
%TO.C,J3*%
X78470000Y53070000D03*
X81010000Y53070000D03*
X83550000Y53070000D03*
X86090000Y53070000D03*
X88630000Y53070000D03*
X91170000Y53070000D03*
X93710000Y53070000D03*
X96250000Y53070000D03*
X98790000Y53070000D03*
X101330000Y53070000D03*
X103870000Y53070000D03*
X106410000Y53070000D03*
%TD*%
%TO.C,J3*%
X78470000Y34790000D03*
X81010000Y34790000D03*
X83550000Y34790000D03*
X86090000Y34790000D03*
X88630000Y34790000D03*
X91170000Y34790000D03*
X93710000Y34790000D03*
X96250000Y34790000D03*
X98790000Y34790000D03*
X101330000Y34790000D03*
X103870000Y34790000D03*
X106410000Y34790000D03*
%TD*%
%TO.C,J3*%
X78470000Y16510000D03*
X81010000Y16510000D03*
X83550000Y16510000D03*
X86090000Y16510000D03*
X88630000Y16510000D03*
X91170000Y16510000D03*
X93710000Y16510000D03*
X96250000Y16510000D03*
X98790000Y16510000D03*
X101330000Y16510000D03*
X103870000Y16510000D03*
X106410000Y16510000D03*
%TD*%
%TO.C,J3*%
X39870000Y126190000D03*
X42410000Y126190000D03*
X44950000Y126190000D03*
X47490000Y126190000D03*
X50030000Y126190000D03*
X52570000Y126190000D03*
X55110000Y126190000D03*
X57650000Y126190000D03*
X60190000Y126190000D03*
X62730000Y126190000D03*
X65270000Y126190000D03*
X67810000Y126190000D03*
%TD*%
%TO.C,J3*%
X39870000Y107910000D03*
X42410000Y107910000D03*
X44950000Y107910000D03*
X47490000Y107910000D03*
X50030000Y107910000D03*
X52570000Y107910000D03*
X55110000Y107910000D03*
X57650000Y107910000D03*
X60190000Y107910000D03*
X62730000Y107910000D03*
X65270000Y107910000D03*
X67810000Y107910000D03*
%TD*%
%TO.C,J3*%
X39870000Y89630000D03*
X42410000Y89630000D03*
X44950000Y89630000D03*
X47490000Y89630000D03*
X50030000Y89630000D03*
X52570000Y89630000D03*
X55110000Y89630000D03*
X57650000Y89630000D03*
X60190000Y89630000D03*
X62730000Y89630000D03*
X65270000Y89630000D03*
X67810000Y89630000D03*
%TD*%
%TO.C,J3*%
X39870000Y71350000D03*
X42410000Y71350000D03*
X44950000Y71350000D03*
X47490000Y71350000D03*
X50030000Y71350000D03*
X52570000Y71350000D03*
X55110000Y71350000D03*
X57650000Y71350000D03*
X60190000Y71350000D03*
X62730000Y71350000D03*
X65270000Y71350000D03*
X67810000Y71350000D03*
%TD*%
%TO.C,J3*%
X39870000Y53070000D03*
X42410000Y53070000D03*
X44950000Y53070000D03*
X47490000Y53070000D03*
X50030000Y53070000D03*
X52570000Y53070000D03*
X55110000Y53070000D03*
X57650000Y53070000D03*
X60190000Y53070000D03*
X62730000Y53070000D03*
X65270000Y53070000D03*
X67810000Y53070000D03*
%TD*%
%TO.C,J3*%
X39870000Y34790000D03*
X42410000Y34790000D03*
X44950000Y34790000D03*
X47490000Y34790000D03*
X50030000Y34790000D03*
X52570000Y34790000D03*
X55110000Y34790000D03*
X57650000Y34790000D03*
X60190000Y34790000D03*
X62730000Y34790000D03*
X65270000Y34790000D03*
X67810000Y34790000D03*
%TD*%
%TO.C,J3*%
X39870000Y16510000D03*
X42410000Y16510000D03*
X44950000Y16510000D03*
X47490000Y16510000D03*
X50030000Y16510000D03*
X52570000Y16510000D03*
X55110000Y16510000D03*
X57650000Y16510000D03*
X60190000Y16510000D03*
X62730000Y16510000D03*
X65270000Y16510000D03*
X67810000Y16510000D03*
%TD*%
%TO.C,J3*%
X1270000Y126190000D03*
X3810000Y126190000D03*
X6350000Y126190000D03*
X8890000Y126190000D03*
X11430000Y126190000D03*
X13970000Y126190000D03*
X16510000Y126190000D03*
X19050000Y126190000D03*
X21590000Y126190000D03*
X24130000Y126190000D03*
X26670000Y126190000D03*
X29210000Y126190000D03*
%TD*%
%TO.C,J3*%
X1270000Y107910000D03*
X3810000Y107910000D03*
X6350000Y107910000D03*
X8890000Y107910000D03*
X11430000Y107910000D03*
X13970000Y107910000D03*
X16510000Y107910000D03*
X19050000Y107910000D03*
X21590000Y107910000D03*
X24130000Y107910000D03*
X26670000Y107910000D03*
X29210000Y107910000D03*
%TD*%
%TO.C,J3*%
X1270000Y89630000D03*
X3810000Y89630000D03*
X6350000Y89630000D03*
X8890000Y89630000D03*
X11430000Y89630000D03*
X13970000Y89630000D03*
X16510000Y89630000D03*
X19050000Y89630000D03*
X21590000Y89630000D03*
X24130000Y89630000D03*
X26670000Y89630000D03*
X29210000Y89630000D03*
%TD*%
%TO.C,J3*%
X1270000Y71350000D03*
X3810000Y71350000D03*
X6350000Y71350000D03*
X8890000Y71350000D03*
X11430000Y71350000D03*
X13970000Y71350000D03*
X16510000Y71350000D03*
X19050000Y71350000D03*
X21590000Y71350000D03*
X24130000Y71350000D03*
X26670000Y71350000D03*
X29210000Y71350000D03*
%TD*%
%TO.C,J3*%
X1270000Y53070000D03*
X3810000Y53070000D03*
X6350000Y53070000D03*
X8890000Y53070000D03*
X11430000Y53070000D03*
X13970000Y53070000D03*
X16510000Y53070000D03*
X19050000Y53070000D03*
X21590000Y53070000D03*
X24130000Y53070000D03*
X26670000Y53070000D03*
X29210000Y53070000D03*
%TD*%
%TO.C,J3*%
X1270000Y34790000D03*
X3810000Y34790000D03*
X6350000Y34790000D03*
X8890000Y34790000D03*
X11430000Y34790000D03*
X13970000Y34790000D03*
X16510000Y34790000D03*
X19050000Y34790000D03*
X21590000Y34790000D03*
X24130000Y34790000D03*
X26670000Y34790000D03*
X29210000Y34790000D03*
%TD*%
%TO.C,J1*%
X147550000Y112220000D03*
X147550000Y114760000D03*
X147550000Y117300000D03*
X147550000Y119840000D03*
X147550000Y122380000D03*
X147550000Y124920000D03*
%TD*%
%TO.C,J1*%
X147550000Y93940000D03*
X147550000Y96480000D03*
X147550000Y99020000D03*
X147550000Y101560000D03*
X147550000Y104100000D03*
X147550000Y106640000D03*
%TD*%
%TO.C,J1*%
X147550000Y75660000D03*
X147550000Y78200000D03*
X147550000Y80740000D03*
X147550000Y83280000D03*
X147550000Y85820000D03*
X147550000Y88360000D03*
%TD*%
%TO.C,J1*%
X147550000Y57380000D03*
X147550000Y59920000D03*
X147550000Y62460000D03*
X147550000Y65000000D03*
X147550000Y67540000D03*
X147550000Y70080000D03*
%TD*%
%TO.C,J1*%
X147550000Y39100000D03*
X147550000Y41640000D03*
X147550000Y44180000D03*
X147550000Y46720000D03*
X147550000Y49260000D03*
X147550000Y51800000D03*
%TD*%
%TO.C,J1*%
X147550000Y20820000D03*
X147550000Y23360000D03*
X147550000Y25900000D03*
X147550000Y28440000D03*
X147550000Y30980000D03*
X147550000Y33520000D03*
%TD*%
%TO.C,J1*%
X147550000Y2540000D03*
X147550000Y5080000D03*
X147550000Y7620000D03*
X147550000Y10160000D03*
X147550000Y12700000D03*
X147550000Y15240000D03*
%TD*%
%TO.C,J1*%
X108950000Y112220000D03*
X108950000Y114760000D03*
X108950000Y117300000D03*
X108950000Y119840000D03*
X108950000Y122380000D03*
X108950000Y124920000D03*
%TD*%
%TO.C,J1*%
X108950000Y93940000D03*
X108950000Y96480000D03*
X108950000Y99020000D03*
X108950000Y101560000D03*
X108950000Y104100000D03*
X108950000Y106640000D03*
%TD*%
%TO.C,J1*%
X108950000Y75660000D03*
X108950000Y78200000D03*
X108950000Y80740000D03*
X108950000Y83280000D03*
X108950000Y85820000D03*
X108950000Y88360000D03*
%TD*%
%TO.C,J1*%
X108950000Y57380000D03*
X108950000Y59920000D03*
X108950000Y62460000D03*
X108950000Y65000000D03*
X108950000Y67540000D03*
X108950000Y70080000D03*
%TD*%
%TO.C,J1*%
X108950000Y39100000D03*
X108950000Y41640000D03*
X108950000Y44180000D03*
X108950000Y46720000D03*
X108950000Y49260000D03*
X108950000Y51800000D03*
%TD*%
%TO.C,J1*%
X108950000Y20820000D03*
X108950000Y23360000D03*
X108950000Y25900000D03*
X108950000Y28440000D03*
X108950000Y30980000D03*
X108950000Y33520000D03*
%TD*%
%TO.C,J1*%
X108950000Y2540000D03*
X108950000Y5080000D03*
X108950000Y7620000D03*
X108950000Y10160000D03*
X108950000Y12700000D03*
X108950000Y15240000D03*
%TD*%
%TO.C,J1*%
X70350000Y112220000D03*
X70350000Y114760000D03*
X70350000Y117300000D03*
X70350000Y119840000D03*
X70350000Y122380000D03*
X70350000Y124920000D03*
%TD*%
%TO.C,J1*%
X70350000Y93940000D03*
X70350000Y96480000D03*
X70350000Y99020000D03*
X70350000Y101560000D03*
X70350000Y104100000D03*
X70350000Y106640000D03*
%TD*%
%TO.C,J1*%
X70350000Y75660000D03*
X70350000Y78200000D03*
X70350000Y80740000D03*
X70350000Y83280000D03*
X70350000Y85820000D03*
X70350000Y88360000D03*
%TD*%
%TO.C,J1*%
X70350000Y57380000D03*
X70350000Y59920000D03*
X70350000Y62460000D03*
X70350000Y65000000D03*
X70350000Y67540000D03*
X70350000Y70080000D03*
%TD*%
%TO.C,J1*%
X70350000Y39100000D03*
X70350000Y41640000D03*
X70350000Y44180000D03*
X70350000Y46720000D03*
X70350000Y49260000D03*
X70350000Y51800000D03*
%TD*%
%TO.C,J1*%
X70350000Y20820000D03*
X70350000Y23360000D03*
X70350000Y25900000D03*
X70350000Y28440000D03*
X70350000Y30980000D03*
X70350000Y33520000D03*
%TD*%
%TO.C,J1*%
X70350000Y2540000D03*
X70350000Y5080000D03*
X70350000Y7620000D03*
X70350000Y10160000D03*
X70350000Y12700000D03*
X70350000Y15240000D03*
%TD*%
%TO.C,J1*%
X31750000Y112220000D03*
X31750000Y114760000D03*
X31750000Y117300000D03*
X31750000Y119840000D03*
X31750000Y122380000D03*
X31750000Y124920000D03*
%TD*%
%TO.C,J1*%
X31750000Y93940000D03*
X31750000Y96480000D03*
X31750000Y99020000D03*
X31750000Y101560000D03*
X31750000Y104100000D03*
X31750000Y106640000D03*
%TD*%
%TO.C,J1*%
X31750000Y75660000D03*
X31750000Y78200000D03*
X31750000Y80740000D03*
X31750000Y83280000D03*
X31750000Y85820000D03*
X31750000Y88360000D03*
%TD*%
%TO.C,J1*%
X31750000Y57380000D03*
X31750000Y59920000D03*
X31750000Y62460000D03*
X31750000Y65000000D03*
X31750000Y67540000D03*
X31750000Y70080000D03*
%TD*%
%TO.C,J1*%
X31750000Y39100000D03*
X31750000Y41640000D03*
X31750000Y44180000D03*
X31750000Y46720000D03*
X31750000Y49260000D03*
X31750000Y51800000D03*
%TD*%
%TO.C,J1*%
X31750000Y20820000D03*
X31750000Y23360000D03*
X31750000Y25900000D03*
X31750000Y28440000D03*
X31750000Y30980000D03*
X31750000Y33520000D03*
%TD*%
%TO.C,J1*%
X31750000Y2540000D03*
X31750000Y5080000D03*
X31750000Y7620000D03*
X31750000Y10160000D03*
X31750000Y12700000D03*
X31750000Y15240000D03*
%TD*%
%TO.C,J3*%
X1270000Y16510000D03*
X3810000Y16510000D03*
X6350000Y16510000D03*
X8890000Y16510000D03*
X11430000Y16510000D03*
X13970000Y16510000D03*
X16510000Y16510000D03*
X19050000Y16510000D03*
X21590000Y16510000D03*
X24130000Y16510000D03*
X26670000Y16510000D03*
X29210000Y16510000D03*
%TD*%
%TO.C,J2*%
X1270000Y1270000D03*
X3810000Y1270000D03*
X6350000Y1270000D03*
X8890000Y1270000D03*
X11430000Y1270000D03*
X13970000Y1270000D03*
X16510000Y1270000D03*
X19050000Y1270000D03*
X21590000Y1270000D03*
X24130000Y1270000D03*
X26670000Y1270000D03*
X29210000Y1270000D03*
%TD*%
D10*
%TO.C,JP1*%
X28587700Y8890000D03*
X27546300Y8890000D03*
%TD*%
M02*
